<svg width="69" height="69" viewBox="0 0 69 69" fill="none" xmlns="http://www.w3.org/2000/svg">
<path d="M20.4371 15.955C20.3815 16.1093 20.3756 16.2775 20.4202 16.4354C20.4648 16.5934 20.5576 16.733 20.6854 16.8344L27.9612 22.1108L25.2048 30.6535C25.1493 30.8078 25.1434 30.976 25.188 31.1339C25.2326 31.2919 25.3254 31.4315 25.4532 31.5329C25.5109 31.5917 25.5795 31.6385 25.6552 31.6703C25.7308 31.7022 25.812 31.7187 25.8939 31.7187C25.9759 31.7187 26.057 31.7022 26.1327 31.6703C26.2083 31.6385 26.277 31.5917 26.3347 31.5329L33.6105 26.2565L40.8739 31.5329C40.9316 31.5917 41.0003 31.6385 41.0759 31.6703C41.1516 31.7022 41.2327 31.7187 41.3147 31.7187C41.3966 31.7187 41.4778 31.7022 41.5534 31.6703C41.6291 31.6385 41.6977 31.5917 41.7554 31.5329C41.8832 31.4315 41.976 31.2919 42.0206 31.1339C42.0652 30.976 42.0593 30.8078 42.0038 30.6535L39.2598 22.1108L46.5356 16.8344C46.6634 16.733 46.7562 16.5934 46.8008 16.4354C46.8454 16.2775 46.8395 16.1093 46.7839 15.955C46.7402 15.7921 46.639 15.651 46.4994 15.5584C46.3599 15.4658 46.1917 15.4282 46.0266 15.4525H37.0001L34.2934 6.90974C34.2496 6.74682 34.1484 6.60575 34.0089 6.51317C33.8694 6.42059 33.7011 6.38291 33.536 6.40724C33.3778 6.4119 33.224 6.4615 33.0923 6.55036C32.9605 6.63921 32.8562 6.76374 32.791 6.90974L30.3078 15.4525H21.2814C21.1107 15.4599 20.9445 15.5096 20.7973 15.5972C20.6501 15.6848 20.5264 15.8077 20.4371 15.955ZM30.7176 17.0856C30.8779 17.0833 31.0344 17.0348 31.1685 16.9458C31.3026 16.8568 31.4089 16.731 31.4749 16.5831L33.7347 9.79921L35.982 16.5831C36.0303 16.7433 36.1325 16.8812 36.2708 16.973C36.4092 17.0648 36.575 17.1047 36.7394 17.0856H43.891L38.1175 21.2313C37.7451 21.4826 37.6209 21.7339 37.7451 22.1108L40.0048 28.8947L34.2934 24.749C34.2357 24.6901 34.167 24.6433 34.0914 24.6114C34.0157 24.5795 33.9346 24.5631 33.8526 24.5631C33.7707 24.5631 33.6895 24.5795 33.6139 24.6114C33.5382 24.6433 33.4696 24.6901 33.4118 24.749L27.6508 28.8947L29.9105 22.1108C29.9667 21.9553 29.9717 21.7857 29.9247 21.6272C29.8777 21.4687 29.7813 21.3298 29.6498 21.2313L23.8887 17.0856H30.7176Z" fill="#00227B"/>
<path d="M58.3066 47.4877C59.2688 46.9008 60.0641 46.0714 60.6146 45.0805C61.1652 44.0896 61.4523 42.9712 61.4478 41.8344C61.4604 40.6581 61.1682 39.499 60.6003 38.4724C60.0324 37.4459 59.2086 36.5879 58.211 35.9837C57.2134 35.3795 56.0768 35.0504 54.9144 35.0289C53.7519 35.0075 52.6042 35.2946 51.5855 35.8617C50.5668 36.4287 49.7128 37.2558 49.1083 38.2607C48.5039 39.2657 48.1701 40.4133 48.1404 41.5893C48.1107 42.7653 48.3859 43.9287 48.9388 44.9635C49.4917 45.9984 50.3028 46.8687 51.2915 47.4877C49.4491 48.0218 47.7539 48.9803 46.3387 50.288C44.9235 51.5957 43.8266 53.2171 43.1342 55.0254C41.5776 53.3027 39.5856 52.043 37.3731 51.3821C38.3313 50.7919 39.1228 49.9614 39.6709 48.971C40.2191 47.9807 40.5053 46.8639 40.502 45.7288C40.5145 44.5525 40.2223 43.3934 39.6544 42.3669C39.0865 41.3404 38.2628 40.4823 37.2652 39.8782C36.2676 39.274 35.1309 38.9448 33.9685 38.9234C32.806 38.902 31.6583 39.1891 30.6396 39.7561C29.621 40.3232 28.7669 41.1503 28.1624 42.1552C27.558 43.1601 27.2243 44.3077 27.1945 45.4837C27.1648 46.6598 27.44 47.8231 27.9929 48.858C28.5458 49.8929 29.357 50.7631 30.3456 51.3821C28.3166 52.018 26.4685 53.1383 24.9571 54.6485C24.2197 52.9314 23.1177 51.3996 21.7293 50.162C20.341 48.9244 18.7003 48.0114 16.9239 47.4877C17.8861 46.9008 18.6813 46.0714 19.2319 45.0805C19.7825 44.0896 20.0696 42.9712 20.0651 41.8344C20.0777 40.6581 19.7855 39.499 19.2176 38.4724C18.6497 37.4459 17.8259 36.5879 16.8283 35.9837C15.8307 35.3795 14.6941 35.0504 13.5317 35.0289C12.3692 35.0075 11.2215 35.2946 10.2028 35.8617C9.18412 36.4287 8.33004 37.2558 7.72559 38.2607C7.12115 39.2657 6.78743 40.4133 6.75769 41.5893C6.72795 42.7653 7.00322 43.9287 7.55609 44.9635C8.10895 45.9984 8.92012 46.8687 9.9088 47.4877C7.32597 48.2545 5.05479 49.8403 3.42976 52.0115C1.80473 54.1827 0.911736 56.8246 0.882324 59.5479C0.908018 61.2589 1.20136 62.955 1.75144 64.5731C1.81868 64.7201 1.92529 64.8451 2.05916 64.9339C2.19302 65.0227 2.34879 65.0718 2.50882 65.0756H21.4433C21.5239 66.2523 21.823 67.403 22.3249 68.4676C22.39 68.6136 22.4944 68.7381 22.6261 68.827C22.7578 68.9158 22.9116 68.9654 23.0698 68.9701H44.8972C45.0555 68.9654 45.2093 68.9158 45.341 68.827C45.4727 68.7381 45.5771 68.6136 45.6422 68.4676C46.0665 67.3758 46.3624 66.2373 46.5238 65.0756H65.9549C66.1149 65.0718 66.2707 65.0227 66.4046 64.9339C66.5384 64.8451 66.645 64.7201 66.7123 64.5731C67.3322 62.974 67.6278 61.265 67.5814 59.5479C67.4566 56.8144 66.4978 54.1871 64.8369 52.0274C63.1761 49.8678 60.8947 48.2818 58.3066 47.4877ZM56.8043 55.0254L54.7928 57.0354L52.7939 55.0254L54.7928 50.0002L56.8043 55.0254ZM49.6526 41.96C49.6657 40.5893 50.213 39.2793 51.1756 38.3148C52.1382 37.3503 53.4381 36.8092 54.7928 36.8093C56.1429 36.8093 57.4378 37.3519 58.3924 38.3179C59.3471 39.2838 59.8834 40.5939 59.8834 41.96C59.8834 43.3261 59.3471 44.6362 58.3924 45.6021C57.4378 46.5681 56.1429 47.1108 54.7928 47.1108C53.4381 47.1108 52.1382 46.5698 51.1756 45.6052C50.213 44.6407 49.6657 43.3307 49.6526 41.96ZM35.7342 58.9198L33.7352 60.9299L31.7238 58.9198L33.7352 53.8947L35.7342 58.9198ZM28.595 45.8545C28.595 44.4751 29.1365 43.1522 30.1005 42.1768C31.0645 41.2014 32.3719 40.6535 33.7352 40.6535C35.0985 40.6535 36.4059 41.2014 37.3699 42.1768C38.3339 43.1522 38.8755 44.4751 38.8755 45.8545C38.8788 46.5361 38.7478 47.2116 38.4901 47.8413C38.2323 48.4711 37.853 49.0424 37.3744 49.5221C36.8957 50.0017 36.3273 50.3799 35.7024 50.6346C35.0776 50.8893 34.4088 51.0153 33.7352 51.0052C32.393 50.9649 31.116 50.4108 30.1619 49.4548C29.2079 48.4988 28.6478 47.2121 28.595 45.8545ZM15.1732 55.0254L13.1866 57.0354L11.1877 55.0254L13.1866 50.0002L15.1732 55.0254ZM8.14572 41.96C8.21064 40.6232 8.78119 39.3628 9.73922 38.4399C10.6973 37.517 11.9694 37.0023 13.2922 37.0023C14.615 37.0023 15.8871 37.517 16.8451 38.4399C17.8032 39.3628 18.3737 40.6232 18.4386 41.96C18.442 42.6427 18.3106 43.3192 18.0521 43.9498C17.7936 44.5804 17.4132 45.1524 16.9332 45.6322C16.4532 46.112 15.8833 46.4899 15.257 46.7438C14.6307 46.9977 13.9606 47.1225 13.286 47.1108C11.9381 47.0885 10.6508 46.5403 9.69294 45.5805C8.73509 44.6207 8.18077 43.3235 8.14572 41.96ZM2.26051 59.5479C2.276 56.8292 3.28108 54.2116 5.08367 52.1953C6.88627 50.1791 9.35996 48.9056 12.032 48.6183L9.54875 54.8997C9.50681 55.0475 9.4973 55.2028 9.5209 55.3547C9.54449 55.5066 9.60059 55.6514 9.6853 55.7791L12.5658 58.6686C12.729 58.7919 12.9271 58.8586 13.1308 58.8586C13.3344 58.8586 13.5326 58.7919 13.6957 58.6686L16.5762 55.7791C16.688 55.6658 16.7606 55.5189 16.7829 55.3603C16.8053 55.2018 16.7764 55.0402 16.7004 54.8997L14.2172 48.6183C16.2956 48.8508 18.2677 49.6687 19.9095 50.979C21.5513 52.2893 22.7968 54.0394 23.5044 56.0304C21.9532 58.1828 21.1183 60.7785 21.1205 63.4424H19.8789V59.5479C19.8789 59.3447 19.7991 59.1498 19.6571 59.0061C19.515 58.8623 19.3224 58.7816 19.1215 58.7816C18.9206 58.7816 18.728 58.8623 18.586 59.0061C18.4439 59.1498 18.3641 59.3447 18.3641 59.5479V63.4424H8.20781V59.5479C8.19347 59.3528 8.11037 59.1694 7.97364 59.0311C7.83692 58.8928 7.65566 58.8087 7.46284 58.7942C7.26781 58.8058 7.08356 58.8886 6.94428 59.0272C6.805 59.1658 6.72015 59.3508 6.70546 59.5479V63.4424H3.00548C2.43858 62.2279 2.18241 60.8888 2.26051 59.5479ZM44.1399 67.4625H40.502V63.5681C40.4784 63.3833 40.3892 63.2135 40.251 63.0905C40.1127 62.9675 39.9349 62.8997 39.7508 62.8997C39.5667 62.8997 39.3889 62.9675 39.2506 63.0905C39.1124 63.2135 39.0231 63.3833 38.9996 63.5681V67.4625H28.8433V63.5681C28.8286 63.3709 28.7437 63.1859 28.6045 63.0473C28.4652 62.9087 28.2809 62.8259 28.0859 62.8143C27.8931 62.8288 27.7118 62.9129 27.5751 63.0512C27.4384 63.1896 27.3553 63.373 27.3409 63.5681V67.4625H23.703C23.2958 66.2049 23.0823 64.8914 23.0698 63.5681C23.0884 60.8482 24.0961 58.2304 25.9008 56.2144C27.7054 54.1985 30.1805 52.9255 32.8537 52.6384L30.3705 58.9198C30.3299 59.0671 30.32 59.2213 30.3414 59.3727C30.3628 59.5241 30.415 59.6693 30.4946 59.7992L33.3751 62.6886C33.5383 62.812 33.7364 62.8787 33.9401 62.8787C34.1437 62.8787 34.3419 62.812 34.505 62.6886L37.3979 59.7992C37.5098 59.6859 37.5823 59.5389 37.6047 59.3804C37.627 59.2219 37.5981 59.0603 37.5221 58.9198L35.0389 52.6384C37.7109 52.9257 40.1846 54.1991 41.9872 56.2154C43.7898 58.2316 44.7948 60.8493 44.8103 63.5681C44.7699 64.8918 44.5442 66.2029 44.1399 67.4625ZM65.0733 63.4424H61.4478V59.5479C61.4478 59.3447 61.368 59.1498 61.226 59.0061C61.084 58.8623 60.8913 58.7816 60.6905 58.7816C60.4896 58.7816 60.297 58.8623 60.1549 59.0061C60.0129 59.1498 59.9331 59.3447 59.9331 59.5479V63.4424H49.7768V59.5479C49.7532 59.3632 49.664 59.1935 49.5258 59.0704C49.3875 58.9474 49.2097 58.8795 49.0256 58.8795C48.8415 58.8795 48.6637 58.9474 48.5254 59.0704C48.3872 59.1935 48.2979 59.3632 48.2744 59.5479V63.4424H46.5238C46.5272 60.9724 45.7818 58.5608 44.3882 56.5329C45.0031 54.4173 46.2265 52.5348 47.9025 51.1253C49.5786 49.7158 51.6315 48.8431 53.7996 48.6183L51.3164 54.8997C51.2726 55.0466 51.2611 55.2014 51.2825 55.3533C51.304 55.5051 51.3579 55.6505 51.4405 55.7791L54.321 58.6686C54.4842 58.7919 54.6823 58.8586 54.886 58.8586C55.0896 58.8586 55.2878 58.7919 55.4509 58.6686L58.3314 55.7791C58.4432 55.6658 58.5158 55.5189 58.5381 55.3603C58.5605 55.2018 58.5316 55.0402 58.4556 54.8997L55.9724 48.6183C58.6466 48.9027 61.1233 50.1749 62.9284 52.1914C64.7336 54.208 65.7404 56.8272 65.7562 59.5479C65.7998 60.8801 65.5671 62.2067 65.0733 63.4424Z" fill="#00227B"/>
<path d="M6.89064 14.824C7.96897 14.8141 9.02027 14.4814 9.91211 13.8681C10.804 13.2547 11.4964 12.388 11.9023 11.3771C12.3082 10.3662 12.4093 9.25642 12.1929 8.18749C11.9766 7.11857 11.4524 6.13833 10.6864 5.37029C9.92048 4.60226 8.947 4.08076 7.88865 3.87152C6.8303 3.66227 5.73441 3.77463 4.73905 4.19444C3.7437 4.61425 2.89341 5.32275 2.29528 6.23065C1.69716 7.13854 1.37797 8.20521 1.37793 9.29632C1.39744 10.7649 1.98605 12.167 3.01709 13.2008C4.04812 14.2347 5.43911 14.8175 6.89064 14.824ZM6.89064 5.40188C7.65027 5.40932 8.39074 5.64402 9.01878 6.07645C9.64682 6.50888 10.1344 7.11966 10.42 7.8319C10.7056 8.54415 10.7765 9.32602 10.6238 10.079C10.4711 10.8319 10.1016 11.5223 9.5619 12.0632C9.02216 12.6041 8.33631 12.9713 7.59071 13.1185C6.84512 13.2657 6.07314 13.1865 5.372 12.8906C4.67086 12.5948 4.07191 12.0956 3.6506 11.456C3.22929 10.8164 3.00447 10.065 3.00443 9.29632C3.01425 8.25999 3.42801 7.26949 4.15576 6.5402C4.88351 5.8109 5.86637 5.40183 6.89064 5.40188Z" fill="#00227B"/>
<path d="M61.82 27.3872C62.751 27.3773 63.6582 27.0889 64.4276 26.5583C65.1969 26.0278 65.7939 25.2788 66.1434 24.4057C66.4929 23.5325 66.5793 22.5743 66.3916 21.6516C66.204 20.7289 65.7508 19.883 65.089 19.2204C64.4273 18.5577 63.5865 18.108 62.6727 17.9278C61.7588 17.7477 60.8128 17.8451 59.9535 18.2079C59.0943 18.5706 58.3603 19.1825 57.8441 19.9664C57.3278 20.7504 57.0523 21.6713 57.0522 22.6133C57.0555 23.2435 57.1814 23.867 57.4228 24.4479C57.6641 25.0289 58.0162 25.5561 58.459 25.9994C58.9017 26.4427 59.4264 26.7934 60.0031 27.0315C60.5798 27.2697 61.1972 27.3905 61.82 27.3872ZM61.82 19.4726C62.4323 19.4801 63.0287 19.6706 63.5342 20.0202C64.0398 20.3698 64.4318 20.8628 64.6611 21.4373C64.8903 22.0118 64.9465 22.6421 64.8225 23.2488C64.6986 23.8556 64.4 24.4117 63.9645 24.8471C63.5289 25.2826 62.9758 25.578 62.3747 25.6962C61.7737 25.8143 61.1515 25.75 60.5865 25.5112C60.0215 25.2724 59.5388 24.8699 59.1994 24.3542C58.8599 23.8386 58.6788 23.2329 58.6787 22.6133C58.698 21.78 59.0363 20.9868 59.6223 20.4009C60.2083 19.815 60.9962 19.4822 61.82 19.4726Z" fill="#00227B"/>
<path d="M58.3052 6.98128e-05C58.5256 0.00254853 58.7404 0.0709738 58.9226 0.196709C59.1047 0.322444 59.246 0.499884 59.3286 0.70669C59.4113 0.913496 59.4317 1.14042 59.3872 1.35891C59.3427 1.5774 59.2353 1.77769 59.0785 1.93456C58.9218 2.09143 58.7226 2.19789 58.5062 2.2405C58.2898 2.28312 58.0658 2.26 57.8623 2.17406C57.6588 2.08813 57.485 1.94321 57.3628 1.75755C57.2405 1.5719 57.1753 1.3538 57.1753 1.13072C57.1753 0.981173 57.2046 0.833114 57.2615 0.695111C57.3185 0.557109 57.4019 0.43191 57.507 0.326754C57.6121 0.221597 57.7367 0.138574 57.8737 0.0824979C58.0107 0.0264217 58.1574 -0.00159177 58.3052 6.98128e-05Z" fill="#00227B"/>
<path d="M44.1391 7.0351C44.3596 7.03758 44.5744 7.10601 44.7565 7.23174C44.9387 7.35748 45.08 7.53492 45.1626 7.74172C45.2453 7.94853 45.2657 8.17545 45.2212 8.39394C45.1766 8.61243 45.0693 8.81273 44.9125 8.9696C44.7557 9.12647 44.5566 9.23288 44.3402 9.2755C44.1238 9.31812 43.8997 9.29503 43.6963 9.2091C43.4928 9.12316 43.319 8.97824 43.1968 8.79259C43.0745 8.60693 43.0093 8.38883 43.0093 8.16575C43.0093 8.01621 43.0386 7.86815 43.0955 7.73015C43.1524 7.59214 43.2359 7.46694 43.3409 7.36179C43.446 7.25663 43.5707 7.17361 43.7077 7.11753C43.8447 7.06146 43.9913 7.03344 44.1391 7.0351Z" fill="#00227B"/>
<path d="M3.38963 20.3519C3.6101 20.3544 3.8249 20.4227 4.00702 20.5485C4.18915 20.6742 4.33044 20.8517 4.41312 21.0585C4.49579 21.2653 4.51617 21.4922 4.47166 21.7107C4.42715 21.9292 4.31974 22.1295 4.16298 22.2863C4.00622 22.4432 3.80712 22.5497 3.5907 22.5923C3.37428 22.6349 3.15023 22.6118 2.94676 22.5259C2.7433 22.4399 2.56951 22.295 2.44727 22.1094C2.32502 21.9237 2.25978 21.7056 2.25977 21.4825C2.25976 21.333 2.28907 21.1849 2.34601 21.0469C2.40294 20.9089 2.48636 20.7837 2.59144 20.6786C2.69653 20.5734 2.82118 20.4904 2.95819 20.4343C3.0952 20.3782 3.24184 20.3502 3.38963 20.3519Z" fill="#00227B"/>
<path d="M18.301 28.2664C18.522 28.2664 18.7381 28.3327 18.9219 28.4569C19.1056 28.5811 19.2488 28.7578 19.3334 28.9644C19.418 29.171 19.4401 29.3983 19.397 29.6176C19.3539 29.8369 19.2475 30.0384 19.0912 30.1965C18.9349 30.3546 18.7358 30.4623 18.519 30.5059C18.3023 30.5496 18.0776 30.5272 17.8734 30.4416C17.6692 30.356 17.4947 30.2111 17.3719 30.0252C17.2491 29.8392 17.1836 29.6206 17.1836 29.397C17.1836 29.0971 17.3013 28.8096 17.5109 28.5975C17.7204 28.3855 18.0047 28.2664 18.301 28.2664Z" fill="#00227B"/>
<path d="M1.12985 42.3366C1.35031 42.3391 1.56514 42.4075 1.74726 42.5332C1.92938 42.659 2.07068 42.8364 2.15335 43.0432C2.23603 43.25 2.25638 43.477 2.21188 43.6955C2.16737 43.9139 2.05998 44.1142 1.90322 44.2711C1.74646 44.4279 1.54733 44.5344 1.33091 44.577C1.1145 44.6196 0.890462 44.5965 0.686998 44.5106C0.483534 44.4247 0.30973 44.2798 0.187484 44.0941C0.0652374 43.9084 1.36123e-05 43.6903 2.13012e-09 43.4673C-9.12134e-06 43.3177 0.0292888 43.1697 0.0862205 43.0317C0.143152 42.8937 0.226575 42.7685 0.331658 42.6633C0.436741 42.5581 0.561411 42.4751 0.698422 42.419C0.835433 42.363 0.98206 42.335 1.12985 42.3366Z" fill="#00227B"/>
<path d="M21.4423 1.50752C21.6628 1.50999 21.8776 1.57838 22.0598 1.70412C22.2419 1.82985 22.3832 2.00729 22.4659 2.2141C22.5485 2.4209 22.5689 2.64786 22.5244 2.86635C22.4799 3.08484 22.3725 3.2851 22.2157 3.44197C22.059 3.59884 21.8598 3.70529 21.6434 3.74791C21.427 3.79053 21.203 3.76744 20.9995 3.68151C20.796 3.59558 20.6222 3.45065 20.5 3.265C20.3777 3.07935 20.3125 2.86125 20.3125 2.63816C20.3125 2.48862 20.3418 2.34056 20.3987 2.20256C20.4557 2.06456 20.5391 1.93936 20.6442 1.8342C20.7492 1.72904 20.8739 1.64602 21.0109 1.58994C21.1479 1.53387 21.2946 1.50585 21.4423 1.50752Z" fill="#00227B"/>
<path d="M48.9062 21.9851C49.1267 21.9875 49.3415 22.056 49.5236 22.1817C49.7057 22.3074 49.847 22.4849 49.9297 22.6917C50.0124 22.8985 50.0328 23.1254 49.9882 23.3439C49.9437 23.5624 49.8363 23.7627 49.6796 23.9195C49.5228 24.0764 49.3237 24.1829 49.1073 24.2255C48.8909 24.2681 48.6668 24.245 48.4634 24.159C48.2599 24.0731 48.0861 23.9282 47.9639 23.7425C47.8416 23.5569 47.7764 23.3388 47.7764 23.1157C47.7764 22.9662 47.8057 22.8181 47.8626 22.6801C47.9195 22.5421 48.003 22.4169 48.108 22.3117C48.2131 22.2066 48.3378 22.1236 48.4748 22.0675C48.6118 22.0114 48.7584 21.9834 48.9062 21.9851Z" fill="#00227B"/>
<path d="M66.9595 36.8092C67.1799 36.8116 67.3947 36.88 67.5769 37.0058C67.759 37.1315 67.9003 37.3089 67.9829 37.5157C68.0656 37.7225 68.086 37.9495 68.0415 38.168C67.997 38.3864 67.8896 38.5867 67.7328 38.7436C67.5761 38.9005 67.3769 39.0069 67.1605 39.0495C66.9441 39.0922 66.7201 39.069 66.5166 38.9831C66.3131 38.8972 66.1393 38.7523 66.0171 38.5666C65.8948 38.381 65.8296 38.1629 65.8296 37.9398C65.8296 37.7903 65.8589 37.6422 65.9158 37.5042C65.9728 37.3662 66.0562 37.241 66.1613 37.1358C66.2663 37.0307 66.391 36.9477 66.528 36.8916C66.665 36.8355 66.8117 36.8075 66.9595 36.8092Z" fill="#00227B"/>
</svg>
