<svg width="25" height="29" viewBox="0 0 25 29" fill="none" xmlns="http://www.w3.org/2000/svg">
<g clip-path="url(#clip0_233_6273)">
<path d="M16.7089 2.75108L17.0153 2.29368L17.3217 1.8428L18.0044 0.829219C18.0893 0.704128 18.0543 0.536286 17.9277 0.454049C17.8029 0.370077 17.6314 0.404666 17.5498 0.529756L16.5074 2.07155L16.1944 2.53559C15.2037 2.15542 14.0998 1.9432 12.9343 1.9432C11.7704 1.9432 10.6648 2.15542 9.6741 2.53559L9.36269 2.07155L9.0547 1.61578L8.32206 0.529756C8.23715 0.404666 8.06733 0.371811 7.94082 0.454049C7.81592 0.536286 7.78095 0.704128 7.86415 0.829219L8.54685 1.8428L8.85323 2.29368L9.16122 2.75108C6.83518 3.82231 5.26167 5.85111 5.26167 8.17293H20.6068C20.6068 5.85111 19.0333 3.82231 16.7089 2.75108ZM5.26167 9.25559H5.37994H20.6068V21.172C20.6068 22.1181 19.8309 22.8882 18.8718 22.8882H17.618C17.6613 23.0314 17.6863 23.1811 17.6863 23.3391V26.7698C17.6863 27.6667 16.9487 28.3939 16.0396 28.3939C15.1321 28.3939 14.3961 27.6667 14.3961 26.7698V23.3391C14.3961 23.1811 14.4194 23.0314 14.4611 22.8882H11.4074C11.4491 23.0314 11.474 23.1811 11.474 23.3391V26.7698C11.474 27.6667 10.7364 28.3939 9.82895 28.3939C8.92146 28.3939 8.1839 27.6667 8.1839 26.7698V23.3391C8.1839 23.1811 8.20721 23.0314 8.25052 22.8882H6.99837C6.03933 22.8882 5.26167 22.1181 5.26167 21.172V9.25559ZM2.52103 9.25559C1.61193 9.25559 0.875977 9.98287 0.875977 10.8796V17.8317C0.875977 18.7285 1.61193 19.4558 2.52103 19.4558C3.42851 19.4558 4.16447 18.7285 4.16447 17.8317V10.8796C4.16447 9.98287 3.42851 9.25559 2.52103 9.25559ZM21.704 10.8796C21.704 9.98287 22.44 9.25559 23.3491 9.25559C24.2566 9.25559 24.9925 9.98287 24.9925 10.8796V17.8317C24.9925 18.7285 24.2566 19.4558 23.3491 19.4558C22.44 19.4558 21.704 18.7285 21.704 17.8317V10.8796Z" fill="#B9BCD0"/>
<path d="M9.64582 6.00579C9.19122 6.00579 8.82324 5.64215 8.82324 5.19291C8.82324 4.74366 9.19122 4.38165 9.64582 4.38165C10.1003 4.38165 10.4683 4.74366 10.4683 5.19291C10.4683 5.64215 10.1003 6.00579 9.64582 6.00579Z" fill="white"/>
<path d="M16.2229 6.00579C15.7684 6.00579 15.4004 5.64215 15.4004 5.19291C15.4004 4.74366 15.7684 4.38165 16.2229 4.38165C16.6775 4.38165 17.0454 4.74366 17.0454 5.19291C17.0454 5.64215 16.6775 6.00579 16.2229 6.00579Z" fill="white"/>
</g>
<defs>
<clipPath id="clip0_233_6273">
<rect width="24.1166" height="28.5688" fill="white" transform="translate(0.875977)"/>
</clipPath>
</defs>
</svg>
