<svg width="24" height="29" viewBox="0 0 24 29" fill="none" xmlns="http://www.w3.org/2000/svg">
<g clip-path="url(#clip0_233_6268)">
<path d="M17.0871 0.591187C17.3358 2.27241 16.6483 3.91956 15.7415 5.08487C14.7714 6.3348 13.0991 7.30152 11.4788 7.25108C11.183 5.64147 11.9404 3.983 12.8619 2.86812C13.8726 1.63769 15.605 0.693719 17.0871 0.591187ZM21.9544 24.2556C22.7897 22.9813 23.1017 22.3384 23.7501 20.8997C19.034 19.1142 18.2783 12.4397 22.9456 9.87793C21.522 8.10066 19.5216 7.0704 17.6331 7.0704C16.2725 7.0704 15.3402 7.42387 14.4927 7.74522C13.7864 8.01308 13.1389 8.25857 12.3515 8.25857C11.5006 8.25857 10.747 7.98953 9.95802 7.70798C9.09094 7.39845 8.18112 7.07365 7.052 7.07365C4.93291 7.07365 2.67725 8.3627 1.2471 10.5664C-0.76314 13.6701 -0.420249 19.5048 2.83974 24.4753C4.00497 26.2543 5.56179 28.2529 7.59806 28.2708C8.44296 28.2791 9.00525 28.0281 9.61364 27.7564C10.3101 27.4455 11.0669 27.1075 12.3776 27.1006C13.6958 27.0927 14.4407 27.4348 15.1279 27.7503C15.7208 28.0225 16.2705 28.275 17.1083 28.2659C19.1461 28.2497 20.7891 26.0346 21.9544 24.2556Z" fill="#B9BCD0"/>
</g>
<defs>
<clipPath id="clip0_233_6268">
<rect width="23.75" height="28.5688" fill="white"/>
</clipPath>
</defs>
</svg>
