<svg width="44" height="27" viewBox="0 0 44 27" fill="none" xmlns="http://www.w3.org/2000/svg">
<path d="M3.77033 18.2426H42.8286C42.9609 18.2426 43.0878 18.295 43.1815 18.3883C43.2752 18.4817 43.3281 18.6084 43.3287 18.7407C43.3287 18.8733 43.276 19.0005 43.1822 19.0942C43.0884 19.188 42.9612 19.2407 42.8286 19.2407H23.6332C23.2154 19.2407 22.8148 19.4067 22.5195 19.702C22.2241 19.9974 22.0582 20.398 22.0582 20.8157V24.139C22.0582 24.5567 22.2241 24.9573 22.5195 25.2527C22.8148 25.5481 23.2154 25.714 23.6332 25.714H42.8286C42.9609 25.714 43.0878 25.7664 43.1815 25.8598C43.2752 25.9531 43.3281 26.0798 43.3287 26.2121C43.3287 26.3447 43.276 26.4719 43.1822 26.5657C43.0884 26.6595 42.9612 26.7122 42.8286 26.7122H3.77033C3.35261 26.7122 2.952 26.5462 2.65663 26.2509C2.36125 25.9555 2.19532 25.5549 2.19532 25.1372V19.8215C2.1948 19.6143 2.23516 19.4091 2.31408 19.2176C2.39299 19.026 2.50893 18.8519 2.65523 18.7053C2.80154 18.5586 2.97534 18.4422 3.16668 18.3628C3.35803 18.2834 3.56316 18.2426 3.77033 18.2426Z" fill="url(#paint0_linear_424_4066)"/>
<path d="M23.6336 19.2407H40.8347V25.7219H23.6336C23.2159 25.7219 22.8153 25.5559 22.5199 25.2605C22.2245 24.9652 22.0586 24.5646 22.0586 24.1468V20.8196C22.0581 20.6125 22.0984 20.4072 22.1774 20.2157C22.2563 20.0242 22.3722 19.8501 22.5185 19.7034C22.6648 19.5567 22.8386 19.4404 23.03 19.361C23.2213 19.2816 23.4264 19.2407 23.6336 19.2407Z" fill="url(#paint1_linear_424_4066)"/>
<g style="mix-blend-mode:multiply" opacity="0.21">
<path d="M22.0537 20.8196C22.0537 20.4019 22.2197 20.0013 22.5151 19.7059C22.8104 19.4106 23.211 19.2446 23.6287 19.2446H40.8298L22.0498 21.7706L22.0537 20.8196Z" fill="#5C6BC0"/>
</g>
<path d="M43.329 26.22C43.3285 26.0877 43.2755 25.961 43.1818 25.8676C43.0881 25.7743 42.9612 25.7219 42.8289 25.7219H23.6138C23.242 25.7219 22.8855 25.5742 22.6226 25.3113C22.3597 25.0484 22.212 24.6919 22.212 24.3201V20.6425C22.212 20.2707 22.3597 19.9142 22.6226 19.6513C22.8855 19.3884 23.242 19.2407 23.6138 19.2407H42.8289C42.9615 19.2407 43.0887 19.188 43.1825 19.0943C43.2763 19.0005 43.329 18.8733 43.329 18.7407C43.3285 18.6084 43.2755 18.4817 43.1818 18.3883C43.0881 18.295 42.9612 18.2426 42.8289 18.2426H23.0232C22.7857 18.2423 22.5504 18.2889 22.3309 18.3796C22.1114 18.4703 21.9119 18.6034 21.7439 18.7712C21.5759 18.9391 21.4426 19.1384 21.3516 19.3578C21.2607 19.5772 21.2139 19.8124 21.2139 20.0499V24.9127C21.2139 25.1502 21.2607 25.3854 21.3516 25.6048C21.4426 25.8242 21.5759 26.0235 21.7439 26.1914C21.9119 26.3592 22.1114 26.4923 22.3309 26.583C22.5504 26.6737 22.7857 26.7203 23.0232 26.72H42.8289C42.9615 26.72 43.0887 26.6674 43.1825 26.5736C43.2763 26.4798 43.329 26.3526 43.329 26.22Z" fill="url(#paint2_linear_424_4066)"/>
<g style="mix-blend-mode:overlay" opacity="0.26">
<path d="M13.7418 25.1411V19.8254C13.7418 19.4077 13.9077 19.0071 14.2031 18.7117C14.4984 18.4164 14.899 18.2504 15.3168 18.2504H7.01056C6.59284 18.2504 6.19223 18.4164 5.89686 18.7117C5.60149 19.0071 5.43555 19.4077 5.43555 19.8254V25.1411C5.43555 25.5588 5.60149 25.9594 5.89686 26.2548C6.19223 26.5502 6.59284 26.7161 7.01056 26.7161H15.3207C15.1135 26.7166 14.9083 26.6763 14.7168 26.5973C14.5252 26.5184 14.3511 26.4025 14.2045 26.2562C14.0578 26.1099 13.9414 25.9361 13.862 25.7447C13.7826 25.5534 13.7418 25.3483 13.7418 25.1411ZM9.60735 24.5997C9.18782 24.6001 8.7776 24.476 8.42861 24.2432C8.07961 24.0103 7.80754 23.6792 7.64681 23.2917C7.48608 22.9041 7.44392 22.4776 7.52567 22.0662C7.60743 21.6547 7.80941 21.2767 8.10607 20.98C8.40272 20.6834 8.78071 20.4814 9.19221 20.3996C9.6037 20.3179 10.0302 20.36 10.4177 20.5208C10.8052 20.6815 11.1364 20.9536 11.3692 21.3025C11.6021 21.6515 11.7261 22.0618 11.7257 22.4813C11.7257 22.7597 11.6709 23.0353 11.5643 23.2924C11.4577 23.5496 11.3015 23.7832 11.1046 23.9799C10.9077 24.1767 10.6739 24.3327 10.4167 24.439C10.1594 24.5453 9.88374 24.5999 9.60539 24.5997H9.60735Z" fill="white"/>
</g>
<path d="M27.2891 21.5166L40.8341 21.2213V21.8119L27.2891 21.5166Z" fill="white"/>
<path d="M27.2891 23.2156L40.8341 22.9203V23.5109L27.2891 23.2156Z" fill="white"/>
<path d="M38.0104 24.2532L36.6165 23.4342L35.2246 24.2532V21.4969H38.0104V24.2532Z" fill="url(#paint3_linear_424_4066)"/>
<path d="M37.564 0H0.498096C0.365993 0 0.239302 0.052478 0.145891 0.145889C0.0524795 0.2393 0 0.365993 0 0.498096C-1.0252e-06 0.630382 0.0524155 0.757278 0.145771 0.851002C0.239126 0.944726 0.365812 0.997641 0.498096 0.998162H25.4305C25.8482 0.998162 26.2488 1.1641 26.5442 1.45947C26.8396 1.75484 27.0055 2.15545 27.0055 2.57317V7.88883C27.0055 8.30655 26.8396 8.70716 26.5442 9.00253C26.2488 9.2979 25.8482 9.46384 25.4305 9.46384H0.498096C0.365993 9.46384 0.239302 9.51632 0.145891 9.60973C0.0524795 9.70314 0 9.82983 0 9.96193C-1.0252e-06 10.0942 0.0524155 10.2211 0.145771 10.3148C0.239126 10.4086 0.365812 10.4615 0.498096 10.462H37.564C37.9817 10.462 38.3823 10.2961 38.6777 10.0007C38.973 9.70532 39.139 9.30471 39.139 8.88699V1.57895C39.1395 1.37178 39.0991 1.16655 39.0202 0.975007C38.9413 0.783463 38.8254 0.609371 38.6791 0.462701C38.5328 0.31603 38.359 0.199664 38.1676 0.120266C37.9763 0.0408681 37.7711 -6.47384e-07 37.564 0Z" fill="url(#paint4_linear_424_4066)"/>
<g style="mix-blend-mode:overlay" opacity="0.26">
<path d="M31.5439 10.4718C31.9617 10.4718 32.3623 10.3059 32.6576 10.0105C32.953 9.71516 33.119 9.31455 33.119 8.89683V1.57895C33.119 1.16123 32.953 0.760618 32.6576 0.465247C32.3623 0.169875 31.9617 0.00393677 31.5439 0.00393677H34.2451C34.6628 0.00393677 35.0634 0.169875 35.3588 0.465247C35.6542 0.760618 35.8201 1.16123 35.8201 1.57895V8.8929C35.8201 9.31062 35.6542 9.71123 35.3588 10.0066C35.0634 10.302 34.6628 10.4679 34.2451 10.4679" fill="white"/>
</g>
<path d="M25.4302 0.998138H2.49219V9.47366H25.4302C25.848 9.47366 26.2486 9.30772 26.5439 9.01235C26.8393 8.71698 27.0052 8.31637 27.0052 7.89865V2.58299C27.0065 2.37533 26.9668 2.16946 26.8882 1.97724C26.8096 1.78501 26.6938 1.61022 26.5474 1.46292C26.401 1.31563 26.227 1.19873 26.0352 1.11896C25.8435 1.0392 25.6379 0.998134 25.4302 0.998138Z" fill="url(#paint5_linear_424_4066)"/>
<g style="mix-blend-mode:multiply" opacity="0.21">
<path d="M27.0092 2.57708C27.0092 2.15937 26.8432 1.75876 26.5479 1.46339C26.2525 1.16801 25.8519 1.00208 25.4342 1.00208H2.49219L27.0092 3.52209V2.57708Z" fill="#5C6BC0"/>
</g>
<path d="M0 9.97178C0 9.83967 0.0524795 9.71298 0.145891 9.61957C0.239302 9.52616 0.365993 9.47368 0.498096 9.47368H25.5447C25.9165 9.47368 26.273 9.326 26.5359 9.06312C26.7988 8.80024 26.9464 8.44369 26.9464 8.07192V2.39992C26.9464 2.02815 26.7988 1.67161 26.5359 1.40873C26.273 1.14585 25.9165 0.998162 25.5447 0.998162H0.498096C0.365812 0.997641 0.239126 0.944726 0.145771 0.851002C0.0524155 0.757278 -1.0252e-06 0.630382 0 0.498096C0 0.365993 0.0524795 0.2393 0.145891 0.145889C0.239302 0.052478 0.365993 0 0.498096 0H26.1373C26.3746 0 26.6096 0.0467474 26.8289 0.137574C27.0482 0.2284 27.2474 0.361527 27.4153 0.529353C27.5831 0.697178 27.7162 0.896415 27.807 1.11569C27.8979 1.33496 27.9446 1.56998 27.9446 1.80732V8.66452C27.9446 9.14385 27.7542 9.60355 27.4153 9.94249C27.0763 10.2814 26.6166 10.4718 26.1373 10.4718H0.498096C0.365812 10.4713 0.239126 10.4184 0.145771 10.3247C0.0524155 10.231 -1.0252e-06 10.1041 0 9.97178Z" fill="url(#paint6_linear_424_4066)"/>
<path d="M24.5148 4.06155L2.49219 4.35686V3.76624L24.5148 4.06155Z" fill="white"/>
<path d="M24.5148 5.5913L2.49219 5.88662V5.29599L24.5148 5.5913Z" fill="white"/>
<path d="M24.5148 7.121L2.49219 7.41631V6.82568L24.5148 7.121Z" fill="white"/>
<path d="M5.43364 11.4267H41.1686C41.3009 11.4262 41.4276 11.3733 41.521 11.2795C41.6143 11.1858 41.6667 11.0589 41.6667 10.9266C41.6667 10.7945 41.6143 10.6678 41.5208 10.5744C41.4274 10.481 41.3007 10.4285 41.1686 10.4285H5.43364C5.30154 10.4285 5.17485 10.481 5.08143 10.5744C4.98802 10.6678 4.93555 10.7945 4.93555 10.9266C4.93555 11.0589 4.98796 11.1858 5.08131 11.2795C5.17467 11.3733 5.30136 11.4262 5.43364 11.4267Z" fill="url(#paint7_linear_424_4066)"/>
<path d="M5.43364 18.2425H41.1686C41.3007 18.2425 41.4274 18.1901 41.5208 18.0966C41.6143 18.0032 41.6667 17.8765 41.6667 17.7444C41.6667 17.6123 41.6143 17.4856 41.5208 17.3922C41.4274 17.2988 41.3007 17.2463 41.1686 17.2463H5.43364C5.30154 17.2463 5.17485 17.2988 5.08143 17.3922C4.98802 17.4856 4.93555 17.6123 4.93555 17.7444C4.93555 17.8765 4.98802 18.0032 5.08143 18.0966C5.17485 18.1901 5.30154 18.2425 5.43364 18.2425Z" fill="url(#paint8_linear_424_4066)"/>
<path d="M6.68031 17.2444L39.9229 17.2444V11.4247L6.68031 11.4247V17.2444Z" fill="url(#paint9_linear_424_4066)"/>
<path d="M6.67966 17.2444H18.3643V11.4247L6.67966 11.4247V17.2444Z" fill="url(#paint10_linear_424_4066)"/>
<g style="mix-blend-mode:multiply" opacity="0.21">
<path d="M6.67969 13.1907L39.9222 11.4267H6.67969V13.1907Z" fill="#5C6BC0"/>
</g>
<path d="M34.3136 13.3955L33.3666 13.4348C32.7642 13.4506 31.9038 13.486 30.8722 13.5077C29.8406 13.5293 28.6357 13.5549 27.3442 13.5687L25.3557 13.5864H23.3023H21.2469L19.2585 13.5687C17.9689 13.5549 16.764 13.5352 15.7324 13.5096C14.7008 13.484 13.8385 13.4506 13.236 13.4348L12.291 13.3955L13.236 13.358C13.8385 13.3403 14.6988 13.3049 15.7324 13.2832C16.766 13.2616 17.9689 13.236 19.2585 13.2222L21.2469 13.2065H23.3023H25.3557L27.3442 13.2222C28.6357 13.238 29.8406 13.2576 30.8722 13.2832C31.9038 13.3088 32.7642 13.3403 33.3666 13.358L34.3136 13.3955Z" fill="white"/>
<path d="M38.4258 14.9272L37.1264 14.9646C36.2995 14.9803 35.1183 15.0197 33.6988 15.0374C32.2793 15.0551 30.6275 15.0886 28.8557 15.0965L23.3018 15.1221L17.7479 15.0965C15.976 15.0965 14.3203 15.0532 12.9028 15.0374C11.4853 15.0217 10.304 14.9803 9.47517 14.9646L8.17578 14.9272L9.47517 14.8878C10.304 14.872 11.4853 14.8327 12.9028 14.8149C14.3203 14.7972 15.976 14.7618 17.7479 14.7559L23.3018 14.7303L28.8557 14.7559C30.6275 14.7559 32.2813 14.7992 33.6988 14.8149C35.1163 14.8307 36.2995 14.872 37.1264 14.8878L38.4258 14.9272Z" fill="white"/>
<path d="M34.3136 16.4569L33.3666 16.4943C32.7642 16.512 31.9038 16.5474 30.8722 16.5691C29.8406 16.5907 28.6357 16.6163 27.3442 16.6301L25.3557 16.6459H23.3023H21.2469L19.2585 16.6301C17.9689 16.6163 16.764 16.5947 15.7324 16.5691C14.7008 16.5435 13.8385 16.512 13.236 16.4943L12.291 16.4569L13.236 16.4175C13.8385 16.4017 14.6988 16.3663 15.7324 16.3427C16.766 16.3191 17.9689 16.2974 19.2585 16.2836L21.2469 16.2659H23.3023H25.3557L27.3442 16.2836C28.6357 16.2974 29.8406 16.3191 30.8722 16.3447C31.9038 16.3702 32.7642 16.4017 33.3666 16.4195L34.3136 16.4569Z" fill="white"/>
<defs>
<linearGradient id="paint0_linear_424_4066" x1="22.759" y1="26.72" x2="22.759" y2="18.2426" gradientUnits="userSpaceOnUse">
<stop stop-color="#283593"/>
<stop offset="1" stop-color="#536DFE"/>
</linearGradient>
<linearGradient id="paint1_linear_424_4066" x1="40.8366" y1="22.4813" x2="22.0547" y2="22.4813" gradientUnits="userSpaceOnUse">
<stop stop-color="white"/>
<stop offset="1" stop-color="#AEBBFF"/>
</linearGradient>
<linearGradient id="paint2_linear_424_4066" x1="43.327" y1="22.4813" x2="21.2217" y2="22.4813" gradientUnits="userSpaceOnUse">
<stop stop-color="#5C6BC0"/>
<stop offset="1" stop-color="#8C9EFF"/>
</linearGradient>
<linearGradient id="paint3_linear_424_4066" x1="36.6165" y1="24.2532" x2="36.6165" y2="21.4969" gradientUnits="userSpaceOnUse">
<stop stop-color="#9575CD"/>
<stop offset="0.99" stop-color="#512DA8"/>
</linearGradient>
<linearGradient id="paint4_linear_424_4066" x1="19.5715" y1="10.4718" x2="19.5715" y2="0" gradientUnits="userSpaceOnUse">
<stop offset="0.01" stop-color="#512DA8"/>
<stop offset="1" stop-color="#9575CD"/>
</linearGradient>
<linearGradient id="paint5_linear_424_4066" x1="2.49219" y1="5.23491" x2="27.0072" y2="5.23491" gradientUnits="userSpaceOnUse">
<stop stop-color="white"/>
<stop offset="1" stop-color="#AEBBFF"/>
</linearGradient>
<linearGradient id="paint6_linear_424_4066" x1="0" y1="5.23691" x2="27.9446" y2="5.23691" gradientUnits="userSpaceOnUse">
<stop stop-color="#9575CD"/>
<stop offset="1" stop-color="#B388FF"/>
</linearGradient>
<linearGradient id="paint7_linear_424_4066" x1="41.6687" y1="10.9266" x2="4.93555" y2="10.9266" gradientUnits="userSpaceOnUse">
<stop stop-color="#536DFE"/>
<stop offset="1" stop-color="#283593"/>
</linearGradient>
<linearGradient id="paint8_linear_424_4066" x1="41.6687" y1="17.7444" x2="4.93555" y2="17.7444" gradientUnits="userSpaceOnUse">
<stop stop-color="#536DFE"/>
<stop offset="1" stop-color="#283593"/>
</linearGradient>
<linearGradient id="paint9_linear_424_4066" x1="40.6966" y1="14.3365" x2="17.4652" y2="14.3365" gradientUnits="userSpaceOnUse">
<stop stop-color="white"/>
<stop offset="1" stop-color="#AEBBFF"/>
</linearGradient>
<linearGradient id="paint10_linear_424_4066" x1="18.3623" y1="14.3365" x2="6.67966" y2="14.3365" gradientUnits="userSpaceOnUse">
<stop stop-color="white"/>
<stop offset="1" stop-color="#AEBBFF"/>
</linearGradient>
</defs>
</svg>
