<svg width="16" height="16" viewBox="0 0 16 16" fill="none" xmlns="http://www.w3.org/2000/svg">
<path fill-rule="evenodd" clip-rule="evenodd" d="M13.8539 2.14599C13.9005 2.19244 13.9374 2.24761 13.9626 2.30836C13.9878 2.36911 14.0008 2.43423 14.0008 2.49999C14.0008 2.56576 13.9878 2.63088 13.9626 2.69163C13.9374 2.75237 13.9005 2.80755 13.8539 2.85399L2.85392 13.854C2.76003 13.9479 2.63269 14.0006 2.49992 14.0006C2.36714 14.0006 2.2398 13.9479 2.14592 13.854C2.05203 13.7601 1.99929 13.6328 1.99929 13.5C1.99929 13.3672 2.05203 13.2399 2.14592 13.146L13.1459 2.14599C13.1924 2.09943 13.2475 2.06249 13.3083 2.03728C13.369 2.01207 13.4341 1.9991 13.4999 1.9991C13.5657 1.9991 13.6308 2.01207 13.6916 2.03728C13.7523 2.06249 13.8075 2.09943 13.8539 2.14599Z" fill="#212529"/>
<path fill-rule="evenodd" clip-rule="evenodd" d="M2.14592 2.14599C2.09935 2.19244 2.06241 2.24761 2.0372 2.30836C2.012 2.36911 1.99902 2.43423 1.99902 2.49999C1.99902 2.56576 2.012 2.63088 2.0372 2.69163C2.06241 2.75237 2.09935 2.80755 2.14592 2.85399L13.1459 13.854C13.2398 13.9479 13.3671 14.0006 13.4999 14.0006C13.6327 14.0006 13.76 13.9479 13.8539 13.854C13.9478 13.7601 14.0005 13.6328 14.0005 13.5C14.0005 13.3672 13.9478 13.2399 13.8539 13.146L2.85392 2.14599C2.80747 2.09943 2.7523 2.06249 2.69155 2.03728C2.63081 2.01207 2.56568 1.9991 2.49992 1.9991C2.43415 1.9991 2.36903 2.01207 2.30828 2.03728C2.24754 2.06249 2.19236 2.09943 2.14592 2.14599Z" fill="#212529"/>
</svg>
