<svg width="62" height="62" viewBox="0 0 62 62" fill="none" xmlns="http://www.w3.org/2000/svg">
<path d="M56.3375 22.9996C55.6295 22.9846 54.9264 23.1191 54.2727 23.3946C53.6191 23.6701 53.0295 24.0805 52.5415 24.5996L48.8444 26.7996H42.1422V24.2996C42.1422 18.6996 37.0413 14.0996 30.6356 14.0996C24.2299 14.0996 19.139 18.5996 19.139 24.1996C19.1674 24.5286 19.3166 24.8348 19.5573 25.0579C19.7979 25.2811 20.1125 25.4048 20.4389 25.4048C20.7653 25.4048 21.0799 25.2811 21.3206 25.0579C21.5612 24.8348 21.7104 24.5286 21.7388 24.1996C21.7388 19.9996 25.7424 16.5996 30.6356 16.5996C35.5289 16.5996 39.5324 19.9996 39.5324 24.1996V27.6996C38.9583 28.1886 38.5449 28.8427 38.3472 29.5751C38.1494 30.3074 38.1766 31.0833 38.4253 31.7996H22.7372C22.8587 31.3768 22.9251 30.9398 22.935 30.4996C22.9337 29.9976 22.8343 29.5008 22.6426 29.0377C22.4509 28.5746 22.1706 28.1545 21.8179 27.8013C21.4651 27.4482 21.0469 27.1691 20.5871 26.98C20.1274 26.791 19.6353 26.6957 19.139 26.6996H12.5455L8.83848 24.4996C7.79748 23.4708 6.39898 22.8963 4.94365 22.8996C4.28617 22.8995 3.6353 23.032 3.02909 23.2896C2.42289 23.5471 1.87354 23.9243 1.41326 24.3992C0.952972 24.8742 0.590958 25.4372 0.34846 26.0555C0.105961 26.6737 -0.0121609 27.3346 0.00098878 27.9996V43.2996C0.0140288 44.6585 0.557527 45.9572 1.51299 46.9125C2.46845 47.8678 3.75846 48.4023 5.10185 48.3996H12.2983L20.602 60.3996C20.7003 60.5393 20.825 60.6579 20.9688 60.7486C21.1126 60.8394 21.2727 60.9004 21.4399 60.9283C21.6071 60.9562 21.7781 60.9503 21.9431 60.9111C22.1081 60.8718 22.2638 60.8 22.4012 60.6996C22.5408 60.6039 22.6597 60.4804 22.7508 60.3367C22.8418 60.1931 22.903 60.0322 22.9307 59.8639C22.9585 59.6956 22.9521 59.5233 22.912 59.3576C22.872 59.1918 22.7991 59.036 22.6977 58.8996L13.9986 46.3996C13.8841 46.2438 13.7349 46.1173 13.5632 46.0305C13.3915 45.9437 13.2021 45.8988 13.0101 45.8996H5.10185C4.77447 45.9049 4.44929 45.8441 4.14542 45.7207C3.84155 45.5974 3.56506 45.4139 3.33216 45.1811C3.09925 44.9483 2.9146 44.6708 2.78902 44.3649C2.66344 44.059 2.59948 43.7308 2.60084 43.3996V28.0996C2.59454 27.7584 2.65852 27.4196 2.78866 27.1047C2.9188 26.7899 3.11226 26.5058 3.35678 26.2707C3.60129 26.0356 3.89151 25.8545 4.20895 25.739C4.52639 25.6234 4.86413 25.576 5.20068 25.5996C5.55052 25.589 5.89757 25.6655 6.2113 25.8224C6.52503 25.9794 6.79582 26.2119 6.99982 26.4996L7.29637 26.7996L11.4976 29.2996C11.7118 29.4236 11.9529 29.4922 12.1995 29.4996H19.1192C19.4601 29.4996 19.7869 29.6366 20.028 29.8804C20.269 30.1242 20.4043 30.4548 20.4043 30.7996C20.4043 31.1444 20.269 31.475 20.028 31.7188C19.7869 31.9626 19.4601 32.0996 19.1192 32.0996H11.5174C11.2759 32.08 11.0407 32.012 10.8254 31.8996L9.61946 31.1996C9.41746 31.1012 9.19612 31.0502 8.97194 31.0502C8.74775 31.0502 8.52648 31.1012 8.32448 31.1996C8.13613 31.3119 7.98089 31.4731 7.87486 31.6665C7.76883 31.8599 7.71584 32.0785 7.72143 32.2996V42.2996C7.72907 42.6437 7.86826 42.9714 8.10975 43.2138C8.35124 43.4562 8.67622 43.5945 9.01641 43.5996H14.1173C14.4127 43.5895 14.7003 43.6972 14.918 43.8996L24.2991 57.0996C24.4993 57.3795 24.8007 57.5681 25.1377 57.6242C25.4746 57.6804 25.8199 57.5997 26.0983 57.3996C26.2375 57.3037 26.3563 57.1804 26.4474 57.0371C26.5386 56.8938 26.6003 56.7333 26.6289 56.5654C26.6575 56.3974 26.6524 56.2253 26.6139 56.0594C26.5754 55.8935 26.5042 55.7371 26.4047 55.5996C16.2031 41.1996 16.9049 42.0996 16.6973 41.8996C15.9731 41.1923 15.0053 40.7978 13.9986 40.7996H10.2027V34.1996C10.624 34.3224 11.0593 34.3896 11.4976 34.3996H29.2912V59.8996C29.3196 60.2286 29.4689 60.5348 29.7095 60.7579C29.9502 60.9811 30.2647 61.1048 30.5911 61.1048C30.9176 61.1048 31.2322 60.9811 31.4728 60.7579C31.7135 60.5348 31.8627 60.2286 31.8911 59.8996V34.3996H49.6847C50.1223 34.382 50.5567 34.3149 50.9796 34.1996V40.7996H47.1837C46.1771 40.7978 45.2091 41.1923 44.485 41.8996C44.3861 41.9996 44.9793 41.1996 34.8765 55.2996C34.7769 55.4371 34.7058 55.5935 34.6673 55.7594C34.6288 55.9254 34.6236 56.0974 34.6522 56.2654C34.6808 56.4333 34.7425 56.5938 34.8337 56.7371C34.9249 56.8804 35.0436 57.0037 35.1829 57.0996C35.4613 57.2997 35.8065 57.3804 36.1435 57.3242C36.4805 57.268 36.7818 57.0795 36.982 56.7996L46.383 43.5996C46.6007 43.3972 46.8882 43.2895 47.1837 43.2996H52.2845C52.6247 43.2945 52.9497 43.1562 53.1912 42.9138C53.4327 42.6714 53.5718 42.3437 53.5795 41.9996V31.9996C53.5967 31.7766 53.5487 31.5535 53.4415 31.3579C53.3343 31.1623 53.1726 31.0029 52.9765 30.8996C52.7745 30.8012 52.5532 30.7502 52.329 30.7502C52.1048 30.7502 51.8835 30.8012 51.6815 30.8996L50.4755 31.5996C50.2654 31.7247 50.0273 31.7936 49.7836 31.7996H42.1817C41.8409 31.7996 41.514 31.6627 41.273 31.4189C41.032 31.1751 40.8966 30.8444 40.8966 30.4996C40.8966 30.1548 41.032 29.8242 41.273 29.5804C41.514 29.3366 41.8409 29.1996 42.1817 29.1996H49.1015C49.3456 29.1775 49.5836 29.1097 49.8033 28.9996L54.0045 26.4996L54.3011 26.1996C54.5442 25.9108 54.8476 25.6802 55.1895 25.5246C55.5315 25.3689 55.9033 25.2921 56.2782 25.2996C56.9295 25.3216 57.5488 25.5911 58.0123 26.0545C58.4759 26.5179 58.7497 27.141 58.7792 27.7996V43.0996C58.7805 43.4308 58.7166 43.759 58.591 44.0649C58.4654 44.3708 58.2808 44.6483 58.0479 44.8811C57.815 45.1139 57.5385 45.2974 57.2346 45.4207C56.9307 45.5441 56.6055 45.6049 56.2782 45.5996H48.3699C48.1781 45.5996 47.9889 45.6448 47.8173 45.7316C47.6457 45.8184 47.4965 45.9444 47.3814 46.0996L38.6823 58.5996C38.5809 58.736 38.508 58.8918 38.468 59.0576C38.4279 59.2233 38.4215 59.3956 38.4493 59.5639C38.477 59.7322 38.5383 59.8931 38.6293 60.0367C38.7203 60.1804 38.8392 60.3038 38.9788 60.3996C39.1162 60.5 39.2719 60.5718 39.4369 60.6111C39.6019 60.6503 39.7729 60.6562 39.9402 60.6283C40.1074 60.6004 40.2675 60.5394 40.4113 60.4486C40.555 60.3579 40.6797 60.2393 40.778 60.0996L49.0817 48.0996H56.0805C57.4239 48.1023 58.7138 47.5678 59.6693 46.6125C60.6248 45.6572 61.1683 44.3585 61.1813 42.9996V28.0996C61.1944 27.443 61.0795 26.7901 60.8432 26.1784C60.6068 25.5667 60.2537 25.0081 59.8039 24.5345C59.354 24.0609 58.8164 23.6816 58.2216 23.4182C57.6269 23.1549 56.9866 23.0126 56.3375 22.9996Z" fill="#00227B"/>
<path d="M54.8447 21.6997C56.0925 21.6839 57.3078 21.2951 58.3377 20.5824C59.3677 19.8696 60.1663 18.8646 60.633 17.6939C61.0998 16.5231 61.2138 15.2389 60.9608 14.0028C60.7079 12.7666 60.0991 11.6337 59.2113 10.7466C58.3234 9.85958 57.1961 9.25793 55.971 9.0174C54.746 8.77687 53.478 8.90819 52.3266 9.39486C51.1752 9.88152 50.1917 10.7018 49.5 11.7524C48.8082 12.8031 48.4391 14.0373 48.439 15.2996C48.4598 17.0043 49.1439 18.6321 50.3429 19.8301C51.542 21.0281 53.1594 21.6998 54.8447 21.6997ZM54.8447 11.4996C55.5855 11.5095 56.3068 11.7407 56.918 12.1642C57.5292 12.5877 58.003 13.1846 58.2797 13.8798C58.5565 14.5749 58.6239 15.3374 58.4734 16.0712C58.3229 16.805 57.9613 17.4774 57.434 18.0038C56.9068 18.5303 56.2374 18.8872 55.5101 19.0299C54.7828 19.1725 54.03 19.0944 53.3465 18.8053C52.663 18.5163 52.0793 18.0293 51.6687 17.4055C51.258 16.7817 51.0389 16.0491 51.0388 15.2996C51.0414 14.7971 51.142 14.3001 51.3348 13.837C51.5275 13.3739 51.8088 12.9538 52.1623 12.6008C52.5159 12.2478 52.9347 11.9688 53.395 11.7799C53.8553 11.5909 54.348 11.4957 54.8447 11.4996Z" fill="#00227B"/>
<path d="M6.43631 21.6997C7.68456 21.6858 8.90087 21.2988 9.93213 20.5872C10.9634 19.8756 11.7635 18.8713 12.2318 17.7007C12.7 16.5301 12.8155 15.2455 12.5636 14.0087C12.3117 12.7719 11.7038 11.6381 10.8163 10.75C9.9288 9.86194 8.80148 9.2593 7.57616 9.01798C6.35084 8.77665 5.08235 8.90741 3.93034 9.3938C2.77833 9.88019 1.79429 10.7005 1.10213 11.7514C0.409961 12.8023 0.040602 14.0368 0.0405273 15.2996C0.063856 17.0018 0.747312 18.6265 1.94368 19.8237C3.14005 21.0208 4.75352 21.6946 6.43631 21.6997ZM6.43631 11.4996C7.17752 11.5075 7.89987 11.7371 8.51238 12.1594C9.1249 12.5817 9.60023 13.1779 9.87849 13.8729C10.1568 14.568 10.2255 15.3307 10.0762 16.0652C9.92678 16.7997 9.56594 17.473 9.03905 18.0005C8.51216 18.5279 7.84277 18.8859 7.1152 19.0293C6.38762 19.1727 5.63435 19.0952 4.95025 18.8064C4.26615 18.5177 3.6818 18.0306 3.27076 17.4066C2.85972 16.7826 2.64042 16.0495 2.64037 15.2996C2.64296 14.798 2.74319 14.3018 2.93535 13.8393C3.12752 13.3769 3.40783 12.9572 3.76032 12.6043C4.11281 12.2515 4.53056 11.9723 4.98971 11.7828C5.44885 11.5932 5.94041 11.497 6.43631 11.4996Z" fill="#00227B"/>
<path d="M30.6355 12.7996C31.8838 12.7858 33.1001 12.3987 34.1314 11.6872C35.1626 10.9756 35.9628 9.97128 36.431 8.80068C36.8993 7.63008 37.0147 6.34551 36.7629 5.10868C36.511 3.87185 35.903 2.73803 35.0156 1.84997C34.1281 0.961898 33.0007 0.35928 31.7754 0.117956C30.5501 -0.123369 29.2816 0.00738949 28.1296 0.49378C26.9775 0.98017 25.9935 1.80045 25.3013 2.85135C24.6092 3.90226 24.2398 5.13681 24.2397 6.39962C24.2605 8.10259 24.9432 9.72883 26.1401 10.9265C27.337 12.1242 28.952 12.7971 30.6355 12.7996ZM30.6355 2.59961C31.3767 2.60751 32.0991 2.83707 32.7116 3.25939C33.3241 3.68171 33.7995 4.2779 34.0777 4.97292C34.356 5.66794 34.4247 6.43069 34.2754 7.16517C34.126 7.89964 33.7652 8.57299 33.2383 9.10044C32.7114 9.62788 32.042 9.98585 31.3144 10.1293C30.5868 10.2727 29.8336 10.1951 29.1495 9.90636C28.4654 9.61761 27.8811 9.13058 27.47 8.50657C27.059 7.88256 26.8396 7.14947 26.8396 6.39962C26.8422 5.89797 26.9424 5.40174 27.1346 4.93928C27.3267 4.47681 27.6071 4.05717 27.9596 3.7043C28.3121 3.35144 28.7298 3.07227 29.1889 2.88273C29.6481 2.69318 30.1396 2.59698 30.6355 2.59961Z" fill="#00227B"/>
</svg>
