<svg width="29" height="30" viewBox="0 0 29 30" fill="none" xmlns="http://www.w3.org/2000/svg">
<g id="computer 1">
<path id="Vector" d="M24.1667 22.5C25.4958 22.5 26.5713 21.375 26.5713 20L26.5833 7.5C26.5833 6.125 25.4958 5 24.1667 5H4.83333C3.50417 5 2.41667 6.125 2.41667 7.5V20C2.41667 21.375 3.50417 22.5 4.83333 22.5H1.20833C0.54375 22.5 0 23.0625 0 23.75C0 24.4375 0.54375 25 1.20833 25H27.7917C28.4563 25 29 24.4375 29 23.75C29 23.0625 28.4563 22.5 27.7917 22.5H24.1667ZM6.04167 7.5H22.9583C23.6229 7.5 24.1667 8.0625 24.1667 8.75V18.75C24.1667 19.4375 23.6229 20 22.9583 20H6.04167C5.37708 20 4.83333 19.4375 4.83333 18.75V8.75C4.83333 8.0625 5.37708 7.5 6.04167 7.5Z" fill="white"/>
</g>
</svg>
