<svg width="50" height="50" viewBox="0 0 50 50" fill="none" xmlns="http://www.w3.org/2000/svg">
<g clip-path="url(#clip0_366_6372)">
<path d="M12.5 31.25H7.39062C7.11989 30.7726 6.72663 30.376 6.25144 30.1014C5.77625 29.8267 5.23635 29.6838 4.6875 29.6875C3.8587 29.6875 3.06384 30.0167 2.47779 30.6028C1.89174 31.1889 1.5625 31.9837 1.5625 32.8125C1.5625 33.6413 1.89174 34.4362 2.47779 35.0222C3.06384 35.6083 3.8587 35.9375 4.6875 35.9375C5.23635 35.9412 5.77625 35.7983 6.25144 35.5237C6.72663 35.249 7.11989 34.8525 7.39062 34.375H12.5V31.25Z" fill="#00227B"/>
<path d="M45.3125 14.0625C44.7636 14.0588 44.2238 14.2017 43.7486 14.4764C43.2734 14.751 42.8801 15.1476 42.6094 15.625H37.5V18.75H42.6094C42.8839 19.2246 43.2784 19.6185 43.7534 19.8923C44.2284 20.1661 44.7671 20.3101 45.3153 20.3097C45.8635 20.3093 46.402 20.1647 46.8766 19.8903C47.3513 19.6159 47.7453 19.2214 48.0192 18.7465C48.2931 18.2716 48.4371 17.7329 48.4369 17.1847C48.4366 16.6365 48.2921 16.098 48.0178 15.6233C47.7435 15.1486 47.3491 14.7545 46.8742 14.4805C46.3993 14.2065 45.8607 14.0624 45.3125 14.0625Z" fill="#00227B"/>
<path d="M39.7095 7.8125L32.8125 0.915466L25.9155 7.8125L31.25 13.147V28.125H34.375V13.147L39.7095 7.8125ZM32.8125 5.33453L35.2905 7.8125L32.8125 10.2905L30.3345 7.8125L32.8125 5.33453Z" fill="#00227B"/>
<path d="M18.75 36.853V21.875H15.625V36.853L10.2905 42.1875L17.1875 49.0845L24.0845 42.1875L18.75 36.853ZM14.7095 42.1875L17.1875 39.7095L19.6655 42.1875L17.1875 44.6655L14.7095 42.1875Z" fill="#00227B"/>
<path d="M28.125 15.625H13.147L7.8125 10.2905L0.915466 17.1875L7.8125 24.0845L13.147 18.75H28.125V15.625ZM7.8125 19.6655L5.33453 17.1875L7.8125 14.7095L10.2905 17.1875L7.8125 19.6655Z" fill="#00227B"/>
<path d="M20.3125 4.6875C20.3125 3.8587 19.9833 3.06384 19.3972 2.47779C18.8112 1.89174 18.0163 1.5625 17.1875 1.5625C16.3587 1.5625 15.5639 1.89174 14.9778 2.47779C14.3918 3.06384 14.0625 3.8587 14.0625 4.6875C14.0588 5.23636 14.2016 5.77626 14.4763 6.25146C14.751 6.72666 15.1475 7.11992 15.625 7.39062V12.5H18.75V7.39062C19.2275 7.11992 19.624 6.72666 19.8987 6.25146C20.1734 5.77626 20.3162 5.23636 20.3125 4.6875Z" fill="#00227B"/>
<path d="M34.375 42.6102V37.5H31.25V42.6094C30.6542 42.9533 30.1886 43.4843 29.9254 44.1198C29.6621 44.7554 29.6159 45.46 29.794 46.1245C29.972 46.789 30.3644 47.3762 30.9101 47.7949C31.4559 48.2137 32.1246 48.4407 32.8125 48.4407C33.5004 48.4407 34.1691 48.2137 34.7149 47.7949C35.2606 47.3762 35.653 46.789 35.831 46.1245C36.0091 45.46 35.9629 44.7554 35.6996 44.1198C35.4364 43.4843 34.9708 42.9541 34.375 42.6102Z" fill="#00227B"/>
<path d="M49.0845 32.8125L42.1875 25.9155L36.853 31.25H21.875V34.375H36.853L42.1875 39.7095L49.0845 32.8125ZM42.1875 30.3345L44.6655 32.8125L42.1875 35.2905L39.7095 32.8125L42.1875 30.3345Z" fill="#00227B"/>
</g>
<defs>
<clipPath id="clip0_366_6372">
<rect width="50" height="50" fill="white"/>
</clipPath>
</defs>
</svg>
