<svg width="50" height="50" viewBox="0 0 50 50" fill="none" xmlns="http://www.w3.org/2000/svg">
<path d="M42.8125 19.0625C42.9688 19.0625 42.9688 19.0625 42.8125 19.0625L48.4375 4.6875C48.5938 4.375 48.4375 4.0625 48.2813 3.90625C48.125 3.75 47.6563 3.59375 47.5 3.75L33.125 9.21875C32.9688 9.21875 32.8125 9.21875 32.8125 9.375L22.8125 19.375C21.7188 18.75 20.7813 18.2812 19.8438 17.8125C19.8438 17.3438 19.8438 16.875 19.8438 16.25V15.9375C19.6875 10.9375 16.4063 7.1875 11.5625 6.5625C10.9375 6.5625 10.3125 6.5625 9.68752 6.40625C8.75002 6.40625 7.96877 6.40625 7.18752 6.25C5.31252 5.78125 2.96877 3.90625 3.43752 1.71875V1.5625C3.43752 1.25 3.12502 0.9375 2.81252 0.78125C2.34377 0.78125 2.03127 1.09375 1.87502 1.40625C1.25002 5 1.40627 9.21875 2.65627 12.6563C4.53127 18.125 9.06252 21.7188 15.3125 22.3438C15.3125 22.3438 15.3125 22.3438 15.4688 22.3438C15.625 22.3438 15.7813 22.3438 15.9375 22.1875C16.25 22.9688 16.7188 23.9062 17.3438 24.8438L9.84377 32.3438L6.25002 35.9375L4.06252 38.125C2.50002 39.6875 2.50002 42.1875 4.06252 43.5938L8.43752 47.9688C9.21877 48.75 10.1563 49.0625 11.25 49.0625H11.4063C12.3438 49.0625 13.2813 48.5938 14.0625 47.9688L26.0938 35.7812C26.4063 36.0938 26.7188 36.4062 27.0313 36.7188C30.9375 40.625 35.1563 44.0625 38.5938 46.25C41.0938 47.8125 43.125 48.75 44.5313 48.75C45.1563 48.75 45.7813 48.5938 46.25 48.125C49.0625 45.3125 41.0938 35.1562 34.8438 28.9062C34.5313 28.5938 34.2188 28.2812 33.9063 27.9688L42.8125 19.0625ZM46.4063 5.78125L45.3125 8.28125C44.6875 7.96875 44.0625 7.34375 43.75 6.71875L46.4063 5.78125ZM32.9688 15.7813C33.4375 15.3125 33.9063 15.1562 34.5313 15.1562H36.0938C36.5625 15.1562 36.875 15.4688 36.875 15.9375V17.5C36.875 18.125 36.5625 18.75 36.25 19.2188L30.4688 25C29.2188 23.9062 27.9688 22.9688 26.875 22.0312L32.9688 15.7813ZM32.5 12.9688C32.5 13.5938 32.3438 14.2188 31.875 14.5312L25.4688 20.9375C25 20.625 24.5313 20.3125 24.2188 20L32.5 11.7188V12.9688ZM15.1563 20.7812C9.68752 20 5.78127 16.875 4.06252 12.1875C3.43752 10 3.12502 7.65625 3.12502 5.46875C4.06252 6.5625 5.46877 7.5 6.87502 7.8125C7.81252 7.96875 8.90627 7.96875 9.84377 7.96875C10.4688 7.96875 11.0938 7.96875 11.5625 7.96875C15.4688 8.4375 18.2813 11.5625 18.4375 15.7813V16.0938C18.4375 16.875 18.4375 17.3438 18.4375 17.3438L15.1563 20.7812ZM19.0625 19.0625C20.1563 19.5312 21.25 20 22.5 20.9375C23.2813 21.4062 24.0625 21.875 25 22.6562C25 22.6562 25 22.6562 25.1563 22.6562C25.9375 23.2812 26.7188 23.9062 27.6563 24.5312C26.7188 26.7188 24.8438 28.5938 22.6563 29.5312C22.0313 28.75 21.25 27.8125 20.7813 27.0312C20.7813 27.0312 20.7813 27.0313 20.7813 26.875C20.1563 25.9375 19.5313 25.1562 19.0625 24.375C18.2813 23.125 17.6563 21.875 17.1875 20.9375L19.0625 19.0625ZM20 28.75C20.9375 29.8438 21.875 31.0938 22.9688 32.3438L16.875 38.4375L13.5938 35.1562L20 28.75ZM18.125 26.25C18.4375 26.7187 18.75 27.0312 19.0625 27.5L12.5 34.0625L11.4063 32.9688L18.125 26.25ZM12.8125 46.875C11.875 47.8125 10.4688 47.8125 9.53127 46.875L5.15627 42.5C5.00002 42.1875 4.68752 42.0312 4.68752 41.7188C4.53127 41.4062 4.53127 41.25 4.53127 40.9375C4.53127 40.625 4.53127 40.3125 4.68752 40.1562C4.84377 39.8438 5.00002 39.6875 5.15627 39.375L7.18752 37.3438L7.81252 36.7188L15.4688 44.375L12.8125 46.875ZM16.7188 43.125L8.90627 35.3125L10.1563 34.0625L11.7188 35.625L16.0938 40L17.6563 41.5625L16.7188 43.125ZM17.9688 39.5312L23.9063 33.5938C24.2188 33.9062 24.5313 34.375 25 34.6875L19.0625 40.625L17.9688 39.5312ZM45 47.0312C44.6875 47.3438 43.125 47.3438 39.375 45C35.9375 42.8125 32.0313 39.5312 28.125 35.625C27.6563 35.1562 27.1875 34.6875 26.7188 34.2188C25.9375 33.4375 25.3125 32.6562 24.6875 31.875C24.375 31.5625 24.0625 31.25 23.75 30.7813C25.9375 29.6875 27.8125 27.8125 28.9063 25.625C29.2188 25.9375 29.5313 26.0938 29.8438 26.4062C30.625 27.0312 31.4063 27.8125 32.1875 28.4375C32.6563 28.9063 33.125 29.375 33.5938 29.8438C42.9688 39.375 45.9375 46.0938 45 47.0312ZM32.8125 27.0312C32.5 26.7187 32.0313 26.25 31.7188 25.9375L37.5 20.1562C37.5 20.1562 37.5 20.1562 37.6563 20C38.125 19.5312 38.75 19.375 39.375 19.375H40.625L32.8125 27.0312ZM39.0625 17.9688C38.9063 17.9688 38.75 17.9688 38.4375 17.9688C38.4375 17.8125 38.4375 17.6562 38.4375 17.3438V15.7813C38.4375 14.5313 37.3438 13.4375 36.0938 13.4375H34.5313C34.375 13.4375 34.2188 13.4375 33.9063 13.4375C33.9063 13.2813 33.9063 13.125 33.9063 12.8125V10.4688L42.0313 7.34375C42.5 8.4375 43.4375 9.375 44.5313 9.84375L41.4063 17.9688H39.0625Z" fill="#00227B"/>
</svg>
