<svg width="60" height="60" viewBox="0 0 60 60" fill="none" xmlns="http://www.w3.org/2000/svg">
<g clip-path="url(#clip0_247_8162)">
<mask id="mask0_247_8162" style="mask-type:luminance" maskUnits="userSpaceOnUse" x="0" y="0" width="60" height="60">
<path d="M60 0H0V60H60V0Z" fill="white"/>
</mask>
<g mask="url(#mask0_247_8162)">
<path d="M15.988 22.104C17.0997 22.1241 18.2039 21.92 19.235 21.504C18.3861 20.5095 17.7186 19.3736 17.263 18.148C17.1492 17.8379 17.1618 17.4954 17.2981 17.1945C17.4345 16.8936 17.6836 16.6584 17.9918 16.5395C18.3001 16.4206 18.6426 16.4277 18.9457 16.5591C19.2488 16.6905 19.4881 16.9358 19.612 17.242C19.9852 18.275 20.555 19.2258 21.29 20.042C22.3201 18.8003 22.9621 17.283 23.136 15.679H15.963C15.6292 15.679 15.3091 15.5464 15.0731 15.3104C14.8371 15.0744 14.7045 14.7543 14.7045 14.4205C14.7045 14.0867 14.8371 13.7666 15.0731 13.5306C15.3091 13.2946 15.6292 13.162 15.963 13.162H19.906V10.965C19.906 10.6312 20.0386 10.3111 20.2746 10.0751C20.5106 9.83909 20.8307 9.7065 21.1645 9.7065C21.4983 9.7065 21.8184 9.83909 22.0544 10.0751C22.2904 10.3111 22.423 10.6312 22.423 10.965V13.171H26.366C26.6998 13.171 27.0199 13.3036 27.2559 13.5396C27.4919 13.7756 27.6245 14.0957 27.6245 14.4295C27.6245 14.7633 27.4919 15.0834 27.2559 15.3194C27.0199 15.5554 26.6998 15.688 26.366 15.688H25.695C25.5069 17.8298 24.6994 19.8705 23.371 21.561C24.3117 21.9627 25.3262 22.1627 26.349 22.148C26.6828 22.148 27.0029 22.2806 27.2389 22.5166C27.4749 22.7526 27.6075 23.0727 27.6075 23.4065C27.6075 23.7403 27.4749 24.0604 27.2389 24.2964C27.0029 24.5324 26.6828 24.665 26.349 24.665C24.579 24.6936 22.8359 24.229 21.315 23.323C19.7004 24.254 17.859 24.7186 15.996 24.665C15.6622 24.665 15.3421 24.5324 15.1061 24.2964C14.8701 24.0604 14.7375 23.7403 14.7375 23.4065C14.7375 23.0727 14.8701 22.7526 15.1061 22.5166C15.3421 22.2806 15.6622 22.148 15.996 22.148L15.988 22.104ZM32.071 29.327H10.258C9.92435 29.327 9.60438 29.1945 9.36846 28.9585C9.13254 28.7226 9 28.4026 9 28.069V6.258C9 5.92436 9.13254 5.60438 9.36846 5.36846C9.60438 5.13254 9.92435 5 10.258 5H32.071C32.4046 5 32.7246 5.13254 32.9605 5.36846C33.1965 5.60438 33.329 5.92436 33.329 6.258V28.072C33.329 28.4055 33.1966 28.7253 32.9609 28.9612C32.7252 29.1971 32.4055 29.3297 32.072 29.33L32.071 29.327ZM30.813 7.514H11.513V26.814H30.813V7.514ZM51.787 32.263V54.079C51.787 54.2442 51.7545 54.4078 51.6912 54.5604C51.628 54.713 51.5354 54.8517 51.4185 54.9685C51.3017 55.0854 51.163 55.178 51.0104 55.2412C50.8578 55.3045 50.6942 55.337 50.529 55.337H28.716C28.3824 55.337 28.0624 55.2045 27.8265 54.9685C27.5905 54.7326 27.458 54.4126 27.458 54.079V32.266C27.458 31.9324 27.5905 31.6124 27.8265 31.3765C28.0624 31.1405 28.3824 31.008 28.716 31.008H50.525C50.8586 31.008 51.1786 31.1405 51.4145 31.3765C51.6505 31.6124 51.783 31.9324 51.783 32.266L51.787 32.263ZM49.27 33.521H29.97V52.821H49.27V33.521ZM33.425 48.995L38.459 36.41C38.4764 36.363 38.4989 36.3181 38.526 36.276C38.5395 36.2437 38.5562 36.2129 38.576 36.184C38.5987 36.1509 38.6241 36.1198 38.652 36.091L38.728 35.999L38.795 35.94L38.921 35.84H38.988L39.139 35.756H40.079L40.222 35.823H40.298L40.416 35.915L40.492 35.982L40.568 36.074C40.5955 36.1025 40.6206 36.1333 40.643 36.166C40.6633 36.1947 40.6804 36.2256 40.694 36.258C40.7213 36.3 40.7437 36.345 40.761 36.392L45.795 48.977C45.863 49.1327 45.8987 49.3005 45.9001 49.4704C45.9015 49.6402 45.8685 49.8086 45.8031 49.9654C45.7377 50.1222 45.6412 50.2641 45.5195 50.3826C45.3979 50.5011 45.2534 50.5938 45.095 50.655C44.9463 50.7176 44.7863 50.7489 44.625 50.747C44.3742 50.7468 44.1293 50.6717 43.9215 50.5313C43.7137 50.3909 43.5527 50.1916 43.459 49.959L42.142 46.527H37.108L35.741 49.933C35.6485 50.163 35.4901 50.3606 35.2856 50.501C35.0812 50.6414 34.8399 50.7183 34.592 50.722C34.4307 50.724 34.2707 50.6926 34.122 50.63C33.8123 50.5057 33.5647 50.2636 33.4335 49.9569C33.3022 49.6501 33.2981 49.3038 33.422 48.994L33.425 48.995ZM41.118 44.011L39.625 40.236L38.125 44.012L41.118 44.011ZM37.995 13.33C38.272 13.422 44.212 15.369 45.319 23.63L43.347 22.053C43.0867 21.8437 42.7539 21.7465 42.4219 21.7826C42.0898 21.8187 41.7858 21.9852 41.5765 22.2455C41.3673 22.5058 41.27 22.8386 41.3061 23.1706C41.3422 23.5027 41.5087 23.8067 41.769 24.016L45.964 27.372C46.0635 27.4468 46.1738 27.5061 46.291 27.548H46.358C46.4776 27.5851 46.6018 27.605 46.727 27.607C46.8165 27.6153 46.9065 27.6153 46.996 27.607H47.055L47.24 27.548L47.325 27.504C47.3753 27.4808 47.4232 27.4527 47.468 27.42L47.552 27.353C47.5974 27.3172 47.6372 27.2747 47.67 27.227H47.712V27.185L47.788 27.067L47.847 26.967V26.849C47.8519 26.8098 47.8519 26.7702 47.847 26.731V26.622C47.8507 26.5774 47.8507 26.5326 47.847 26.488V26.438C48.015 13.862 39.105 11.043 38.727 10.925C38.412 10.8423 38.0771 10.8849 37.7928 11.0439C37.5086 11.2028 37.2969 11.4658 37.2024 11.7775C37.1079 12.0892 37.1379 12.4254 37.2861 12.7154C37.4342 13.0055 37.6891 13.2269 37.997 13.333L37.995 13.33ZM22.792 47.004C22.515 46.912 16.575 44.965 15.468 36.704L17.44 38.281C17.6644 38.4593 17.9424 38.5569 18.229 38.558C18.4176 38.5594 18.6041 38.5178 18.7742 38.4363C18.9444 38.3549 19.0938 38.2358 19.211 38.088C19.4181 37.8269 19.5139 37.4947 19.4778 37.1634C19.4417 36.8321 19.2765 36.5284 19.018 36.318L14.825 32.962L14.707 32.886L14.607 32.827H13.65L13.532 32.886L13.432 32.936L13.323 33.012C13.2915 33.0295 13.2631 33.0521 13.239 33.079L13.096 33.222L13.02 33.34L12.961 33.44C12.9608 33.483 12.946 33.5246 12.919 33.558C12.9142 33.5969 12.9142 33.6362 12.919 33.675V33.784C12.9149 33.8286 12.9149 33.8734 12.919 33.918V33.968C12.919 46.503 21.829 49.321 22.206 49.439C22.3235 49.4721 22.4449 49.4889 22.567 49.489C22.8668 49.487 23.156 49.3779 23.3826 49.1815C23.6091 48.9851 23.7581 48.7143 23.8026 48.4178C23.8471 48.1213 23.7842 47.8186 23.6254 47.5644C23.4665 47.3101 23.222 47.121 22.936 47.031L22.792 47.004Z" fill="#00227B" stroke="white" stroke-width="1.4"/>
</g>
</g>
<defs>
<clipPath id="clip0_247_8162">
<rect width="60" height="60" fill="white"/>
</clipPath>
</defs>
</svg>
