<svg width="62" height="62" viewBox="0 0 62 62" fill="none" xmlns="http://www.w3.org/2000/svg">
<path d="M57.61 17.9H4C2.93913 17.9 1.92172 18.3214 1.17158 19.0716C0.421432 19.8217 0 20.8391 0 21.9V57.1C0 58.1609 0.421432 59.1783 1.17158 59.9284C1.92172 60.6786 2.93913 61.1 4 61.1H57.61C58.1395 61.1066 58.665 61.008 59.1561 60.81C59.6472 60.6119 60.0941 60.3184 60.4708 59.9463C60.8476 59.5742 61.1467 59.131 61.3508 58.6424C61.5549 58.1538 61.66 57.6295 61.66 57.1V21.9C61.6726 21.367 61.5761 20.8371 61.3764 20.3428C61.1767 19.8484 60.878 19.4002 60.4987 19.0256C60.1193 18.6509 59.6674 18.3578 59.1707 18.1643C58.6739 17.9707 58.1428 17.8808 57.61 17.9ZM59.13 57.1C59.1173 57.4972 58.9524 57.8744 58.6695 58.1535C58.3867 58.4327 58.0074 58.5925 57.61 58.6H4C3.60264 58.5925 3.22335 58.4327 2.94048 58.1535C2.6576 57.8744 2.49275 57.4972 2.48 57.1V21.9C2.49275 21.5028 2.6576 21.1256 2.94048 20.8465C3.22335 20.5673 3.60264 20.4075 4 20.4H57.61C58.0074 20.4075 58.3867 20.5673 58.6695 20.8465C58.9524 21.1256 59.1173 21.5028 59.13 21.9V57.1Z" fill="#00227B"/>
<path d="M6.31984 14.1999C6.66571 14.1974 6.99699 14.0603 7.24342 13.8176C7.48985 13.5749 7.63205 13.2457 7.63985 12.8999C7.63985 11.9999 8.13985 11.3999 8.63985 11.3999H53.0498C53.5498 11.3999 54.0498 11.9999 54.0498 12.8999C54.0786 13.2289 54.2295 13.5351 54.473 13.7582C54.7164 13.9814 55.0346 14.1051 55.3648 14.1051C55.6951 14.1051 56.0133 13.9814 56.2567 13.7582C56.5002 13.5351 56.6511 13.2289 56.6798 12.8999C56.726 11.8872 56.3688 10.8974 55.6865 10.1476C55.0042 9.39784 54.0524 8.94914 53.0398 8.8999H8.64984C7.63725 8.94914 6.68549 9.39784 6.00317 10.1476C5.32086 10.8974 4.96365 11.8872 5.00984 12.8999C5.00567 13.0726 5.03678 13.2443 5.10127 13.4046C5.16576 13.5649 5.26227 13.7103 5.38489 13.832C5.50752 13.9537 5.65368 14.0491 5.81444 14.1124C5.9752 14.1756 6.14717 14.2054 6.31984 14.1999Z" fill="#00227B"/>
<path d="M8.84988 5.29999C9.19575 5.29747 9.52704 5.1603 9.77347 4.9176C10.0199 4.6749 10.1621 4.34579 10.1699 4C10.1699 3.1 10.6699 2.5 10.9799 2.5H50.6299C50.9299 2.5 51.4399 3.1 51.4399 4C51.4686 4.32896 51.6196 4.63522 51.863 4.85834C52.1064 5.08145 52.4247 5.2052 52.7549 5.2052C53.0851 5.2052 53.4033 5.08145 53.6468 4.85834C53.8902 4.63522 54.0412 4.32896 54.0699 4C54.0699 1.7 52.5499 0 50.7299 0H10.9799C9.04988 0 7.63989 1.8 7.63989 4C7.62435 4.16697 7.64427 4.33529 7.69835 4.49402C7.75243 4.65274 7.83944 4.79828 7.95369 4.92102C8.06794 5.04377 8.20684 5.14099 8.36128 5.2063C8.51573 5.27161 8.68224 5.30353 8.84988 5.29999Z" fill="#00227B"/>
<path d="M10.17 49.7H25.64C25.9859 49.6974 26.3172 49.5603 26.5636 49.3176C26.81 49.0749 26.9522 48.7458 26.96 48.4V43.3C26.9601 41.6625 26.5059 40.057 25.6478 38.6623C24.7898 37.2676 23.5617 36.1382 22.1 35.4C22.8029 34.814 23.3674 34.0798 23.7529 33.2499C24.1385 32.42 24.3356 31.515 24.33 30.6C24.2642 28.9267 23.5533 27.3439 22.3462 26.1833C21.1391 25.0227 19.5295 24.3745 17.855 24.3745C16.1805 24.3745 14.5709 25.0227 13.3638 26.1833C12.1567 27.3439 11.4458 28.9267 11.38 30.6C11.3859 31.5131 11.5881 32.4144 11.9729 33.2426C12.3576 34.0707 12.916 34.8065 13.61 35.4C12.1591 36.1515 10.9401 37.284 10.0839 38.6757C9.22775 40.0675 8.76661 41.666 8.75 43.3V48.4C8.79658 48.7488 8.96434 49.0702 9.22393 49.3079C9.48352 49.5455 9.81841 49.6843 10.17 49.7ZM14.01 30.6C14.0001 29.8365 14.2174 29.0872 14.6344 28.4476C15.0514 27.8079 15.6491 27.3066 16.3517 27.0076C17.0543 26.7085 17.8299 26.6251 18.58 26.7679C19.3301 26.9108 20.0207 27.2735 20.5642 27.8099C21.1076 28.3463 21.4793 29.0321 21.632 29.7803C21.7846 30.5284 21.7113 31.3051 21.4215 32.0115C21.1316 32.7179 20.6382 33.3222 20.0041 33.7475C19.3699 34.1728 18.6236 34.3999 17.86 34.4C17.3575 34.4039 16.8592 34.3087 16.3936 34.1198C15.9279 33.9308 15.5042 33.6518 15.1465 33.2988C14.7889 32.9458 14.5044 32.5257 14.3094 32.0626C14.1143 31.5995 14.0126 31.1025 14.01 30.6ZM11.48 43.3C11.48 41.5761 12.1648 39.9228 13.3838 38.7038C14.6028 37.4848 16.2561 36.8 17.98 36.8C19.7039 36.8 21.3572 37.4848 22.5762 38.7038C23.7952 39.9228 24.48 41.5761 24.48 43.3V47.1H11.48V43.3Z" fill="#00227B"/>
<path d="M52.7598 34.3999H32.1198C31.775 34.3999 31.4444 34.5369 31.2006 34.7807C30.9568 35.0245 30.8198 35.3551 30.8198 35.6999C30.8198 36.0447 30.9568 36.3753 31.2006 36.6191C31.4444 36.8629 31.775 36.9999 32.1198 36.9999H52.7598C53.104 36.9949 53.4327 36.8566 53.677 36.6141C53.9213 36.3717 54.0621 36.044 54.0698 35.6999C54.0442 35.3619 53.8976 35.0445 53.6571 34.8058C53.4165 34.567 53.098 34.423 52.7598 34.3999Z" fill="#00227B"/>
<path d="M52.7598 42.1H32.1198C31.775 42.1 31.4444 42.2369 31.2006 42.4807C30.9568 42.7245 30.8198 43.0552 30.8198 43.4C30.8198 43.7447 30.9568 44.0754 31.2006 44.3192C31.4444 44.563 31.775 44.7 32.1198 44.7H52.7598C53.1046 44.7 53.4353 44.563 53.6791 44.3192C53.9229 44.0754 54.0598 43.7447 54.0598 43.4C54.0598 43.0552 53.9229 42.7245 53.6791 42.4807C53.4353 42.2369 53.1046 42.1 52.7598 42.1Z" fill="#00227B"/>
<path d="M52.7598 52.3001H8.84981C8.50503 52.3001 8.17436 52.437 7.93056 52.6808C7.68677 52.9246 7.5498 53.2553 7.5498 53.6001C7.5498 53.9448 7.68677 54.2755 7.93056 54.5193C8.17436 54.7631 8.50503 54.9 8.84981 54.9H52.6498C52.9957 54.8975 53.327 54.7604 53.5734 54.5177C53.8198 54.275 53.962 53.9458 53.9698 53.6001C53.9853 53.4331 53.9654 53.2647 53.9113 53.106C53.8573 52.9473 53.7702 52.8018 53.656 52.679C53.5417 52.5563 53.4029 52.4591 53.2484 52.3938C53.094 52.3284 52.9275 52.2965 52.7598 52.3001Z" fill="#00227B"/>
<path d="M35.8601 26.7999H33.3301V29.2999H35.8601V26.7999Z" fill="#00227B"/>
<path d="M43.6501 26.7999H41.1201V29.2999H43.6501V26.7999Z" fill="#00227B"/>
<path d="M51.3401 26.7999H48.8101V29.2999H51.3401V26.7999Z" fill="#00227B"/>
</svg>
