<svg width="48" height="48" viewBox="0 0 48 48" fill="none" xmlns="http://www.w3.org/2000/svg">
<g clip-path="url(#clip0_444_2616)">
<path d="M40 24H8C7.447 24 7 23.553 7 23V1C7 0.447 7.447 0 8 0H40C40.553 0 41 0.447 41 1V23C41 23.553 40.553 24 40 24ZM9 22H39V2H9V22Z" fill="#00227B"/>
<path d="M14 20C13.447 20 13 19.553 13 19V13.75C13 13.197 13.447 12.75 14 12.75C14.553 12.75 15 13.197 15 13.75V19C15 19.553 14.553 20 14 20ZM18 20C17.447 20 17 19.553 17 19V12C17 11.447 17.447 11 18 11C18.553 11 19 11.447 19 12V19C19 19.553 18.553 20 18 20ZM22 20C21.447 20 21 19.553 21 19V10.25C21 9.697 21.447 9.25 22 9.25C22.553 9.25 23 9.697 23 10.25V19C23 19.553 22.553 20 22 20ZM26 20C25.447 20 25 19.553 25 19V8.5C25 7.947 25.447 7.5 26 7.5C26.553 7.5 27 7.947 27 8.5V19C27 19.553 26.553 20 26 20ZM30 20C29.447 20 29 19.553 29 19V6.75C29 6.197 29.447 5.75 30 5.75C30.553 5.75 31 6.197 31 6.75V19C31 19.553 30.553 20 30 20ZM34 20C33.447 20 33 19.553 33 19V5C33 4.447 33.447 4 34 4C34.553 4 35 4.447 35 5V19C35 19.553 34.553 20 34 20Z" fill="#00227B"/>
<path d="M36 20H12C11.447 20 11 19.553 11 19C11 18.447 11.447 18 12 18H36C36.553 18 37 18.447 37 19C37 19.553 36.553 20 36 20Z" fill="#00227B"/>
<path d="M44 48H4C3.447 48 3 47.553 3 47V15C3 14.447 3.447 14 4 14H8C8.553 14 9 14.447 9 15V22H39V15C39 14.447 39.447 14 40 14H44C44.553 14 45 14.447 45 15V47C45 47.553 44.553 48 44 48ZM5 46H43V16H41V23C41 23.553 40.553 24 40 24H8C7.447 24 7 23.553 7 23V16H5V46Z" fill="#00227B"/>
<path d="M22 44C18.141 44 15 40.859 15 37C15 33.141 18.141 30 22 30C22.553 30 23 30.447 23 31V36H28C28.553 36 29 36.447 29 37C29 40.859 25.859 44 22 44ZM21 32.101C18.721 32.566 17 34.585 17 37C17 39.757 19.243 42 22 42C24.415 42 26.435 40.279 26.899 38H22C21.447 38 21 37.553 21 37V32.101Z" fill="#00227B"/>
<path d="M32 34H26C25.447 34 25 33.553 25 33V27C25 26.447 25.447 26 26 26C29.859 26 33 29.141 33 33C33 33.553 32.553 34 32 34ZM27 32H30.899C30.501 30.044 28.956 28.499 27 28.101V32Z" fill="#00227B"/>
</g>
<defs>
<clipPath id="clip0_444_2616">
<rect width="48" height="48" fill="white"/>
</clipPath>
</defs>
</svg>
