<svg width="74" height="30" viewBox="0 0 74 30" fill="none" xmlns="http://www.w3.org/2000/svg">
<g clip-path="url(#clip0_424_4091)">
<path d="M24.3771 30C33.0713 30 40.1194 28.7443 40.1194 27.1953C40.1194 25.6464 33.0713 24.3907 24.3771 24.3907C15.6828 24.3907 8.63477 25.6464 8.63477 27.1953C8.63477 28.7443 15.6828 30 24.3771 30Z" fill="#C1DAE5"/>
<path d="M58.2579 30C66.9522 30 74.0002 28.7443 74.0002 27.1953C74.0002 25.6464 66.9522 24.3907 58.2579 24.3907C49.5637 24.3907 42.5156 25.6464 42.5156 27.1953C42.5156 28.7443 49.5637 30 58.2579 30Z" fill="#C1DAE5"/>
<path d="M63.2871 3.31094C63.2871 3.31094 67.703 3.7276 70.2289 4.8656C70.4588 4.9713 70.653 5.14142 70.7882 5.35533C70.9233 5.56924 70.9935 5.81777 70.9903 6.07079V8.53047C70.9864 8.88655 70.8415 9.22655 70.5872 9.4758C69.7402 10.3286 68.7325 11.0047 67.6224 11.465L63.2871 3.31094Z" fill="url(#paint0_linear_424_4091)"/>
<path d="M66.6105 8.74552C66.6105 8.74552 28.193 8.41398 15.5544 10.1523C10.9772 10.7796 -0.273035 14.3907 0.00911743 20.1389C0.29127 25.8871 6.52549 16.1738 7.83324 15.4525C11.0713 13.6604 11.7565 10.3226 67.1165 10.578" fill="url(#paint1_linear_424_4091)"/>
<path d="M10.3277 3.069C10.3277 3.069 5.90288 3.44087 3.36799 4.55646C3.13755 4.65976 2.94207 4.82781 2.80531 5.04017C2.66856 5.25254 2.59642 5.50007 2.59767 5.75269V8.21237C2.59799 8.56873 2.73975 8.91037 2.99179 9.16219C3.83117 10.0226 4.8328 10.7078 5.93871 11.1783L10.3277 3.069Z" fill="url(#paint2_linear_424_4091)"/>
<path d="M6.9553 8.46774C6.9553 8.46774 45.3683 8.49014 58.0114 10.345C62.5841 11.017 73.7985 14.7312 73.4626 20.4794C73.1267 26.2276 66.9865 16.4471 65.6833 15.7213C62.4587 13.9292 61.8093 10.5556 6.44922 10.2957" fill="url(#paint3_linear_424_4091)"/>
<path d="M31.7715 9.40411L41.8304 9.44892V13.2393C41.8304 13.2393 37.6743 8.69176 32.1163 13.1944L31.7715 9.40411Z" fill="#234A81"/>
<path d="M31.7715 9.40411L41.8304 9.44892V13.2393C41.8304 13.2393 37.6743 8.69176 32.1163 13.1944L31.7715 9.40411Z" fill="url(#paint4_linear_424_4091)"/>
<path style="mix-blend-mode:screen" opacity="0.78" d="M31.9319 16.4986C33.3367 9.3155 28.6547 2.3532 21.4743 0.947843C14.2939 -0.457514 7.33424 4.22625 5.92941 11.4093C4.52458 18.5924 9.20659 25.5547 16.387 26.96C23.5673 28.3654 30.527 23.6816 31.9319 16.4986Z" fill="url(#paint5_radial_424_4091)"/>
<path style="mix-blend-mode:screen" opacity="0.78" d="M66.0267 20.7989C69.7115 14.4756 67.5745 6.36137 61.2536 2.67522C54.9327 -1.01093 46.8215 1.12689 43.1367 7.45017C39.4519 13.7734 41.589 21.8877 47.9099 25.5738C54.2308 29.26 62.342 27.1222 66.0267 20.7989Z" fill="url(#paint6_radial_424_4091)"/>
<path d="M54.6481 0.165773C51.8866 0.150734 49.1827 0.955391 46.8784 2.47794C44.5741 4.0005 42.773 6.17254 41.7029 8.71929C40.6329 11.266 40.3419 14.0731 40.8669 16.7853C41.3918 19.4975 42.7091 21.993 44.6521 23.9562C46.595 25.9193 49.0764 27.2618 51.7822 27.8139C54.4881 28.3661 57.2968 28.1029 59.8531 27.0578C62.4094 26.0128 64.5985 24.2327 66.1433 21.9428C67.6881 19.6529 68.5193 16.9561 68.5318 14.1935C68.5485 10.4921 67.0955 6.93543 64.4922 4.30509C61.8889 1.67475 58.3482 0.185923 54.6481 0.165773ZM54.5272 26.3127C52.1177 26.3021 49.7655 25.5768 47.7681 24.2287C45.7706 22.8806 44.2177 20.9703 43.3056 18.7392C42.3936 16.5081 42.1635 14.0566 42.6443 11.6946C43.1251 9.3327 44.2953 7.16645 46.0069 5.46988C47.7185 3.77331 49.8946 2.62262 52.26 2.16335C54.6254 1.70407 57.0737 1.95684 59.2955 2.88969C61.5173 3.82253 63.4126 5.39355 64.7418 7.40404C66.0709 9.41454 66.7742 11.7742 66.7628 14.1846C66.7557 15.7847 66.4336 17.3678 65.8148 18.8434C65.1961 20.3189 64.2928 21.6581 63.1565 22.7844C62.0203 23.9106 60.6734 24.8019 59.1927 25.4073C57.7121 26.0127 56.1267 26.3204 54.5272 26.3127Z" fill="url(#paint7_linear_424_4091)"/>
<path d="M18.9938 1.02515e-06C16.2323 -0.015038 13.5284 0.78962 11.2241 2.31217C8.91983 3.83472 7.11872 6.00676 6.04865 8.55351C4.97857 11.1003 4.68761 13.9073 5.21256 16.6195C5.73751 19.3317 7.05479 21.8272 8.99776 23.7904C10.9407 25.7535 13.4221 27.0961 16.1279 27.6482C18.8338 28.2003 21.6425 27.9372 24.1988 26.8921C26.7551 25.847 28.9442 24.0669 30.489 21.777C32.0338 19.4871 32.8651 16.7903 32.8775 14.0278C32.8942 10.3263 31.4412 6.76966 28.8379 4.13932C26.2346 1.50898 22.6939 0.0201513 18.9938 1.02515e-06ZM18.8729 26.147C16.4645 26.1354 14.1136 25.4097 12.1175 24.0615C10.1214 22.7134 8.56971 20.8034 7.6587 18.5731C6.74769 16.3428 6.51826 13.8923 6.99942 11.5315C7.48058 9.17072 8.65071 7.00571 10.3619 5.31021C12.073 3.61471 14.2483 2.46489 16.6127 2.00615C18.9771 1.54741 21.4243 1.80034 23.645 2.73298C25.8657 3.66561 27.76 5.23605 29.0885 7.24571C30.417 9.25537 31.1199 11.614 31.1085 14.0233C31.1008 15.6231 30.7783 17.2056 30.1593 18.6807C29.5402 20.1558 28.6368 21.4944 27.5007 22.6202C26.3645 23.746 25.0178 24.6369 23.5374 25.242C22.0571 25.8471 20.4721 26.1546 18.8729 26.147Z" fill="url(#paint8_linear_424_4091)"/>
<path style="mix-blend-mode:screen" opacity="0.65" d="M15.3173 15.2599C15.2594 14.8247 15.231 14.3861 15.2322 13.9471C15.2416 11.7981 15.9247 9.70613 17.1853 7.96599C18.446 6.22584 20.2206 4.92521 22.2592 4.24731C20.717 3.71784 19.071 3.56348 17.4573 3.797C15.8437 4.03053 14.3088 4.64522 12.9799 5.59018C11.651 6.53515 10.5662 7.78321 9.8153 9.23102C9.06445 10.6788 8.66914 12.2847 8.66212 13.9158C8.66164 14.3546 8.68856 14.793 8.74273 15.2285L15.3173 15.2599Z" fill="url(#paint9_linear_424_4091)"/>
<path style="mix-blend-mode:screen" opacity="0.65" d="M51.312 15.4256C51.2563 14.9902 51.2279 14.5518 51.2269 14.1129C51.2419 11.9646 51.9277 9.87474 53.1885 8.13557C54.4492 6.39639 56.2218 5.09489 58.2583 4.41308C56.7158 3.88349 55.0693 3.72919 53.4553 3.96294C51.8413 4.1967 50.3062 4.81179 48.9772 5.75726C47.6482 6.70274 46.5634 7.95138 45.8129 9.39976C45.0623 10.8482 44.6675 12.4546 44.6612 14.086C44.6594 14.5247 44.6848 14.9632 44.7374 15.3987L51.312 15.4256Z" fill="url(#paint10_linear_424_4091)"/>
<path style="mix-blend-mode:screen" opacity="0.41" d="M24.9635 4.66846C27.2578 6.39441 28.7929 8.94373 29.2456 11.7795C29.6982 14.6152 29.0331 17.516 27.3902 19.8709C25.7473 22.2258 23.255 23.8509 20.4382 24.404C17.6213 24.9571 14.6998 24.395 12.2891 22.836C13.4784 23.7308 14.8358 24.3767 16.2801 24.7352C17.7244 25.0937 19.2261 25.1575 20.6956 24.9227C22.1651 24.688 23.5723 24.1595 24.8332 23.3688C26.0941 22.5782 27.1829 21.5415 28.0345 20.3208C28.8862 19.1 29.4833 17.7201 29.7903 16.2634C30.0972 14.8067 30.1077 13.3031 29.8211 11.8423C29.5345 10.3815 28.9566 8.99342 28.1221 7.76089C27.2875 6.52835 26.2133 5.47663 24.9635 4.66846Z" fill="url(#paint11_linear_424_4091)"/>
<path style="mix-blend-mode:screen" opacity="0.41" d="M61.1647 4.83871C63.459 6.56466 64.9941 9.11398 65.4467 11.9497C65.8994 14.7855 65.2342 17.6863 63.5914 20.0412C61.9485 22.396 59.4562 24.0212 56.6393 24.5743C53.8225 25.1274 50.901 24.5652 48.4902 23.0063C49.6796 23.901 51.0369 24.5469 52.4813 24.9054C53.9256 25.2639 55.4273 25.3277 56.8968 25.093C58.3663 24.8582 59.7735 24.3297 61.0344 23.5391C62.2953 22.7484 63.384 21.7118 64.2357 20.491C65.0874 19.2702 65.6845 17.8903 65.9914 16.4337C66.2984 14.977 66.3089 13.4734 66.0222 12.0126C65.7356 10.5518 65.1578 9.16367 64.3232 7.93114C63.4886 6.6986 62.4144 5.64688 61.1647 4.83871Z" fill="url(#paint12_linear_424_4091)"/>
</g>
<defs>
<linearGradient id="paint0_linear_424_4091" x1="63.2871" y1="7.38799" x2="70.9903" y2="7.38799" gradientUnits="userSpaceOnUse">
<stop stop-color="#1A237E"/>
<stop offset="1" stop-color="#303F9F"/>
</linearGradient>
<linearGradient id="paint1_linear_424_4091" x1="0.000160214" y1="15.336" x2="67.1121" y2="15.336" gradientUnits="userSpaceOnUse">
<stop stop-color="#303F9F"/>
<stop offset="1" stop-color="#1A237E"/>
</linearGradient>
<linearGradient id="paint2_linear_424_4091" x1="2.58424" y1="7.12366" x2="10.3277" y2="7.12366" gradientUnits="userSpaceOnUse">
<stop stop-color="#303F9F"/>
<stop offset="1" stop-color="#1A237E"/>
</linearGradient>
<linearGradient id="paint3_linear_424_4091" x1="6.43578" y1="15.3763" x2="73.4581" y2="15.3763" gradientUnits="userSpaceOnUse">
<stop stop-color="#303F9F"/>
<stop offset="1" stop-color="#1A237E"/>
</linearGradient>
<linearGradient id="paint4_linear_424_4091" x1="31.7491" y1="11.3217" x2="41.808" y2="11.3217" gradientUnits="userSpaceOnUse">
<stop stop-color="#1A237E"/>
<stop offset="0.5" stop-color="#303F9F"/>
<stop offset="1" stop-color="#1A237E"/>
</linearGradient>
<radialGradient id="paint5_radial_424_4091" cx="0" cy="0" r="1" gradientUnits="userSpaceOnUse" gradientTransform="translate(19.3171 13.3832) rotate(0.0977964) scale(13.2245 13.2295)">
<stop stop-color="white"/>
<stop offset="0.18" stop-color="white" stop-opacity="0.84"/>
<stop offset="0.58" stop-color="white" stop-opacity="0.45"/>
<stop offset="1" stop-color="white" stop-opacity="0"/>
</radialGradient>
<radialGradient id="paint6_radial_424_4091" cx="0" cy="0" r="1" gradientUnits="userSpaceOnUse" gradientTransform="translate(54.5847 14.1179) rotate(0.260105) scale(13.2477 13.2527)">
<stop stop-color="white"/>
<stop offset="0.18" stop-color="white" stop-opacity="0.84"/>
<stop offset="0.58" stop-color="white" stop-opacity="0.45"/>
<stop offset="1" stop-color="white" stop-opacity="0"/>
</radialGradient>
<linearGradient id="paint7_linear_424_4091" x1="54.5809" y1="28.0959" x2="54.5809" y2="0.165772" gradientUnits="userSpaceOnUse">
<stop stop-color="#1A237E"/>
<stop offset="1" stop-color="#303F9F"/>
</linearGradient>
<linearGradient id="paint8_linear_424_4091" x1="18.9311" y1="27.9301" x2="18.9311" y2="4.37133e-07" gradientUnits="userSpaceOnUse">
<stop stop-color="#1A237E"/>
<stop offset="1" stop-color="#303F9F"/>
</linearGradient>
<linearGradient id="paint9_linear_424_4091" x1="8.69397" y1="9.42898" x2="22.2506" y2="9.49047" gradientUnits="userSpaceOnUse">
<stop stop-color="white"/>
<stop offset="0.19" stop-color="#DADADA" stop-opacity="0.92"/>
<stop offset="0.61" stop-color="#7D7D7D" stop-opacity="0.71"/>
<stop offset="1" stop-color="#212121" stop-opacity="0.51"/>
</linearGradient>
<linearGradient id="paint10_linear_424_4091" x1="44.6927" y1="9.59688" x2="58.2448" y2="9.65835" gradientUnits="userSpaceOnUse">
<stop stop-color="white"/>
<stop offset="0.19" stop-color="#DADADA" stop-opacity="0.92"/>
<stop offset="0.61" stop-color="#7D7D7D" stop-opacity="0.71"/>
<stop offset="1" stop-color="#212121" stop-opacity="0.51"/>
</linearGradient>
<linearGradient id="paint11_linear_424_4091" x1="21.226" y1="4.16773" x2="21.1378" y2="23.5896" gradientUnits="userSpaceOnUse">
<stop stop-color="white"/>
<stop offset="0.02" stop-color="#F6F6F6" stop-opacity="0.98"/>
<stop offset="0.13" stop-color="#BDBDBD" stop-opacity="0.87"/>
<stop offset="0.25" stop-color="#8A8A8A" stop-opacity="0.77"/>
<stop offset="0.37" stop-color="#606060" stop-opacity="0.69"/>
<stop offset="0.49" stop-color="#3D3D3D" stop-opacity="0.63"/>
<stop offset="0.62" stop-color="#222222" stop-opacity="0.57"/>
<stop offset="0.74" stop-color="#0F0F0F" stop-opacity="0.54"/>
<stop offset="0.87" stop-color="#040404" stop-opacity="0.51"/>
<stop offset="1" stop-opacity="0.51"/>
</linearGradient>
<linearGradient id="paint12_linear_424_4091" x1="57.3365" y1="25.219" x2="57.4292" y2="4.81147" gradientUnits="userSpaceOnUse">
<stop stop-color="white"/>
<stop offset="0.02" stop-color="#F6F6F6" stop-opacity="0.98"/>
<stop offset="0.13" stop-color="#BDBDBD" stop-opacity="0.87"/>
<stop offset="0.25" stop-color="#8A8A8A" stop-opacity="0.77"/>
<stop offset="0.37" stop-color="#606060" stop-opacity="0.69"/>
<stop offset="0.49" stop-color="#3D3D3D" stop-opacity="0.63"/>
<stop offset="0.62" stop-color="#222222" stop-opacity="0.57"/>
<stop offset="0.74" stop-color="#0F0F0F" stop-opacity="0.54"/>
<stop offset="0.87" stop-color="#040404" stop-opacity="0.51"/>
<stop offset="1" stop-opacity="0.51"/>
</linearGradient>
<clipPath id="clip0_424_4091">
<rect width="74" height="30" fill="white"/>
</clipPath>
</defs>
</svg>
