<svg width="69" height="72" viewBox="0 0 69 72" fill="none" xmlns="http://www.w3.org/2000/svg">
<path d="M34.0847 26.2214C35.4744 26.2065 36.8287 25.7808 37.977 24.9979C39.1253 24.215 40.0163 23.1098 40.5379 21.8216C41.0594 20.5333 41.1882 19.1195 40.908 17.7582C40.6278 16.3969 39.951 15.149 38.9631 14.1715C37.9751 13.194 36.72 12.5306 35.3558 12.2649C33.9916 11.9992 32.5793 12.1431 31.2967 12.6783C30.0141 13.2136 28.9185 14.1163 28.1478 15.2729C27.3771 16.4295 26.9659 17.7882 26.9658 19.178C26.9674 20.1089 27.1533 21.0302 27.5125 21.889C27.8718 22.7477 28.3974 23.5269 29.0591 24.1816C29.7208 24.8363 30.5055 25.3536 31.3681 25.7037C32.2306 26.0538 33.1539 26.2297 34.0847 26.2214ZM34.0847 13.6439C35.1765 13.6563 36.2402 13.9914 37.1419 14.607C38.0437 15.2226 38.7432 16.0911 39.1525 17.1034C39.5617 18.1157 39.6624 19.2263 39.4418 20.2957C39.2212 21.365 38.6892 22.3453 37.9128 23.113C37.1364 23.8806 36.1503 24.4014 35.0785 24.6099C34.0068 24.8184 32.8973 24.7052 31.8897 24.2846C30.8822 23.8639 30.0215 23.1546 29.4162 22.2459C28.8108 21.3373 28.4878 20.2699 28.4877 19.178C28.5075 17.7056 29.1055 16.3 30.1527 15.2646C31.1998 14.2292 32.6121 13.6471 34.0847 13.6439Z" fill="#00227B"/>
<path d="M34.0855 22.3223C34.7057 22.3149 35.3099 22.1241 35.822 21.7741C36.3341 21.4241 36.7312 20.9305 36.9635 20.3553C37.1957 19.7802 37.2526 19.1492 37.127 18.5417C37.0015 17.9343 36.6991 17.3776 36.2579 16.9416C35.8166 16.5056 35.2563 16.2098 34.6474 16.0915C34.0385 15.9732 33.4082 16.0376 32.8359 16.2767C32.2635 16.5158 31.7746 16.9188 31.4308 17.435C31.0869 17.9513 30.9034 18.5577 30.9033 19.178C30.9016 19.5946 30.983 20.0073 31.1428 20.392C31.3026 20.7768 31.5375 21.1258 31.8338 21.4186C32.1302 21.7115 32.482 21.9422 32.8686 22.0974C33.2552 22.2526 33.6689 22.329 34.0855 22.3223ZM34.0855 17.5429C34.4083 17.5454 34.7232 17.6434 34.9904 17.8246C35.2576 18.0057 35.4652 18.2619 35.5871 18.5609C35.7089 18.8599 35.7395 19.1883 35.675 19.5046C35.6105 19.8209 35.4538 20.1111 35.2246 20.3385C34.9954 20.5659 34.7041 20.7204 34.3873 20.7825C34.0704 20.8445 33.7423 20.8115 33.4443 20.6874C33.1463 20.5632 32.8916 20.3536 32.7125 20.085C32.5334 19.8164 32.4378 19.5008 32.4378 19.178C32.4475 18.7452 32.6246 18.3331 32.9319 18.0281C33.2391 17.7232 33.6526 17.5493 34.0855 17.5429Z" fill="#00227B"/>
<path d="M44.3105 29.3657H23.7336C23.5335 29.3657 23.3415 29.4453 23.2 29.5868C23.0585 29.7283 22.979 29.9203 22.979 30.1204C22.979 30.3206 23.0585 30.5125 23.2 30.654C23.3415 30.7956 23.5335 30.875 23.7336 30.875H44.4362C44.6338 30.8634 44.8204 30.7805 44.9615 30.6417C45.1026 30.503 45.1886 30.3178 45.2035 30.1204C45.1591 29.9135 45.0474 29.7272 44.8858 29.5907C44.7242 29.4541 44.5218 29.3749 44.3105 29.3657Z" fill="#00227B"/>
<path d="M40.3745 32.5103H27.6712C27.471 32.5103 27.2791 32.5898 27.1376 32.7313C26.996 32.8729 26.9165 33.0648 26.9165 33.265C26.9165 33.4651 26.996 33.657 27.1376 33.7986C27.2791 33.9401 27.471 34.0196 27.6712 34.0196H40.3745C40.5746 34.0196 40.7665 33.9401 40.9081 33.7986C41.0496 33.657 41.1291 33.4651 41.1291 33.265C41.1291 33.0648 41.0496 32.8729 40.9081 32.7313C40.7665 32.5898 40.5746 32.5103 40.3745 32.5103Z" fill="#00227B"/>
<path d="M37.1917 35.6547H30.8401C30.64 35.6547 30.448 35.7342 30.3065 35.8758C30.1649 36.0173 30.0854 36.2092 30.0854 36.4094C30.0854 36.6095 30.1649 36.8014 30.3065 36.943C30.448 37.0845 30.64 37.164 30.8401 37.164H37.1917C37.3919 37.164 37.5838 37.0845 37.7253 36.943C37.8669 36.8014 37.9464 36.6095 37.9464 36.4094C37.9464 36.2092 37.8669 36.0173 37.7253 35.8758C37.5838 35.7342 37.3919 35.6547 37.1917 35.6547Z" fill="#00227B"/>
<path d="M34.3999 0.186083C34.3415 0.12714 34.2719 0.0802904 34.1953 0.0483632C34.1186 0.0164361 34.0364 0 33.9534 0C33.8704 0 33.7882 0.0164361 33.7115 0.0483632C33.6349 0.0802904 33.5654 0.12714 33.5069 0.186083C24.4888 6.47484 18.1372 18.0462 18.1372 31.6299C15.991 34.9843 14.7675 38.8455 14.5903 42.8238C14.6088 45.4837 15.0809 48.1209 15.9864 50.6219C16.051 50.77 16.1574 50.896 16.2926 50.9845C16.4277 51.0731 16.5858 51.1203 16.7474 51.1203C16.9089 51.1203 17.067 51.0731 17.2022 50.9845C17.3373 50.896 17.4438 50.77 17.5083 50.6219C18.2303 48.7338 19.2125 46.9557 20.4263 45.3393C20.6779 45.8424 20.8162 46.4713 21.0677 46.9744C21.1337 47.1206 21.2395 47.2453 21.3729 47.3343C21.5063 47.4232 21.6621 47.4728 21.8224 47.4775H26.539C27.9388 51.1777 30.3593 54.405 33.5195 56.7849C33.5779 56.8438 33.6475 56.8906 33.7241 56.9225C33.8008 56.9545 33.883 56.9709 33.966 56.9709C34.049 56.9709 34.1312 56.9545 34.2078 56.9225C34.2845 56.8906 34.354 56.8438 34.4125 56.7849C37.5764 54.4058 40.0011 51.1786 41.4056 47.4775H46.097C46.2595 47.4752 46.4179 47.4267 46.5538 47.3376C46.6897 47.2485 46.7974 47.1225 46.8642 46.9744C47.1158 46.4713 47.2416 45.8424 47.4931 45.3393C48.7154 46.9545 49.706 48.7326 50.4363 50.6219C50.5008 50.77 50.6072 50.896 50.7424 50.9845C50.8776 51.0731 51.0356 51.1203 51.1972 51.1203C51.3588 51.1203 51.5168 51.0731 51.652 50.9845C51.7872 50.896 51.8935 50.77 51.9581 50.6219C52.8637 48.1209 53.3358 45.4837 53.3542 42.8238C53.236 38.8334 52.003 34.9557 49.7948 31.6299C49.7696 18.0462 43.418 6.47484 34.3999 0.186083ZM34.0226 1.82115C36.4514 3.62046 38.6297 5.73531 40.5 8.1099H27.5452C29.4315 5.72816 31.6316 3.61271 34.0855 1.82115H34.0226ZM16.8669 48.1064C16.4103 46.3838 16.1986 44.6055 16.238 42.8238C16.2594 40.0157 16.9584 37.2543 18.2755 34.7743C18.5019 37.7603 19.0544 40.7127 19.9232 43.5785C18.7338 44.9653 17.7083 46.4846 16.8669 48.1064ZM34.0855 55.1498C31.5391 53.1079 29.5311 50.4739 28.2369 47.4775H39.7957C38.5288 50.4522 36.5713 53.0823 34.0855 55.1498ZM45.6442 45.8424H22.3381C20.0889 39.9161 19.2842 33.539 19.9907 27.2397C20.6972 20.9404 22.8945 14.9001 26.4006 9.61922H41.632C45.1253 14.9071 47.306 20.9524 47.9929 27.2526C48.6798 33.5529 47.8531 39.926 45.5814 45.8424H45.6442ZM51.1029 48.1064C50.3293 46.4777 49.3485 44.9558 48.1849 43.5785C49.0537 40.7127 49.6062 37.7603 49.8325 34.7743C51.1303 37.2618 51.8281 40.0184 51.8701 42.8238C51.8479 44.6153 51.5683 46.3944 51.04 48.1064H51.1029Z" fill="#00227B"/>
<path d="M18.9044 54.5209C18.7069 54.5325 18.5202 54.6154 18.3791 54.7542C18.238 54.893 18.1521 55.0783 18.1372 55.2756V63.954C18.1372 64.1575 18.218 64.3527 18.3619 64.4965C18.5058 64.6404 18.7009 64.7213 18.9044 64.7213C19.1079 64.7213 19.303 64.6404 19.4469 64.4965C19.5908 64.3527 19.6717 64.1575 19.6717 63.954V55.2756C19.6753 55.1744 19.6578 55.0736 19.6204 54.9796C19.5829 54.8855 19.5263 54.8003 19.4542 54.7293C19.382 54.6583 19.2959 54.6031 19.2012 54.5673C19.1066 54.5314 19.0055 54.5156 18.9044 54.5209Z" fill="#00227B"/>
<path d="M22.0865 52.1312C21.889 52.1428 21.7024 52.2257 21.5613 52.3645C21.4202 52.5033 21.3342 52.6885 21.3193 52.8858V67.8531C21.3432 68.0381 21.4335 68.208 21.5736 68.3312C21.7136 68.4544 21.8937 68.5223 22.0803 68.5223C22.2668 68.5223 22.4469 68.4544 22.587 68.3312C22.727 68.208 22.8174 68.0381 22.8412 67.8531V52.8858C22.8447 52.7858 22.8276 52.6861 22.7909 52.5929C22.7542 52.4998 22.6988 52.4152 22.628 52.3444C22.5572 52.2736 22.4726 52.2182 22.3795 52.1815C22.2863 52.1448 22.1866 52.1277 22.0865 52.1312Z" fill="#00227B"/>
<path d="M26.024 55.2757C25.8265 55.2873 25.6399 55.3702 25.4988 55.509C25.3577 55.6478 25.2717 55.833 25.2568 56.0303V63.1995C25.2807 63.3845 25.371 63.5545 25.5111 63.6776C25.6511 63.8008 25.8312 63.8687 26.0178 63.8687C26.2043 63.8687 26.3844 63.8008 26.5244 63.6776C26.6645 63.5545 26.7549 63.3845 26.7787 63.1995V56.1562C26.8078 56.0459 26.8098 55.9301 26.7843 55.8189C26.7588 55.7077 26.7067 55.6044 26.6325 55.5178C26.5583 55.4312 26.4641 55.3639 26.3581 55.3217C26.2521 55.2795 26.1375 55.2638 26.024 55.2757Z" fill="#00227B"/>
<path d="M31.5704 59.1744C31.3729 59.1861 31.1862 59.269 31.0452 59.4077C30.9041 59.5465 30.8181 59.7318 30.8032 59.9291V69.488C30.8032 69.6915 30.884 69.8866 31.0279 70.0305C31.1718 70.1744 31.367 70.2552 31.5704 70.2552C31.7739 70.2552 31.9691 70.1744 32.1129 70.0305C32.2568 69.8866 32.3376 69.6915 32.3376 69.488V60.0549C32.3754 59.5518 32.1113 59.1744 31.5704 59.1744Z" fill="#00227B"/>
<path d="M37.9591 56.9107C37.7615 56.9223 37.5749 57.0052 37.4338 57.144C37.2927 57.2827 37.2068 57.4679 37.1919 57.6653V70.2428C37.1919 70.4463 37.2727 70.6414 37.4166 70.7853C37.5605 70.9292 37.7556 71.0101 37.9591 71.0101C38.1626 71.0101 38.3577 70.9292 38.5016 70.7853C38.6455 70.6414 38.7264 70.4463 38.7264 70.2428V57.6653C38.73 57.5641 38.7125 57.4634 38.6751 57.3694C38.6376 57.2753 38.581 57.1901 38.5089 57.1191C38.4367 57.0481 38.3506 56.9929 38.2559 56.957C38.1613 56.9212 38.0602 56.9054 37.9591 56.9107Z" fill="#00227B"/>
<path d="M42.7892 57.6653C42.5917 57.6769 42.405 57.7598 42.2639 57.8986C42.1228 58.0374 42.0369 58.2226 42.022 58.42V65.4634C42.0458 65.6483 42.1362 65.8183 42.2763 65.9415C42.4163 66.0646 42.5964 66.1325 42.7829 66.1325C42.9694 66.1325 43.1495 66.0646 43.2896 65.9415C43.4296 65.8183 43.52 65.6483 43.5438 65.4634V58.42C43.5293 58.2247 43.4452 58.041 43.3067 57.9025C43.1682 57.764 42.9846 57.6798 42.7892 57.6653Z" fill="#00227B"/>
<path d="M47.4798 49.7415C47.2844 49.756 47.1008 49.8402 46.9623 49.9787C46.8238 50.1172 46.7396 50.3008 46.7251 50.4962V66.9727C46.7489 67.1576 46.8393 67.3276 46.9794 67.4508C47.1194 67.5739 47.2995 67.6418 47.4861 67.6418C47.6726 67.6418 47.8527 67.5739 47.9927 67.4508C48.1328 67.3276 48.2232 67.1576 48.247 66.9727V50.6219C48.247 50.1188 47.9954 49.7415 47.4798 49.7415Z" fill="#00227B"/>
<path d="M63.3663 16.0335C62.4233 16.0434 61.5042 16.3322 60.7249 16.8634C59.9455 17.3945 59.3408 18.1444 58.9867 19.0185C58.6327 19.8927 58.5452 20.8521 58.7353 21.7758C58.9253 22.6996 59.3844 23.5466 60.0548 24.21C60.7252 24.8734 61.5768 25.3236 62.5026 25.504C63.4283 25.6843 64.3867 25.5868 65.2571 25.2236C66.1275 24.8604 66.871 24.2478 67.394 23.463C67.917 22.6781 68.1961 21.7561 68.1961 20.813C68.1928 20.182 68.0653 19.5579 67.8208 18.9762C67.5763 18.3946 67.2196 17.8667 66.7711 17.4229C66.3226 16.9791 65.7911 16.628 65.2069 16.3896C64.6227 16.1512 63.9973 16.0302 63.3663 16.0335ZM63.3663 23.8316C62.7455 23.8266 62.1401 23.638 61.6263 23.2895C61.1126 22.9409 60.7135 22.4482 60.4793 21.8732C60.2452 21.2982 60.1865 20.6668 60.3106 20.0585C60.4348 19.4502 60.7362 18.8923 61.177 18.4551C61.6177 18.0178 62.178 17.7209 62.7873 17.6016C63.3965 17.4823 64.0274 17.5459 64.6005 17.7846C65.1736 18.0234 65.6633 18.4264 66.0077 18.9429C66.3521 19.4594 66.5358 20.0664 66.5359 20.6872C66.5376 21.1027 66.4566 21.5145 66.2976 21.8984C66.1386 22.2823 65.9048 22.6307 65.6098 22.9234C65.3148 23.216 64.9645 23.447 64.5793 23.6029C64.1942 23.7588 63.7818 23.8366 63.3663 23.8316Z" fill="#00227B"/>
<path d="M6.57854 8.10974C5.41213 8.12215 4.27547 8.47937 3.31164 9.13642C2.34782 9.79348 1.59992 10.721 1.16213 11.8022C0.724334 12.8834 0.616191 14.0699 0.851337 15.2125C1.08648 16.355 1.65442 17.4024 2.4836 18.2229C3.31277 19.0433 4.36614 19.6001 5.5111 19.8232C6.65605 20.0462 7.84139 19.9255 8.9179 19.4763C9.99442 19.0271 10.914 18.2695 11.5608 17.2988C12.2076 16.328 12.5528 15.1877 12.5529 14.0212C12.5496 13.2405 12.3923 12.4682 12.0902 11.7483C11.788 11.0285 11.3468 10.3753 10.7919 9.82625C10.2369 9.27716 9.57913 8.84293 8.85615 8.54839C8.13317 8.25384 7.3592 8.10477 6.57854 8.10974ZM6.57854 18.2975C5.73497 18.2876 4.91317 18.0284 4.21657 17.5525C3.51998 17.0766 2.97974 16.4053 2.66377 15.6231C2.3478 14.8409 2.27023 13.9827 2.44088 13.1565C2.61152 12.3303 3.02273 11.573 3.62274 10.98C4.22276 10.3869 4.98478 9.98461 5.81291 9.82364C6.64104 9.66267 7.49827 9.75027 8.27675 10.0754C9.05522 10.4005 9.72016 10.9485 10.1879 11.6506C10.6556 12.3527 10.9052 13.1776 10.9052 14.0212C10.9175 14.5904 10.8136 15.1561 10.5998 15.6838C10.3861 16.2115 10.067 16.6901 9.66208 17.0903C9.25714 17.4906 8.77483 17.8041 8.24466 18.0116C7.71448 18.2192 7.14758 18.3164 6.57854 18.2975Z" fill="#00227B"/>
<path d="M61.4551 59.9292C62.0872 59.9292 62.5997 59.4224 62.5997 58.7973C62.5997 58.1721 62.0872 57.6653 61.4551 57.6653C60.823 57.6653 60.3105 58.1721 60.3105 58.7973C60.3105 59.4224 60.823 59.9292 61.4551 59.9292Z" fill="#00227B"/>
<path d="M61.4551 34.9C61.6784 34.9025 61.896 34.9709 62.0805 35.0968C62.265 35.2227 62.4081 35.4003 62.4919 35.6074C62.5756 35.8144 62.5963 36.0416 62.5512 36.2604C62.5061 36.4791 62.3973 36.6797 62.2385 36.8367C62.0797 36.9938 61.878 37.1004 61.6588 37.143C61.4395 37.1857 61.2126 37.1625 61.0065 37.0765C60.8004 36.9904 60.6243 36.8454 60.5005 36.6596C60.3766 36.4737 60.3106 36.2553 60.3105 36.032C60.3105 35.8823 60.3402 35.734 60.3979 35.5959C60.4556 35.4577 60.5401 35.3324 60.6465 35.2271C60.753 35.1218 60.8792 35.0386 61.018 34.9825C61.1568 34.9264 61.3054 34.8983 61.4551 34.9Z" fill="#00227B"/>
<path d="M55.1026 9.61893C55.7347 9.61893 56.2471 9.11213 56.2471 8.48696C56.2471 7.86178 55.7347 7.35498 55.1026 7.35498C54.4704 7.35498 53.958 7.86178 53.958 8.48696C53.958 9.11213 54.4704 9.61893 55.1026 9.61893Z" fill="#00227B"/>
<path d="M17.0059 3.456C17.2292 3.45848 17.4468 3.52695 17.6313 3.65283C17.8158 3.77872 17.9589 3.95636 18.0427 4.16341C18.1264 4.37046 18.1471 4.59764 18.102 4.81639C18.0569 5.03514 17.9481 5.2357 17.7893 5.39276C17.6305 5.54981 17.4288 5.65639 17.2095 5.69906C16.9903 5.74173 16.7634 5.71854 16.5573 5.6325C16.3512 5.54647 16.1751 5.40145 16.0512 5.21558C15.9274 5.02971 15.8613 4.81135 15.8613 4.58801C15.8613 4.43829 15.891 4.29006 15.9487 4.1519C16.0063 4.01373 16.0908 3.88839 16.1973 3.78311C16.3037 3.67783 16.43 3.59467 16.5688 3.53853C16.7076 3.48239 16.8562 3.45434 17.0059 3.456Z" fill="#00227B"/>
<path d="M10.6538 24.7124C10.8772 24.7148 11.0948 24.7833 11.2793 24.9092C11.4637 25.0351 11.6069 25.2127 11.6907 25.4198C11.7744 25.6268 11.795 25.854 11.75 26.0727C11.7049 26.2915 11.596 26.492 11.4372 26.649C11.2784 26.8061 11.0767 26.9127 10.8575 26.9553C10.6383 26.998 10.4113 26.9749 10.2052 26.8888C9.9991 26.8028 9.82307 26.6577 9.69924 26.4719C9.5754 26.286 9.50929 26.0676 9.50928 25.8443C9.50927 25.6946 9.53897 25.5463 9.59664 25.4082C9.65431 25.27 9.73884 25.1447 9.84529 25.0394C9.95174 24.9341 10.078 24.851 10.2168 24.7949C10.3556 24.7387 10.5041 24.7107 10.6538 24.7124Z" fill="#00227B"/>
<path d="M5.81057 69.3623C6.44269 69.3623 6.95512 68.8555 6.95512 68.2304C6.95512 67.6052 6.44269 67.0984 5.81057 67.0984C5.17845 67.0984 4.66602 67.6052 4.66602 68.2304C4.66602 68.8555 5.17845 69.3623 5.81057 69.3623Z" fill="#00227B"/>
<path d="M5.05618 44.3332C5.27951 44.3357 5.49711 44.4041 5.6816 44.53C5.86609 44.6559 6.00921 44.8336 6.09296 45.0406C6.17671 45.2477 6.19735 45.4748 6.15226 45.6936C6.10717 45.9123 5.99839 46.1129 5.83959 46.27C5.68079 46.427 5.47907 46.5336 5.25984 46.5763C5.04061 46.6189 4.81366 46.5957 4.60755 46.5097C4.40144 46.4237 4.22538 46.2786 4.10154 46.0928C3.97771 45.9069 3.91163 45.6886 3.91162 45.4652C3.91161 45.3155 3.94127 45.1673 3.99894 45.0291C4.05662 44.8909 4.14114 44.7656 4.24759 44.6603C4.35404 44.555 4.48031 44.4719 4.61911 44.4157C4.7579 44.3596 4.90647 44.3315 5.05618 44.3332Z" fill="#00227B"/>
</svg>
