<svg width="58" height="63" viewBox="0 0 58 63" fill="none" xmlns="http://www.w3.org/2000/svg">
<g id="Frame" clip-path="url(#clip0_176_8025)">
<g id="Group">
<g id="objects">
<g id="Group_2" style="mix-blend-mode:multiply" opacity="0.88">
<g id="Group_3" style="mix-blend-mode:multiply" opacity="0.5">
<path id="Vector" d="M25.1685 12.7078C27.9724 12.2924 30.7963 12.1457 33.617 12.2688C36.4297 12.3948 39.229 12.8269 41.9853 13.5607C43.3611 13.9258 44.7213 14.3832 46.0602 14.931C47.4038 15.4657 48.7172 16.1191 49.9912 16.8866C51.2686 17.6368 52.4813 18.5577 53.6097 19.6344C54.7565 20.6986 55.746 22.0197 56.531 23.5349C57.3281 25.0626 57.7679 26.8539 57.798 28.6951C57.7822 30.5373 57.3787 32.3394 56.6306 33.9088C55.8936 35.4726 54.9788 36.8849 53.9167 38.0983C52.8649 39.3149 51.7266 40.401 50.5168 41.3422C48.0939 43.2099 45.5173 44.724 42.8346 45.8564C40.153 46.9959 37.4044 47.854 34.6157 48.4223C29.006 49.6153 23.2862 49.6707 17.6633 48.5864C14.8104 48.016 12.0229 46.9936 9.36413 45.5424C7.99774 44.7866 6.69912 43.8413 5.49119 42.7232C4.22324 41.5701 3.12682 40.1315 2.25452 38.4766C1.8109 37.6039 1.45838 36.6596 1.20606 35.6681C0.950647 34.6441 0.820904 33.5749 0.821535 32.4992C0.822453 31.4282 0.948352 30.3636 1.195 29.341C1.44028 28.3553 1.7765 27.4112 2.19643 26.5289C3.00714 24.8543 4.0237 23.3609 5.20625 22.1074C6.33241 20.8841 7.55007 19.8082 8.84128 18.8957C11.3712 17.1323 14.0526 15.7574 16.8306 14.799C19.561 13.8095 22.3496 13.1101 25.1685 12.7078ZM25.3621 14.5242C22.649 15.0756 19.9753 15.911 17.3673 17.0222C14.7937 18.1252 12.3266 19.6051 10.0142 21.433C8.8918 22.329 7.83361 23.3525 6.85225 24.4913C6.37563 25.0457 5.92919 25.6419 5.51609 26.2756C5.11105 26.8828 4.74818 27.5348 4.43167 28.224C3.82249 29.506 3.48393 30.9712 3.4496 32.4742C3.46651 33.96 3.80993 35.4091 4.43996 36.653C5.12421 37.9943 5.99007 39.1656 6.9961 40.111C8.04749 41.1172 9.17663 41.9806 10.3656 42.6875C12.8184 44.1404 15.399 45.2033 18.0506 45.8529C23.4454 47.2215 28.9727 47.496 34.4331 46.6665C37.1766 46.2766 39.8911 45.5999 42.5497 44.6431C43.8791 44.1621 45.1885 43.5927 46.4724 42.9373C47.7584 42.2907 49.0065 41.525 50.207 40.6463C51.412 39.78 52.5504 38.768 53.6069 37.6237C54.6705 36.497 55.5868 35.1572 56.3207 33.6554C57.0615 32.1601 57.4736 30.4333 57.513 28.6594C57.5102 26.8833 57.1054 25.1469 56.3484 23.6633C55.577 22.1783 54.6053 20.8839 53.4796 19.8414C52.3516 18.7979 51.1416 17.9103 49.8695 17.1935C48.5964 16.4795 47.2855 15.8833 45.9468 15.4092C44.6074 14.9467 43.25 14.5763 41.8802 14.2994C39.1411 13.7678 36.3727 13.529 33.6032 13.5856C30.8447 13.6359 28.093 13.9496 25.3704 14.5242H25.3621Z" fill="url(#paint0_linear_176_8025)"/>
</g>
<g id="Group_4" style="mix-blend-mode:multiply" opacity="0.5">
<path id="Vector_2" d="M44.182 31.5357C44.5216 34.8929 44.5726 38.2882 44.3341 41.6598C44.1022 45.0272 43.5005 48.3351 42.547 51.4841C42.0674 53.0513 41.4678 54.5527 40.7572 55.9663C40.0505 57.3823 39.1949 58.665 38.2149 59.7776C37.2329 60.8904 36.0961 61.7527 34.8648 62.3184C33.6295 62.874 32.3184 63.0939 31.014 62.9643C29.7071 62.8342 28.4276 62.4128 27.2323 61.7189C26.0457 61.0314 24.9305 60.1551 23.9127 59.1102C21.8658 57.0151 20.0914 54.5117 18.6566 51.6947C17.2019 48.8969 15.9955 45.8971 15.0603 42.7518C14.1072 39.6 13.3983 36.3343 12.944 33.0024C12.477 29.6501 12.2915 26.2426 12.3907 22.839C12.4801 19.3808 12.961 15.958 13.8182 12.6792C14.2654 11.01 14.8438 9.40407 15.5444 7.88662C16.2565 6.32849 17.1441 4.91539 18.178 3.69352C19.2517 2.42519 20.5072 1.43965 21.8739 0.792245C23.2609 0.146597 24.7389 -0.108932 26.2088 0.0428266C27.6463 0.200003 29.051 0.683227 30.3584 1.47027C31.6261 2.23302 32.814 3.19944 33.8938 4.34655C35.969 6.60514 37.7363 9.29623 39.1223 12.3081C40.49 15.2476 41.5961 18.3769 42.4198 21.6364C43.2508 24.856 43.8409 28.1709 44.182 31.5357ZM42.7767 31.8033C41.9655 25.3782 40.0877 19.2551 37.2716 13.8533C36.5771 12.5377 35.8117 11.2868 34.981 10.1098C34.1723 8.93729 33.2825 7.86226 32.3225 6.89811C31.3962 5.95041 30.3824 5.15449 29.3044 4.52855C28.2683 3.91489 27.1588 3.53354 26.0234 3.40089C24.9117 3.27997 23.7926 3.45238 22.7342 3.90762C21.666 4.38175 20.6801 5.12129 19.8323 6.08446C19.3935 6.57496 18.9856 7.10956 18.6123 7.6832C18.2267 8.26318 17.8718 8.87597 17.55 9.51745C16.8917 10.8283 16.341 12.224 15.9068 13.682C15.0218 16.675 14.4632 19.812 14.2469 23.0032C14.0239 26.2423 14.0637 29.5027 14.3659 32.7312C14.969 39.2082 16.5292 45.6138 19.1932 51.2343C20.5122 54.0602 22.178 56.5912 24.1257 58.7284C25.1137 59.7779 26.2002 60.6627 27.3596 61.362C28.5129 62.067 29.7521 62.5089 31.0223 62.6681C32.292 62.8116 33.5708 62.6098 34.7763 62.0757C35.9789 61.5172 37.0831 60.6546 38.024 59.5385C39.919 57.3152 41.1777 54.3319 41.9938 51.2379C42.7756 48.1129 43.2087 44.8602 43.2801 41.5777C43.3691 38.3056 43.1976 35.0303 42.7684 31.8033H42.7767Z" fill="url(#paint1_linear_176_8025)"/>
</g>
<g id="Group_5" style="mix-blend-mode:multiply" opacity="0.5">
<path id="Vector_3" d="M21.86 42.4128C16.709 39.5329 11.7184 36.0785 7.28112 31.6285C6.1711 30.5173 5.1108 29.3259 4.10531 28.0599C3.08991 26.8052 2.1794 25.4166 1.38872 23.9168C0.9946 23.1616 0.664432 22.354 0.403892 21.508C0.13891 20.6544 0.00185698 19.7438 0 18.8244C0.0120081 17.8932 0.234068 16.9867 0.639034 16.2157C1.04775 15.4595 1.57684 14.8244 2.19098 14.3529C3.41817 13.4434 4.76648 12.8382 6.16627 12.5686C7.5504 12.2699 8.95121 12.1183 10.3546 12.1154C13.161 12.0989 15.9633 12.3914 18.7312 12.9897C24.279 14.1269 29.7215 15.9971 34.9726 18.571C37.6115 19.8462 40.197 21.2982 42.7185 22.9211C45.2679 24.5403 47.7145 26.4161 50.0356 28.5309C51.2124 29.6055 52.3385 30.7698 53.4078 32.0175C54.5144 33.2959 55.5047 34.7326 56.3595 36.2998C56.8108 37.1351 57.1902 38.0314 57.491 38.9727C57.8296 40.0057 58.0027 41.1164 58 42.2379C57.986 43.4627 57.6978 44.6561 57.1701 45.6745C56.6638 46.62 56.0027 47.4106 55.2336 47.9905C54.5451 48.5232 53.8095 48.9473 53.0426 49.2538C52.3194 49.5498 51.5795 49.7729 50.8295 49.9211C49.3846 50.2082 47.9232 50.3348 46.4614 50.2994C43.6026 50.2095 40.7562 49.7831 37.9575 49.0254C35.1895 48.2898 32.4549 47.3581 29.7663 46.2347C27.0801 45.1142 24.4438 43.8367 21.86 42.4128ZM22.3911 40.7106C27.542 43.2654 32.8891 45.1053 38.3421 46.1991C41.0278 46.7427 43.7428 47.01 46.4614 46.9984C47.7838 46.9881 49.1036 46.8461 50.409 46.5738C51.676 46.2776 52.9182 45.8601 53.8781 45.0857C54.3224 44.7577 54.7064 44.3097 55.004 43.7724C55.2651 43.2954 55.4105 42.729 55.4217 42.1452C55.466 40.914 54.9763 39.4223 54.2875 38.0805C53.5507 36.6914 52.7043 35.4046 51.7618 34.2407C50.7928 33.0326 49.7693 31.8994 48.6967 30.847C44.3645 26.611 39.4791 23.1781 34.4138 20.3482C29.3335 17.4841 24.0372 15.3052 18.6095 13.8462C15.8898 13.1388 13.128 12.7341 10.3546 12.6364C8.96616 12.6098 7.57838 12.7291 6.205 12.9933C4.84112 13.2185 3.5214 13.7678 2.3127 14.6134C1.71731 15.0575 1.20606 15.667 0.816083 16.3977C0.43167 17.1245 0.220145 17.9803 0.207479 18.8601C0.202874 19.743 0.339425 20.6176 0.608605 21.4294C0.872106 22.2514 1.20418 23.034 1.59897 23.7633C2.39977 25.2199 3.32802 26.5527 4.36535 27.7352C5.39515 28.92 6.48172 30.0201 7.61862 31.029C9.9028 33.0503 12.2984 34.8537 14.7863 36.4247C17.2622 38.0217 19.8005 39.4523 22.3911 40.7106Z" fill="url(#paint2_linear_176_8025)"/>
</g>
<g id="Group_6" style="mix-blend-mode:multiply" opacity="0.5">
<path id="Vector_4" d="M25.1685 12.7078C27.9724 12.2924 30.7963 12.1457 33.617 12.2688C36.4297 12.3948 39.229 12.8269 41.9853 13.5607C43.3611 13.9258 44.7213 14.3832 46.0602 14.931C47.4038 15.4657 48.7172 16.1191 49.9912 16.8866C51.2686 17.6368 52.4813 18.5577 53.6097 19.6344C54.7565 20.6986 55.746 22.0197 56.531 23.5349C57.3281 25.0626 57.7679 26.8539 57.798 28.6951C57.7822 30.5373 57.3787 32.3394 56.6306 33.9088C55.8936 35.4726 54.9788 36.8849 53.9167 38.0983C52.8649 39.3149 51.7266 40.401 50.5168 41.3422C48.0939 43.2099 45.5173 44.724 42.8346 45.8564C40.153 46.9959 37.4044 47.854 34.6157 48.4223C29.006 49.6153 23.2862 49.6707 17.6633 48.5864C14.8104 48.016 12.0229 46.9936 9.36413 45.5424C7.99774 44.7866 6.69912 43.8413 5.49119 42.7232C4.22324 41.5701 3.12682 40.1315 2.25452 38.4766C1.8109 37.6039 1.45838 36.6596 1.20606 35.6681C0.950647 34.6441 0.820904 33.5749 0.821535 32.4992C0.822453 31.4282 0.948352 30.3636 1.195 29.341C1.44028 28.3553 1.7765 27.4112 2.19643 26.5289C3.00714 24.8543 4.0237 23.3609 5.20625 22.1074C6.33241 20.8841 7.55007 19.8082 8.84128 18.8957C11.3712 17.1323 14.0526 15.7574 16.8306 14.799C19.561 13.8095 22.3496 13.1101 25.1685 12.7078ZM25.3621 14.5242C22.649 15.0756 19.9753 15.911 17.3673 17.0222C14.7937 18.1252 12.3266 19.6051 10.0142 21.433C8.8918 22.329 7.83361 23.3525 6.85225 24.4913C6.37563 25.0457 5.92919 25.6419 5.51609 26.2756C5.11105 26.8828 4.74818 27.5348 4.43167 28.224C3.82249 29.506 3.48393 30.9712 3.4496 32.4742C3.46651 33.96 3.80993 35.4091 4.43996 36.653C5.12421 37.9943 5.99007 39.1656 6.9961 40.111C8.04749 41.1172 9.17663 41.9806 10.3656 42.6875C12.8184 44.1404 15.399 45.2033 18.0506 45.8529C23.4454 47.2215 28.9727 47.496 34.4331 46.6665C37.1766 46.2766 39.8911 45.5999 42.5497 44.6431C43.8791 44.1621 45.1885 43.5927 46.4724 42.9373C47.7584 42.2907 49.0065 41.525 50.207 40.6463C51.412 39.78 52.5504 38.768 53.6069 37.6237C54.6705 36.497 55.5868 35.1572 56.3207 33.6554C57.0615 32.1601 57.4736 30.4333 57.513 28.6594C57.5102 26.8833 57.1054 25.1469 56.3484 23.6633C55.577 22.1783 54.6053 20.8839 53.4796 19.8414C52.3516 18.7979 51.1416 17.9103 49.8695 17.1935C48.5964 16.4795 47.2855 15.8833 45.9468 15.4092C44.6074 14.9467 43.25 14.5763 41.8802 14.2994C39.1411 13.7678 36.3727 13.529 33.6032 13.5856C30.8447 13.6359 28.093 13.9496 25.3704 14.5242H25.3621Z" fill="url(#paint3_linear_176_8025)"/>
</g>
<g id="Group_7" style="mix-blend-mode:multiply" opacity="0.5">
<path id="Vector_5" d="M42.06 39.7578C38.1651 45.0438 33.6323 49.4811 28.6375 52.8973C27.3926 53.7359 26.1229 54.5174 24.8199 55.1955C23.5237 55.8904 22.1951 56.4804 20.8418 56.9619C19.4923 57.4621 18.1111 57.8072 16.7144 57.9933C15.3149 58.2004 13.8999 58.1572 12.5095 57.8648C11.1068 57.5735 9.77387 56.8742 8.61166 55.82C7.45629 54.7169 6.57871 53.1988 6.08872 51.4556C5.61873 49.717 5.41395 47.8775 5.48565 46.0385C5.55183 44.21 5.78395 42.3979 6.17725 40.6392C6.97656 37.1382 8.12795 33.7873 9.60203 30.6721C11.0669 27.5513 12.7445 24.6051 14.6147 21.8684C18.3568 16.3298 22.7566 11.5924 27.6499 7.83308C30.1309 5.94048 32.7715 4.4199 35.5203 3.30096C36.9237 2.73716 38.3647 2.34292 39.8248 2.12332C41.3312 1.88116 42.8566 1.9136 44.3561 2.21968C45.9434 2.53637 47.4493 3.33641 48.7491 4.55354C50.0817 5.83594 51.085 7.60505 51.6289 9.63164C52.1293 11.5553 52.3176 13.5911 52.1822 15.6126C52.0687 17.534 51.7723 19.4301 51.2997 21.2581C50.3636 24.7926 49.0548 28.144 47.4102 31.2181C45.8273 34.2643 44.0368 37.1222 42.06 39.7578ZM41.0143 38.523C42.8244 35.8591 44.4472 32.993 45.8638 29.9584C47.2606 26.9761 48.3409 23.7654 49.0756 20.4124C49.2466 19.5895 49.3842 18.7557 49.4877 17.9144C49.5938 17.095 49.6594 16.2678 49.6842 15.4378C49.7393 13.8579 49.5619 12.2789 49.1613 10.7843C48.7715 9.38723 48.0769 8.16528 47.1612 7.26566C46.1891 6.35908 45.0701 5.74899 43.8886 5.48136C42.6285 5.19405 41.3433 5.13759 40.071 5.31365C38.7533 5.4902 37.4495 5.80892 36.1731 6.26646C33.5671 7.21503 31.0502 8.53147 28.6679 10.1919C23.8155 13.5453 19.4057 17.8694 15.6023 23.0032C13.6811 25.5619 11.9415 28.3374 10.4043 31.2966C8.84319 34.2386 7.60937 37.4482 6.73882 40.8319C6.31616 42.5226 6.04785 44.2711 5.93934 46.042C5.81875 47.8084 5.9807 49.5878 6.41516 51.27C6.8559 52.9604 7.67632 54.4435 8.77211 55.5309C9.88476 56.5906 11.1758 57.2962 12.5399 57.59C13.9111 57.8891 15.3083 57.9348 16.6895 57.7256C18.0702 57.5148 19.4338 57.147 20.7644 56.6265C22.0916 56.0945 23.3915 55.4557 24.6567 54.7137C25.917 53.9621 27.1468 53.1284 28.3415 52.2157C30.7209 50.3808 32.9794 48.2969 35.0943 45.9849C37.2137 43.698 39.1929 41.2033 41.0143 38.523Z" fill="url(#paint4_linear_176_8025)"/>
</g>
</g>
</g>
</g>
</g>
<defs>
<linearGradient id="paint0_linear_176_8025" x1="28.8754" y1="50.0281" x2="30.3247" y2="11.1163" gradientUnits="userSpaceOnUse">
<stop stop-color="#A10091"/>
<stop offset="0.06" stop-color="#B1077F"/>
<stop offset="0.22" stop-color="#DB184F"/>
<stop offset="0.34" stop-color="#F52231"/>
<stop offset="0.41" stop-color="#FF2626"/>
<stop offset="0.47" stop-color="#FF4343"/>
<stop offset="0.61" stop-color="#FF8585"/>
<stop offset="0.74" stop-color="#FFBABA"/>
<stop offset="0.85" stop-color="#FFDFDF"/>
<stop offset="0.94" stop-color="#FFF7F7"/>
<stop offset="1" stop-color="white"/>
</linearGradient>
<linearGradient id="paint1_linear_176_8025" x1="16.7367" y1="55.1277" x2="48.6258" y2="16.154" gradientUnits="userSpaceOnUse">
<stop stop-color="#A10091"/>
<stop offset="0.06" stop-color="#B1077F"/>
<stop offset="0.22" stop-color="#DB184F"/>
<stop offset="0.34" stop-color="#F52231"/>
<stop offset="0.41" stop-color="#FF2626"/>
<stop offset="0.47" stop-color="#FF4343"/>
<stop offset="0.61" stop-color="#FF8585"/>
<stop offset="0.74" stop-color="#FFBABA"/>
<stop offset="0.85" stop-color="#FFDFDF"/>
<stop offset="0.94" stop-color="#FFF7F7"/>
<stop offset="1" stop-color="white"/>
</linearGradient>
<linearGradient id="paint2_linear_176_8025" x1="42.7379" y1="15.5769" x2="9.13856" y2="38.0611" gradientUnits="userSpaceOnUse">
<stop stop-color="#A10091"/>
<stop offset="0.08" stop-color="#B1077F"/>
<stop offset="0.3" stop-color="#DB184F"/>
<stop offset="0.47" stop-color="#F52231"/>
<stop offset="0.57" stop-color="#FF2626"/>
<stop offset="0.61" stop-color="#FF4343"/>
<stop offset="0.71" stop-color="#FF8585"/>
<stop offset="0.81" stop-color="#FFBABA"/>
<stop offset="0.89" stop-color="#FFDFDF"/>
<stop offset="0.96" stop-color="#FFF7F7"/>
<stop offset="1" stop-color="white"/>
</linearGradient>
<linearGradient id="paint3_linear_176_8025" x1="28.8754" y1="50.0281" x2="30.3247" y2="11.1163" gradientUnits="userSpaceOnUse">
<stop stop-color="#A10091"/>
<stop offset="0.06" stop-color="#B1077F"/>
<stop offset="0.22" stop-color="#DB184F"/>
<stop offset="0.34" stop-color="#F52231"/>
<stop offset="0.41" stop-color="#FF2626"/>
<stop offset="0.47" stop-color="#FF4343"/>
<stop offset="0.61" stop-color="#FF8585"/>
<stop offset="0.74" stop-color="#FFBABA"/>
<stop offset="0.85" stop-color="#FFDFDF"/>
<stop offset="0.94" stop-color="#FFF7F7"/>
<stop offset="1" stop-color="white"/>
</linearGradient>
<linearGradient id="paint4_linear_176_8025" x1="3.3749" y1="48.5508" x2="58.271" y2="24.3599" gradientUnits="userSpaceOnUse">
<stop stop-color="#A10091"/>
<stop offset="0.06" stop-color="#B1077F"/>
<stop offset="0.22" stop-color="#DB184F"/>
<stop offset="0.34" stop-color="#F52231"/>
<stop offset="0.41" stop-color="#FF2626"/>
<stop offset="0.47" stop-color="#FF4343"/>
<stop offset="0.61" stop-color="#FF8585"/>
<stop offset="0.74" stop-color="#FFBABA"/>
<stop offset="0.85" stop-color="#FFDFDF"/>
<stop offset="0.94" stop-color="#FFF7F7"/>
<stop offset="1" stop-color="white"/>
</linearGradient>
<clipPath id="clip0_176_8025">
<rect width="58" height="63" fill="white"/>
</clipPath>
</defs>
</svg>
