<svg width="48" height="48" viewBox="0 0 48 48" fill="none" xmlns="http://www.w3.org/2000/svg">
<path d="M42.768 1.24799H5.232C2.352 1.24799 0 3.55199 0 6.43198V13.152V41.616C0 44.496 2.304 46.8 5.184 46.8H42.768C45.648 46.8 47.952 44.496 47.952 41.616V13.152V6.43198C48 3.55199 45.648 1.24799 42.768 1.24799ZM45.12 41.568C45.12 42.864 44.064 43.92 42.768 43.92H5.232C3.936 43.92 2.88 42.864 2.88 41.568V14.544H45.12V41.568ZM45.12 11.712H2.88V6.43198C2.88 5.13599 3.936 4.07999 5.232 4.07999H42.816C44.112 4.07999 45.168 5.13599 45.168 6.43198V11.712H45.12Z" fill="url(#paint0_linear_433_1486)"/>
<path d="M40.5118 6.47998C39.7438 6.47998 39.0718 7.10398 39.0718 7.87198C39.0718 8.63998 39.6958 9.31198 40.5118 9.31198C41.2798 9.31198 41.9038 8.68798 41.9038 7.87198C41.9038 7.10398 41.2798 6.47998 40.5118 6.47998Z" fill="url(#paint1_linear_433_1486)"/>
<path d="M35.712 6.47998C34.944 6.47998 34.272 7.10398 34.272 7.87198C34.272 8.63998 34.896 9.31198 35.712 9.31198C36.48 9.31198 37.104 8.68798 37.104 7.87198C37.104 7.10398 36.48 6.47998 35.712 6.47998Z" fill="url(#paint2_linear_433_1486)"/>
<path d="M30.9122 6.47998C30.1442 6.47998 29.4722 7.10398 29.4722 7.87198C29.4722 8.63998 30.0962 9.31198 30.9122 9.31198C31.6802 9.31198 32.3042 8.68798 32.3042 7.87198C32.3042 7.10398 31.6802 6.47998 30.9122 6.47998Z" fill="url(#paint3_linear_433_1486)"/>
<path d="M10.2242 31.152H18.0482C19.5842 31.152 20.7842 29.904 20.7842 28.416V19.488C20.7842 17.952 19.5362 16.752 18.0482 16.752H10.2242C8.68816 16.752 7.48816 18 7.48816 19.488V28.368C7.44016 29.904 8.68816 31.152 10.2242 31.152ZM10.2722 19.584H17.9042V28.32H10.2722V19.584Z" fill="url(#paint4_linear_433_1486)"/>
<path d="M8.87995 41.568C9.64794 41.568 10.3199 40.944 10.3199 40.128V36.768H17.9519V40.128C17.9519 40.896 18.5759 41.568 19.3919 41.568C20.2079 41.568 20.8319 40.944 20.8319 40.128V36.72C20.8319 35.184 19.5839 33.984 18.0959 33.984H10.2239C8.68794 33.984 7.48795 35.232 7.48795 36.72V40.128C7.43995 40.944 8.06395 41.568 8.87995 41.568Z" fill="url(#paint5_linear_433_1486)"/>
<path d="M29.8561 41.568H37.6801C39.2161 41.568 40.4161 40.32 40.4161 38.832V29.904C40.4161 28.368 39.1681 27.168 37.6801 27.168H29.8561C28.3201 27.168 27.1201 28.416 27.1201 29.904V38.784C27.1201 40.368 28.3681 41.568 29.8561 41.568ZM29.9521 30H37.5841V38.736H29.9521V30Z" fill="url(#paint6_linear_433_1486)"/>
<path d="M29.8558 24.336H37.6798C39.2158 24.336 40.4158 23.088 40.4158 21.6V18.192C40.4158 17.424 39.7918 16.752 38.9758 16.752C38.1598 16.752 37.5358 17.376 37.5358 18.192V21.552H29.9518V18.192C29.9518 17.424 29.3278 16.752 28.5118 16.752C27.6958 16.752 27.0718 17.376 27.0718 18.192V21.6C27.1198 23.088 28.3678 24.336 29.8558 24.336Z" fill="url(#paint7_linear_433_1486)"/>
<defs>
<linearGradient id="paint0_linear_433_1486" x1="24" y1="45.28" x2="24" y2="0.800003" gradientUnits="userSpaceOnUse">
<stop stop-color="#00227B"/>
<stop offset="1" stop-color="#00227B"/>
</linearGradient>
<linearGradient id="paint1_linear_433_1486" x1="40.4958" y1="45.28" x2="40.4958" y2="0.799996" gradientUnits="userSpaceOnUse">
<stop stop-color="#00227B"/>
<stop offset="1" stop-color="#00227B"/>
</linearGradient>
<linearGradient id="paint2_linear_433_1486" x1="35.696" y1="45.28" x2="35.696" y2="0.799996" gradientUnits="userSpaceOnUse">
<stop stop-color="#00227B"/>
<stop offset="1" stop-color="#00227B"/>
</linearGradient>
<linearGradient id="paint3_linear_433_1486" x1="30.8962" y1="45.28" x2="30.8962" y2="0.799996" gradientUnits="userSpaceOnUse">
<stop stop-color="#00227B"/>
<stop offset="1" stop-color="#00227B"/>
</linearGradient>
<linearGradient id="paint4_linear_433_1486" x1="14.1133" y1="45.28" x2="14.1133" y2="0.8" gradientUnits="userSpaceOnUse">
<stop stop-color="#00227B"/>
<stop offset="1" stop-color="#00227B"/>
</linearGradient>
<linearGradient id="paint5_linear_433_1486" x1="14.113" y1="45.28" x2="14.113" y2="0.800004" gradientUnits="userSpaceOnUse">
<stop stop-color="#00227B"/>
<stop offset="1" stop-color="#00227B"/>
</linearGradient>
<linearGradient id="paint6_linear_433_1486" x1="33.7782" y1="45.28" x2="33.7782" y2="0.800014" gradientUnits="userSpaceOnUse">
<stop stop-color="#00227B"/>
<stop offset="1" stop-color="#00227B"/>
</linearGradient>
<linearGradient id="paint7_linear_433_1486" x1="33.7779" y1="45.28" x2="33.7779" y2="0.800001" gradientUnits="userSpaceOnUse">
<stop stop-color="#00227B"/>
<stop offset="1" stop-color="#00227B"/>
</linearGradient>
</defs>
</svg>
