<svg width="50" height="50" viewBox="0 0 50 50" fill="none" xmlns="http://www.w3.org/2000/svg">
<rect width="50" height="50" rx="5" fill="#00227B"/>
<path d="M34.1667 32.5C35.4958 32.5 36.5713 31.375 36.5713 30L36.5833 17.5C36.5833 16.125 35.4958 15 34.1667 15H14.8333C13.5042 15 12.4167 16.125 12.4167 17.5V30C12.4167 31.375 13.5042 32.5 14.8333 32.5H11.2083C10.5437 32.5 10 33.0625 10 33.75C10 34.4375 10.5437 35 11.2083 35H37.7917C38.4563 35 39 34.4375 39 33.75C39 33.0625 38.4563 32.5 37.7917 32.5H34.1667ZM16.0417 17.5H32.9583C33.6229 17.5 34.1667 18.0625 34.1667 18.75V28.75C34.1667 29.4375 33.6229 30 32.9583 30H16.0417C15.3771 30 14.8333 29.4375 14.8333 28.75V18.75C14.8333 18.0625 15.3771 17.5 16.0417 17.5Z" fill="white"/>
</svg>
