<svg width="50" height="50" viewBox="0 0 50 50" fill="none" xmlns="http://www.w3.org/2000/svg">
<rect width="50" height="50" rx="5" fill="#00227B"/>
<g clip-path="url(#clip0_176_7634)">
<path d="M35.6997 11.0195C34.2901 11.1678 32.594 12.1062 30.5148 13.8884C26.753 17.1127 22.3156 22.6797 19.4578 26.6853C17.371 26.3598 15.1716 27.2523 13.8694 28.88C11.4792 31.8679 13.4802 34.5342 11.2255 36.9116C10.8329 37.3255 10.973 38.0056 11.4979 38.2303C15.1864 39.8095 19.9014 38.8252 22.1132 36.493C23.465 35.0677 24.2005 32.9635 23.831 30.9826C27.7839 27.9495 33.2453 23.274 36.3381 19.3951C38.0506 17.2471 38.9197 15.5193 38.995 14.1128C39.0964 12.2181 37.6259 10.817 35.6997 11.0195ZM20.9229 35.3639C19.4265 36.9416 16.1159 37.8606 13.17 37.0749C14.8172 34.4476 13.4013 32.0916 15.1505 29.9051C16.5858 28.1109 19.4726 27.6086 21.1502 29.2862C23.1101 31.2463 22.1972 34.0202 20.9229 35.3639ZM21.0908 27.2242C21.493 26.6682 22.1237 25.8097 22.9113 24.7819L25.6031 27.4738C24.6118 28.289 23.784 28.9427 23.2473 29.3602C22.7637 28.4918 22.0154 27.7137 21.0908 27.2242ZM37.3568 14.0251C37.1726 17.4706 29.4904 24.1981 26.8679 26.4185L23.9265 23.4768C26.0844 20.7446 32.4173 13.0144 35.8715 12.6512C36.793 12.5541 37.4043 13.1356 37.3568 14.0251Z" fill="white"/>
</g>
<defs>
<clipPath id="clip0_176_7634">
<rect width="28" height="28" fill="white" transform="translate(11 11)"/>
</clipPath>
</defs>
</svg>
