<svg width="60" height="60" viewBox="0 0 60 60" fill="none" xmlns="http://www.w3.org/2000/svg">
<g clip-path="url(#clip0_247_8149)">
<mask id="mask0_247_8149" style="mask-type:luminance" maskUnits="userSpaceOnUse" x="0" y="0" width="60" height="60">
<path d="M60 0H0V60H60V0Z" fill="white"/>
</mask>
<g mask="url(#mask0_247_8149)">
<path d="M7.3191 6.5C7.21063 6.50039 7.10329 6.52215 7.00323 6.56403C6.90316 6.6059 6.81233 6.66707 6.73591 6.74405C6.65948 6.82103 6.59897 6.91231 6.55782 7.01268C6.51667 7.11304 6.4957 7.22053 6.4961 7.329V51.989C6.49583 52.2077 6.58233 52.4176 6.73662 52.5727C6.8909 52.7277 7.10038 52.8152 7.3191 52.816H38.7711C38.8796 52.8156 38.9869 52.7938 39.087 52.752C39.187 52.7101 39.2779 52.6489 39.3543 52.572C39.4307 52.495 39.4912 52.4037 39.5324 52.3033C39.5735 52.203 39.5945 52.0955 39.5941 51.987V32.168L52.5751 19.196C52.6522 19.1192 52.7134 19.028 52.7552 18.9275C52.797 18.8271 52.8185 18.7193 52.8185 18.6105C52.8185 18.5017 52.797 18.394 52.7552 18.2935C52.7134 18.193 52.6522 18.1018 52.5751 18.025L48.1301 13.586C48.0543 13.5083 47.9637 13.4466 47.8636 13.4044C47.7636 13.3623 47.6561 13.3406 47.5476 13.3406C47.439 13.3406 47.3316 13.3623 47.2316 13.4044C47.1315 13.4466 47.0409 13.5083 46.9651 13.586L39.5981 20.949V17.502C39.6045 17.4244 39.5998 17.3463 39.5841 17.27C39.5841 17.248 39.5741 17.226 39.5681 17.204V17.189V17.181C39.5601 17.157 39.5521 17.135 39.5421 17.112C39.5319 17.0867 39.5202 17.0619 39.5071 17.038C39.4941 17.014 39.4801 16.99 39.4651 16.967C39.4496 16.9441 39.4329 16.9221 39.4151 16.901C39.4001 16.883 39.3841 16.866 39.3681 16.849L29.2681 6.749C29.1916 6.67193 29.1006 6.61072 29.0004 6.56885C28.9002 6.52698 28.7927 6.50528 28.6841 6.505L7.3191 6.5ZM8.1481 8.152H27.8481V17.427C27.8478 17.5356 27.869 17.6432 27.9103 17.7436C27.9516 17.8441 28.0123 17.9354 28.0889 18.0124C28.1655 18.0893 28.2565 18.1505 28.3568 18.1923C28.457 18.2341 28.5645 18.2557 28.6731 18.256H37.9471V22.598L27.7931 32.752C27.7353 32.811 27.6867 32.8784 27.6491 32.952C27.6361 32.976 27.6251 33.001 27.6151 33.026C27.6071 33.047 27.5991 33.069 27.5921 33.091L25.5991 39.526C25.5549 39.6698 25.5508 39.8229 25.5873 39.9688C25.6238 40.1148 25.6994 40.248 25.806 40.3541C25.9126 40.4602 26.0462 40.5352 26.1923 40.5709C26.3384 40.6067 26.4915 40.6019 26.6351 40.557L33.0631 38.568C33.1916 38.5277 33.3083 38.4567 33.4031 38.361L37.9461 33.816V51.167H8.1511L8.1481 8.152ZM29.4981 9.325L33.7541 13.586L36.7731 16.605H29.4981V9.325ZM47.5411 15.335L50.8191 18.61L48.6991 20.73L45.4251 17.455L47.5411 15.335ZM13.1191 16.605C12.9 16.605 12.6899 16.692 12.535 16.8469C12.3801 17.0018 12.2931 17.2119 12.2931 17.431C12.2931 17.6501 12.3801 17.8602 12.535 18.0151C12.6899 18.17 12.9 18.257 13.1191 18.257H22.2901C22.5092 18.257 22.7193 18.17 22.8742 18.0151C23.0291 17.8602 23.1161 17.6501 23.1161 17.431C23.1161 17.2119 23.0291 17.0018 22.8742 16.8469C22.7193 16.692 22.5092 16.605 22.2901 16.605H13.1191ZM44.2571 18.627L47.5321 21.901L38.2191 31.216L38.1921 31.242L32.3801 37.054L27.6421 38.516L29.1121 33.779L39.3621 23.527L39.3861 23.501L44.2571 18.627ZM31.1061 23.14C31.0761 23.1384 31.0461 23.1384 31.0161 23.14H13.1191C12.9057 23.1474 12.7034 23.2375 12.5551 23.3911C12.4067 23.5447 12.3238 23.7499 12.3238 23.9635C12.3238 24.1771 12.4067 24.3823 12.5551 24.5359C12.7034 24.6895 12.9057 24.7796 13.1191 24.787H31.0191C31.129 24.7958 31.2396 24.7826 31.3443 24.748C31.449 24.7134 31.5457 24.6583 31.6287 24.5857C31.7118 24.5132 31.7794 24.4248 31.8277 24.3257C31.8761 24.2265 31.9041 24.1188 31.9101 24.0087C31.9161 23.8986 31.9 23.7884 31.8627 23.6846C31.8255 23.5808 31.7678 23.4856 31.6932 23.4044C31.6185 23.3233 31.5284 23.2579 31.4281 23.2121C31.3278 23.1664 31.2193 23.1412 31.1091 23.138L31.1061 23.14ZM13.1191 29.672C12.9 29.672 12.6899 29.759 12.535 29.9139C12.3801 30.0688 12.2931 30.2789 12.2931 30.498C12.2931 30.7171 12.3801 30.9272 12.535 31.0821C12.6899 31.237 12.9 31.324 13.1191 31.324H23.5191C23.7382 31.324 23.9483 31.237 24.1032 31.0821C24.2581 30.9272 24.3451 30.7171 24.3451 30.498C24.3451 30.2789 24.2581 30.0688 24.1032 29.9139C23.9483 29.759 23.7382 29.672 23.5191 29.672H13.1191ZM13.0331 36.21C12.814 36.2214 12.6085 36.3194 12.4616 36.4823C12.3148 36.6453 12.2387 36.8599 12.2501 37.079C12.2615 37.2981 12.3595 37.5036 12.5224 37.6505C12.6854 37.7973 12.9 37.8734 13.1191 37.862H20.4861C20.7052 37.862 20.9153 37.775 21.0702 37.6201C21.2251 37.4652 21.3121 37.2551 21.3121 37.036C21.3121 36.8169 21.2251 36.6068 21.0702 36.4519C20.9153 36.297 20.7052 36.21 20.4861 36.21H13.1191C13.0905 36.2085 13.0617 36.2085 13.0331 36.21ZM27.1851 42.655C26.972 42.6604 26.7693 42.7478 26.6191 42.899L24.1861 45.332C24.1073 45.4081 24.0444 45.499 24.001 45.5996C23.9577 45.7002 23.9348 45.8084 23.9337 45.918C23.9326 46.0275 23.9532 46.1362 23.9945 46.2376C24.0358 46.3391 24.0968 46.4313 24.1741 46.509C24.2513 46.5866 24.3433 46.6481 24.4445 46.6899C24.5458 46.7317 24.6543 46.753 24.7638 46.7524C24.8734 46.7518 24.9817 46.7295 25.0825 46.6867C25.1833 46.6439 25.2746 46.5814 25.3511 46.503L26.9111 44.935C27.1576 45.438 27.5096 45.882 27.943 46.2368C28.3765 46.5916 28.8813 46.8488 29.4231 46.991C31.7901 47.625 33.7951 45.583 33.7951 45.583C33.8801 45.5112 33.9497 45.4229 33.9998 45.3235C34.0498 45.2241 34.0793 45.1156 34.0865 45.0045C34.0936 44.8935 34.0783 44.7821 34.0414 44.6771C34.0045 44.5721 33.9467 44.4757 33.8717 44.3935C33.7966 44.3114 33.7057 44.2452 33.6044 44.199C33.5032 44.1528 33.3936 44.1275 33.2824 44.1247C33.1711 44.1218 33.0604 44.1415 32.9569 44.1824C32.8534 44.2234 32.7593 44.2848 32.6801 44.363C32.6801 44.363 30.9741 45.695 29.8501 45.394C29.3903 45.2393 28.979 44.967 28.6569 44.6043C28.3349 44.2415 28.1133 43.8009 28.0141 43.326C27.9771 43.1345 27.8736 42.9622 27.7219 42.8396C27.5702 42.717 27.3801 42.651 27.1851 42.655Z" fill="#00227B" stroke="white" stroke-width="0.4"/>
</g>
</g>
<defs>
<clipPath id="clip0_247_8149">
<rect width="60" height="60" fill="white"/>
</clipPath>
</defs>
</svg>
