<svg width="50" height="50" viewBox="0 0 50 50" fill="none" xmlns="http://www.w3.org/2000/svg">
<g clip-path="url(#clip0_366_6384)">
<path d="M12.5094 39.7188C12.4903 39.8158 12.4903 39.9155 12.5094 40.0125C12.5135 40.0452 12.5198 40.0776 12.5282 40.1094C12.5614 40.2319 12.6248 40.3442 12.7125 40.436C12.7852 40.5085 12.8715 40.5659 12.9664 40.6051C13.0613 40.6442 13.163 40.6643 13.2657 40.6641C13.3401 40.6618 13.4138 40.6486 13.4844 40.625L35.861 33.8594C36.401 33.6969 36.8993 33.419 37.3215 33.0452C37.7437 32.6713 38.0797 32.2102 38.3063 31.6938L43.3438 20.2453L43.6407 20.5422C44.0802 20.9816 44.6762 21.2284 45.2977 21.2284C45.9192 21.2284 46.5152 20.9816 46.9547 20.5422L49.1657 18.3328C49.3834 18.1152 49.5562 17.8567 49.6741 17.5723C49.792 17.2878 49.8527 16.9829 49.8527 16.675C49.8527 16.3671 49.792 16.0622 49.6741 15.7778C49.5562 15.4933 49.3834 15.2349 49.1657 15.0172L38.125 3.97658C37.6786 3.55048 37.0852 3.31274 36.468 3.31274C35.8508 3.31274 35.2574 3.55048 34.811 3.97658L32.5922 6.18595C32.1528 6.62547 31.906 7.22151 31.906 7.84298C31.906 8.46446 32.1528 9.0605 32.5922 9.50002L32.8907 9.79845L21.4422 14.836C20.9261 15.0631 20.4654 15.3993 20.0915 15.8214C19.7177 16.2435 19.4397 16.7415 19.2766 17.2813L12.511 39.6578C12.5 39.6781 12.5141 39.6985 12.5094 39.7188ZM33.6969 7.29064L35.9078 5.08127C36.0543 4.9348 36.253 4.85253 36.4602 4.85253C36.6673 4.85253 36.866 4.9348 37.0125 5.08127L48.061 16.1297C48.1337 16.2023 48.1914 16.2885 48.2308 16.3834C48.2702 16.4783 48.2905 16.5801 48.2905 16.6828C48.2905 16.7856 48.2702 16.8873 48.2308 16.9823C48.1914 17.0772 48.1337 17.1634 48.061 17.236L45.85 19.4453C45.7035 19.5918 45.5048 19.6741 45.2977 19.6741C45.0905 19.6741 44.8918 19.5918 44.7453 19.4453L43.6407 18.3406L34.8032 9.50158L33.6969 8.39533C33.5504 8.24882 33.4682 8.05014 33.4682 7.84298C33.4682 7.63583 33.5504 7.43715 33.6969 7.29064ZM20.7703 17.7328C20.8683 17.4089 21.0352 17.1101 21.2596 16.8568C21.484 16.6035 21.7606 16.4019 22.0703 16.2656L34.0766 10.9844L42.1594 19.0625L36.875 31.0703C36.7388 31.3801 36.5371 31.6567 36.2839 31.8811C36.0306 32.1055 35.7317 32.2724 35.4078 32.3703L16.011 38.236L27.0688 27.1781C27.0907 27.1499 27.1106 27.1202 27.1282 27.0891C27.7823 27.4809 28.5571 27.62 29.3066 27.4803C30.0562 27.3406 30.7288 26.9317 31.1978 26.3305C31.6669 25.7293 31.8999 24.9774 31.8531 24.2164C31.8063 23.4554 31.4829 22.7377 30.9437 22.1985C30.4045 21.6594 29.6869 21.3359 28.9258 21.2891C28.1648 21.2423 27.4129 21.4754 26.8117 21.9444C26.2106 22.4134 25.8016 23.086 25.6619 23.8356C25.5222 24.5852 25.6613 25.36 26.0532 26.0141C26.0221 26.0317 25.9923 26.0515 25.9641 26.0735L14.9063 37.1313L20.7703 17.7328ZM27.6203 23.311C27.8389 23.0926 28.1173 22.944 28.4204 22.8838C28.7234 22.8237 29.0375 22.8547 29.3229 22.973C29.6083 23.0913 29.8523 23.2916 30.0239 23.5485C30.1955 23.8054 30.2871 24.1075 30.2871 24.4164C30.2871 24.7254 30.1955 25.0274 30.0239 25.2843C29.8523 25.5412 29.6083 25.7415 29.3229 25.8598C29.0375 25.9781 28.7234 26.0092 28.4204 25.949C28.1173 25.8889 27.8389 25.7402 27.6203 25.5219C27.4751 25.3768 27.3598 25.2045 27.2812 25.0148C27.2026 24.8251 27.1621 24.6218 27.1621 24.4164C27.1621 24.2111 27.2026 24.0078 27.2812 23.8181C27.3598 23.6284 27.4751 23.4561 27.6203 23.311ZM45.65 39.5985C44.6816 38.8355 43.5641 38.2837 42.3696 37.9785C41.175 37.6733 39.9298 37.6216 38.7141 37.8266C36.3187 38.2572 34.1071 39.3951 32.3641 41.0938C31.553 41.8867 30.7882 42.7256 30.0735 43.6063C28.9883 45.075 27.647 46.3358 26.1141 47.3281C25.0994 47.8849 23.9813 48.2276 22.8289 48.3351C21.6765 48.4426 20.5143 48.3126 19.4141 47.9531C18.1306 47.5514 16.9401 46.8977 15.9123 46.0303C14.8844 45.163 14.0399 44.0993 13.4282 42.9016C13.3364 42.7151 13.1743 42.5727 12.9775 42.5058C12.7807 42.4388 12.5654 42.4528 12.3789 42.5445C12.1925 42.6363 12.0501 42.7984 11.9831 42.9952C11.9162 43.192 11.9301 43.4073 12.0219 43.5938C12.7289 44.9805 13.7053 46.2123 14.8941 47.217C16.0829 48.2218 17.4602 48.9793 18.9453 49.4453C19.9649 49.7649 21.0269 49.9287 22.0953 49.9313C23.7672 49.9356 25.412 49.51 26.8719 48.6953C28.5716 47.6141 30.0599 46.2321 31.2641 44.6172C31.943 43.7821 32.6687 42.986 33.4375 42.2328C34.9533 40.7501 36.878 39.7548 38.9641 39.375C39.9697 39.2055 40.9997 39.2486 41.9877 39.5016C42.9756 39.7546 43.8996 40.2118 44.7 40.8438C45.7521 41.6868 46.6249 42.7319 47.2668 43.9174C47.9086 45.103 48.3067 46.4051 48.4375 47.7469C48.4612 47.9521 48.5641 48.1399 48.7244 48.2701C48.8848 48.4003 49.0897 48.4627 49.2953 48.4438C49.3981 48.4342 49.498 48.4043 49.5892 48.3559C49.6803 48.3075 49.761 48.2416 49.8266 48.1618C49.8921 48.082 49.9411 47.9901 49.9709 47.8912C50.0007 47.7924 50.0106 47.6886 50 47.586C49.8451 46.0316 49.3803 44.5239 48.6332 43.1521C47.8861 41.7802 46.8717 40.5719 45.65 39.5985ZM17.2125 8.66095C17.2125 6.96127 16.7085 5.29976 15.7642 3.88652C14.8199 2.47329 13.4778 1.3718 11.9075 0.721364C10.3372 0.0709233 8.60925 -0.0992617 6.94222 0.23233C5.2752 0.563922 3.74394 1.3824 2.54208 2.58425C1.34022 3.78611 0.521747 5.31737 0.190155 6.9844C-0.141437 8.65142 0.028748 10.3793 0.679189 11.9496C1.32963 13.5199 2.43111 14.8621 3.84435 15.8064C5.25758 16.7507 6.9191 17.2547 8.61878 17.2547C10.8961 17.251 13.0791 16.3444 14.6892 14.7338C16.2992 13.1232 17.2049 10.9399 17.2078 8.66252L17.2125 8.66095ZM8.61878 15.6922C7.22813 15.6922 5.86871 15.2798 4.71242 14.5072C3.55614 13.7346 2.65493 12.6365 2.12275 11.3517C1.59057 10.0669 1.45133 8.65315 1.72263 7.28922C1.99393 5.9253 2.6636 4.67245 3.64693 3.68911C4.63027 2.70577 5.88312 2.03611 7.24705 1.76481C8.61098 1.4935 10.0247 1.63275 11.3095 2.16493C12.5943 2.6971 13.6924 3.59832 14.465 4.7546C15.2377 5.91088 15.65 7.2703 15.65 8.66095C15.6502 9.58484 15.4684 10.4997 15.1148 11.3533C14.7613 12.2068 14.2429 12.9823 13.5895 13.6355C12.9361 14.2886 12.1603 14.8066 11.3066 15.1597C10.4529 15.5129 9.53797 15.6944 8.61409 15.6938L8.61878 15.6922ZM13.3063 7.8797H9.40003V3.97345C9.40003 3.76625 9.31772 3.56754 9.17121 3.42103C9.02469 3.27451 8.82598 3.1922 8.61878 3.1922C8.41158 3.1922 8.21286 3.27451 8.06635 3.42103C7.91984 3.56754 7.83753 3.76625 7.83753 3.97345V7.8797H3.93128C3.72408 7.8797 3.52536 7.96201 3.37885 8.10853C3.23234 8.25504 3.15003 8.45375 3.15003 8.66095C3.15003 8.86815 3.23234 9.06687 3.37885 9.21338C3.52536 9.35989 3.72408 9.4422 3.93128 9.4422H7.83753V13.3485C7.83753 13.5557 7.91984 13.7544 8.06635 13.9009C8.21286 14.0474 8.41158 14.1297 8.61878 14.1297C8.82598 14.1297 9.02469 14.0474 9.17121 13.9009C9.31772 13.7544 9.40003 13.5557 9.40003 13.3485V9.4422H13.3063C13.5135 9.4422 13.7122 9.35989 13.8587 9.21338C14.0052 9.06687 14.0875 8.86815 14.0875 8.66095C14.0875 8.45375 14.0052 8.25504 13.8587 8.10853C13.7122 7.96201 13.5135 7.8797 13.3063 7.8797Z" fill="#00227B"/>
</g>
<defs>
<clipPath id="clip0_366_6384">
<rect width="50" height="50" fill="white"/>
</clipPath>
</defs>
</svg>
