<svg width="31" height="30" viewBox="0 0 31 30" fill="none" xmlns="http://www.w3.org/2000/svg">
<rect x="0.5" width="30" height="30" rx="15" fill="#E6EBF6"/>
<g clip-path="url(#clip0_597_150)">
<path d="M15.5 8C13.6004 8 13.3615 8.00875 12.6151 8.042C11.8688 8.077 11.3604 8.19425 10.915 8.3675C10.4478 8.54322 10.0247 8.81885 9.67513 9.17513C9.31907 9.52486 9.04347 9.94796 8.8675 10.415C8.69425 10.8595 8.57613 11.3687 8.542 12.1125C8.50875 12.8606 8.5 13.0986 8.5 15.0009C8.5 16.9014 8.50875 17.1394 8.542 17.8857C8.577 18.6313 8.69425 19.1396 8.8675 19.585C9.04688 20.0452 9.28575 20.4355 9.67513 20.8249C10.0636 21.2142 10.4539 21.454 10.9141 21.6325C11.3604 21.8057 11.8679 21.9239 12.6134 21.958C13.3606 21.9913 13.5986 22 15.5 22C17.4014 22 17.6385 21.9913 18.3857 21.958C19.1304 21.923 19.6405 21.8057 20.0859 21.6325C20.5527 21.4567 20.9756 21.1811 21.3249 20.8249C21.7142 20.4355 21.9531 20.0452 22.1325 19.585C22.3049 19.1396 22.423 18.6313 22.458 17.8857C22.4913 17.1394 22.5 16.9014 22.5 15C22.5 13.0986 22.4913 12.8606 22.458 12.1134C22.423 11.3688 22.3049 10.8595 22.1325 10.415C21.9566 9.94795 21.681 9.52484 21.3249 9.17513C20.9754 8.81872 20.5522 8.54306 20.085 8.3675C19.6388 8.19425 19.1295 8.07613 18.3849 8.042C17.6376 8.00875 17.4005 8 15.4983 8H15.5009H15.5ZM14.8726 9.26175H15.5009C17.3699 9.26175 17.5912 9.26788 18.3289 9.302C19.0114 9.33263 19.3824 9.44725 19.6291 9.54262C19.9555 9.6695 20.1891 9.82175 20.4341 10.0668C20.6791 10.3117 20.8305 10.5445 20.9574 10.8718C21.0536 11.1176 21.1674 11.4886 21.198 12.1711C21.2321 12.9088 21.2391 13.1301 21.2391 14.9983C21.2391 16.8664 21.2321 17.0886 21.198 17.8263C21.1674 18.5087 21.0528 18.8789 20.9574 19.1256C20.8451 19.4296 20.666 19.7044 20.4332 19.9297C20.1882 20.1747 19.9555 20.3261 19.6283 20.453C19.3833 20.5493 19.0122 20.663 18.3289 20.6945C17.5912 20.7278 17.3699 20.7356 15.5009 20.7356C13.6319 20.7356 13.4096 20.7278 12.672 20.6945C11.9895 20.663 11.6194 20.5493 11.3726 20.453C11.0686 20.3409 10.7935 20.1621 10.5676 19.9297C10.3347 19.704 10.1553 19.429 10.0426 19.1248C9.94725 18.8789 9.83263 18.5079 9.802 17.8254C9.76875 17.0878 9.76175 16.8664 9.76175 14.9965C9.76175 13.1275 9.76875 12.907 9.802 12.1694C9.8335 11.4869 9.94725 11.1159 10.0435 10.8691C10.1704 10.5428 10.3226 10.3091 10.5676 10.0641C10.8126 9.81912 11.0454 9.66775 11.3726 9.54088C11.6194 9.44463 11.9895 9.33088 12.672 9.29938C13.3177 9.26963 13.568 9.26088 14.8726 9.26V9.26175ZM19.2371 10.4237C19.1268 10.4237 19.0176 10.4455 18.9157 10.4877C18.8138 10.5299 18.7212 10.5918 18.6432 10.6698C18.5652 10.7478 18.5033 10.8404 18.4611 10.9423C18.4189 11.0442 18.3971 11.1534 18.3971 11.2638C18.3971 11.3741 18.4189 11.4833 18.4611 11.5852C18.5033 11.6871 18.5652 11.7797 18.6432 11.8577C18.7212 11.9357 18.8138 11.9976 18.9157 12.0398C19.0176 12.082 19.1268 12.1038 19.2371 12.1038C19.4599 12.1038 19.6736 12.0153 19.8311 11.8577C19.9886 11.7002 20.0771 11.4865 20.0771 11.2638C20.0771 11.041 19.9886 10.8273 19.8311 10.6698C19.6736 10.5122 19.4599 10.4237 19.2371 10.4237ZM15.5009 11.4055C15.0241 11.3981 14.5505 11.4855 14.1079 11.6629C13.6652 11.8402 13.2622 12.1038 12.9224 12.4384C12.5826 12.7729 12.3127 13.1717 12.1285 13.6116C11.9443 14.0515 11.8494 14.5236 11.8494 15.0004C11.8494 15.4773 11.9443 15.9494 12.1285 16.3893C12.3127 16.8291 12.5826 17.2279 12.9224 17.5625C13.2622 17.8971 13.6652 18.1607 14.1079 18.338C14.5505 18.5153 15.0241 18.6028 15.5009 18.5954C16.4446 18.5807 17.3447 18.1954 18.0069 17.5228C18.669 16.8503 19.0402 15.9443 19.0402 15.0004C19.0402 14.0566 18.669 13.1506 18.0069 12.478C17.3447 11.8055 16.4446 11.4202 15.5009 11.4055ZM15.5009 12.6664C16.1198 12.6664 16.7134 12.9122 17.151 13.3499C17.5886 13.7875 17.8345 14.3811 17.8345 15C17.8345 15.6189 17.5886 16.2125 17.151 16.6501C16.7134 17.0878 16.1198 17.3336 15.5009 17.3336C14.882 17.3336 14.2884 17.0878 13.8508 16.6501C13.4131 16.2125 13.1673 15.6189 13.1673 15C13.1673 14.3811 13.4131 13.7875 13.8508 13.3499C14.2884 12.9122 14.882 12.6664 15.5009 12.6664Z" fill="#00227B"/>
</g>
<defs>
<clipPath id="clip0_597_150">
<rect width="14" height="14" fill="white" transform="translate(8.5 8)"/>
</clipPath>
</defs>
</svg>
