<svg width="60" height="60" viewBox="0 0 60 60" fill="none" xmlns="http://www.w3.org/2000/svg">
<path d="M54.3019 22.5H26.3231C25.5581 22.501 24.8247 22.8053 24.2838 23.3463C23.7428 23.8872 23.4385 24.6206 23.4375 25.3856V45.8644C23.4385 46.6294 23.7428 47.3628 24.2838 47.9037C24.8247 48.4447 25.5581 48.749 26.3231 48.75H36.5625V52.5H31.875C31.1291 52.5 30.4137 52.7963 29.8863 53.3238C29.3588 53.8512 29.0625 54.5666 29.0625 55.3125C29.0625 56.0584 29.3588 56.7738 29.8863 57.3012C30.4137 57.8287 31.1291 58.125 31.875 58.125H48.75C49.4959 58.125 50.2113 57.8287 50.7387 57.3012C51.2662 56.7738 51.5625 56.0584 51.5625 55.3125C51.5625 54.5666 51.2662 53.8512 50.7387 53.3238C50.2113 52.7963 49.4959 52.5 48.75 52.5H44.0625V48.75H54.3019C55.0669 48.749 55.8003 48.4447 56.3412 47.9037C56.8822 47.3628 57.1865 46.6294 57.1875 45.8644V25.3856C57.1865 24.6206 56.8822 23.8872 56.3412 23.3463C55.8003 22.8053 55.0669 22.501 54.3019 22.5ZM49.6875 55.3125C49.6875 55.5611 49.5887 55.7996 49.4129 55.9754C49.2371 56.1512 48.9986 56.25 48.75 56.25H31.875C31.6264 56.25 31.3879 56.1512 31.2121 55.9754C31.0363 55.7996 30.9375 55.5611 30.9375 55.3125C30.9375 55.0639 31.0363 54.8254 31.2121 54.6496C31.3879 54.4738 31.6264 54.375 31.875 54.375H48.75C48.9986 54.375 49.2371 54.4738 49.4129 54.6496C49.5887 54.8254 49.6875 55.0639 49.6875 55.3125ZM42.1875 52.5H38.4375V48.75H42.1875V52.5ZM55.3125 45.8644C55.3125 46.1324 55.206 46.3895 55.0165 46.579C54.827 46.7685 54.5699 46.875 54.3019 46.875H26.3231C26.0551 46.875 25.798 46.7685 25.6085 46.579C25.419 46.3895 25.3125 46.1324 25.3125 45.8644V25.3856C25.3125 25.1176 25.419 24.8605 25.6085 24.671C25.798 24.4815 26.0551 24.375 26.3231 24.375H54.3019C54.5699 24.375 54.827 24.4815 55.0165 24.671C55.206 24.8605 55.3125 25.1176 55.3125 25.3856V45.8644ZM18.5184 22.5H5.85656C5.04953 22.501 4.27584 22.822 3.70518 23.3927C3.13452 23.9633 2.81349 24.737 2.8125 25.5441V49.4559C2.81349 50.263 3.13452 51.0367 3.70518 51.6073C4.27584 52.178 5.04953 52.499 5.85656 52.5H18.5184C19.3255 52.499 20.0992 52.178 20.6698 51.6073C21.2405 51.0367 21.5615 50.263 21.5625 49.4559V25.5441C21.5615 24.737 21.2405 23.9633 20.6698 23.3927C20.0992 22.822 19.3255 22.501 18.5184 22.5ZM19.6875 49.4559C19.687 49.7658 19.5637 50.0629 19.3445 50.282C19.1254 50.5012 18.8283 50.6245 18.5184 50.625H5.85656C5.54666 50.6245 5.24959 50.5012 5.03046 50.282C4.81132 50.0629 4.688 49.7658 4.6875 49.4559V25.5441C4.688 25.2342 4.81132 24.9371 5.03046 24.718C5.24959 24.4988 5.54666 24.3755 5.85656 24.375H18.5184C18.8283 24.3755 19.1254 24.4988 19.3445 24.718C19.5637 24.9371 19.687 25.2342 19.6875 25.5441V49.4559Z" fill="#00227B"/>
<path d="M16.875 26.25H7.5C7.25136 26.25 7.0129 26.3488 6.83709 26.5246C6.66127 26.7004 6.5625 26.9389 6.5625 27.1875V30.9375C6.5625 31.1861 6.66127 31.4246 6.83709 31.6004C7.0129 31.7762 7.25136 31.875 7.5 31.875H16.875C17.1236 31.875 17.3621 31.7762 17.5379 31.6004C17.7137 31.4246 17.8125 31.1861 17.8125 30.9375V27.1875C17.8125 26.9389 17.7137 26.7004 17.5379 26.5246C17.3621 26.3488 17.1236 26.25 16.875 26.25ZM15.9375 30H8.4375V28.125H15.9375V30ZM16.875 33.75H7.5C7.25136 33.75 7.0129 33.8488 6.83709 34.0246C6.66127 34.2004 6.5625 34.4389 6.5625 34.6875V38.4375C6.5625 38.6861 6.66127 38.9246 6.83709 39.1004C7.0129 39.2762 7.25136 39.375 7.5 39.375H16.875C17.1236 39.375 17.3621 39.2762 17.5379 39.1004C17.7137 38.9246 17.8125 38.6861 17.8125 38.4375V34.6875C17.8125 34.4389 17.7137 34.2004 17.5379 34.0246C17.3621 33.8488 17.1236 33.75 16.875 33.75ZM15.9375 37.5H8.4375V35.625H15.9375V37.5ZM12.1875 43.125C11.6312 43.125 11.0875 43.29 10.625 43.599C10.1624 43.908 9.80196 44.3473 9.58909 44.8612C9.37622 45.3751 9.32052 45.9406 9.42904 46.4862C9.53756 47.0318 9.80543 47.5329 10.1988 47.9262C10.5921 48.3196 11.0932 48.5874 11.6388 48.696C12.1844 48.8045 12.7499 48.7488 13.2638 48.5359C13.7777 48.323 14.217 47.9626 14.526 47.5C14.835 47.0375 15 46.4938 15 45.9375C15 45.1916 14.7037 44.4762 14.1762 43.9488C13.6488 43.4213 12.9334 43.125 12.1875 43.125ZM12.1875 46.875C12.0021 46.875 11.8208 46.82 11.6667 46.717C11.5125 46.614 11.3923 46.4676 11.3214 46.2963C11.2504 46.125 11.2318 45.9365 11.268 45.7546C11.3042 45.5727 11.3935 45.4057 11.5246 45.2746C11.6557 45.1435 11.8227 45.0542 12.0046 45.018C12.1865 44.9818 12.375 45.0004 12.5463 45.0714C12.7176 45.1423 12.864 45.2625 12.967 45.4167C13.07 45.5708 13.125 45.7521 13.125 45.9375C13.125 46.1861 13.0262 46.4246 12.8504 46.6004C12.6746 46.7762 12.4361 46.875 12.1875 46.875ZM6.5625 41.25H8.4375V43.125H6.5625V41.25ZM15.9375 41.25H17.8125V43.125H15.9375V41.25ZM48.9769 33.9488L47.0447 33.4688C46.9261 33.0999 46.7771 32.7415 46.5994 32.3972L47.625 30.6834C47.7324 30.5042 47.7767 30.2941 47.7511 30.0867C47.7254 29.8794 47.6312 29.6865 47.4834 29.5387L46.3988 28.4541C46.251 28.3063 46.0581 28.2121 45.8508 28.1864C45.6434 28.1608 45.4333 28.2051 45.2541 28.3125L43.5441 29.3381C43.1998 29.1604 42.8414 29.0114 42.4725 28.8928L41.9887 26.9606C41.9381 26.7577 41.8211 26.5776 41.6564 26.4488C41.4916 26.32 41.2885 26.2501 41.0794 26.25H39.5456C39.3365 26.2501 39.1334 26.32 38.9686 26.4488C38.8039 26.5776 38.6869 26.7577 38.6363 26.9606L38.1562 28.8928C37.7874 29.0114 37.429 29.1604 37.0847 29.3381L35.3709 28.3125C35.1917 28.2051 34.9816 28.1608 34.7742 28.1864C34.5669 28.2121 34.374 28.3063 34.2262 28.4541L33.1416 29.5387C32.9938 29.6865 32.8996 29.8794 32.8739 30.0867C32.8483 30.2941 32.8926 30.5042 33 30.6834L34.0256 32.3934C33.8479 32.7377 33.6989 33.0961 33.5803 33.465L31.6481 33.9488C31.4452 33.9994 31.2651 34.1164 31.1363 34.2811C31.0075 34.4459 30.9376 34.649 30.9375 34.8581V36.3919C30.9376 36.601 31.0075 36.8041 31.1363 36.9689C31.2651 37.1336 31.4452 37.2506 31.6481 37.3012L33.5803 37.785C33.6989 38.1539 33.8479 38.5123 34.0256 38.8566L33 40.5666C32.8926 40.7458 32.8483 40.9559 32.8739 41.1633C32.8996 41.3706 32.9938 41.5635 33.1416 41.7113L34.2262 42.7959C34.374 42.9437 34.5669 43.0379 34.7742 43.0636C34.9816 43.0892 35.1917 43.0449 35.3709 42.9375L37.0809 41.9119C37.4252 42.0896 37.7836 42.2386 38.1525 42.3572L38.6363 44.2894C38.6869 44.4923 38.8039 44.6724 38.9686 44.8012C39.1334 44.93 39.3365 44.9999 39.5456 45H41.0794C41.2885 44.9999 41.4916 44.93 41.6564 44.8012C41.8211 44.6724 41.9381 44.4923 41.9887 44.2894L42.4725 42.3572C42.8414 42.2386 43.1998 42.0896 43.5441 41.9119L45.2541 42.9375C45.4333 43.0449 45.6434 43.0892 45.8508 43.0636C46.0581 43.0379 46.251 42.9437 46.3988 42.7959L47.4834 41.7113C47.6312 41.5635 47.7254 41.3706 47.7511 41.1633C47.7767 40.9559 47.7324 40.7458 47.625 40.5666L46.5994 38.8566C46.7771 38.5123 46.9261 38.1539 47.0447 37.785L48.9769 37.3012C49.1798 37.2506 49.3599 37.1336 49.4887 36.9689C49.6175 36.8041 49.6874 36.601 49.6875 36.3919V34.8581C49.6874 34.649 49.6175 34.4459 49.4887 34.2811C49.3599 34.1164 49.1798 33.9994 48.9769 33.9488ZM47.8125 35.6597L46.0594 36.0984C45.8914 36.1402 45.7384 36.2277 45.6171 36.3511C45.4958 36.4746 45.411 36.6292 45.3722 36.7978C45.2432 37.3559 45.0214 37.8883 44.7159 38.3728C44.6242 38.5194 44.5747 38.6884 44.5731 38.8613C44.5714 39.0342 44.6176 39.2042 44.7066 39.3525L45.6384 40.9031L45.5878 40.9537L44.0372 40.0219C43.8889 39.9329 43.7189 39.8867 43.546 39.8884C43.3731 39.8901 43.2041 39.9395 43.0575 40.0313C42.573 40.3367 42.0406 40.5585 41.4825 40.6875C41.3139 40.7263 41.1593 40.8111 41.0358 40.9324C40.9124 41.0537 40.8249 41.2068 40.7831 41.3747L40.3472 43.125H40.2778L39.8438 41.3719C39.802 41.2039 39.7145 41.0509 39.5911 40.9296C39.4676 40.8083 39.313 40.7235 39.1444 40.6847C38.5863 40.5557 38.0539 40.3339 37.5694 40.0284C37.4228 39.9367 37.2537 39.8872 37.0809 39.8856C36.908 39.8839 36.738 39.9301 36.5897 40.0191L35.0391 40.9509L34.9884 40.9003L35.9203 39.3497C36.0092 39.2014 36.0554 39.0314 36.0538 38.8585C36.0521 38.6856 36.0027 38.5166 35.9109 38.37C35.6055 37.8855 35.3837 37.3531 35.2547 36.795C35.2159 36.6264 35.1311 36.4718 35.0098 36.3483C34.8885 36.2249 34.7354 36.1374 34.5675 36.0956L32.8125 35.6597V35.5903L34.5656 35.1516C34.7336 35.1098 34.8866 35.0223 35.0079 34.8989C35.1292 34.7754 35.214 34.6208 35.2528 34.4522C35.3818 33.8941 35.6036 33.3617 35.9091 32.8772C36.0008 32.7306 36.0503 32.5616 36.0519 32.3887C36.0536 32.2158 36.0074 32.0458 35.9184 31.8975L34.9866 30.3469L35.0372 30.2963L36.5878 31.2281C36.7361 31.3171 36.9061 31.3633 37.079 31.3616C37.2519 31.3599 37.4209 31.3105 37.5675 31.2187C38.052 30.9133 38.5844 30.6915 39.1425 30.5625C39.3111 30.5237 39.4657 30.4389 39.5892 30.3176C39.7126 30.1963 39.8001 30.0432 39.8419 29.8753L40.2778 28.125H40.3472L40.7859 29.8781C40.8277 30.0461 40.9152 30.1991 41.0386 30.3204C41.1621 30.4417 41.3167 30.5265 41.4853 30.5653C42.0434 30.6943 42.5758 30.9161 43.0603 31.2216C43.2071 31.3127 43.3761 31.3618 43.5488 31.3634C43.7216 31.3651 43.8915 31.3193 44.04 31.2309L45.5906 30.2991L45.6412 30.3497L44.7094 31.9003C44.6204 32.0486 44.5742 32.2186 44.5759 32.3915C44.5776 32.5644 44.627 32.7334 44.7188 32.88C45.0242 33.3645 45.246 33.8969 45.375 34.455C45.4138 34.6236 45.4986 34.7782 45.6199 34.9017C45.7412 35.0251 45.8943 35.1126 46.0622 35.1544L47.8153 35.5931L47.8125 35.6597Z" fill="#00227B"/>
<path d="M40.3125 31.62C39.5204 31.62 38.7461 31.8549 38.0874 32.295C37.4288 32.735 36.9155 33.3605 36.6124 34.0924C36.3092 34.8242 36.2299 35.6294 36.3845 36.4063C36.539 37.1832 36.9204 37.8969 37.4805 38.457C38.0406 39.0171 38.7543 39.3985 39.5312 39.553C40.3081 39.7076 41.1133 39.6283 41.8451 39.3251C42.577 39.022 43.2025 38.5087 43.6425 37.8501C44.0826 37.1914 44.3175 36.4171 44.3175 35.625C44.316 34.5633 43.8936 33.5454 43.1428 32.7947C42.3921 32.0439 41.3742 31.6215 40.3125 31.62ZM40.3125 37.755C39.8912 37.755 39.4794 37.6301 39.1291 37.396C38.7789 37.162 38.5059 36.8293 38.3446 36.4401C38.1834 36.0509 38.1412 35.6226 38.2234 35.2095C38.3056 34.7963 38.5085 34.4167 38.8064 34.1189C39.1042 33.821 39.4838 33.6181 39.897 33.5359C40.3101 33.4537 40.7384 33.4959 41.1276 33.6571C41.5168 33.8184 41.8495 34.0914 42.0835 34.4416C42.3176 34.7919 42.4425 35.2037 42.4425 35.625C42.442 36.1898 42.2174 36.7312 41.8181 37.1306C41.4187 37.5299 40.8773 37.7545 40.3125 37.755ZM39.375 11.25C39.375 9.3958 38.8252 7.58324 37.795 6.04153C36.7649 4.49982 35.3007 3.29821 33.5877 2.58863C31.8746 1.87906 29.9896 1.69341 28.171 2.05514C26.3525 2.41688 24.682 3.30976 23.3709 4.62088C22.0598 5.932 21.1669 7.60246 20.8051 9.42103C20.4434 11.2396 20.6291 13.1246 21.3386 14.8377C22.0482 16.5507 23.2498 18.0149 24.7915 19.045C26.3332 20.0752 28.1458 20.625 30 20.625C32.4856 20.6223 34.8685 19.6337 36.6261 17.8761C38.3837 16.1186 39.3723 13.7356 39.375 11.25ZM30 3.91032C30.4342 4.80597 30.7153 5.76804 30.8316 6.75657C30.5634 6.77813 30.2906 6.79688 30 6.79688C29.7094 6.79688 29.4375 6.77813 29.1684 6.75657C29.2847 5.76804 29.5658 4.80597 30 3.91032ZM27.3319 6.42375C26.6026 6.25895 25.9455 5.86465 25.4569 5.29875C26.1921 4.73409 27.026 4.31126 27.9159 4.05188C27.6517 4.82373 27.4562 5.61745 27.3319 6.42375ZM32.085 4.05094C32.975 4.31032 33.8089 4.73316 34.5441 5.29782C34.0555 5.86371 33.3983 6.25801 32.6691 6.42282C32.5447 5.61652 32.3492 4.8228 32.085 4.05094ZM30 8.67188C30.3647 8.67188 30.7181 8.65219 31.0641 8.62219C31.1081 9.14344 31.1353 9.71344 31.1522 10.3097H28.8478C28.8647 9.71063 28.8919 9.14063 28.9359 8.62219C29.2819 8.65219 29.6353 8.67188 30 8.67188ZM31.1522 12.1875C31.1385 12.7507 31.1091 13.3134 31.0641 13.875C30.7181 13.845 30.3647 13.8253 30 13.8253C29.6353 13.8253 29.2819 13.845 28.9359 13.875C28.891 13.3134 28.8617 12.7507 28.8478 12.1875H31.1522ZM30 15.7031C30.2906 15.7031 30.5625 15.7219 30.8316 15.7434C30.7153 16.732 30.4342 17.694 30 18.5897C29.5658 17.694 29.2847 16.732 29.1684 15.7434C29.4375 15.7219 29.7094 15.7031 30 15.7031ZM32.6681 16.0781C33.3974 16.2429 34.0545 16.6372 34.5431 17.2031C33.8079 17.7678 32.974 18.1906 32.0841 18.45C32.3484 17.6775 32.5439 16.8832 32.6681 16.0763V16.0781ZM27.915 18.4509C27.025 18.1916 26.1911 17.7687 25.4559 17.2041C25.9445 16.6382 26.6017 16.2439 27.3309 16.0791C27.4554 16.8847 27.6509 17.6778 27.915 18.4491V18.4509ZM35.8894 15.8803C35.0841 15.0342 34.0454 14.4468 32.9053 14.1928C32.9756 13.4175 33.0112 12.7209 33.0291 12.1866H37.4353C37.2655 13.5349 36.731 14.8114 35.8894 15.8784V15.8803ZM37.4353 10.3125H33.0291C33.0067 9.64272 32.9655 8.9737 32.9053 8.30625C34.0454 8.05226 35.0841 7.46485 35.8894 6.61875C36.7313 7.68632 37.2658 8.96349 37.4353 10.3125ZM24.1106 6.62157C24.916 7.46647 25.9543 8.05287 27.0938 8.30625C27.0234 9.08157 26.9878 9.77813 26.97 10.3125H22.5638C22.734 8.96438 23.2688 7.68824 24.1106 6.62157ZM22.5647 12.1875H26.9709C26.9887 12.7219 27.0244 13.4184 27.0947 14.1938C25.9546 14.4477 24.9159 15.0352 24.1106 15.8813C23.2687 14.8137 22.7342 13.5365 22.5647 12.1875ZM10.3125 20.625H12.1875C12.1897 18.8852 12.8819 17.2173 14.1121 15.9871C15.3423 14.7569 17.0102 14.0647 18.75 14.0625V12.1875C16.513 12.19 14.3683 13.0797 12.7865 14.6615C11.2047 16.2433 10.315 18.388 10.3125 20.625ZM47.8125 20.625H49.6875C49.685 18.388 48.7953 16.2433 47.2135 14.6615C45.6317 13.0797 43.487 12.19 41.25 12.1875V14.0625C42.9898 14.0647 44.6577 14.7569 45.8879 15.9871C47.1181 17.2173 47.8103 18.8852 47.8125 20.625Z" fill="#00227B"/>
</svg>
