<svg width="31" height="30" viewBox="0 0 31 30" fill="none" xmlns="http://www.w3.org/2000/svg">
<rect x="0.5" width="30" height="30" rx="15" fill="#E6EBF6"/>
<path d="M10.5 13.2031H12.7922V20.25H10.5V13.2031ZM19.0357 13.2858C19.0113 13.2781 18.9883 13.2697 18.9627 13.2627C18.9319 13.2557 18.9009 13.2498 18.8698 13.2448C18.7344 13.2171 18.5966 13.2031 18.4585 13.2031C17.1221 13.2031 16.2746 14.175 15.9953 14.5504V13.2031H13.7031V20.25H15.9953V16.4062C15.9953 16.4062 17.7275 13.9937 18.4585 15.7656V20.25H20.75V15.4946C20.749 14.9886 20.5802 14.4972 20.27 14.0975C19.9597 13.6978 19.5256 13.4123 19.0357 13.2858Z" fill="#00227B"/>
<path d="M11.6211 12.2422C12.2403 12.2422 12.7422 11.7403 12.7422 11.1211C12.7422 10.5019 12.2403 10 11.6211 10C11.0019 10 10.5 10.5019 10.5 11.1211C10.5 11.7403 11.0019 12.2422 11.6211 12.2422Z" fill="#00227B"/>
</svg>
