<svg width="50" height="50" viewBox="0 0 50 50" fill="none" xmlns="http://www.w3.org/2000/svg">
<path d="M43.2845 30.4688C43.2845 29.3871 42.9672 28.3298 42.3727 27.4305C41.7782 26.5311 40.9331 25.8302 39.9445 25.4163C38.9558 25.0024 37.868 24.8941 36.8184 25.1051C35.7689 25.3161 34.8048 25.8369 34.0481 26.6018C33.2914 27.3666 32.7761 28.341 32.5673 29.4019C32.3586 30.4627 32.4657 31.5623 32.8752 32.5616C33.2848 33.5608 33.9782 34.4149 34.868 35.0159C35.7578 35.6168 36.8038 35.9375 37.874 35.9375C39.3084 35.9358 40.6837 35.3591 41.698 34.3339C42.7123 33.3087 43.2829 31.9186 43.2845 30.4688ZM37.874 34.375C37.1096 34.375 36.3624 34.1459 35.7268 33.7167C35.0913 33.2875 34.596 32.6774 34.3034 31.9636C34.0109 31.2498 33.9344 30.4644 34.0835 29.7067C34.2326 28.9489 34.6007 28.2529 35.1412 27.7066C35.6817 27.1603 36.3703 26.7883 37.12 26.6376C37.8697 26.4868 38.6467 26.5642 39.3529 26.8598C40.0591 27.1555 40.6627 27.6562 41.0873 28.2986C41.512 28.9409 41.7386 29.6962 41.7386 30.4688C41.7374 31.5044 41.3299 32.4972 40.6053 33.2295C39.8808 33.9618 38.8986 34.3738 37.874 34.375Z" fill="#00227B"/>
<path d="M39.6462 28.3539L37.1009 30.9266L36.1015 29.9164L35.0085 31.0211L36.5544 32.5836C36.6994 32.7301 36.8959 32.8123 37.1009 32.8123C37.3058 32.8123 37.5024 32.7301 37.6473 32.5836L40.7391 29.4586L39.6462 28.3539ZM24.7339 41.4062C24.2752 41.4062 23.8269 41.5437 23.4456 41.8012C23.0643 42.0588 22.7671 42.4248 22.5915 42.8531C22.416 43.2814 22.3701 43.7526 22.4596 44.2072C22.5491 44.6619 22.7699 45.0795 23.0942 45.4073C23.4185 45.7351 23.8317 45.9583 24.2815 46.0487C24.7313 46.1391 25.1975 46.0927 25.6212 45.9153C26.0449 45.7379 26.4071 45.4375 26.6619 45.0521C26.9167 44.6667 27.0527 44.2136 27.0527 43.75C27.0527 43.1284 26.8084 42.5323 26.3735 42.0927C25.9386 41.6532 25.3488 41.4062 24.7339 41.4062ZM24.7339 44.5312C24.581 44.5312 24.4315 44.4854 24.3044 44.3996C24.1773 44.3137 24.0783 44.1917 24.0198 44.049C23.9613 43.9062 23.9459 43.7491 23.9758 43.5976C24.0056 43.446 24.0792 43.3068 24.1873 43.1976C24.2954 43.0883 24.4331 43.0139 24.5831 42.9838C24.733 42.9536 24.8884 42.9691 25.0296 43.0282C25.1709 43.0874 25.2916 43.1875 25.3765 43.316C25.4615 43.4444 25.5068 43.5955 25.5068 43.75C25.5068 43.9572 25.4254 44.1559 25.2804 44.3024C25.1355 44.4489 24.9389 44.5312 24.7339 44.5312ZM22.415 3.90625H27.0527V5.46875H22.415V3.90625Z" fill="#00227B"/>
<path d="M47.1493 18.75H39.4199V5.46875C39.4187 4.43313 39.0111 3.44028 38.2866 2.70798C37.5621 1.97569 36.5798 1.56374 35.5552 1.5625H13.9129C12.8883 1.56374 11.906 1.97569 11.1815 2.70798C10.457 3.44028 10.0495 4.43313 10.0482 5.46875V9.375H2.31884C2.11384 9.375 1.91724 9.45731 1.77229 9.60382C1.62733 9.75034 1.5459 9.94905 1.5459 10.1562V27.3438C1.5459 27.551 1.62733 27.7497 1.77229 27.8962C1.91724 28.0427 2.11384 28.125 2.31884 28.125H10.0482V44.5312C10.0495 45.5669 10.457 46.5597 11.1815 47.292C11.906 48.0243 12.8883 48.4363 13.9129 48.4375H35.5552C36.5798 48.4363 37.5621 48.0243 38.2866 47.292C39.0111 46.5597 39.4187 45.5669 39.4199 44.5312V37.5H47.1493C47.3543 37.5 47.5509 37.4177 47.6958 37.2712C47.8408 37.1247 47.9222 36.9259 47.9222 36.7188V19.5312C47.9222 19.324 47.8408 19.1253 47.6958 18.9788C47.5509 18.8323 47.3543 18.75 47.1493 18.75ZM46.3764 23.4375H29.3717V20.3125H46.3764V23.4375ZM13.9129 3.125H35.5552C36.1702 3.125 36.76 3.37193 37.1949 3.81147C37.6297 4.25101 37.874 4.84715 37.874 5.46875V6.25H11.5941V5.46875C11.5941 4.84715 11.8384 4.25101 12.2733 3.81147C12.7081 3.37193 13.2979 3.125 13.9129 3.125ZM20.0964 10.9375V14.0625H3.09178V10.9375H20.0964ZM3.09178 15.625H20.0964V26.5625H3.09178V15.625ZM35.5552 46.875H13.9129C13.2979 46.875 12.7081 46.6281 12.2733 46.1885C11.8384 45.749 11.5941 45.1529 11.5941 44.5312V40.625H37.874V44.5312C37.874 45.1529 37.6297 45.749 37.1949 46.1885C36.76 46.6281 36.1702 46.875 35.5552 46.875ZM37.874 39.0625H11.5941V28.125H20.8694C21.0744 28.125 21.271 28.0427 21.4159 27.8962C21.5609 27.7497 21.6423 27.551 21.6423 27.3438V10.1562C21.6423 9.94905 21.5609 9.75034 21.4159 9.60382C21.271 9.45731 21.0744 9.375 20.8694 9.375H11.5941V7.8125H37.874V18.75H28.5988C28.3938 18.75 28.1972 18.8323 28.0522 18.9788C27.9073 19.1253 27.8258 19.324 27.8258 19.5312V36.7188C27.8258 36.9259 27.9073 37.1247 28.0522 37.2712C28.1972 37.4177 28.3938 37.5 28.5988 37.5H37.874V39.0625ZM37.874 35.9375H29.3717V25H46.3764V35.9375H37.874Z" fill="#00227B"/>
<path d="M30.1447 21.0938H31.6905V22.6562H30.1447V21.0938ZM32.4635 21.0938H34.0094V22.6562H32.4635V21.0938ZM34.7823 21.0938H36.3282V22.6562H34.7823V21.0938ZM7.06703 16.7852L4.74822 20.6914C4.67599 20.8129 4.63783 20.952 4.63783 21.0938C4.63783 21.2355 4.67599 21.3746 4.74822 21.4961L7.06703 25.4023L8.39185 24.5977L6.31187 21.0938L8.39185 17.5898L7.06703 16.7852ZM16.1212 16.7852L14.7964 17.5898L16.8764 21.0938L14.7964 24.5977L16.1212 25.4023L18.4401 21.4961C18.5123 21.3746 18.5504 21.2355 18.5504 21.0938C18.5504 20.952 18.5123 20.8129 18.4401 20.6914L16.1212 16.7852ZM9.33174 24.7109L12.4212 16.8969L13.8565 17.4773L10.7671 25.2898L9.33174 24.7109ZM3.86475 11.7188H5.41062V13.2812H3.86475V11.7188ZM6.18356 11.7188H7.72944V13.2812H6.18356V11.7188ZM8.50238 11.7188H10.0483V13.2812H8.50238V11.7188ZM23.1882 10.9375H24.7341V12.5H23.1882V10.9375ZM26.28 10.9375H29.3717V12.5H26.28V10.9375ZM36.3282 12.5V10.9375H30.9176V12.5H36.3282ZM23.1882 14.0625H26.28V15.625H23.1882V14.0625ZM27.8258 14.0625H29.3717V15.625H27.8258V14.0625ZM30.9176 14.0625H36.3282V15.625H30.9176V14.0625ZM13.913 31.25H18.5506V32.8125H13.913V31.25ZM20.0965 31.25H24.7341V32.8125H20.0965V31.25ZM15.4588 34.375H17.0047V35.9375H15.4588V34.375ZM18.5506 34.375H21.6423V35.9375H18.5506V34.375ZM23.1882 34.375H24.7341V35.9375H23.1882V34.375Z" fill="#00227B"/>
</svg>
