<svg width="50" height="50" viewBox="0 0 50 50" fill="none" xmlns="http://www.w3.org/2000/svg">
<g clip-path="url(#clip0_367_6388)">
<path d="M46.0938 6.25H45.3125V3.125C45.3125 2.2962 44.9833 1.50134 44.3972 0.915291C43.8112 0.32924 43.0163 0 42.1875 0C41.3587 0 40.5638 0.32924 39.9778 0.915291C39.3917 1.50134 39.0625 2.2962 39.0625 3.125V6.25H10.9375V3.125C10.9375 2.2962 10.6083 1.50134 10.0222 0.915291C9.43616 0.32924 8.6413 0 7.8125 0C6.9837 0 6.18884 0.32924 5.60279 0.915291C5.01674 1.50134 4.6875 2.2962 4.6875 3.125V6.25H3.90625C2.87025 6.25 1.87668 6.66155 1.14411 7.39411C0.41155 8.12668 0 9.12025 0 10.1562L0 46.0938C0 47.1298 0.41155 48.1233 1.14411 48.8559C1.87668 49.5885 2.87025 50 3.90625 50H46.0938C47.1298 50 48.1233 49.5885 48.8559 48.8559C49.5885 48.1233 50 47.1298 50 46.0938V10.1562C50 9.12025 49.5885 8.12668 48.8559 7.39411C48.1233 6.66155 47.1298 6.25 46.0938 6.25ZM40.625 3.125C40.625 2.7106 40.7896 2.31317 41.0826 2.02015C41.3757 1.72712 41.7731 1.5625 42.1875 1.5625C42.6019 1.5625 42.9993 1.72712 43.2924 2.02015C43.5854 2.31317 43.75 2.7106 43.75 3.125V10.9375C43.75 11.3519 43.5854 11.7493 43.2924 12.0424C42.9993 12.3354 42.6019 12.5 42.1875 12.5C41.7731 12.5 41.3757 12.3354 41.0826 12.0424C40.7896 11.7493 40.625 11.3519 40.625 10.9375V3.125ZM6.25 3.125C6.25 2.7106 6.41462 2.31317 6.70765 2.02015C7.00067 1.72712 7.3981 1.5625 7.8125 1.5625C8.2269 1.5625 8.62433 1.72712 8.91735 2.02015C9.21038 2.31317 9.375 2.7106 9.375 3.125V10.9375C9.375 11.3519 9.21038 11.7493 8.91735 12.0424C8.62433 12.3354 8.2269 12.5 7.8125 12.5C7.3981 12.5 7.00067 12.3354 6.70765 12.0424C6.41462 11.7493 6.25 11.3519 6.25 10.9375V3.125ZM48.4375 46.0938C48.4375 46.7154 48.1906 47.3115 47.751 47.751C47.3115 48.1906 46.7154 48.4375 46.0938 48.4375H3.90625C3.28465 48.4375 2.68851 48.1906 2.24897 47.751C1.80943 47.3115 1.5625 46.7154 1.5625 46.0938V18.75H48.4375V46.0938ZM48.4375 17.1875H1.5625V10.1562C1.5625 9.53465 1.80943 8.93851 2.24897 8.49897C2.68851 8.05943 3.28465 7.8125 3.90625 7.8125H4.6875V10.9375C4.6875 11.7663 5.01674 12.5612 5.60279 13.1472C6.18884 13.7333 6.9837 14.0625 7.8125 14.0625C8.6413 14.0625 9.43616 13.7333 10.0222 13.1472C10.6083 12.5612 10.9375 11.7663 10.9375 10.9375V7.8125H39.0625V10.9375C39.0625 11.7663 39.3917 12.5612 39.9778 13.1472C40.5638 13.7333 41.3587 14.0625 42.1875 14.0625C43.0163 14.0625 43.8112 13.7333 44.3972 13.1472C44.9833 12.5612 45.3125 11.7663 45.3125 10.9375V7.8125H46.0938C46.7154 7.8125 47.3115 8.05943 47.751 8.49897C48.1906 8.93851 48.4375 9.53465 48.4375 10.1562V17.1875ZM18.5188 32.7484L20.7703 35L13.9844 41.7703C13.4229 42.3347 13.1086 43.0991 13.1106 43.8952C13.1116 44.2894 13.1903 44.6796 13.3421 45.0434C13.4939 45.4072 13.7158 45.7376 13.9953 46.0156C14.2748 46.2937 14.6063 46.5139 14.9709 46.6638C15.3355 46.8138 15.726 46.8904 16.1202 46.8894C16.9164 46.8873 17.6791 46.5691 18.2406 46.0047L25 39.2328L31.7656 46.0109C32.3285 46.5659 33.0877 46.8764 33.8781 46.875C34.4707 46.8732 35.0495 46.6963 35.5419 46.3665C36.0342 46.0367 36.4181 45.5688 36.6453 45.0215C36.8726 44.4742 36.933 43.872 36.819 43.2905C36.705 42.709 36.4217 42.1741 36.0047 41.7531L29.2297 35L31.4813 32.7484C32.6215 33.1123 33.8397 33.1559 35.003 32.8746C36.1663 32.5932 37.23 31.9977 38.0779 31.153C38.9258 30.3083 39.5254 29.2469 39.8112 28.0847C40.0969 26.9225 40.0579 25.7041 39.6984 24.5625C39.6576 24.4347 39.5844 24.3195 39.4861 24.2282C39.3878 24.1368 39.2676 24.0724 39.1371 24.041C39.0067 24.0096 38.8703 24.0123 38.7412 24.0489C38.6121 24.0855 38.4946 24.1548 38.4 24.25L35.3438 27.3016L32.6984 24.6562L35.7547 21.5984C35.8495 21.5038 35.9185 21.3864 35.9548 21.2575C35.9912 21.1286 35.9939 20.9925 35.9625 20.8623C35.9311 20.732 35.8668 20.6121 35.7757 20.5139C35.6845 20.4157 35.5697 20.3426 35.4422 20.3016C34.3003 19.9385 33.0805 19.8969 31.9165 20.1814C30.7526 20.4659 29.6895 21.0654 28.8438 21.9143C27.9982 22.7632 27.4027 23.8286 27.1226 24.9936C26.8426 26.1586 26.8888 27.3783 27.2563 28.5188L25 30.7703L22.7484 28.5188C23.1159 27.3783 23.1621 26.1586 22.8821 24.9936C22.602 23.8286 22.0065 22.7632 21.1609 21.9143C20.3152 21.0654 19.2521 20.4659 18.0881 20.1814C16.9242 19.8969 15.7044 19.9385 14.5625 20.3016C14.435 20.3426 14.3201 20.4157 14.229 20.5139C14.1379 20.6121 14.0736 20.732 14.0422 20.8623C14.0108 20.9925 14.0134 21.1286 14.0498 21.2575C14.0862 21.3864 14.1552 21.5038 14.25 21.5984L17.3078 24.6562L14.6562 27.3016L11.5984 24.2453C11.5039 24.1501 11.3864 24.0808 11.2573 24.0442C11.1281 24.0076 10.9918 24.0049 10.8613 24.0363C10.7308 24.0677 10.6106 24.1322 10.5123 24.2235C10.414 24.3149 10.3409 24.43 10.3 24.5578C9.94108 25.6993 9.90252 26.9175 10.1885 28.0795C10.4745 29.2414 11.0741 30.3025 11.9218 31.147C12.7696 31.9916 13.833 32.5871 14.996 32.8687C16.159 33.1502 17.377 33.107 18.5172 32.7437L18.5188 32.7484ZM34.8906 42.8547C35.1584 43.1262 35.3098 43.4913 35.3127 43.8726C35.3156 44.2539 35.1698 44.6213 34.9062 44.8969C34.6353 45.1669 34.2684 45.3185 33.8859 45.3185C33.5034 45.3185 33.1365 45.1669 32.8656 44.8969L26.1047 38.125L28.125 36.1047L34.8906 42.8547ZM25.5516 32.4281L28.7078 29.2703C28.817 29.161 28.8913 29.0217 28.9214 28.8701C28.9514 28.7185 28.9358 28.5615 28.8766 28.4187C28.5025 27.5104 28.4053 26.5118 28.5975 25.5484C28.7896 24.585 29.2623 23.7 29.9563 23.0047C30.4274 22.5254 30.9931 22.1493 31.6175 21.9005C32.2418 21.6517 32.9111 21.5355 33.5828 21.5594L31.0406 24.1031C30.8942 24.2496 30.8119 24.4483 30.8119 24.6555C30.8119 24.8626 30.8942 25.0613 31.0406 25.2078L34.7906 28.9578C34.9371 29.1043 35.1358 29.1866 35.343 29.1866C35.5501 29.1866 35.7488 29.1043 35.8953 28.9578L38.4375 26.4156C38.4546 27.2408 38.2661 28.0572 37.8891 28.7914C37.5121 29.5255 36.9583 30.1544 36.2777 30.6212C35.5971 31.0881 34.8111 31.3783 33.9904 31.4657C33.1697 31.5531 32.3402 31.4349 31.5766 31.1219C31.434 31.063 31.2773 31.0476 31.126 31.0776C30.9748 31.1076 30.8358 31.1817 30.7266 31.2906L27.5703 34.4484L24.4453 37.5734L17.1406 44.8953C16.8718 45.1638 16.5082 45.316 16.1282 45.3189C15.7482 45.3218 15.3823 45.1753 15.1094 44.9109C14.8398 44.6334 14.6885 44.262 14.6875 43.875C14.6895 43.4982 14.8367 43.1367 15.0984 42.8656L22.425 35.5547L25.5516 32.4281ZM14.1031 28.9578C14.2496 29.1043 14.4483 29.1866 14.6555 29.1866C14.8626 29.1866 15.0613 29.1043 15.2078 28.9578L18.9578 25.2078C19.1043 25.0613 19.1866 24.8626 19.1866 24.6555C19.1866 24.4483 19.1043 24.2496 18.9578 24.1031L16.4141 21.5625C17.0846 21.542 17.7522 21.6594 18.3755 21.9074C18.9988 22.1555 19.5645 22.529 20.0375 23.0047C20.7324 23.7 21.206 24.5854 21.3987 25.5494C21.5914 26.5134 21.4945 27.5128 21.1203 28.4219C21.0611 28.5646 21.0455 28.7217 21.0755 28.8733C21.1056 29.0248 21.1799 29.1641 21.2891 29.2734L23.8953 31.875L21.875 33.8953L19.2703 31.2906C19.1611 31.1817 19.0221 31.1076 18.8709 31.0776C18.7196 31.0476 18.5628 31.063 18.4203 31.1219C17.6567 31.4343 16.8274 31.5519 16.007 31.4641C15.1866 31.3763 14.401 31.0859 13.7208 30.6189C13.0406 30.1519 12.4872 29.5232 12.1104 28.7891C11.7337 28.0551 11.5454 27.2389 11.5625 26.4141L14.1031 28.9578Z" fill="#00227B"/>
</g>
<defs>
<clipPath id="clip0_367_6388">
<rect width="50" height="50" fill="white"/>
</clipPath>
</defs>
</svg>
