<svg width="50" height="50" viewBox="0 0 50 50" fill="none" xmlns="http://www.w3.org/2000/svg">
<path d="M40.55 41.75H40.5L41.5 31.55C41.7 29.7 41.05 27.9 39.8 26.55L32.5 18.95V3.44999C32.5 1.54999 30.95 0.0499878 29.1 0.0499878H25.6H14.85H11.35C9.5 0.0499878 8 1.59999 8 3.44999V36.95C8 38.85 9.55 40.35 11.4 40.35H26.25V41.75H25.9C25.1 41.75 24.45 42.4 24.45 43.2V48.5C24.45 49.3 25.1 49.95 25.9 49.95H40.6C41.4 49.95 42.05 49.3 42.05 48.5V43.2C42 42.4 41.35 41.75 40.55 41.75ZM24.15 2.94999V4.19999C24.15 4.19999 24.15 4.24999 24.1 4.24999H16.35C16.35 4.24999 16.3 4.24999 16.3 4.19999V2.94999H24.15ZM10.9 36.95V3.44999C10.9 3.14999 11.15 2.94999 11.4 2.94999H13.45V4.19999C13.45 5.79999 14.75 7.14999 16.4 7.14999H24.15C25.75 7.14999 27.1 5.84999 27.1 4.19999V2.94999H29.15C29.45 2.94999 29.65 3.19999 29.65 3.44999V27.5L26.45 23.85C25.75 23.05 24.8 22.65 23.75 22.65C22.7 22.65 21.75 23.1 21.05 23.9C20.1 25 19.9 26.6 20.6 27.9L25.7 37.5H11.4C11.1 37.45 10.9 37.25 10.9 36.95ZM29.1 38.9V38.1C29.1 37.85 29.05 37.65 28.95 37.4L23.1 26.5C22.95 26.25 23 25.95 23.2 25.75C23.35 25.55 23.6 25.5 23.7 25.5C23.8 25.5 24.05 25.55 24.2 25.75L29.95 32.3C30.25 32.65 30.7 32.8 31.1 32.8C31.25 32.8 31.4 32.75 31.55 32.7C32.1 32.5 32.5 31.95 32.5 31.35V23.1L37.75 28.55C38.45 29.25 38.8 30.25 38.7 31.25L37.65 41.8H29.1V38.9ZM39.1 47.05H27.3V44.65H27.65H38.85H39.1V47.05Z" fill="#00227B"/>
<path d="M20.25 35.25C21.0784 35.25 21.75 34.5784 21.75 33.75C21.75 32.9216 21.0784 32.25 20.25 32.25C19.4216 32.25 18.75 32.9216 18.75 33.75C18.75 34.5784 19.4216 35.25 20.25 35.25Z" fill="#00227B"/>
</svg>
