<svg width="508" height="356" viewBox="0 0 508 356" fill="none" xmlns="http://www.w3.org/2000/svg">
<path d="M430.423 23.9093L395.143 31.5086L411.476 63.6647L417.289 51.4696C443.41 63.8995 454.54 95.2445 442.107 121.345C429.673 147.445 398.292 158.566 372.171 146.136C346.05 133.706 334.92 102.363 347.357 76.2633L331.976 68.9458C315.5 103.527 330.243 145.039 364.843 161.501C399.444 177.964 440.998 163.235 457.475 128.662C473.953 94.0896 459.208 52.5689 424.608 36.1045L430.423 23.9093Z" fill="url(#paint0_linear_176_7400)"/>
<path d="M204.931 333.418C166.444 333.398 129.147 320.085 99.3582 295.734C69.5699 271.382 49.1221 237.491 41.4792 199.8C33.8363 162.109 39.4681 122.937 57.4205 88.9208C75.3729 54.9041 104.542 28.1343 139.986 13.1465C180.753 -4.06418 226.692 -4.3885 267.698 12.2449C308.704 28.8782 341.417 61.1067 358.641 101.841C375.866 142.574 376.19 188.477 359.544 229.45C342.897 270.422 310.643 303.11 269.876 320.32C249.33 329.008 227.241 333.463 204.931 333.418ZM204.931 35.4577C132.49 35.4577 73.5458 94.3458 73.5458 166.738C73.5458 239.129 132.483 298.018 204.931 298.018C277.379 298.018 336.317 239.129 336.317 166.738C336.317 94.3458 277.373 35.4577 204.931 35.4577Z" fill="url(#paint1_linear_176_7400)"/>
<path d="M331.504 238.06H79.9956V287.78H331.504V238.06Z" fill="url(#paint2_linear_176_7400)"/>
<path d="M153.138 108.746H112.276V112.926H153.138V108.746Z" fill="#E0E0E0"/>
<path d="M194.076 140.225H164.573V144.405H194.076V140.225Z" fill="#E0E0E0"/>
<path d="M218.249 140.225H198.672V144.405H218.249V140.225Z" fill="#1487E3"/>
<path d="M258.246 266.606H238.669V270.786H258.246V266.606Z" fill="#1487E3"/>
<path d="M132.317 219.386H112.739V223.566H132.317V219.386Z" fill="#1487E3"/>
<path d="M269.385 140.225H222.116V144.405H269.385V140.225Z" fill="#E0E0E0"/>
<path d="M143.112 203.532H112.739V207.712H143.112V203.532Z" fill="#E0E0E0"/>
<path d="M224.724 235.127H194.352V239.307H224.724V235.127Z" fill="#E0E0E0"/>
<path d="M173.619 235.127H155.077V239.307H173.619V235.127Z" fill="#E0E0E0"/>
<path d="M149.476 235.127H112.739V239.307H149.476V235.127Z" fill="#1487E3"/>
<path d="M133.003 250.866H112.739V255.045H133.003V250.866Z" fill="#E0E0E0"/>
<path d="M190.094 108.746H161.087V112.926H190.094V108.746Z" fill="#78C2FF"/>
<path d="M190.094 155.964H161.087V160.144H190.094V155.964Z" fill="#00227B"/>
<path d="M158.976 171.705H146.583V175.885H158.976V171.705Z" fill="#E0E0E0"/>
<path d="M162.027 187.676H134.188V191.856H162.027V187.676Z" fill="#78C2FF"/>
<path d="M204.666 187.676H166.236V191.856H204.666V187.676Z" fill="#1487E3"/>
<path d="M141.747 171.82H112.739V176H141.747V171.82Z" fill="#1487E3"/>
<path d="M129.952 187.676H112.739V191.856H129.952V187.676Z" fill="#1487E3"/>
<path d="M181.058 171.82H164.819V176H181.058V171.82Z" fill="#FF8761"/>
<path d="M129.465 266.606H113.226V270.786H129.465V266.606Z" fill="#FF8761"/>
<path d="M141.631 140.225H112.624V144.405H141.631V140.225Z" fill="#78C2FF"/>
<path d="M167.282 219.386H138.275V223.566H167.282V219.386Z" fill="#78C2FF"/>
<path d="M167.641 250.866H138.634V255.045H167.641V250.866Z" fill="#78C2FF"/>
<path d="M219.172 250.866H190.165V255.045H219.172V250.866Z" fill="#78C2FF"/>
<path d="M153.975 155.964H112.624V160.144H153.975V155.964Z" fill="#78C2FF"/>
<path d="M232.063 266.606H203.056V270.786H232.063V266.606Z" fill="#78C2FF"/>
<path d="M234.859 108.746H197.903V112.926H234.859V108.746Z" fill="#00227B"/>
<path d="M172.551 266.606H135.594V270.786H172.551V266.606Z" fill="#1487E3"/>
<path d="M301.417 266.606H264.461V270.786H301.417V266.606Z" fill="#1487E3"/>
<path d="M295.728 235.127H258.772V239.307H295.728V235.127Z" fill="#1487E3"/>
<path d="M285.414 155.964H248.457V160.144H285.414V155.964Z" fill="#1487E3"/>
<path d="M187.392 235.127H179.426V239.307H187.392V235.127Z" fill="#FF8761"/>
<path d="M299.151 108.746H262.194V112.926H299.151V108.746Z" fill="#FF8761"/>
<path d="M241.694 155.964H220.025V160.144H241.694V155.964Z" fill="#FF8761"/>
<path d="M224.725 219.619H203.056V223.799H224.725V219.619Z" fill="#FF8761"/>
<path d="M255.221 108.746H241.694V112.926H255.221V108.746Z" fill="#E0E0E0"/>
<path d="M211.43 155.964H197.903V160.144H211.43V155.964Z" fill="#E0E0E0"/>
<path d="M133.439 124.487H112.276V128.666H133.439V124.487Z" fill="#1487E3"/>
<path d="M185.45 203.648H168.742V207.827H185.45V203.648Z" fill="#1487E3"/>
<path d="M145.468 124.487H138.634V128.666H145.468V124.487Z" fill="#1487E3"/>
<path d="M281.208 250.866H224.727V255.045H281.208V250.866Z" fill="#E0E0E0"/>
<path d="M157.462 124.487H150.489V128.666H157.462V124.487Z" fill="#FF8761"/>
<path d="M273.7 124.487H255.221V128.666H273.7V124.487Z" fill="#1487E3"/>
<path d="M292.18 140.225H273.7V144.405H292.18V140.225Z" fill="#FF8761"/>
<path d="M250.933 235.127H232.454V239.307H250.933V235.127Z" fill="#FF8761"/>
<path d="M197.162 266.606H178.682V270.786H197.162V266.606Z" fill="#FF8761"/>
<path d="M250.331 124.487H211.014V128.666H250.331V124.487Z" fill="#1487E3"/>
<path d="M197.386 219.619H174.416V223.799H197.386V219.619Z" fill="#1487E3"/>
<path d="M184.424 250.866H172.939V255.045H184.424V250.866Z" fill="#1487E3"/>
<path d="M205.436 124.487H191.908V128.666H205.436V124.487Z" fill="#78C2FF"/>
<path d="M159.901 140.225H146.374V144.405H159.901V140.225Z" fill="#FF8761"/>
<path d="M162.597 203.648H149.07V207.827H162.597V203.648Z" fill="#FF8761"/>
<path d="M186.747 124.487H163.178V128.666H186.747V124.487Z" fill="#1487E3"/>
<path d="M107.097 282.915C107.092 282.913 107.086 282.913 107.08 282.915C107.155 282.945 107.165 282.949 107.097 282.915Z" fill="#323657"/>
<path d="M274.726 74.7157H281.44L279.385 70.4572H272.671L274.726 74.7157Z" fill="url(#paint3_linear_176_7400)"/>
<path d="M271.583 74.7157H273.183L271.128 70.4572H269.528L271.583 74.7157Z" fill="url(#paint4_linear_176_7400)"/>
<path d="M248.382 69.6438H275.574L274.672 67.5135H247.481L248.382 69.6438Z" fill="url(#paint5_linear_176_7400)"/>
<path d="M109.193 53.1901H126.038V50.1418H109.193V53.1901Z" fill="white"/>
<path d="M109.193 49.2922H126.038V48.718H109.193V49.2922Z" fill="white"/>
<path d="M276.23 110.219L298.108 88.3603H387.986V87.2439H297.645L275.442 109.431L276.23 110.219Z" fill="#FF8761"/>
<path d="M137.192 160.18L137.98 159.392L96.1742 117.618H17.0503V118.734H95.7128L137.192 160.18Z" fill="#78C2FF"/>
<path d="M220.497 109.931L221.285 109.141L185.999 73.8853H136.374V74.9996H185.538L220.497 109.931Z" fill="#1487E3"/>
<path d="M347.161 58.4199H339.226V82.5007H347.161V58.4199Z" fill="#609AE8"/>
<path d="M373.968 21.7256H312.422C310.497 21.7256 308.937 23.2843 308.937 25.2072V66.5401C308.937 68.4629 310.497 70.0217 312.422 70.0217H373.968C375.892 70.0217 377.452 68.4629 377.452 66.5401V25.2072C377.452 23.2843 375.892 21.7256 373.968 21.7256Z" fill="#9CC7FF"/>
<path d="M374.769 24.4814H311.621V62.4522H374.769V24.4814Z" fill="white"/>
<path d="M325.347 83.4101H361.043V81.5935H325.347V83.4101Z" fill="#9CC7FF"/>
<path d="M351.122 59.4488H371.417V36.0041H351.122V59.4488Z" fill="#D7D7E6"/>
<path d="M327.075 38.9286H347.985V36.0063H327.075V38.9286Z" fill="#D7D7E6"/>
<path d="M327.075 44.929H347.985V42.0067H327.075V44.929Z" fill="#D7D7E6"/>
<path d="M327.075 59.451H347.985V47.3945H327.075V59.451Z" fill="#D7D7E6"/>
<path d="M315.246 59.4488H324.118V35.3381H315.246V59.4488Z" fill="#D7D7E6"/>
<path d="M315.451 33.4255L371.624 33.4255V27.4037L315.451 27.4037V33.4255Z" fill="#D7D7E6"/>
<path d="M146.814 68.6469H174.931C176.772 68.6469 178.265 67.1551 178.265 65.3148V22.842C178.265 21.0017 176.772 19.5098 174.931 19.5098L146.814 19.5098C144.972 19.5098 143.479 21.0017 143.479 22.842V65.3148C143.479 67.1551 144.972 68.6469 146.814 68.6469Z" fill="#9CC7FF"/>
<path d="M145.402 62.1086L176.343 62.1086V21.7832L145.402 21.7832V62.1086Z" fill="white"/>
<path d="M147.479 30.0506L174.407 30.0506V24.682L147.479 24.682V30.0506Z" fill="#D7D7E6"/>
<path d="M163.326 58.4456H174.409V32.1319H163.326V58.4456Z" fill="#D7D7E6"/>
<path d="M147.479 35.1801H161.264V32.1319H147.479V35.1801Z" fill="#D7D7E6"/>
<path d="M147.479 40.4463H161.264V37.3981H147.479V40.4463Z" fill="#D7D7E6"/>
<path d="M147.479 45.7146H161.264V42.6663H147.479V45.7146Z" fill="#D7D7E6"/>
<path d="M147.479 58.4434H161.264V47.9346H147.479V58.4434Z" fill="#D7D7E6"/>
<path d="M83.8132 110.896H29.582L29.582 76.5451C29.582 76.2244 29.6453 75.9069 29.7681 75.6106C29.8909 75.3143 30.0709 75.0451 30.2979 74.8183C30.5248 74.5916 30.7942 74.4117 31.0908 74.289C31.3873 74.1663 31.7051 74.1031 32.026 74.1031H81.3757C82.0227 74.1048 82.6427 74.3628 83.0997 74.8206C83.5566 75.2784 83.8132 75.8985 83.8132 76.5451V110.896Z" fill="#609AE8"/>
<path d="M31.0945 108.938H82.2942V76.0627H31.0945L31.0945 108.938Z" fill="white"/>
<path d="M84.2896 113.6H29.0992C28.5326 113.6 27.9892 113.375 27.5886 112.975C27.1879 112.575 26.9629 112.032 26.9629 111.466V110.896H86.4238V111.466C86.4238 112.031 86.199 112.574 85.7989 112.974C85.3987 113.374 84.8558 113.6 84.2896 113.6Z" fill="#9CC7FF"/>
<path d="M33.2372 83.0237H80.1023V78.4535H33.2372V83.0237Z" fill="#D7D7E6"/>
<path d="M64.0348 106.547H80.1023V85.6045H64.0348V106.547Z" fill="#D7D7E6"/>
<path d="M45.9059 106.547H61.9734V85.6045H45.9059V106.547Z" fill="#D7D7E6"/>
<path d="M33.2374 88.5972H43.0347V85.6045H33.2374V88.5972Z" fill="#D7D7E6"/>
<path d="M33.2374 93.223H43.0347V90.2302H33.2374V93.223Z" fill="#D7D7E6"/>
<path d="M33.2374 106.549H43.0347V94.8581H33.2374V106.549Z" fill="#D7D7E6"/>
<path d="M226.462 64.3883L217.418 59.1713V62.6123H203.972V66.1665H217.418V69.6075L226.462 64.3883Z" fill="#2A6993"/>
<path d="M203.972 52.9446L213.015 58.1617V54.7206H226.462V51.1665H213.015V47.7276L203.972 52.9446Z" fill="#2A6993"/>
<path d="M348.639 147.208C347.471 147.13 346.358 146.681 345.462 145.927C344.996 145.545 344.619 145.066 344.358 144.523C344.097 143.979 343.958 143.385 343.952 142.783C343.788 140.435 343.057 138.025 342.457 136.368C340.644 134.925 339.331 132.948 338.705 130.717C338.079 128.487 338.172 126.116 338.969 123.941C339.767 121.766 341.229 119.897 343.149 118.598C345.069 117.3 347.349 116.638 349.666 116.706C351.983 116.775 354.22 117.57 356.06 118.979C357.9 120.389 359.249 122.341 359.917 124.559C360.585 126.777 360.537 129.149 359.78 131.339C359.024 133.528 357.597 135.425 355.702 136.759C354.877 138.998 354.382 141.047 354.23 142.853C354.202 145.282 351.88 147.24 349.064 147.223C348.917 147.223 348.778 147.216 348.639 147.208ZM350.103 117.633C347.93 117.468 345.761 118.007 343.919 119.171C342.077 120.334 340.659 122.059 339.875 124.091C339.09 126.122 338.982 128.352 339.566 130.45C340.149 132.548 341.394 134.403 343.115 135.739L343.215 135.818L343.26 135.939C343.901 137.647 344.681 140.232 344.856 142.74V142.77C344.861 143.245 344.971 143.712 345.178 144.139C345.384 144.567 345.683 144.943 346.052 145.242C346.899 145.941 347.966 146.319 349.064 146.309C351.397 146.324 353.307 144.757 353.32 142.817V142.783C353.48 140.862 354.01 138.676 354.894 136.3L354.944 136.165L355.063 136.084C356.796 134.899 358.118 133.205 358.846 131.236C359.574 129.268 359.672 127.122 359.127 125.096C358.583 123.069 357.422 121.261 355.805 119.922C354.188 118.583 352.195 117.779 350.1 117.62L350.103 117.633Z" fill="white"/>
<path d="M346.593 143.442L345.146 131.416L347.654 133.489L349.212 131.764L350.558 133.382L352.901 131.397L351.476 143.444L350.579 143.338L351.735 133.568L350.444 134.66L349.184 133.143L347.746 134.737L346.313 133.553L347.49 143.336L346.593 143.442Z" fill="white"/>
<path d="M352.991 146.116L345.157 146.064L345.136 149.219L352.97 149.271L352.991 146.116Z" fill="white"/>
<path d="M354.271 142.901L343.916 142.833L343.882 147.911L354.237 147.979L354.271 142.901Z" fill="white"/>
<path d="M373.637 328.963C373.406 330.566 363.762 337.314 361.863 338.663C360.338 339.745 359.013 340.243 356.708 341.107C351.472 342.484 318.617 352.278 318.617 352.278C318.552 351.933 318.443 351.598 318.292 351.281C317.066 351.77 315.803 352.086 315.002 352.335C313.778 352.718 304.069 353.023 302.082 353.403C300.095 353.783 296.119 354.398 294.513 352.869C292.906 351.341 295.508 348.056 297.717 347.217C299.926 346.378 308.038 346.149 309.491 345.993C310.943 345.838 312.855 345.306 313.763 345.611C314.054 345.707 315.333 345.332 316.953 344.775C316.912 344.179 316.902 343.803 316.902 343.803L325.528 341.319L323.93 326.058C323.93 326.058 327.684 311.927 342.679 322.707C342.679 322.707 346.024 323.689 347.165 323.988C347.292 324.005 347.421 324.005 347.547 323.988C349.835 323.815 359.665 320.843 363.218 320.843C367.039 320.843 368.264 320.615 369.639 321.302C371.015 321.989 373.865 327.358 373.637 328.963Z" fill="#5B83C2"/>
<path d="M358.274 352.871C356.67 354.4 352.694 353.787 350.707 353.405C348.72 353.023 339.011 352.718 337.787 352.338C336.562 351.958 334.27 351.422 332.659 350.352C332.386 350.202 332.1 350.076 331.805 349.977L329.376 351.727L295.621 340.99C293.598 340.437 291.99 339.594 290.921 338.665C289.163 337.137 279.385 330.569 279.148 328.966C278.911 327.362 281.748 322.013 283.124 321.326C284.5 320.638 285.722 320.867 289.546 320.867C293.37 320.867 304.451 324.306 305.598 324C306.119 323.859 307.2 323.311 308.222 322.754C309.448 322.083 310.593 321.402 310.593 321.402C327.011 314.079 328.84 326.062 328.84 326.062L327.867 340.855C327.867 340.855 329.235 341.534 331.014 342.377L339.154 344.676L338.086 345.445C338.545 345.592 338.872 345.658 339.004 345.616C339.921 345.31 341.833 345.846 343.277 345.998C344.721 346.149 352.833 346.38 355.048 347.221C357.264 348.062 359.881 351.343 358.274 352.871Z" fill="#5B83C2"/>
<path d="M308.226 322.752C309.358 322.831 317.009 327.258 318.824 328.317C316.062 326.876 305.594 324 305.594 324C306.124 323.857 307.205 323.309 308.226 322.752Z" fill="#5478B3"/>
<path d="M347.571 324C347.571 324 334.39 327.202 331.976 328.532C332.087 328.453 338.921 323.264 342.512 322.57C342.512 322.57 346.037 323.682 347.184 323.99C347.311 324.008 347.44 324.008 347.567 323.99L347.571 324Z" fill="#5478B3"/>
<path d="M358.274 352.871C356.67 354.4 352.694 353.787 350.707 353.405C348.72 353.023 339.011 352.718 337.786 352.338C337.436 352.229 336.996 352.107 336.505 351.962C335.298 351.605 333.804 351.108 332.659 350.352C332.386 350.202 332.1 350.076 331.805 349.977L337.915 345.571L338.09 345.445C338.549 345.592 338.876 345.658 339.008 345.616C339.925 345.31 341.837 345.846 343.281 345.998C344.725 346.149 352.837 346.38 355.052 347.221C357.268 348.062 359.881 351.343 358.274 352.871Z" fill="#EEA886"/>
<path d="M358.274 352.871C356.67 354.4 352.694 353.787 350.707 353.405C348.72 353.023 339.011 352.718 337.787 352.338C337.436 352.229 336.996 352.107 336.505 351.962C336.505 351.962 339.177 349.319 337.915 345.571L338.09 345.445C338.549 345.592 338.876 345.658 339.009 345.616C339.925 345.31 341.837 345.846 343.281 345.998C344.725 346.149 352.837 346.38 355.053 347.221C357.268 348.062 359.881 351.343 358.274 352.871Z" fill="#C5CDDB"/>
<path d="M311.577 326.122C311.594 326.164 311.589 326.194 311.564 326.212C311.413 326.329 311.439 326.279 311.577 326.122Z" fill="#E55353"/>
<path d="M355.76 308.262C355.634 308.003 348.669 297.059 346.787 292.068C344.905 287.078 340.365 284.785 338.225 284.072C337.462 283.818 336.101 283.376 334.665 282.913C332.08 282.076 329.256 281.171 329.256 281.171H320.335C320.335 281.171 317.243 282.204 313.962 283.353C310.937 284.42 307.754 285.571 306.677 286.108C304.436 287.227 300.663 295.223 299.901 296.141C299.138 297.059 293.257 307.946 292.408 312.132C291.748 315.381 311.054 324.903 311.582 326.122C312.193 325.445 315 322.752 315 322.752C315 322.752 314.101 322.184 312.832 321.351C318.004 321.588 330.64 321.138 332.454 321.234C332.844 321.249 333.234 321.241 333.623 321.208C334.185 321.616 337.804 324.809 337.804 324.809C337.804 324.809 346.721 321.11 350.823 316.967C356.653 311.088 356.403 309.56 355.76 308.262ZM305.049 315.504C303.126 313.212 300.507 311.827 301.17 310.808C301.832 309.79 307.438 300.114 307.438 300.114C307.438 300.114 310.343 306.479 311.159 309.79C311.975 313.101 311.909 314.614 311.565 315.645C311.257 316.57 311.01 317.197 310.732 319.947C308.446 318.386 305.925 316.555 305.049 315.504ZM344.482 314.409C343.732 315.263 340.767 317.144 338.101 318.694C337.887 316.847 337.592 313.94 337.558 312.896C337.507 311.316 338.169 306.785 338.985 305.053C339.801 303.322 340.361 298.585 340.361 298.585C340.361 298.585 347.114 307.752 348.184 308.721C349.254 309.69 347.013 311.536 344.475 314.409H344.482Z" fill="#DCE6FA"/>
<path d="M325.855 256.676C325.855 256.676 332.83 257.773 331.766 268.679C330.702 279.585 324.55 278.689 324.137 278.678C323.725 278.667 317.957 278.876 317.515 265.563C317.508 265.563 317.312 255.718 325.855 256.676Z" fill="#EEA886"/>
<path d="M331.871 265.599C331.871 265.599 332.634 264.783 332.916 265.599C333.198 266.414 331.873 270.103 331.826 270.276C331.826 270.276 331.685 270.596 331.504 270.419C331.322 270.242 331.871 265.599 331.871 265.599Z" fill="#EEA886"/>
<path d="M317.696 265.46C317.696 265.46 316.948 264.632 316.652 265.46C316.355 266.288 317.596 269.986 317.651 270.156C317.651 270.156 317.784 270.481 317.97 270.308C318.156 270.135 317.696 265.46 317.696 265.46Z" fill="#EEA886"/>
<path d="M331.871 267.27L330.873 268.604C330.873 268.604 330.901 265.68 330.741 265.221C330.581 264.762 330.335 263.362 330.202 263.033C330.07 262.704 324.221 261.063 319.04 263.511C319.04 263.511 319.267 265.614 318.771 265.802C318.275 265.99 318.519 269.217 318.519 269.217L317.698 268.291C317.698 268.291 316.442 259.902 316.752 259.029C317.062 258.155 318.051 252.898 328.662 256.017C328.662 256.017 331.969 255.316 332.634 257.6C333.298 259.884 331.871 267.27 331.871 267.27Z" fill="#434343"/>
<path d="M315.592 336.998C315.592 336.998 304.91 330.594 300.251 329.599C295.846 328.647 294.237 327.002 294.237 327.002C294.237 327.002 301.246 327.002 305.908 330.312C309.076 332.56 315.592 336.998 315.592 336.998Z" fill="#49699C"/>
<path d="M325.077 341.455C325.077 341.455 343.649 331.713 351.231 329.599C355.572 328.389 357.244 327.002 357.244 327.002C357.244 327.002 345.764 328.122 338.78 332.323C335.454 334.326 325.077 341.455 325.077 341.455Z" fill="#49699C"/>
<path d="M318.292 351.281C317.066 351.77 315.803 352.086 315.002 352.335C313.778 352.718 304.069 353.023 302.082 353.403C300.095 353.783 296.119 354.398 294.513 352.869C292.906 351.341 295.508 348.056 297.717 347.217C299.926 346.378 308.038 346.149 309.491 345.993C310.943 345.838 312.855 345.306 313.763 345.611C314.054 345.707 315.333 345.332 316.953 344.775C317.015 345.746 318.292 351.281 318.292 351.281Z" fill="#EEA886"/>
<path d="M325.077 350.357L343.335 344.958L339.724 343.857C339.724 343.857 325.133 349.142 325.077 350.357Z" fill="#5B83C2"/>
<path d="M325.077 350.357L333.621 347.752L327.697 351.191L325.077 350.357Z" fill="#49699C"/>
<path d="M319.21 328.541L318.824 328.327C318.957 328.391 319.086 328.462 319.21 328.541Z" fill="#525252"/>
<path d="M314.994 352.335C313.77 352.718 304.06 353.023 302.073 353.403C300.086 353.783 296.111 354.398 294.504 352.869C292.898 351.341 295.5 348.056 297.709 347.217C299.918 346.378 308.029 346.149 309.482 345.994C310.935 345.838 312.847 345.306 313.755 345.611C313.778 345.614 311.328 349.358 314.994 352.335Z" fill="#C5CDDB"/>
<path d="M334.661 282.913C334.661 282.913 331.736 295.753 324.77 295.753C317.803 295.753 313.958 283.355 313.958 283.355C317.239 282.206 320.33 281.173 320.33 281.173H329.25C329.25 281.173 332.085 282.076 334.661 282.913Z" fill="#DCE6FA"/>
<path d="M308.967 327.002L306.154 311.011L342.527 310.172L340.177 325.907C340.177 325.907 328.568 330.152 324.627 332.631C324.633 332.631 314.675 328.541 308.967 327.002Z" fill="#525252"/>
<path d="M326.776 320.655C326.776 321.977 325.861 323.048 324.736 323.048C323.61 323.048 322.698 321.981 322.698 320.655C322.698 319.33 323.61 318.26 324.736 318.26C325.861 318.26 326.776 319.332 326.776 320.655Z" fill="#6E6E6E"/>
<path d="M329.342 281.201C329.343 281.191 329.343 281.181 329.342 281.171C328.914 280.2 329.128 275.465 329.128 275.465C329.128 275.465 320.243 273.207 320.497 274.934C320.751 276.661 319.732 281.378 319.732 281.378L315.175 282.936C315.175 282.936 320.031 295.958 325.611 294.284C331.192 292.611 333.302 282.467 333.302 282.467L329.342 281.201Z" fill="#EEA886"/>
<path d="M320.465 276.688C320.465 276.688 322.039 278.699 324.524 278.699C326.158 278.699 327.447 278.129 329.074 276.543C329.074 276.543 328.252 279.668 324.535 279.959C324.535 279.948 321.696 280.125 320.465 276.688Z" fill="#A77860"/>
<path d="M297.395 181.631H260.884V208.073V213.642L266.458 208.073H297.395V181.631Z" fill="#78C2FF"/>
<path d="M242.845 335.118C242.845 335.118 243.225 338.217 243.73 339.585C244.234 340.954 246.97 344.109 245.815 347.142C244.561 350.429 239.087 347.259 236.857 346.256C234.627 345.253 235.131 343.434 234.894 341.203C234.657 338.973 233.567 338.915 233.969 337.346C234.37 335.777 236.812 332.778 236.812 332.778L242.845 335.118Z" fill="#35527A"/>
<path d="M237.872 331.156C237.872 331.156 236.472 333.115 236.511 333.169C236.549 333.222 242.512 336.849 242.92 335.673C243.15 334.927 243.307 334.16 243.388 333.384L237.872 331.156Z" fill="#EEA886"/>
<path d="M217.653 337.31C216.346 338.515 215.188 339.872 214.201 341.351C212.567 343.799 208.219 343.929 208.044 347.272C207.869 350.615 213.94 350.717 217.134 349.62C220.328 348.523 220.809 345.268 222.74 344.452C224.671 343.637 225.673 342.975 225.517 341.381C225.361 339.786 224.299 337.201 224.299 337.201C223.677 337.402 223.041 337.556 222.396 337.662C221.697 337.747 219.324 337.775 217.653 337.31Z" fill="#35527A"/>
<path d="M239.538 246.761C239.538 246.761 238.314 254.033 237.327 258.834C236.927 260.781 236.566 262.322 236.342 262.809C236.06 263.419 233.763 265.883 230.952 268.786C226.019 273.86 219.503 280.249 219.503 280.249L216.957 275.416C216.957 275.416 222.744 268.637 226.669 264.103C228.485 262.011 229.901 260.399 230.162 260.168C230.982 259.434 231.933 252.208 233.272 246.255C234.612 240.301 237.293 237.012 237.293 237.012L239.538 246.761Z" fill="#FFD670"/>
<path d="M230.952 268.777C226.019 273.851 219.503 280.24 219.503 280.24L216.957 275.408C216.957 275.408 222.744 268.628 226.669 264.094C227.871 264.694 230.08 266.098 230.952 268.777Z" fill="#EEA886"/>
<path d="M217.94 335.083L217.653 337.31C219.828 337.964 222.152 337.929 224.306 337.209L224.379 335.231L217.94 335.083Z" fill="#EEA886"/>
<path d="M262.882 279.258C263.063 279.899 229.341 279.258 229.341 279.258C229.341 279.258 238.669 272.475 239.273 270.662C239.878 268.85 236.897 257.978 236.509 254.439C236.199 251.609 235.419 238.944 237.286 237.01C239.239 234.986 246.259 232.866 246.259 232.866L256.513 233.246C257.507 233.46 258.479 233.766 259.415 234.162C260.624 234.721 267.533 237.183 268.661 240.634C269.789 244.086 261.76 255.182 261.76 255.182C261.76 255.182 261.745 255.681 261.722 256.499C261.69 257.59 261.645 259.246 261.602 261.042C261.549 263.368 261.502 265.93 261.502 267.802C261.508 272.203 262.698 278.61 262.882 279.258Z" fill="#FFD670"/>
<path d="M262.882 279.258C262.882 279.258 267.467 285.987 267.531 290.572C267.595 295.157 259.393 310.554 258.152 312.755C254.42 319.372 244.187 333.649 244.187 333.649C244.187 333.649 242.422 333.604 236.923 331.469C236.923 331.469 243.732 312.612 244.595 310.655C248.254 302.353 250.299 296.464 249.068 295.04C247.838 293.616 244.482 292.19 243.514 291.347C242.546 290.504 225.618 294.549 223.845 295.003C219.254 296.192 221.345 304.182 222.362 307.754C224.071 313.731 225.547 335.365 225.547 335.365C225.547 335.365 222.276 336.759 216.788 335.579C216.788 335.579 206.03 296.536 205.679 292.653C205.329 288.77 205.162 282.366 231.672 277.497L262.882 279.258Z" fill="#293F5E"/>
<path d="M249.085 210.624C249.085 210.624 240.19 208.617 242.221 219.802C244.253 230.988 246.394 231.867 251.76 229.551C257.127 227.235 256.646 220.069 256.915 216.556C257.184 213.042 251.922 210.745 249.085 210.624Z" fill="#EEA886"/>
<path d="M246.731 235.74C246.731 235.74 250.671 239.913 256.898 236.122C256.898 236.122 255.505 227.077 256.238 222.674C256.971 218.27 248.12 229.504 248.12 229.504C248.237 229.564 248.314 229.985 248.333 230.572C248.347 231.171 248.317 231.77 248.241 232.365C248.049 233.833 247.594 235.381 246.731 235.74Z" fill="#EEA886"/>
<path d="M256.484 222.298C256.484 222.298 256.253 218.774 254.965 218.669C253.676 218.564 253.469 219.98 253.469 219.98L252.168 220.225C252.168 220.225 252.58 217.136 251.294 216.596C250.008 216.056 242.963 218.304 241.926 217.39C240.89 216.477 241.38 210.218 243.247 209.36C245.114 208.502 250.271 206.585 254.05 209.136C254.05 209.136 256.996 208.801 257.432 211.176C257.868 213.552 257.283 220.533 256.484 222.298Z" fill="#3A3F47"/>
<path d="M248.233 232.369C254.657 230.39 255.14 226.527 255.146 226.465C253.031 230.094 248.325 230.576 248.325 230.576C248.339 231.175 248.308 231.774 248.233 232.369Z" fill="#A77860"/>
<path d="M259.526 234.213C259.526 234.213 254.826 243.569 247.222 242.965C239.619 242.361 245.928 232.956 246.274 232.869C246.652 232.775 254.067 230.93 259.526 234.213Z" fill="#EEA886"/>
<path d="M225.492 278.785C225.492 278.785 248.778 281.651 262.878 279.258L235.923 275.892C235.923 275.892 235.767 276.58 225.492 278.785Z" fill="#FFD670"/>
<path d="M242.905 274.833L241.172 275.711C241.172 275.711 241.565 278.464 242.516 279.297L244.462 278.802C244.462 278.802 244.067 275.781 242.905 274.833Z" fill="#EEA886"/>
<path d="M269.849 269.196C269.502 269.597 264.935 271.437 259.752 273.427C252.689 276.146 244.719 278.718 244.719 278.718L242.905 274.833C242.905 274.833 251.249 270.301 256.889 267.125C259.553 265.631 261.613 264.425 261.903 264.137C262.811 263.283 263.044 261.891 262.378 259.479C261.711 257.067 260.177 245.973 260.004 244.679C259.831 243.386 260.431 239.934 263.674 239.77C266.917 239.605 268.56 240.511 268.56 240.511C268.56 240.511 269.374 240.848 269.979 248.701C270.583 256.554 270.669 268.246 269.849 269.196Z" fill="#FFD670"/>
<path d="M261.728 256.501C261.696 257.592 261.651 259.248 261.609 261.044C258.449 253.303 260.276 247.126 260.305 247.021C259.964 249.122 261.703 256.399 261.728 256.501Z" fill="#A88D4A"/>
<path d="M237.327 258.834C236.927 260.781 236.566 262.322 236.342 262.809C235.274 257.588 236.235 250.904 236.235 250.904C236.376 254.1 237.327 258.834 237.327 258.834Z" fill="#A88D4A"/>
<path d="M259.752 273.427C252.689 276.146 244.462 278.802 244.462 278.802L242.905 274.833C242.905 274.833 251.249 270.301 256.889 267.125C256.885 267.125 258.94 268.124 259.752 273.427Z" fill="#EEA886"/>
<path d="M242.403 279.032L209.311 278.545L226.019 287.022L242.403 279.032Z" fill="#444C94"/>
<path d="M226.019 287.022L242.403 280.682V279.032L224.722 285.404L226.019 287.022Z" fill="#303669"/>
<path d="M241.546 275.77C241.546 275.77 239.478 275.45 238.049 275.117C236.944 274.859 234.204 275.215 233.494 275.924C232.785 276.633 230.567 281.572 230.147 281.873C229.726 282.174 230.36 282.872 231.102 282.514C231.102 282.514 231.781 284.676 233.452 283.867C235.122 283.058 236.267 281.291 237.145 280.979C238.023 280.667 243.127 279.098 243.127 279.098C243.127 279.098 242.862 275.245 241.546 275.77Z" fill="#EEA886"/>
<path d="M233.999 275.6C233.999 275.6 232.672 276.24 232.326 276.526C231.98 276.812 230.574 277.862 230.232 278.11C229.89 278.358 230.747 279.06 233.259 277.973C235.772 276.887 233.999 275.6 233.999 275.6Z" fill="#EEA886"/>
<path d="M226.019 287.022L216.175 260.168L184.442 260.685L193.822 285.434L226.019 287.022Z" fill="#303669"/>
<path d="M206.021 272.048C206.989 273.982 206.696 276.089 205.367 276.755C204.038 277.421 202.175 276.387 201.208 274.453C200.24 272.519 200.533 270.413 201.861 269.757C203.19 269.102 205.053 270.114 206.021 272.048Z" fill="#518AFA"/>
<path d="M253.506 218.479C253.623 217.493 255.576 217.13 255.732 218.611C255.888 220.093 254.845 222.686 254.104 222.43C253.362 222.174 253.343 219.841 253.506 218.479Z" fill="#EEA886"/>
<path d="M112.468 225.878C112.468 225.878 111.312 242.075 114.481 244.022C116.463 245.237 124.374 249.331 124.141 250.099C123.908 250.868 119.674 256.93 119.674 256.93C119.674 256.93 104.478 246.932 103.989 243.779C103.51 240.701 104.737 220.065 106.824 219.113C108.39 218.402 109.214 218.991 111.186 220.454C113.964 222.501 112.468 225.878 112.468 225.878Z" fill="#323657"/>
<path d="M140.17 230.503L141.51 230.008C141.51 230.008 139.839 226.091 139.108 226.187C138.473 226.282 137.843 226.411 137.222 226.574L140.17 230.503Z" fill="#EAD8CF"/>
<path d="M140.476 231.178C140.305 231.05 137.628 225.92 137.628 225.92L131.909 226.697L134.998 232.773L140.476 231.178Z" fill="#DA9B5B"/>
<path d="M110.708 343.748C110.708 343.748 110.235 347.024 110.176 347.518C110.116 348.011 104.92 347.227 104.92 347.227L104.493 343.325C104.493 343.325 110.058 343.285 110.708 343.748Z" fill="#424773"/>
<path d="M110.231 347.099C110.231 347.099 111.878 349.074 113.472 349.936C115.066 350.799 117.567 351.138 118.51 352.028C119.189 352.668 120.986 355.443 114.369 355.384C107.753 355.324 104.566 355.776 103.856 354.713C103.147 353.65 104.882 346.877 104.882 346.877C104.882 346.877 106.45 347.441 110.231 347.099Z" fill="#292C47"/>
<path d="M136.72 343.748C136.72 343.748 136.248 347.024 136.188 347.518C136.128 348.011 130.933 347.227 130.933 347.227L130.505 343.325C130.505 343.325 136.071 343.285 136.72 343.748Z" fill="#424773"/>
<path d="M136.243 347.099C136.243 347.099 137.891 349.074 139.482 349.936C141.074 350.799 146.938 351.503 147.878 352.395C148.56 353.036 149.69 355.627 140.382 355.384C133.77 355.213 130.578 355.776 129.869 354.713C129.159 353.65 130.894 346.877 130.894 346.877C130.894 346.877 132.37 347.481 136.243 347.099Z" fill="#292C47"/>
<path d="M112.573 259.534C112.573 259.534 107.689 267.287 108.054 274.295C108.42 281.303 107.627 288.79 106.886 296.111C106.068 304.272 103.839 321.257 103.718 325.623C103.596 329.988 103.878 346.416 103.878 346.416L112.348 346.352C112.348 346.352 115.354 313.167 116.811 309.72C118.268 306.272 124.252 281.342 124.502 278.584C124.752 275.826 112.573 259.534 112.573 259.534Z" fill="#292C47"/>
<path d="M138.282 260.587C138.282 260.587 140.204 279.641 140.696 283.929C141.187 288.217 140.849 306.804 141.093 309.485C141.337 312.166 139.469 340.52 139.008 345.919L129.698 345.861C129.698 345.861 129.057 322.924 129.057 311.78C129.057 300.635 126.194 287.658 122.915 280.309C119.636 272.959 112.131 272.782 110.116 259.139C110.118 259.139 135.551 256.262 138.282 260.587Z" fill="#292C47"/>
<path d="M117.732 194.17C117.732 194.17 123.551 190.287 127.636 194.445C131.721 198.603 133.731 208.389 130.798 210.34C127.865 212.291 122.893 212.805 120.522 210.156C118.151 207.507 115.636 203.468 115.017 200.516C114.397 197.564 116.256 195.412 117.732 194.17Z" fill="#EEA886"/>
<path d="M128.82 210.999C128.82 210.999 128.743 215.087 129.194 215.958C129.644 216.829 120.702 216.85 120.702 216.85C120.702 216.85 119.975 212.114 118.599 208.098C117.224 204.083 128.82 210.999 128.82 210.999Z" fill="#EEA886"/>
<path d="M118.822 208.043C118.822 208.043 119.657 208.897 122.026 207.932C124.395 206.967 126.611 203.005 127.551 202.405C128.491 201.805 128.358 201.203 128.358 201.203L129.213 201.989L130.315 201.801C130.315 201.801 128.636 199.118 129.852 197.577C131.067 196.035 126.072 188.502 118.856 193.094C118.856 193.094 113.207 196.181 114.237 199.562C115.267 202.943 117.068 206.653 118.822 208.043Z" fill="#754836"/>
<path d="M129.723 215.853C129.723 215.853 129.696 214.188 128.941 214.028C128.187 213.868 120.61 213.14 119.68 213.505V215.444C119.68 215.444 121.466 216.541 129.723 215.853Z" fill="#E2D2CA"/>
<path d="M127.893 199.993C127.619 199.449 125.756 198.149 125.622 200.042C125.487 201.936 127.444 203.974 128.185 203.588C128.927 203.201 128.587 201.37 127.893 199.993Z" fill="#EEA886"/>
<path d="M159.803 235.518H159.79C159.844 235.539 159.851 235.541 159.803 235.518Z" fill="#323657"/>
<path d="M140.794 218.159C135.402 217.211 129.723 215.851 129.723 215.851L119.682 215.444C119.682 215.444 110.464 217.471 106.832 219.109C106.488 219.265 106.486 227.327 105.551 229.44L108.561 235.787C108.561 235.787 110.3 248.355 110.661 253.944C110.825 256.505 107.074 278.008 107.074 278.008C107.074 278.008 111.094 279.19 117.95 279.944C124.805 280.697 141.933 279.673 142.041 278.864C142.15 278.055 138.724 248.737 138.572 247.22C138.339 244.889 139.245 234.124 139.245 234.124C140.538 235.857 146.677 243.394 150.11 247.117C152.129 249.31 159.553 253.113 161.275 253.884C164.997 255.545 170.959 259.357 171.177 258.96C171.352 258.721 175.356 251.954 174.886 251.799C174.476 251.662 162.004 244.041 158.436 242.154C157.133 241.463 152.061 232.773 152.061 232.773C152.061 232.773 143.77 219.495 140.794 218.159Z" fill="#323657"/>
<path d="M116.051 195.171C116.051 195.171 107.719 197.4 118.484 207.723L116.051 195.171Z" fill="#754836"/>
<path d="M179.611 260.465C179.611 260.465 178.879 260.482 178.543 260.335C178.543 260.335 177.975 260.019 177.556 259.82C177.449 259.767 177.34 259.72 177.227 259.68C176.896 259.573 176.138 259.436 175.416 258.958C174.693 258.48 172.316 256.529 172.316 256.529L173.621 254.209L174.147 251.961C174.147 251.961 179.406 252.14 180.128 252.509C180.197 252.544 180.264 252.583 180.329 252.625C180.912 252.998 181.184 253.519 181.474 253.747C181.577 253.833 182.542 254.749 182.525 255.146C182.526 255.368 182.471 255.586 182.364 255.781C182.257 255.975 182.102 256.139 181.914 256.258C181.914 256.258 181.799 257.325 181.273 257.85C181.273 257.85 181.199 258.849 180.37 259.302C180.387 259.302 180.19 260.307 179.611 260.465Z" fill="#EFAA88"/>
<path d="M57.1217 205.789C57.9377 208.459 56.8952 211.142 54.7931 211.783C52.6909 212.423 50.3281 210.779 49.512 208.109C48.6959 205.439 49.7384 202.755 51.8406 202.115C53.9428 201.475 56.3077 203.118 57.1217 205.789Z" fill="white"/>
<path d="M67.4167 220.14C67.4167 220.14 70.3884 221.07 72.0847 223.401C73.7809 225.733 74.048 228.99 74.1227 230.659C74.1975 232.329 74.6547 238.771 74.6547 238.771L69.615 240.182L67.4167 220.14Z" fill="#00227B"/>
<path d="M88.7739 349.46C88.7739 349.46 92.5552 354.545 92.0361 355.352C91.5169 356.159 87.5497 356.272 85.1229 355.352C82.696 354.432 82.6468 348.472 81.553 345.912C81.0937 344.845 82.0743 341.677 83.4522 341.447C84.8302 341.216 86.332 341.891 86.332 341.891C86.332 341.891 84.9092 345.498 88.7739 349.46Z" fill="#292C47"/>
<path d="M86.3575 341.85C86.8474 343.225 87.2106 344.642 87.4428 346.083C87.6842 347.791 90.1346 351.437 90.0192 351.898C89.9038 352.359 86.7933 352.775 85.5329 351.588C84.2724 350.402 83.4499 346.948 83.1829 344.883C83.0719 343.91 82.8746 342.949 82.5933 342.01C82.5933 342.01 85.1462 340.584 86.3575 341.85Z" fill="#EEA886"/>
<path d="M55.8783 349.546C55.8783 349.546 59.5101 354.545 59.0016 355.352C58.4932 356.159 54.5153 356.272 52.0906 355.352C49.6658 354.432 49.6124 348.472 48.5186 345.912C48.0593 344.845 49.0398 341.677 50.4199 341.447C51.8 341.216 53.4108 341.94 53.4108 341.94C53.4108 341.94 52.0094 345.582 55.8783 349.546Z" fill="#292C47"/>
<path d="M53.4151 341.931C53.5838 343.288 53.8335 344.634 54.1628 345.961C54.6243 347.631 57.1003 351.428 56.9871 351.889C56.8738 352.35 53.7612 352.767 52.5007 351.58C51.2403 350.393 50.2554 346.956 50.1508 344.875C50.0664 343.721 50.1637 342.562 50.4392 341.438C50.4392 341.438 52.2059 340.674 53.4151 341.931Z" fill="#EEA886"/>
<path d="M71.6212 259.169C71.6212 259.169 74.8642 274.246 75.6077 278.042C76.3511 281.837 78.4383 300.221 78.6626 303.346C78.8869 306.471 82.0466 318.25 81.8971 319.355C81.7475 320.461 86.5842 342.898 86.5842 342.898C86.5842 342.898 84.9328 344.226 83.1917 343.018C82.2966 342.397 72.5826 322.024 72.5826 316.442C72.5826 308.725 66.8743 298.654 66.1372 296.927C59.3009 280.891 60.6404 275.988 59.7453 274.94C58.8501 273.892 58.7732 275.58 58.2498 277.89C57.7264 280.2 56.6134 300.144 55.9426 302.675C55.2717 305.207 55.793 313.775 55.4213 318.081C55.0496 322.387 53.4131 341.923 53.4131 341.923C53.4131 341.923 52.1463 343.906 50.3688 341.974C49.9864 341.56 47.3032 320.224 47.2284 315.078C47.1536 309.931 47.0746 302.861 46.9293 300.639C45.5492 279.359 42.1588 276.319 47.4997 261.259C57.5042 233.086 71.6212 259.169 71.6212 259.169Z" fill="#EEA886"/>
<path d="M49.841 254.958C49.841 254.958 40.6013 267.879 44.5792 295.364C44.5792 295.364 66.4939 298.353 78.2353 291.919C78.2353 291.919 73.3793 263.58 71.6126 259.169C69.8458 254.759 49.841 254.958 49.841 254.958Z" fill="#00227B"/>
<path d="M81.4504 345.464V350.788H82.1426V346.672L81.4504 345.464Z" fill="#292C47"/>
<path d="M48.416 345.464V350.788H49.1082V346.672L48.416 345.464Z" fill="#292C47"/>
<path d="M62.2404 218.24C62.2404 218.24 66.2354 219.905 67.4168 220.14C68.5982 220.375 72.5953 226.27 73.3985 228.446C74.2018 230.621 73.3985 233.876 71.7429 237.704C70.0872 241.531 71.6489 242.805 70.8883 246.633C70.1278 250.46 72.5739 258.619 72.7149 260.743C72.8559 262.867 50.4969 263.212 46.0917 259.34C46.0917 259.34 50.5118 252.723 51.078 251.781C51.6441 250.84 51.1741 245.687 50.6507 244.364C50.1273 243.04 46.6686 231.784 46.6686 231.784C46.6686 231.784 43.8358 223.145 46.393 221.16C48.6169 219.437 54.6713 218.812 55.7587 218.445C56.8461 218.078 60.0186 217.909 62.2404 218.24Z" fill="#00227B"/>
<path d="M63.8662 214.316C63.8662 214.316 63.7722 215.17 63.6525 216.347C63.6034 216.87 63.5521 217.457 63.503 218.054C63.3641 219.762 63.2509 221.632 63.3171 222.578C63.3171 222.578 59.7793 226.121 55.7566 218.445C55.7566 218.445 57.4507 215.279 56.1839 210.974C54.917 206.668 63.8662 214.316 63.8662 214.316Z" fill="#EEA886"/>
<path d="M72.7619 242.812L73.3537 244.253L72.0847 243.345L72.7619 242.812Z" fill="#EEA886"/>
<path d="M65.071 194.712C65.071 194.712 73.0033 197.203 68.7028 210.878C64.4023 224.552 53.5646 209.294 54.6969 200.96C55.8292 192.626 65.071 194.712 65.071 194.712Z" fill="#EEA987"/>
<path d="M69.5081 202.691C69.5081 202.691 65.5666 206.555 58.9717 207.039C58.9717 207.039 56.438 210.009 56.2436 211.174C56.2436 211.174 49.341 199.647 57.5916 195.143C66.3228 190.372 72.1658 200.215 69.5081 202.691Z" fill="#E8734D"/>
<path d="M58.9205 206.961C58.8693 205.966 58.2561 203.701 56.7842 204.335C55.3122 204.969 56.8739 209.582 57.8524 209.298C57.8481 209.298 59.0423 209.317 58.9205 206.961Z" fill="#EEA987"/>
<path d="M63.6633 216.347C63.6141 216.87 63.5628 217.457 63.5137 218.054C58.9291 215.792 58.2263 212.53 58.207 212.427C61.7042 216.351 63.6633 216.347 63.6633 216.347Z" fill="#A77860"/>
<path d="M73.8109 230.561C73.8109 230.561 74.0245 235.377 72.9564 238.137L71.9651 237.622C71.9651 237.622 73.8002 232.805 73.8109 230.561Z" fill="#1D3B54"/>
<path d="M56.6068 246.219C56.6068 246.219 58.4398 245.006 58.7239 244.831C59.0081 244.656 60.0058 244.712 61.0398 245.045C61.8721 245.298 62.6865 245.606 63.4773 245.969C63.6397 246.061 63.802 246.091 63.7315 246.562C63.6757 246.869 63.541 247.156 63.3406 247.395C63.3406 247.395 63.5286 248.018 63.1013 248.432C63.1382 248.619 63.1184 248.813 63.0446 248.988C62.9708 249.164 62.8462 249.314 62.6869 249.418C62.6869 249.418 62.8172 250.001 62.3857 250.253C62.3857 250.253 61.4499 250.381 61.1038 250.306C60.6039 250.2 57.9848 249.598 56.1475 249.115C56.1411 249.107 55.3827 248.648 56.6068 246.219Z" fill="#EEA886"/>
<path d="M62.922 245.811C62.922 245.811 67.6647 246.853 67.607 247.22C67.5237 247.753 66.3466 247.95 62.7447 246.959C59.2432 245.994 62.922 245.811 62.922 245.811Z" fill="#EEA886"/>
<path d="M51.2295 220.375C50.1614 219.734 46.5616 219.796 45.158 223.165C43.7545 226.533 42.6073 230.369 41.6245 232.13C40.6418 233.891 37.2963 241.93 38.2897 242.895C39.2831 243.86 41.3233 245.008 44.3954 245.73C47.5678 246.475 56.7627 249.899 56.7627 249.899L57.9355 244.923C57.9355 244.923 53.8914 243.002 51.5585 242.06C49.4799 241.228 49.7384 241.008 46.3138 239.798C46.3138 239.798 48.2793 234.792 49.1637 233.456C50.0481 232.119 56.0684 223.301 51.2295 220.375Z" fill="#00227B"/>
<path d="M63.7594 254.697L76.0647 253.705C76.3381 253.683 76.6025 253.597 76.8364 253.454C77.0702 253.311 77.267 253.114 77.4106 252.881L90.1646 232.211C90.3264 231.948 90.4155 231.647 90.4229 231.339C90.4303 231.031 90.3557 230.726 90.2067 230.456C90.0577 230.186 89.8397 229.96 89.5748 229.801C89.31 229.643 89.0078 229.557 88.6991 229.553L75.5093 229.415C75.1924 229.411 74.8805 229.494 74.6072 229.654C74.3339 229.814 74.1095 230.046 73.9583 230.324L62.0781 252.127C61.9277 252.404 61.8551 252.716 61.8679 253.031C61.8807 253.345 61.9785 253.65 62.1509 253.914C62.3233 254.177 62.5638 254.389 62.847 254.527C63.1302 254.665 63.4454 254.724 63.7594 254.697Z" fill="#857B77"/>
<path d="M80.9825 247.098C81.526 246.573 82.0162 245.996 82.4459 245.375C83.1359 244.37 85.3898 240.532 85.1847 240.291C84.9796 240.049 81.6277 239.968 81.0209 240.515C80.4142 241.061 81.6191 241.275 81.6191 241.275C81.6191 241.275 79.7883 241.463 79.91 241.979C80.0318 242.496 81.1427 242.353 81.1427 242.353C81.1427 242.353 79.6686 242.635 79.893 243.089C80.1173 243.544 80.8244 243.537 80.8244 243.537C80.8244 243.537 79.5191 243.702 79.6815 244.197C79.8438 244.692 81.9097 245.16 81.6319 245.572C81.3721 246.061 81.1549 246.572 80.9825 247.098Z" fill="#EEA886"/>
<path d="M55.1841 218.599C55.1841 218.599 59.6256 225.826 63.1505 225.743C66.6755 225.66 64.27 219.057 64.27 219.057C64.27 219.057 61.5654 216.895 55.1841 218.599Z" fill="#EEA886"/>
<path d="M78.325 242.857C77.1351 244.046 75.5286 244.366 74.7338 243.574C73.9391 242.782 74.2638 241.174 75.4538 239.985C76.6437 238.796 78.2524 238.474 79.045 239.268C79.8376 240.062 79.5171 241.668 78.325 242.857Z" fill="#918682"/>
<path d="M70.1512 200.792C70.1512 200.792 70.6468 202.689 69.8115 206.009C69.8115 206.009 69.9418 202.883 69.2881 202.032C68.6344 201.18 70.1512 200.792 70.1512 200.792Z" fill="#E8734D"/>
<defs>
<linearGradient id="paint0_linear_176_7400" x1="477.589" y1="49.5014" x2="355.989" y2="130.633" gradientUnits="userSpaceOnUse">
<stop stop-color="#00227B"/>
<stop offset="1" stop-color="#4B69E0"/>
</linearGradient>
<linearGradient id="paint1_linear_176_7400" x1="38.1081" y1="166.729" x2="371.754" y2="166.729" gradientUnits="userSpaceOnUse">
<stop stop-color="#00227B"/>
<stop offset="1" stop-color="#5577FF"/>
</linearGradient>
<linearGradient id="paint2_linear_176_7400" x1="205.75" y1="246.197" x2="205.75" y2="316.723" gradientUnits="userSpaceOnUse">
<stop stop-color="#40D5E6"/>
<stop offset="1" stop-color="#5577FF"/>
</linearGradient>
<linearGradient id="paint3_linear_176_7400" x1="272.671" y1="72.5875" x2="281.44" y2="72.5875" gradientUnits="userSpaceOnUse">
<stop stop-color="#FFAE70"/>
<stop offset="1" stop-color="#FFD970"/>
</linearGradient>
<linearGradient id="paint4_linear_176_7400" x1="269.528" y1="72.5875" x2="273.183" y2="72.5875" gradientUnits="userSpaceOnUse">
<stop stop-color="#FFAE70"/>
<stop offset="1" stop-color="#FFD970"/>
</linearGradient>
<linearGradient id="paint5_linear_176_7400" x1="247.481" y1="68.5787" x2="275.574" y2="68.5787" gradientUnits="userSpaceOnUse">
<stop stop-color="#FFAE70"/>
<stop offset="1" stop-color="#FFD970"/>
</linearGradient>
</defs>
</svg>
