<svg width="50" height="50" viewBox="0 0 50 50" fill="none" xmlns="http://www.w3.org/2000/svg">
<g clip-path="url(#clip0_176_6386)">
<path d="M35.4167 3.125H6.25C2.79961 3.12842 0.00341797 5.92461 0 9.375V33.3333C0.00341797 36.7837 2.79961 39.5799 6.25 39.5833H35.4167C38.8671 39.5799 41.6633 36.7837 41.6667 33.3333V9.375C41.6632 5.92461 38.867 3.12842 35.4167 3.125ZM39.5833 33.3333C39.5833 35.6345 37.7178 37.5 35.4166 37.5H6.25C3.94883 37.5 2.0833 35.6346 2.0833 33.3333V9.375C2.0833 7.07383 3.94883 5.2083 6.25 5.2083H35.4167C37.7179 5.2083 39.5834 7.07383 39.5834 9.375V33.3333H39.5833Z" fill="#00227B"/>
<path d="M40.6248 9.375H1.0415V11.4583H40.6248V9.375Z" fill="#00227B"/>
<path d="M10.4168 6.25H5.2085V8.3333H10.4168V6.25Z" fill="#00227B"/>
<path d="M14.5833 6.25H12.5V8.3333H14.5833V6.25Z" fill="#00227B"/>
<path d="M18.7498 6.25H16.6665V8.3333H18.7498V6.25Z" fill="#00227B"/>
<path d="M43.7502 8.33331H42.7085V10.4166H43.7502C46.0514 10.4166 47.9169 12.282 47.9169 14.5833V40.625C47.9169 42.9262 46.0515 44.7917 43.7502 44.7917H14.5835C12.2823 44.7917 10.4168 42.9263 10.4168 40.625H8.3335C8.33691 44.0754 11.1331 46.8716 14.5835 46.875H43.7502C47.2006 46.8716 49.9968 44.0754 50.0002 40.625V14.5833C49.9968 11.133 47.2006 8.33683 43.7502 8.33331Z" fill="#00227B"/>
<path d="M48.9585 14.5833H42.7085V16.6666H48.9585V14.5833Z" fill="#00227B"/>
<path d="M9.9999 15.4167L8.7499 13.75L4.5832 16.875C4.5042 16.9342 4.43408 17.0044 4.3749 17.0833C4.02969 17.5436 4.12305 18.1965 4.5832 18.5416L8.7499 21.6666L9.9999 19.9999L6.94473 17.7082L9.9999 15.4167Z" fill="#00227B"/>
<path d="M17.2917 16.875L13.125 13.75L11.875 15.4167L14.9302 17.7084L11.875 20L13.125 21.6667L17.2917 18.5417C17.3707 18.4825 17.4408 18.4123 17.5 18.3334C17.8452 17.873 17.7519 17.2202 17.2917 16.875Z" fill="#00227B"/>
<path d="M29.7919 24.7917L28.5419 23.125L24.3752 26.25C24.2962 26.3092 24.2261 26.3794 24.1669 26.4583C23.8217 26.9186 23.915 27.5715 24.3752 27.9166L28.5419 31.0416L29.7919 29.3749L26.7367 27.0832L29.7919 24.7917Z" fill="#00227B"/>
<path d="M37.0832 26.25L32.9165 23.125L31.6665 24.7917L34.7217 27.0834L31.6666 29.375L32.9166 31.0417L37.0833 27.9167C37.1623 27.8575 37.2324 27.7873 37.2916 27.7084C37.6367 27.248 37.5435 26.5952 37.0832 26.25Z" fill="#00227B"/>
<path d="M26.0415 14.5833H19.7915V16.6666H26.0415V14.5833Z" fill="#00227B"/>
<path d="M30.2083 14.5833H28.125V16.6666H30.2083V14.5833Z" fill="#00227B"/>
<path d="M34.3748 14.5833H32.2915V16.6666H34.3748V14.5833Z" fill="#00227B"/>
<path d="M34.375 18.75H28.125V20.8333H34.375V18.75Z" fill="#00227B"/>
<path d="M26.0418 18.75H23.9585V20.8333H26.0418V18.75Z" fill="#00227B"/>
<path d="M21.8748 18.75H19.7915V20.8333H21.8748V18.75Z" fill="#00227B"/>
<path d="M13.5415 23.9583H7.2915V26.0416H13.5415V23.9583Z" fill="#00227B"/>
<path d="M17.7083 23.9583H15.625V26.0416H17.7083V23.9583Z" fill="#00227B"/>
<path d="M21.8748 23.9583H19.7915V26.0416H21.8748V23.9583Z" fill="#00227B"/>
<path d="M21.875 28.125H15.625V30.2083H21.875V28.125Z" fill="#00227B"/>
<path d="M13.5418 28.125H11.4585V30.2083H13.5418V28.125Z" fill="#00227B"/>
<path d="M9.3748 28.125H7.2915V30.2083H9.3748V28.125Z" fill="#00227B"/>
<path d="M33.3332 32.2917H7.2915V34.375H33.3332V32.2917Z" fill="#00227B"/>
<path d="M45.8333 19.7917H43.75V21.875H45.8333V19.7917Z" fill="#00227B"/>
<path d="M45.8333 23.9583H43.75V26.0416H45.8333V23.9583Z" fill="#00227B"/>
<path d="M45.8333 28.125H43.75V30.2083H45.8333V28.125Z" fill="#00227B"/>
</g>
<defs>
<clipPath id="clip0_176_6386">
<rect width="50" height="50" fill="white"/>
</clipPath>
</defs>
</svg>
