<svg width="101" height="80" viewBox="0 0 101 80" fill="none" xmlns="http://www.w3.org/2000/svg">
<rect y="6" width="86" height="74" rx="8" fill="white"/>
<g clip-path="url(#clip0_188_9712)">
<path d="M50.0312 22.6875H41.4375C41.4044 21.5385 40.9632 20.4389 40.193 19.5857C39.4228 18.7325 38.374 18.1814 37.2344 18.0312C36.5822 17.9646 35.9233 18.0354 35.3001 18.2389C34.6769 18.4423 34.1033 18.7741 33.6161 19.2127C33.1289 19.6513 32.7389 20.1871 32.4714 20.7856C32.2038 21.3841 32.0645 22.0319 32.0625 22.6875H23.4688C22.4329 22.6879 21.4395 23.0995 20.707 23.832C19.9745 24.5645 19.5629 25.5579 19.5625 26.5937V64.0938C19.5629 65.1296 19.9745 66.123 20.707 66.8555C21.4395 67.588 22.4329 67.9996 23.4688 68H50.0312C51.0671 67.9996 52.0605 67.588 52.793 66.8555C53.5255 66.123 53.9371 65.1296 53.9375 64.0938V26.5937C53.9371 25.5579 53.5255 24.5645 52.793 23.832C52.0605 23.0995 51.0671 22.6879 50.0312 22.6875ZM30.5 27.375V25.0312C30.499 24.9284 30.5185 24.8263 30.5574 24.7311C30.5963 24.6358 30.6538 24.5493 30.7265 24.4765C30.7993 24.4038 30.8858 24.3463 30.9811 24.3074C31.0763 24.2685 31.1784 24.249 31.2812 24.25H32.8438C32.9466 24.251 33.0487 24.2315 33.1439 24.1926C33.2392 24.1537 33.3257 24.0962 33.3984 24.0234C33.4712 23.9507 33.5287 23.8642 33.5676 23.7689C33.6065 23.6737 33.626 23.5716 33.625 23.4687V22.6875C33.6262 22.2514 33.7185 21.8205 33.8961 21.4222C34.0737 21.024 34.3326 20.6673 34.6562 20.375C34.9783 20.075 35.3617 19.8484 35.7798 19.7108C36.1979 19.5733 36.6408 19.528 37.0781 19.5781C37.8326 19.6882 38.5245 20.0599 39.0328 20.6282C39.5412 21.1966 39.8337 21.9254 39.8594 22.6875C39.8729 22.7596 39.8782 22.833 39.875 22.9062V23.4687C39.874 23.5716 39.8935 23.6737 39.9324 23.7689C39.9713 23.8642 40.0288 23.9507 40.1016 24.0234C40.1743 24.0962 40.2608 24.1537 40.3561 24.1926C40.4513 24.2315 40.5534 24.251 40.6562 24.25H42.2188C42.3216 24.249 42.4237 24.2685 42.5189 24.3074C42.6142 24.3463 42.7007 24.4038 42.7735 24.4765C42.8462 24.5493 42.9037 24.6358 42.9426 24.7311C42.9815 24.8263 43.001 24.9284 43 25.0312V28.1562C43.001 28.2591 42.9815 28.3612 42.9426 28.4564C42.9037 28.5517 42.8462 28.6382 42.7734 28.7109C42.7007 28.7837 42.6142 28.8412 42.5189 28.8801C42.4237 28.919 42.3216 28.9385 42.2188 28.9375H31.2812C31.1784 28.9385 31.0763 28.919 30.9811 28.8801C30.8858 28.8412 30.7993 28.7837 30.7266 28.7109C30.6538 28.6382 30.5963 28.5517 30.5574 28.4564C30.5185 28.3612 30.499 28.2591 30.5 28.1562V27.375ZM31.2812 30.5H42.2188C42.5267 30.5004 42.8316 30.4401 43.1162 30.3224C43.4007 30.2048 43.6592 30.0322 43.8769 29.8144C44.0947 29.5967 44.2673 29.3382 44.3849 29.0536C44.5026 28.7691 44.5629 28.4641 44.5625 28.1562V27.375H48.4688C48.5716 27.374 48.6737 27.3935 48.7689 27.4324C48.8642 27.4713 48.9507 27.5288 49.0235 27.6015C49.0962 27.6743 49.1537 27.7608 49.1926 27.8561C49.2315 27.9513 49.251 28.0534 49.25 28.1562V57.0625H45.3438C44.7224 57.0632 44.1266 57.3103 43.6872 57.7497C43.2478 58.1891 43.0007 58.7849 43 59.4062V63.3125H25.0312C24.9284 63.3135 24.8263 63.294 24.7311 63.2551C24.6358 63.2162 24.5493 63.1587 24.4766 63.0859C24.4038 63.0132 24.3463 62.9267 24.3074 62.8314C24.2685 62.7362 24.249 62.6341 24.25 62.5312V28.1562C24.249 28.0534 24.2685 27.9513 24.3074 27.8561C24.3463 27.7608 24.4038 27.6743 24.4765 27.6015C24.5493 27.5288 24.6358 27.4713 24.7311 27.4324C24.8263 27.3935 24.9284 27.374 25.0312 27.375H28.9375V28.1562C28.9371 28.4641 28.9974 28.7691 29.1151 29.0536C29.2327 29.3382 29.4053 29.5967 29.6231 29.8144C29.8408 30.0322 30.0993 30.2048 30.3838 30.3224C30.6684 30.4401 30.9733 30.5004 31.2812 30.5ZM48.1453 58.625L44.5625 62.2078V59.4062C44.5626 59.1991 44.645 59.0005 44.7915 58.854C44.938 58.7075 45.1366 58.6251 45.3438 58.625H48.1453ZM52.375 64.0938C52.3754 64.4016 52.3151 64.7066 52.1974 64.9911C52.0798 65.2757 51.9072 65.5342 51.6894 65.7519C51.4717 65.9697 51.2132 66.1423 50.9287 66.2599C50.6441 66.3776 50.3392 66.4379 50.0312 66.4375H23.4688C23.1608 66.4379 22.8559 66.3776 22.5713 66.2599C22.2868 66.1423 22.0283 65.9697 21.8106 65.7519C21.5928 65.5342 21.4202 65.2757 21.3026 64.9911C21.1849 64.7066 21.1246 64.4016 21.125 64.0938V26.5937C21.1246 26.2858 21.1849 25.9809 21.3026 25.6963C21.4202 25.4118 21.5928 25.1533 21.8106 24.9355C22.0283 24.7178 22.2868 24.5452 22.5713 24.4276C22.8559 24.3099 23.1608 24.2496 23.4688 24.25H29.0781C28.9835 24.4995 28.9358 24.7644 28.9375 25.0312V25.8125H25.0312C24.7233 25.8121 24.4184 25.8724 24.1338 25.9901C23.8493 26.1077 23.5908 26.2803 23.3731 26.498C23.1553 26.7158 22.9827 26.9743 22.8651 27.2588C22.7474 27.5434 22.6871 27.8483 22.6875 28.1562V62.5312C22.6871 62.8391 22.7474 63.1441 22.8651 63.4286C22.9827 63.7132 23.1553 63.9717 23.3731 64.1894C23.5908 64.4072 23.8493 64.5798 24.1338 64.6974C24.4184 64.8151 24.7233 64.8754 25.0312 64.875H43.7812C43.883 64.875 43.9837 64.8551 44.0778 64.8164C44.179 64.7756 44.2703 64.7134 44.3455 64.6343L50.5719 58.4078C50.672 58.3068 50.7418 58.1798 50.7734 58.0412C50.782 58.0095 50.7884 57.9773 50.7925 57.9447C50.8015 57.9116 50.8082 57.8778 50.8125 57.8438V28.1562C50.8129 27.8483 50.7526 27.5434 50.6349 27.2588C50.5173 26.9743 50.3447 26.7158 50.1269 26.498C49.9092 26.2803 49.6507 26.1077 49.3662 25.9901C49.0816 25.8724 48.7767 25.8121 48.4688 25.8125H44.5625V25.0312C44.5642 24.7644 44.5165 24.4995 44.4219 24.25H50.0312C50.3392 24.2496 50.6441 24.3099 50.9287 24.4276C51.2132 24.5452 51.4717 24.7178 51.6894 24.9355C51.9072 25.1533 52.0798 25.4118 52.1974 25.6963C52.3151 25.9809 52.3754 26.2858 52.375 26.5937V64.0938ZM36.75 24.25C36.9045 24.25 37.0556 24.2042 37.184 24.1183C37.3125 24.0325 37.4126 23.9105 37.4718 23.7677C37.5309 23.625 37.5464 23.4679 37.5162 23.3163C37.4861 23.1648 37.4117 23.0256 37.3024 22.9163C37.1932 22.8071 37.054 22.7327 36.9024 22.7025C36.7509 22.6724 36.5938 22.6878 36.451 22.747C36.3083 22.8061 36.1863 22.9062 36.1004 23.0347C36.0146 23.1632 35.9688 23.3142 35.9688 23.4687C35.9677 23.5716 35.9872 23.6737 36.0262 23.7689C36.0651 23.8642 36.1226 23.9507 36.1953 24.0234C36.2681 24.0962 36.3546 24.1537 36.4498 24.1926C36.5451 24.2315 36.6471 24.251 36.75 24.25ZM27.375 36.75C27.375 37.3681 27.5583 37.9723 27.9017 38.4862C28.245 39.0001 28.7331 39.4006 29.3041 39.6371C29.8751 39.8736 30.5035 39.9355 31.1097 39.815C31.7158 39.6944 32.2727 39.3967 32.7097 38.9597C33.1467 38.5227 33.4444 37.9658 33.565 37.3597C33.6855 36.7535 33.6236 36.1251 33.3871 35.5541C33.1506 34.9831 32.7501 34.495 32.2362 34.1517C31.7223 33.8083 31.1181 33.625 30.5 33.625C29.6719 33.6274 28.8785 33.9575 28.293 34.543C27.7075 35.1285 27.3774 35.9219 27.375 36.75ZM30.5 35.1875C30.809 35.1875 31.1111 35.2791 31.3681 35.4508C31.625 35.6225 31.8253 35.8665 31.9436 36.1521C32.0618 36.4376 32.0928 36.7517 32.0325 37.0548C31.9722 37.3579 31.8234 37.6363 31.6049 37.8549C31.3863 38.0734 31.1079 38.2222 30.8048 38.2825C30.5017 38.3428 30.1876 38.3118 29.9021 38.1936C29.6165 38.0753 29.3725 37.875 29.2008 37.6181C29.0291 37.3611 28.9375 37.059 28.9375 36.75C28.9387 36.336 29.1038 35.9393 29.3965 35.6465C29.6893 35.3538 30.086 35.1887 30.5 35.1875ZM30.5 52.375C29.8819 52.375 29.2777 52.5583 28.7638 52.9017C28.2499 53.245 27.8494 53.7331 27.6129 54.3041C27.3764 54.8751 27.3145 55.5035 27.435 56.1097C27.5556 56.7158 27.8533 57.2727 28.2903 57.7097C28.7273 58.1467 29.2842 58.4444 29.8903 58.565C30.4965 58.6855 31.1249 58.6236 31.6959 58.3871C32.2669 58.1506 32.755 57.7501 33.0983 57.2362C33.4417 56.7223 33.625 56.1181 33.625 55.5C33.6242 54.6715 33.2947 53.8771 32.7088 53.2912C32.1229 52.7053 31.3285 52.3758 30.5 52.375ZM30.5 57.0625C30.191 57.0625 29.8889 56.9709 29.6319 56.7992C29.375 56.6275 29.1747 56.3834 29.0564 56.0979C28.9382 55.8124 28.9072 55.4983 28.9675 55.1952C29.0278 54.8921 29.1766 54.6137 29.3951 54.3951C29.6137 54.1766 29.8921 54.0278 30.1952 53.9675C30.4983 53.9072 30.8124 53.9382 31.0979 54.0564C31.3835 54.1747 31.6275 54.375 31.7992 54.6319C31.9709 54.8889 32.0625 55.191 32.0625 55.5C32.062 55.9142 31.8972 56.3113 31.6043 56.6043C31.3114 56.8972 30.9142 57.062 30.5 57.0625ZM30.5 43C29.8819 43 29.2777 43.1833 28.7638 43.5267C28.2499 43.87 27.8494 44.3581 27.6129 44.9291C27.3764 45.5001 27.3145 46.1285 27.435 46.7347C27.5556 47.3408 27.8533 47.8977 28.2903 48.3347C28.7273 48.7717 29.2842 49.0694 29.8903 49.19C30.4965 49.3105 31.1249 49.2486 31.6959 49.0121C32.2669 48.7756 32.755 48.3751 33.0983 47.8612C33.4417 47.3473 33.625 46.7431 33.625 46.125C33.6242 45.2965 33.2947 44.5021 32.7088 43.9162C32.1229 43.3303 31.3285 43.0008 30.5 43ZM30.5 47.6875C30.191 47.6875 29.8889 47.5959 29.6319 47.4242C29.375 47.2525 29.1747 47.0085 29.0564 46.7229C28.9382 46.4374 28.9072 46.1233 28.9675 45.8202C29.0278 45.5171 29.1766 45.2387 29.3951 45.0201C29.6137 44.8016 29.8921 44.6528 30.1952 44.5925C30.4983 44.5322 30.8124 44.5632 31.0979 44.6814C31.3835 44.7997 31.6275 45 31.7992 45.2569C31.9709 45.5139 32.0625 45.816 32.0625 46.125C32.062 46.5392 31.8972 46.9363 31.6043 47.2293C31.3114 47.5222 30.9142 47.687 30.5 47.6875ZM37.5312 35.1875H45.3438C45.551 35.1875 45.7497 35.1052 45.8962 34.9587C46.0427 34.8122 46.125 34.6134 46.125 34.4062C46.125 34.199 46.0427 34.0003 45.8962 33.8538C45.7497 33.7073 45.551 33.625 45.3438 33.625H37.5312C37.324 33.625 37.1253 33.7073 36.9788 33.8538C36.8323 34.0003 36.75 34.199 36.75 34.4062C36.75 34.6134 36.8323 34.8122 36.9788 34.9587C37.1253 35.1052 37.324 35.1875 37.5312 35.1875ZM37.5312 39.875H40.6562C40.8635 39.875 41.0622 39.7927 41.2087 39.6462C41.3552 39.4997 41.4375 39.3009 41.4375 39.0938C41.4375 38.8865 41.3552 38.6878 41.2087 38.5413C41.0622 38.3948 40.8635 38.3125 40.6562 38.3125H37.5312C37.324 38.3125 37.1253 38.3948 36.9788 38.5413C36.8323 38.6878 36.75 38.8865 36.75 39.0938C36.75 39.3009 36.8323 39.4997 36.9788 39.6462C37.1253 39.7927 37.324 39.875 37.5312 39.875ZM37.5312 44.5625H45.3438C45.551 44.5625 45.7497 44.4802 45.8962 44.3337C46.0427 44.1872 46.125 43.9884 46.125 43.7812C46.125 43.574 46.0427 43.3753 45.8962 43.2288C45.7497 43.0823 45.551 43 45.3438 43H37.5312C37.324 43 37.1253 43.0823 36.9788 43.2288C36.8323 43.3753 36.75 43.574 36.75 43.7812C36.75 43.9884 36.8323 44.1872 36.9788 44.3337C37.1253 44.4802 37.324 44.5625 37.5312 44.5625ZM37.5312 49.25H40.6562C40.8635 49.25 41.0622 49.1677 41.2087 49.0212C41.3552 48.8747 41.4375 48.6759 41.4375 48.4688C41.4375 48.2615 41.3552 48.0628 41.2087 47.9163C41.0622 47.7698 40.8635 47.6875 40.6562 47.6875H37.5312C37.324 47.6875 37.1253 47.7698 36.9788 47.9163C36.8323 48.0628 36.75 48.2615 36.75 48.4688C36.75 48.6759 36.8323 48.8747 36.9788 49.0212C37.1253 49.1677 37.324 49.25 37.5312 49.25ZM37.5312 53.9375H45.3438C45.551 53.9375 45.7497 53.8552 45.8962 53.7087C46.0427 53.5622 46.125 53.3634 46.125 53.1562C46.125 52.949 46.0427 52.7503 45.8962 52.6038C45.7497 52.4573 45.551 52.375 45.3438 52.375H37.5312C37.324 52.375 37.1253 52.4573 36.9788 52.6038C36.8323 52.7503 36.75 52.949 36.75 53.1562C36.75 53.3634 36.8323 53.5622 36.9788 53.7087C37.1253 53.8552 37.324 53.9375 37.5312 53.9375ZM37.5312 58.625H40.6562C40.8635 58.625 41.0622 58.5427 41.2087 58.3962C41.3552 58.2497 41.4375 58.0509 41.4375 57.8438C41.4375 57.6365 41.3552 57.4378 41.2087 57.2913C41.0622 57.1448 40.8635 57.0625 40.6562 57.0625H37.5312C37.324 57.0625 37.1253 57.1448 36.9788 57.2913C36.8323 57.4378 36.75 57.6365 36.75 57.8438C36.75 58.0509 36.8323 58.2497 36.9788 58.3962C37.1253 58.5427 37.324 58.625 37.5312 58.625ZM64.0938 32.0625H63.3125V28.1562C63.3129 27.8483 63.2526 27.5434 63.1349 27.2588C63.0173 26.9743 62.8447 26.7158 62.6269 26.498C62.4092 26.2803 62.1507 26.1077 61.8661 25.9901C61.5816 25.8724 61.2766 25.8121 60.9688 25.8125H59.4062C59.0984 25.8121 58.7934 25.8724 58.5089 25.9901C58.2243 26.1077 57.9658 26.2803 57.7481 26.498C57.5303 26.7158 57.3577 26.9743 57.2401 27.2588C57.1224 27.5434 57.0621 27.8483 57.0625 28.1562V56.7969C57.0654 57.6416 57.3392 58.4631 57.8438 59.1406L59.4062 61.2288V62.5312C59.4062 62.7384 59.4886 62.9372 59.6351 63.0837C59.7816 63.2302 59.9803 63.3125 60.1875 63.3125C60.3947 63.3125 60.5934 63.2302 60.7399 63.0837C60.8864 62.9372 60.9688 62.7384 60.9688 62.5312V61.2287L62.5312 59.1405C63.0358 58.463 63.3096 57.6415 63.3125 56.7968V33.625H64.0938C64.3009 33.6251 64.4995 33.7075 64.646 33.854C64.7925 34.0005 64.8749 34.1991 64.875 34.4062V40.6562C64.875 40.8634 64.9573 41.0622 65.1038 41.2087C65.2503 41.3552 65.4491 41.4375 65.6562 41.4375C65.8634 41.4375 66.0622 41.3552 66.2087 41.2087C66.3552 41.0622 66.4375 40.8634 66.4375 40.6562V34.4062C66.4368 33.7849 66.1897 33.1891 65.7503 32.7497C65.3109 32.3103 64.7151 32.0632 64.0938 32.0625ZM61.75 56.7969C61.7502 57.304 61.5857 57.7975 61.2812 58.2031L60.1875 59.6719L59.0938 58.2031C58.7893 57.7975 58.6248 57.304 58.625 56.7969V55.5H61.75V56.7969ZM61.75 53.9375H58.625V32.0625H61.75V53.9375ZM61.75 30.5H58.625V28.1562C58.624 28.0534 58.6435 27.9513 58.6824 27.8561C58.7213 27.7608 58.7788 27.6743 58.8515 27.6015C58.9243 27.5288 59.0108 27.4713 59.1061 27.4324C59.2013 27.3935 59.3034 27.374 59.4062 27.375H60.9688C61.0716 27.374 61.1737 27.3935 61.2689 27.4324C61.3642 27.4713 61.4507 27.5288 61.5235 27.6015C61.5962 27.6743 61.6537 27.7608 61.6926 27.8561C61.7315 27.9513 61.751 28.0534 61.75 28.1562V30.5Z" fill="#00227B"/>
</g>
<g filter="url(#filter0_d_188_9712)">
<circle cx="82.5" cy="14.5" r="14.5" fill="white"/>
<path d="M80.212 19.144C79.452 19.144 78.796 18.964 78.244 18.604C77.7 18.236 77.28 17.728 76.984 17.08C76.696 16.424 76.552 15.664 76.552 14.8C76.552 13.936 76.696 13.18 76.984 12.532C77.28 11.876 77.7 11.368 78.244 11.008C78.796 10.64 79.452 10.456 80.212 10.456C80.972 10.456 81.624 10.64 82.168 11.008C82.712 11.368 83.128 11.876 83.416 12.532C83.712 13.18 83.86 13.936 83.86 14.8C83.86 15.664 83.712 16.424 83.416 17.08C83.128 17.728 82.712 18.236 82.168 18.604C81.624 18.964 80.972 19.144 80.212 19.144ZM80.212 18.004C80.668 18.004 81.072 17.876 81.424 17.62C81.784 17.364 82.064 16.996 82.264 16.516C82.464 16.036 82.564 15.464 82.564 14.8C82.564 14.136 82.464 13.564 82.264 13.084C82.064 12.604 81.784 12.236 81.424 11.98C81.072 11.724 80.668 11.596 80.212 11.596C79.748 11.596 79.34 11.724 78.988 11.98C78.636 12.236 78.36 12.604 78.16 13.084C77.96 13.564 77.86 14.136 77.86 14.8C77.86 15.464 77.96 16.036 78.16 16.516C78.36 16.996 78.636 17.364 78.988 17.62C79.34 17.876 79.748 18.004 80.212 18.004ZM86.1418 19V12.04L84.7858 12.352V11.416L86.6458 10.6H87.4618V19H86.1418Z" fill="black"/>
</g>
<defs>
<filter id="filter0_d_188_9712" x="64" y="0" width="37" height="37" filterUnits="userSpaceOnUse" color-interpolation-filters="sRGB">
<feFlood flood-opacity="0" result="BackgroundImageFix"/>
<feColorMatrix in="SourceAlpha" type="matrix" values="0 0 0 0 0 0 0 0 0 0 0 0 0 0 0 0 0 0 127 0" result="hardAlpha"/>
<feOffset dy="4"/>
<feGaussianBlur stdDeviation="2"/>
<feComposite in2="hardAlpha" operator="out"/>
<feColorMatrix type="matrix" values="0 0 0 0 0 0 0 0 0 0 0 0 0 0 0 0 0 0 0.25 0"/>
<feBlend mode="normal" in2="BackgroundImageFix" result="effect1_dropShadow_188_9712"/>
<feBlend mode="normal" in="SourceGraphic" in2="effect1_dropShadow_188_9712" result="shape"/>
</filter>
<clipPath id="clip0_188_9712">
<rect width="50" height="50" fill="white" transform="translate(18 18)"/>
</clipPath>
</defs>
</svg>
