<svg width="50" height="50" viewBox="0 0 50 50" fill="none" xmlns="http://www.w3.org/2000/svg">
<path d="M16.5039 44.873C16.5039 45.0673 16.5811 45.2536 16.7184 45.3909C16.8558 45.5283 17.0421 45.6055 17.2363 45.6055H32.7637C32.9579 45.6055 33.1442 45.5283 33.2816 45.3909C33.4189 45.2536 33.4961 45.0673 33.4961 44.873C33.4961 44.6788 33.4189 44.4925 33.2816 44.3551C33.1442 44.2178 32.9579 44.1406 32.7637 44.1406H17.2363C17.0421 44.1406 16.8558 44.2178 16.7184 44.3551C16.5811 44.4925 16.5039 44.6788 16.5039 44.873ZM31.8654 30.0293H28.4475C28.2532 30.0293 28.0669 30.1065 27.9296 30.2438C27.7922 30.3812 27.715 30.5675 27.715 30.7617C27.715 30.956 27.7922 31.1423 27.9296 31.2796C28.0669 31.417 28.2532 31.4941 28.4475 31.4941H31.8654C32.0597 31.4941 32.246 31.417 32.3833 31.2796C32.5207 31.1423 32.5979 30.956 32.5979 30.7617C32.5979 30.5675 32.5207 30.3812 32.3833 30.2438C32.246 30.1065 32.0597 30.0293 31.8654 30.0293ZM38.1348 30.0293H34.7168C34.5225 30.0293 34.3363 30.1065 34.1989 30.2438C34.0615 30.3812 33.9844 30.5675 33.9844 30.7617C33.9844 30.956 34.0615 31.1423 34.1989 31.2796C34.3363 31.417 34.5225 31.4941 34.7168 31.4941H38.1348C38.329 31.4941 38.5153 31.417 38.6527 31.2796C38.79 31.1423 38.8672 30.956 38.8672 30.7617C38.8672 30.5675 38.79 30.3812 38.6527 30.2438C38.5153 30.1065 38.329 30.0293 38.1348 30.0293ZM44.6842 27.6985C44.2431 27.6981 43.8107 27.8206 43.4354 28.0524C43.0739 27.8299 42.6595 27.7078 42.235 27.6988C41.8106 27.6898 41.3914 27.7943 41.0207 28.0013C40.6501 28.2084 40.3414 28.5106 40.1265 28.8768C39.9116 29.243 39.7983 29.6598 39.7983 30.0844C39.7983 30.509 39.9115 30.9258 40.1264 31.292C40.3412 31.6582 40.6499 31.9605 41.0205 32.1676C41.3912 32.3747 41.8103 32.4792 42.2348 32.4702C42.6593 32.4613 43.0737 32.3392 43.4353 32.1167C43.7494 32.3098 44.104 32.4275 44.4713 32.4605C44.8385 32.4934 45.2084 32.4408 45.5519 32.3068C45.8955 32.1728 46.2032 31.9609 46.4511 31.6879C46.6989 31.4149 46.8801 31.0881 46.9804 30.7333C47.0807 30.3785 47.0974 30.0052 47.0292 29.6428C46.961 29.2805 46.8097 28.9388 46.5872 28.6448C46.3647 28.3507 46.0771 28.1123 45.7469 27.9481C45.4167 27.7839 45.0529 27.6985 44.6842 27.6985ZM42.4658 30.9616C42.3276 31.0061 42.1809 31.0172 42.0375 30.9942C41.8942 30.9711 41.7584 30.9145 41.6411 30.829C41.5237 30.7435 41.4283 30.6315 41.3625 30.5021C41.2967 30.3727 41.2624 30.2296 41.2624 30.0844C41.2624 29.9392 41.2967 29.7961 41.3625 29.6667C41.4284 29.5373 41.5238 29.4253 41.6411 29.3398C41.7585 29.2543 41.8943 29.1978 42.0376 29.1747C42.181 29.1517 42.3277 29.1629 42.4659 29.2073C42.2422 29.7707 42.2422 30.3982 42.4659 30.9616H42.4658ZM44.6842 31.0059C44.502 31.0058 44.3239 30.9518 44.1724 30.8506C44.021 30.7493 43.9029 30.6055 43.8332 30.4371C43.7635 30.2688 43.7452 30.0836 43.7808 29.9049C43.8163 29.7262 43.9041 29.5621 44.0329 29.4333C44.1617 29.3045 44.3259 29.2167 44.5045 29.1812C44.6832 29.1456 44.8684 29.1639 45.0368 29.2336C45.2051 29.3033 45.349 29.4213 45.4502 29.5728C45.5514 29.7243 45.6054 29.9024 45.6055 30.0846C45.6052 30.3288 45.5081 30.563 45.3353 30.7357C45.1626 30.9085 44.9284 31.0056 44.6842 31.0059ZM47.3145 14.5996H39.9902V3.66211C39.9891 2.69119 39.603 1.76035 38.9164 1.07381C38.2299 0.387262 37.299 0.00108561 36.3281 0L13.6719 0C12.701 0.00108561 11.7701 0.387262 11.0836 1.07381C10.397 1.76035 10.0109 2.69119 10.0098 3.66211V46.3379C10.0109 47.3088 10.397 48.2397 11.0836 48.9262C11.7701 49.6127 12.701 49.9989 13.6719 50H36.3281C37.299 49.9989 38.2299 49.6127 38.9164 48.9262C39.603 48.2397 39.9891 47.3088 39.9902 46.3379V35.4004H47.3145C48.0265 35.3996 48.7091 35.1164 49.2125 34.6129C49.716 34.1095 49.9992 33.4268 50 32.7148V17.2852C49.9992 16.5732 49.716 15.8905 49.2125 15.3871C48.7091 14.8836 48.0265 14.6004 47.3145 14.5996ZM30.7974 1.46484L30.2673 2.5249C30.2069 2.64684 30.1134 2.74941 29.9977 2.82095C29.8819 2.8925 29.7484 2.93017 29.6123 2.92969H20.3877C20.2516 2.93013 20.1181 2.89244 20.0023 2.82088C19.8865 2.74932 19.7931 2.64675 19.7326 2.5248L19.2026 1.46484H30.7974ZM38.5254 46.3379C38.5247 46.9204 38.293 47.4789 37.8811 47.8909C37.4692 48.3028 36.9107 48.5345 36.3281 48.5352H13.6719C13.0893 48.5345 12.5308 48.3028 12.1189 47.8909C11.707 47.479 11.4753 46.9204 11.4746 46.3379V3.66211C11.4753 3.07956 11.707 2.52105 12.1189 2.10912C12.5308 1.69719 13.0893 1.46549 13.6719 1.46484H17.5649L18.4225 3.17988C18.6038 3.54576 18.8841 3.85349 19.2315 4.06818C19.5789 4.28287 19.9794 4.39592 20.3878 4.39453H29.6123C30.0207 4.39594 30.4212 4.28289 30.7686 4.06819C31.116 3.8535 31.3962 3.54576 31.5775 3.17988L32.435 1.46484H36.3281C36.9107 1.46552 37.4692 1.69723 37.8811 2.10915C38.293 2.52107 38.5247 3.07956 38.5254 3.66211V14.5996H25.7324V13.4534C25.7324 13.2592 25.6553 13.0729 25.5179 12.9355C25.3805 12.7982 25.1943 12.721 25 12.721C24.8057 12.721 24.6195 12.7982 24.4821 12.9355C24.3447 13.0729 24.2676 13.2592 24.2676 13.4534V36.5466C24.2676 36.7408 24.3447 36.9271 24.4821 37.0645C24.6195 37.2018 24.8057 37.279 25 37.279C25.1943 37.279 25.3805 37.2018 25.5179 37.0645C25.6553 36.9271 25.7324 36.7408 25.7324 36.5466V35.4004H38.5254V46.3379ZM25.7324 20.459H28.9062V22.7051H25.7324V20.459ZM48.5352 32.7148C48.5348 33.0385 48.4061 33.3488 48.1772 33.5776C47.9484 33.8065 47.6381 33.9352 47.3145 33.9355H25.7324V24.1699H28.9551C29.3305 24.1695 29.6904 24.0202 29.9559 23.7547C30.2213 23.4892 30.3707 23.1293 30.3711 22.7539V20.4102C30.3707 20.0347 30.2213 19.6748 29.9559 19.4094C29.6904 19.1439 29.3305 18.9946 28.9551 18.9941H25.7324V16.0645H47.3145C47.6381 16.0648 47.9484 16.1935 48.1772 16.4224C48.4061 16.6512 48.5348 16.9615 48.5352 17.2852V32.7148ZM45.6055 22.168V20.2148C45.6051 19.8912 45.4764 19.5809 45.2475 19.3521C45.0187 19.1232 44.7084 18.9945 44.3848 18.9941H39.7949C39.4713 18.9945 39.161 19.1232 38.9322 19.3521C38.7033 19.5809 38.5746 19.8912 38.5742 20.2148V22.168C38.5746 22.4916 38.7033 22.8019 38.9322 23.0307C39.161 23.2596 39.4713 23.3883 39.7949 23.3887H44.3848C44.7084 23.3883 45.0187 23.2596 45.2475 23.0307C45.4764 22.8019 45.6051 22.4916 45.6055 22.168ZM44.1406 21.9238H40.0391V20.459H44.1406V21.9238Z" fill="#00227B"/>
</svg>
