<svg width="60" height="60" viewBox="0 0 60 60" fill="none" xmlns="http://www.w3.org/2000/svg">
<g clip-path="url(#clip0_444_2600)">
<path d="M20.625 45.9375C20.625 47.7917 21.1748 49.6043 22.205 51.146C23.2351 52.6877 24.6993 53.8893 26.4123 54.5989C28.1254 55.3084 30.0104 55.4941 31.829 55.1324C33.6475 54.7706 35.318 53.8777 36.6291 52.5666C37.9402 51.2555 38.8331 49.585 39.1949 47.7665C39.5566 45.9479 39.3709 44.0629 38.6614 42.3498C37.9518 40.6368 36.7502 39.1726 35.2085 38.1425C33.6668 37.1123 31.8542 36.5625 30 36.5625C27.5144 36.5652 25.1315 37.5538 23.3739 39.3114C21.6163 41.069 20.6277 43.4519 20.625 45.9375ZM37.5 45.9375C37.5 47.4209 37.0601 48.8709 36.236 50.1043C35.4119 51.3376 34.2406 52.2989 32.8701 52.8666C31.4997 53.4343 29.9917 53.5828 28.5368 53.2934C27.082 53.004 25.7456 52.2897 24.6967 51.2408C23.6478 50.1919 22.9335 48.8555 22.6441 47.4007C22.3547 45.9458 22.5032 44.4378 23.0709 43.0674C23.6386 41.6969 24.5999 40.5256 25.8332 39.7015C27.0666 38.8774 28.5166 38.4375 30 38.4375C31.9884 38.4397 33.8948 39.2306 35.3008 40.6367C36.7069 42.0427 37.4978 43.9491 37.5 45.9375Z" fill="#00227B"/>
<path d="M16.875 45.9375C16.8723 48.3302 17.5238 50.6782 18.7589 52.7274C19.994 54.7767 21.7659 56.4494 23.8828 57.5645C25.9998 58.6797 28.3813 59.195 30.7699 59.0546C33.1585 58.9142 35.4633 58.1236 37.4351 56.7682C39.4069 55.4127 40.9706 53.5441 41.9572 51.3642C42.9439 49.1844 43.3158 46.7763 43.0329 44.4004C42.75 42.0244 41.823 39.771 40.3521 37.8838C38.8812 35.9966 36.9224 34.5474 34.6875 33.6928V28.5131L36.2878 26.9128C36.4636 26.737 36.5624 26.4986 36.5625 26.25V22.2394C36.92 22.033 37.1993 21.7144 37.3573 21.3331C37.5152 20.9518 37.5429 20.529 37.4361 20.1303C37.3293 19.7316 37.0939 19.3793 36.7664 19.128C36.439 18.8768 36.0378 18.7406 35.625 18.7406C35.2122 18.7406 34.811 18.8768 34.4836 19.128C34.1561 19.3793 33.9207 19.7316 33.8139 20.1303C33.7071 20.529 33.7348 20.9518 33.8927 21.3331C34.0507 21.7144 34.33 22.033 34.6875 22.2394V25.8619L33.0872 27.4622C32.9114 27.638 32.8126 27.8764 32.8125 28.125V33.1237C32.1947 32.9904 31.5681 32.9024 30.9375 32.8603V18.4894C31.295 18.283 31.5743 17.9644 31.7323 17.5831C31.8902 17.2018 31.9179 16.779 31.8111 16.3803C31.7043 15.9816 31.4689 15.6293 31.1414 15.378C30.814 15.1268 30.4128 14.9906 30 14.9906C29.5872 14.9906 29.186 15.1268 28.8586 15.378C28.5311 15.6293 28.2957 15.9816 28.1889 16.3803C28.0821 16.779 28.1098 17.2018 28.2677 17.5831C28.4257 17.9644 28.705 18.283 29.0625 18.4894V32.8603C28.4319 32.9024 27.8053 32.9904 27.1875 33.1237V28.125C27.1874 27.8764 27.0886 27.638 26.9128 27.4622L25.3125 25.8619V22.2394C25.67 22.033 25.9493 21.7144 26.1073 21.3331C26.2652 20.9518 26.2929 20.529 26.1861 20.1303C26.0793 19.7316 25.8439 19.3793 25.5164 19.128C25.189 18.8768 24.7878 18.7406 24.375 18.7406C23.9622 18.7406 23.561 18.8768 23.2336 19.128C22.9061 19.3793 22.6707 19.7316 22.5639 20.1303C22.4571 20.529 22.4848 20.9518 22.6427 21.3331C22.8007 21.7144 23.08 22.033 23.4375 22.2394V26.25C23.4376 26.4986 23.5364 26.737 23.7122 26.9128L25.3125 28.5131V33.6928C22.8335 34.6422 20.7004 36.3204 19.1942 38.5062C17.688 40.6921 16.8794 43.283 16.875 45.9375ZM41.25 45.9375C41.25 48.1625 40.5902 50.3376 39.354 52.1877C38.1179 54.0377 36.3609 55.4797 34.3052 56.3311C32.2495 57.1826 29.9875 57.4054 27.8052 56.9713C25.6229 56.5373 23.6184 55.4658 22.045 53.8925C20.4717 52.3191 19.4002 50.3146 18.9662 48.1323C18.5321 45.95 18.7549 43.688 19.6064 41.6323C20.4578 39.5766 21.8998 37.8196 23.7498 36.5835C25.5999 35.3473 27.775 34.6875 30 34.6875C32.9827 34.6907 35.8423 35.877 37.9514 37.9861C40.0605 40.0952 41.2468 42.9548 41.25 45.9375ZM1.875 25.3125H18.75C18.9986 25.3125 19.2371 25.2137 19.4129 25.0379C19.5887 24.8621 19.6875 24.6236 19.6875 24.375V19.6875C19.6824 18.4225 19.2238 17.2012 18.395 16.2455C17.5662 15.2898 16.4222 14.6629 15.1706 14.4788L13.125 14.1872V14.0381C13.4701 13.7774 13.7774 13.4701 14.0381 13.125H15C15.5688 13.1271 16.1247 12.956 16.5939 12.6346C17.0631 12.3131 17.4234 11.8565 17.6269 11.3254C17.8304 10.7943 17.8674 10.2138 17.7331 9.66115C17.5988 9.10848 17.2995 8.60975 16.875 8.23125V5.625C16.875 5.02161 16.681 4.4342 16.3216 3.94953C15.9622 3.46486 15.4565 3.10862 14.8791 2.93344C14.7039 2.35604 14.3476 1.85028 13.863 1.49087C13.3783 1.13146 12.7909 0.937455 12.1875 0.9375H8.4375C7.19475 0.938989 6.00334 1.43333 5.12458 2.31208C4.24583 3.19084 3.75149 4.38225 3.75 5.625V8.23125C3.32547 8.60975 3.02617 9.10848 2.89187 9.66115C2.75757 10.2138 2.79463 10.7943 2.99812 11.3254C3.20161 11.8565 3.5619 12.3131 4.03111 12.6346C4.50032 12.956 5.05624 13.1271 5.625 13.125H6.58687C6.8476 13.4701 7.1549 13.7774 7.5 14.0381V14.1872L5.45437 14.4788C4.20282 14.6629 3.0588 15.2898 2.23002 16.2455C1.40124 17.2012 0.942642 18.4225 0.9375 19.6875V24.375C0.9375 24.6236 1.03627 24.8621 1.21209 25.0379C1.3879 25.2137 1.62636 25.3125 1.875 25.3125ZM9.375 14.9062C9.99362 15.0325 10.6314 15.0325 11.25 14.9062V15C11.25 15.2486 11.1512 15.4871 10.9754 15.6629C10.7996 15.8387 10.5611 15.9375 10.3125 15.9375C10.0639 15.9375 9.8254 15.8387 9.64959 15.6629C9.47377 15.4871 9.375 15.2486 9.375 15V14.9062ZM13.125 10.3125C13.125 11.0584 12.8287 11.7738 12.3012 12.3012C11.7738 12.8287 11.0584 13.125 10.3125 13.125C9.56658 13.125 8.85121 12.8287 8.32376 12.3012C7.79632 11.7738 7.5 11.0584 7.5 10.3125V8.4375H9.15375C9.74541 8.43904 10.3311 8.31882 10.8743 8.08431C11.4175 7.84981 11.9066 7.50603 12.3112 7.07438L13.125 7.88812V10.3125ZM15 11.25H14.9062C14.9689 10.9414 15.0003 10.6274 15 10.3125V9.375C15.2486 9.375 15.4871 9.47377 15.6629 9.64959C15.8387 9.8254 15.9375 10.0639 15.9375 10.3125C15.9375 10.5611 15.8387 10.7996 15.6629 10.9754C15.4871 11.1512 15.2486 11.25 15 11.25ZM5.625 5.625C5.625 4.87908 5.92132 4.16371 6.44876 3.63626C6.97621 3.10882 7.69158 2.8125 8.4375 2.8125H12.1875C12.4361 2.8125 12.6746 2.91127 12.8504 3.08709C13.0262 3.2629 13.125 3.50136 13.125 3.75C13.125 3.99864 13.2238 4.2371 13.3996 4.41291C13.5754 4.58873 13.8139 4.6875 14.0625 4.6875C14.3111 4.6875 14.5496 4.78627 14.7254 4.96209C14.9012 5.1379 15 5.37636 15 5.625V7.5C14.9999 7.25138 14.9011 7.01296 14.7253 6.83719L12.8503 4.96219C12.7453 4.85745 12.6168 4.77913 12.4756 4.73368C12.3344 4.68823 12.1844 4.67693 12.038 4.70073C11.8916 4.72452 11.7529 4.78273 11.6334 4.87055C11.5138 4.95838 11.4168 5.07332 11.3503 5.20594C11.1479 5.61503 10.8347 5.95908 10.4464 6.19891C10.058 6.43874 9.61017 6.56472 9.15375 6.5625H6.5625C6.31386 6.5625 6.0754 6.66127 5.89959 6.83709C5.72377 7.0129 5.625 7.25136 5.625 7.5V5.625ZM5.625 11.25C5.37636 11.25 5.1379 11.1512 4.96209 10.9754C4.78627 10.7996 4.6875 10.5611 4.6875 10.3125C4.6875 10.0639 4.78627 9.8254 4.96209 9.64959C5.1379 9.47377 5.37636 9.375 5.625 9.375V10.3125C5.62469 10.6274 5.65609 10.9414 5.71875 11.25H5.625ZM2.8125 19.6875C2.81589 18.8735 3.11096 18.0876 3.64418 17.4725C4.17739 16.8574 4.91343 16.4538 5.71875 16.335L7.70625 16.0538C7.91481 16.5739 8.27433 17.0197 8.73851 17.3336C9.20268 17.6476 9.75023 17.8154 10.3106 17.8154C10.871 17.8154 11.4186 17.6476 11.8827 17.3336C12.3469 17.0197 12.7064 16.5739 12.915 16.0538L14.9025 16.335C15.7085 16.453 16.4454 16.8563 16.9794 17.4714C17.5134 18.0866 17.809 18.8729 17.8125 19.6875V23.4375H15.9375V20.625H14.0625V23.4375H6.5625V20.625H4.6875V23.4375H2.8125V19.6875ZM54.5456 14.4788L52.5 14.1872V14.0381C52.8451 13.7774 53.1524 13.4701 53.4131 13.125H54.375C54.9438 13.1271 55.4997 12.956 55.9689 12.6346C56.4381 12.3131 56.7984 11.8565 57.0019 11.3254C57.2054 10.7943 57.2424 10.2138 57.1081 9.66115C56.9738 9.10848 56.6745 8.60975 56.25 8.23125V5.625C56.25 5.02161 56.056 4.4342 55.6966 3.94953C55.3372 3.46486 54.8315 3.10862 54.2541 2.93344C54.0789 2.35604 53.7226 1.85028 53.238 1.49087C52.7533 1.13146 52.1659 0.937455 51.5625 0.9375H47.8125C46.5698 0.938989 45.3783 1.43333 44.4996 2.31208C43.6208 3.19084 43.1265 4.38225 43.125 5.625V8.23125C42.7005 8.60975 42.4012 9.10848 42.2669 9.66115C42.1326 10.2138 42.1696 10.7943 42.3731 11.3254C42.5766 11.8565 42.9369 12.3131 43.4061 12.6346C43.8753 12.956 44.4312 13.1271 45 13.125H45.9619C46.2226 13.4701 46.5299 13.7774 46.875 14.0381V14.1872L44.8294 14.4788C43.5778 14.6629 42.4338 15.2898 41.605 16.2455C40.7762 17.2012 40.3176 18.4225 40.3125 19.6875V24.375C40.3125 24.6236 40.4113 24.8621 40.5871 25.0379C40.7629 25.2137 41.0014 25.3125 41.25 25.3125H58.125C58.3736 25.3125 58.6121 25.2137 58.7879 25.0379C58.9637 24.8621 59.0625 24.6236 59.0625 24.375V19.6875C59.0574 18.4225 58.5988 17.2012 57.77 16.2455C56.9412 15.2898 55.7972 14.6629 54.5456 14.4788ZM48.75 14.9062C49.3686 15.0325 50.0064 15.0325 50.625 14.9062V15C50.625 15.2486 50.5262 15.4871 50.3504 15.6629C50.1746 15.8387 49.9361 15.9375 49.6875 15.9375C49.4389 15.9375 49.2004 15.8387 49.0246 15.6629C48.8488 15.4871 48.75 15.2486 48.75 15V14.9062ZM52.5 10.3125C52.5 11.0584 52.2037 11.7738 51.6762 12.3012C51.1488 12.8287 50.4334 13.125 49.6875 13.125C48.9416 13.125 48.2262 12.8287 47.6988 12.3012C47.1713 11.7738 46.875 11.0584 46.875 10.3125V8.4375H48.5288C49.1204 8.43904 49.7061 8.31882 50.2493 8.08431C50.7925 7.84981 51.2816 7.50603 51.6862 7.07438L52.5 7.88812V10.3125ZM54.375 11.25H54.2812C54.3439 10.9414 54.3753 10.6274 54.375 10.3125V9.375C54.6236 9.375 54.8621 9.47377 55.0379 9.64959C55.2137 9.8254 55.3125 10.0639 55.3125 10.3125C55.3125 10.5611 55.2137 10.7996 55.0379 10.9754C54.8621 11.1512 54.6236 11.25 54.375 11.25ZM45 5.625C45 4.87908 45.2963 4.16371 45.8238 3.63626C46.3512 3.10882 47.0666 2.8125 47.8125 2.8125H51.5625C51.8111 2.8125 52.0496 2.91127 52.2254 3.08709C52.4012 3.2629 52.5 3.50136 52.5 3.75C52.5 3.99864 52.5988 4.2371 52.7746 4.41291C52.9504 4.58873 53.1889 4.6875 53.4375 4.6875C53.6861 4.6875 53.9246 4.78627 54.1004 4.96209C54.2762 5.1379 54.375 5.37636 54.375 5.625V7.5C54.3749 7.25138 54.2761 7.01296 54.1003 6.83719L52.2253 4.96219C52.1203 4.85745 51.9918 4.77913 51.8506 4.73368C51.7094 4.68823 51.5594 4.67693 51.413 4.70073C51.2666 4.72452 51.1279 4.78273 51.0084 4.87055C50.8888 4.95838 50.7918 5.07332 50.7253 5.20594C50.5229 5.61503 50.2097 5.95908 49.8214 6.19891C49.433 6.43874 48.9852 6.56472 48.5288 6.5625H45.9375C45.6889 6.5625 45.4504 6.66127 45.2746 6.83709C45.0988 7.0129 45 7.25136 45 7.5V5.625ZM45 11.25C44.7514 11.25 44.5129 11.1512 44.3371 10.9754C44.1613 10.7996 44.0625 10.5611 44.0625 10.3125C44.0625 10.0639 44.1613 9.8254 44.3371 9.64959C44.5129 9.47377 44.7514 9.375 45 9.375V10.3125C44.9997 10.6274 45.0311 10.9414 45.0938 11.25H45ZM57.1875 23.4375H55.3125V20.625H53.4375V23.4375H45.9375V20.625H44.0625V23.4375H42.1875V19.6875C42.1909 18.8735 42.486 18.0876 43.0192 17.4725C43.5524 16.8574 44.2884 16.4538 45.0938 16.335L47.0813 16.0538C47.2898 16.5739 47.6493 17.0197 48.1135 17.3336C48.5777 17.6476 49.1252 17.8154 49.6856 17.8154C50.246 17.8154 50.7936 17.6476 51.2577 17.3336C51.7219 17.0197 52.0814 16.5739 52.29 16.0538L54.2775 16.335C55.0835 16.453 55.8204 16.8563 56.3544 17.4714C56.8884 18.0866 57.184 18.8729 57.1875 19.6875V23.4375ZM10.3125 39.375H15C15.2486 39.375 15.4871 39.2762 15.6629 39.1004C15.8387 38.9246 15.9375 38.6861 15.9375 38.4375V33.75H14.0625V35.865C12.2304 33.3178 11.2464 30.2586 11.25 27.1209V26.25H9.375V27.1209C9.36917 30.8825 10.6256 34.5372 12.9431 37.5H10.3125V39.375ZM44.0625 33.75V38.4375C44.0625 38.6861 44.1613 38.9246 44.3371 39.1004C44.5129 39.2762 44.7514 39.375 45 39.375H49.6875V37.5H47.0569C49.3744 34.5372 50.6308 30.8825 50.625 27.1209V26.25H48.75V27.1209C48.7536 30.2586 47.7696 33.3178 45.9375 35.865V33.75H44.0625Z" fill="#00227B"/>
<path d="M29.0625 40.3125V41.4225C28.4375 41.6426 27.9106 42.0769 27.575 42.6483C27.2395 43.2197 27.117 43.8915 27.2293 44.5445C27.3416 45.1976 27.6814 45.7899 28.1885 46.2164C28.6956 46.643 29.3374 46.8763 30 46.875C30.1854 46.875 30.3667 46.93 30.5208 47.033C30.675 47.136 30.7952 47.2824 30.8661 47.4537C30.9371 47.625 30.9557 47.8135 30.9195 47.9954C30.8833 48.1773 30.794 48.3443 30.6629 48.4754C30.5318 48.6065 30.3648 48.6958 30.1829 48.732C30.001 48.7682 29.8125 48.7496 29.6412 48.6786C29.4699 48.6077 29.3235 48.4875 29.2205 48.3333C29.1175 48.1792 29.0625 47.9979 29.0625 47.8125H27.1875C27.1899 48.3921 27.3713 48.9568 27.707 49.4294C28.0426 49.902 28.516 50.2593 29.0625 50.4525V51.5625H30.9375V50.4525C31.5625 50.2324 32.0894 49.7981 32.425 49.2267C32.7605 48.6553 32.883 47.9835 32.7707 47.3305C32.6584 46.6774 32.3186 46.0851 31.8115 45.6586C31.3044 45.232 30.6626 44.9987 30 45C29.8146 45 29.6333 44.945 29.4792 44.842C29.325 44.739 29.2048 44.5926 29.1339 44.4213C29.0629 44.25 29.0443 44.0615 29.0805 43.8796C29.1167 43.6977 29.206 43.5307 29.3371 43.3996C29.4682 43.2685 29.6352 43.1792 29.8171 43.143C29.999 43.1068 30.1875 43.1254 30.3588 43.1964C30.5301 43.2673 30.6765 43.3875 30.7795 43.5417C30.8825 43.6958 30.9375 43.8771 30.9375 44.0625H32.8125C32.8101 43.4829 32.6287 42.9182 32.293 42.4456C31.9574 41.973 31.484 41.6157 30.9375 41.4225V40.3125H29.0625Z" fill="#00227B"/>
</g>
<defs>
<clipPath id="clip0_444_2600">
<rect width="60" height="60" fill="white"/>
</clipPath>
</defs>
</svg>
