<svg width="17" height="16" viewBox="0 0 17 16" fill="none" xmlns="http://www.w3.org/2000/svg">
<g clip-path="url(#clip0_585_135)">
<path d="M7.81305 9.19991C7.68505 9.19991 7.55705 9.15091 7.45955 9.05341L5.37405 6.96841C5.28005 6.87441 5.22755 6.74741 5.22755 6.61491C5.22755 6.48241 5.28005 6.35491 5.37405 6.26141L6.59105 5.04491C6.97105 4.66491 6.97105 4.04641 6.59105 3.66641L5.20105 2.27641C4.83255 1.90841 4.19055 1.90791 3.82205 2.27641C3.80005 2.29841 3.77555 2.31841 3.74955 2.33641C3.69205 2.37641 2.29655 3.37441 2.52555 5.43541C2.55605 5.70991 2.35855 5.95691 2.08405 5.98741C1.81205 6.01891 1.56255 5.82041 1.53205 5.54591C1.25505 3.05691 2.85655 1.75241 3.14555 1.53891C3.89405 0.820909 5.17105 0.832909 5.90755 1.56891L7.29755 2.95891C8.06755 3.72891 8.06755 4.98141 7.29755 5.75141L6.43505 6.61491L8.16655 8.34641C8.36205 8.54191 8.36205 8.85791 8.16655 9.05341C8.06905 9.15141 7.94105 9.19991 7.81305 9.19991Z" fill="#00227B"/>
<path d="M5.37994 11.6329C5.25194 11.6329 5.12394 11.5839 5.02644 11.4864C3.79794 10.2579 2.87844 9.05891 2.29294 7.92241C2.16644 7.67691 2.26294 7.37541 2.50844 7.24891C2.75494 7.12241 3.05544 7.21941 3.18194 7.46441C3.71994 8.50891 4.57794 9.62441 5.73344 10.7794C5.92894 10.9749 5.92894 11.2909 5.73344 11.4864C5.63544 11.5844 5.50794 11.6329 5.37994 11.6329Z" fill="#00227B"/>
<path d="M11.496 14.9909C9.52755 14.9909 7.34655 13.8064 5.00405 11.4634C4.80855 11.2679 4.80855 10.9519 5.00405 10.7564C5.19955 10.5609 5.51555 10.5609 5.71105 10.7564C7.98055 13.0264 10.1 14.1374 11.853 13.9744C13.398 13.8284 14.147 12.7519 14.1545 12.7404C14.172 12.7144 14.192 12.6899 14.2145 12.6679C14.3985 12.4844 14.5 12.2389 14.5 11.9789C14.5 11.7189 14.3985 11.4739 14.2145 11.2899L12.8245 9.89936C12.6405 9.71536 12.3955 9.61436 12.1345 9.61436C11.874 9.61436 11.6295 9.71536 11.446 9.89936L10.2285 11.1159C10.033 11.3114 9.71705 11.3114 9.52155 11.1159L7.43705 9.03136C7.24155 8.83586 7.24155 8.51986 7.43705 8.32436C7.63255 8.12886 7.94855 8.12886 8.14405 8.32436L9.87505 10.0554L10.7385 9.19236C11.111 8.81936 11.6065 8.61386 12.1345 8.61386C12.6625 8.61386 13.1585 8.81936 13.5315 9.19186L14.9215 10.5829C15.2945 10.9554 15.5 11.4514 15.5 11.9789C15.5 12.4919 15.3055 12.9754 14.9515 13.3444C14.7695 13.5904 13.788 14.7959 11.947 14.9699C11.7985 14.9844 11.6475 14.9909 11.496 14.9909Z" fill="#00227B"/>
</g>
<defs>
<clipPath id="clip0_585_135">
<rect width="16" height="16" fill="white" transform="translate(0.5)"/>
</clipPath>
</defs>
</svg>

