<svg width="50" height="50" viewBox="0 0 50 50" fill="none" xmlns="http://www.w3.org/2000/svg">
<g clip-path="url(#clip0_360_6243)">
<path d="M35.4167 3.125H6.25C2.79961 3.12842 0.00341797 5.92461 0 9.375V33.3333C0.00341797 36.7837 2.79961 39.5799 6.25 39.5833H35.4167C38.8671 39.5799 41.6633 36.7837 41.6667 33.3333V9.375C41.6632 5.92461 38.867 3.12842 35.4167 3.125ZM39.5833 33.3333C39.5833 35.6345 37.7178 37.5 35.4166 37.5H6.25C3.94883 37.5 2.0833 35.6346 2.0833 33.3333V9.375C2.0833 7.07383 3.94883 5.2083 6.25 5.2083H35.4167C37.7179 5.2083 39.5834 7.07383 39.5834 9.375V33.3333H39.5833Z" fill="#00227B"/>
<path d="M40.625 9.375H1.04169V11.4583H40.625V9.375Z" fill="#00227B"/>
<path d="M10.4166 6.25H5.20831V8.3333H10.4166V6.25Z" fill="#00227B"/>
<path d="M14.5833 6.25H12.5V8.3333H14.5833V6.25Z" fill="#00227B"/>
<path d="M18.75 6.25H16.6667V8.3333H18.75V6.25Z" fill="#00227B"/>
<path d="M43.75 8.33331H42.7083V10.4166H43.75C46.0512 10.4166 47.9167 12.282 47.9167 14.5833V40.625C47.9167 42.9262 46.0513 44.7917 43.75 44.7917H14.5833C12.2821 44.7917 10.4166 42.9263 10.4166 40.625H8.33331C8.33673 44.0754 11.1329 46.8716 14.5833 46.875H43.75C47.2004 46.8716 49.9966 44.0754 50 40.625V14.5833C49.9966 11.133 47.2004 8.33683 43.75 8.33331Z" fill="#00227B"/>
<path d="M48.9583 14.5833H42.7083V16.6666H48.9583V14.5833Z" fill="#00227B"/>
<path d="M10 15.4167L8.75002 13.75L4.58333 16.875C4.50432 16.9342 4.4342 17.0044 4.37502 17.0833C4.02981 17.5436 4.12317 18.1965 4.58333 18.5416L8.75002 21.6666L10 19.9999L6.94485 17.7082L10 15.4167Z" fill="#00227B"/>
<path d="M17.2917 16.875L13.125 13.75L11.875 15.4167L14.9302 17.7084L11.875 20L13.125 21.6667L17.2917 18.5417C17.3707 18.4825 17.4408 18.4123 17.5 18.3334C17.8452 17.873 17.7519 17.2202 17.2917 16.875Z" fill="#00227B"/>
<path d="M29.7917 24.7917L28.5417 23.125L24.375 26.25C24.296 26.3092 24.2259 26.3794 24.1667 26.4583C23.8215 26.9186 23.9147 27.5715 24.375 27.9166L28.5417 31.0416L29.7917 29.3749L26.7365 27.0832L29.7917 24.7917Z" fill="#00227B"/>
<path d="M37.0833 26.25L32.9166 23.125L31.6666 24.7917L34.7218 27.0834L31.6667 29.375L32.9167 31.0417L37.0834 27.9167C37.1624 27.8575 37.2325 27.7873 37.2917 27.7084C37.6368 27.248 37.5436 26.5952 37.0833 26.25Z" fill="#00227B"/>
<path d="M26.0417 14.5833H19.7917V16.6666H26.0417V14.5833Z" fill="#00227B"/>
<path d="M30.2083 14.5833H28.125V16.6666H30.2083V14.5833Z" fill="#00227B"/>
<path d="M34.375 14.5833H32.2917V16.6666H34.375V14.5833Z" fill="#00227B"/>
<path d="M34.375 18.75H28.125V20.8333H34.375V18.75Z" fill="#00227B"/>
<path d="M26.0416 18.75H23.9583V20.8333H26.0416V18.75Z" fill="#00227B"/>
<path d="M21.875 18.75H19.7917V20.8333H21.875V18.75Z" fill="#00227B"/>
<path d="M13.5417 23.9583H7.29169V26.0416H13.5417V23.9583Z" fill="#00227B"/>
<path d="M17.7083 23.9583H15.625V26.0416H17.7083V23.9583Z" fill="#00227B"/>
<path d="M21.875 23.9583H19.7917V26.0416H21.875V23.9583Z" fill="#00227B"/>
<path d="M21.875 28.125H15.625V30.2083H21.875V28.125Z" fill="#00227B"/>
<path d="M13.5416 28.125H11.4583V30.2083H13.5416V28.125Z" fill="#00227B"/>
<path d="M9.37499 28.125H7.29169V30.2083H9.37499V28.125Z" fill="#00227B"/>
<path d="M33.3334 32.2917H7.29169V34.375H33.3334V32.2917Z" fill="#00227B"/>
<path d="M45.8333 19.7917H43.75V21.875H45.8333V19.7917Z" fill="#00227B"/>
<path d="M45.8333 23.9583H43.75V26.0416H45.8333V23.9583Z" fill="#00227B"/>
<path d="M45.8333 28.125H43.75V30.2083H45.8333V28.125Z" fill="#00227B"/>
</g>
<defs>
<clipPath id="clip0_360_6243">
<rect width="50" height="50" rx="8" fill="white"/>
</clipPath>
</defs>
</svg>
