<svg width="63" height="63" viewBox="0 0 63 63" fill="none" xmlns="http://www.w3.org/2000/svg">
<path d="M60.7961 34C61.138 33.9975 61.4655 33.8604 61.7091 33.6177C61.9527 33.375 62.0933 33.0458 62.101 32.7V2.20004C62.0933 1.85425 61.9527 1.52508 61.7091 1.28238C61.4655 1.03968 61.138 0.902537 60.7961 0.900024H2.19585C1.85567 0.905113 1.53069 1.0434 1.2892 1.28583C1.04771 1.52826 0.908516 1.85596 0.900879 2.20004V32.8C0.908516 33.1441 1.04771 33.4718 1.2892 33.7142C1.53069 33.9567 1.85567 34.0949 2.19585 34.1H30.201V41.7H7.28679C6.94661 41.7051 6.62163 41.8434 6.38014 42.0858C6.13864 42.3283 5.99945 42.656 5.99182 43V49.5C4.83269 49.7658 3.77138 50.3574 2.9302 51.2068C2.08901 52.0561 1.50218 53.1287 1.23737 54.3008C0.97256 55.4729 1.04054 56.6968 1.43346 57.8315C1.82638 58.9662 2.52828 59.9655 3.45822 60.7142C4.38816 61.4629 5.50831 61.9306 6.68956 62.0633C7.87082 62.196 9.0651 61.9883 10.1348 61.4643C11.2044 60.9402 12.1059 60.121 12.7354 59.1012C13.3649 58.0814 13.6966 56.9023 13.6925 55.7C13.6992 54.2247 13.1915 52.7941 12.2585 51.6601C11.3255 50.5261 10.0271 49.7612 8.59166 49.5V44.3H30.2899V49.5C29.1308 49.7658 28.0695 50.3574 27.2283 51.2068C26.3871 52.0561 25.8003 53.1287 25.5355 54.3008C25.2707 55.4729 25.3387 56.6968 25.7316 57.8315C26.1245 58.9662 26.8264 59.9655 27.7563 60.7142C28.6863 61.4629 29.8064 61.9306 30.9877 62.0633C32.1689 62.196 33.3632 61.9883 34.4329 61.4643C35.5026 60.9402 36.4041 60.121 37.0335 59.1012C37.663 58.0814 37.9948 56.9023 37.9906 55.7C37.9974 54.2247 37.4896 52.7941 36.5566 51.6601C35.6237 50.5261 34.3252 49.7612 32.8898 49.5V44.3H54.5881V49.5C53.429 49.7658 52.3677 50.3574 51.5265 51.2068C50.6853 52.0561 50.0985 53.1287 49.8337 54.3008C49.5688 55.4729 49.6368 56.6968 50.0297 57.8315C50.4227 58.9662 51.1245 59.9655 52.0545 60.7142C52.9844 61.4629 54.1046 61.9306 55.2858 62.0633C56.4671 62.196 57.6614 61.9883 58.7311 61.4643C59.8007 60.9402 60.7022 60.121 61.3317 59.1012C61.9611 58.0814 62.2929 56.9023 62.2888 55.7C62.2975 54.2241 61.7904 52.7926 60.8571 51.6581C59.9238 50.5237 58.6243 49.7594 57.1879 49.5V43C57.1803 42.656 57.0411 42.3283 56.7996 42.0858C56.5581 41.8434 56.2332 41.7051 55.893 41.7H32.8008V34H60.7961ZM11.1025 55.7C11.1123 56.4636 10.8975 57.2127 10.4853 57.8524C10.0731 58.4921 9.4822 58.9933 8.78769 59.2924C8.09319 59.5915 7.32643 59.6749 6.58494 59.532C5.84345 59.3892 5.16072 59.0265 4.6235 58.4901C4.08629 57.9537 3.71887 57.2679 3.56797 56.5197C3.41707 55.7716 3.48949 54.9949 3.77604 54.2885C4.06258 53.5821 4.55031 52.9778 5.1772 52.5525C5.8041 52.1272 6.54187 51.9001 7.29669 51.9C7.79342 51.8961 8.28602 51.9913 8.7463 52.1803C9.20659 52.3692 9.6255 52.6482 9.97904 53.0012C10.3326 53.3542 10.6138 53.7743 10.8066 54.2374C10.9994 54.7005 11.0999 55.1975 11.1025 55.7ZM35.3018 55.7C35.3116 56.4636 35.0968 57.2127 34.6846 57.8524C34.2724 58.4921 33.6815 58.9933 32.987 59.2924C32.2925 59.5915 31.5257 59.6749 30.7842 59.532C30.0428 59.3892 29.36 59.0265 28.8228 58.4901C28.2856 57.9537 27.9182 57.2679 27.7673 56.5197C27.6164 55.7716 27.6888 54.9949 27.9753 54.2885C28.2619 53.5821 28.7496 52.9778 29.3765 52.5525C30.0034 52.1272 30.7411 51.9001 31.496 51.9C31.9927 51.8961 32.4853 51.9913 32.9456 52.1803C33.4059 52.3692 33.8248 52.6482 34.1783 53.0012C34.5319 53.3542 34.8131 53.7743 35.0059 54.2374C35.1987 54.7005 35.2992 55.1975 35.3018 55.7ZM59.5011 55.7C59.5109 56.4636 59.2961 57.2127 58.8839 57.8524C58.4717 58.4921 57.8808 58.9933 57.1863 59.2924C56.4918 59.5915 55.725 59.6749 54.9835 59.532C54.2421 59.3892 53.5593 59.0265 53.0221 58.4901C52.4849 57.9537 52.1175 57.2679 51.9666 56.5197C51.8157 55.7716 51.8881 54.9949 52.1746 54.2885C52.4612 53.5821 52.9489 52.9778 53.5758 52.5525C54.2027 52.1272 54.9404 51.9001 55.6953 51.9C56.192 51.8961 56.6846 51.9913 57.1449 52.1803C57.6052 52.3692 58.0241 52.6482 58.3776 53.0012C58.7312 53.3542 59.0124 53.7743 59.2052 54.2374C59.398 54.7005 59.4985 55.1975 59.5011 55.7ZM3.50073 3.50003H59.6V31.5H43.0025V27.7C42.99 25.4274 42.3144 23.2092 41.0606 21.3234C39.8067 19.4377 38.0303 17.9685 35.9543 17.1C36.5964 16.5048 37.1051 15.7774 37.4461 14.9667C37.7872 14.156 37.9526 13.2808 37.9313 12.4C37.9313 10.6761 37.2543 9.02282 36.0493 7.80383C34.8443 6.58485 33.21 5.90002 31.5059 5.90002C29.8017 5.90002 28.1674 6.58485 26.9624 7.80383C25.7574 9.02282 25.0804 10.6761 25.0804 12.4C25.1022 14.1689 25.8126 15.8577 27.0575 17.1C24.9721 17.9608 23.1853 19.4267 21.9223 21.313C20.6592 23.1994 19.9763 25.4217 19.9598 27.7V31.5H3.50073V3.50003ZM27.7 12.4C27.6902 11.6361 27.9053 10.8865 28.3179 10.2466C28.7305 9.60669 29.322 9.10546 30.0171 8.80667C30.7122 8.50788 31.4795 8.42506 32.2212 8.56873C32.963 8.7124 33.6457 9.07607 34.1825 9.61346C34.7194 10.1509 35.086 10.8377 35.2358 11.5865C35.3856 12.3353 35.3117 13.1123 35.0237 13.8185C34.7356 14.5248 34.2463 15.1283 33.6181 15.5524C32.9899 15.9765 32.2512 16.202 31.496 16.2C31.0001 16.2027 30.5085 16.1065 30.0494 15.9169C29.5902 15.7274 29.1725 15.4482 28.82 15.0953C28.4675 14.7425 28.1872 14.3228 27.995 13.8604C27.8028 13.3979 27.7026 12.9017 27.7 12.4ZM22.5992 27.7C22.5992 25.3131 23.5365 23.0239 25.205 21.3361C26.8735 19.6482 29.1364 18.7 31.496 18.7C33.8555 18.7 36.1185 19.6482 37.787 21.3361C39.4554 23.0239 40.3928 25.3131 40.3928 27.7V31.5H37.9313V26.4C37.9029 26.0711 37.7537 25.7648 37.513 25.5417C37.2724 25.3186 36.9578 25.1948 36.6314 25.1948C36.305 25.1948 35.9904 25.3186 35.7497 25.5417C35.5091 25.7648 35.3599 26.0711 35.3315 26.4V31.5H27.7296V26.4C27.7013 26.0711 27.552 25.7648 27.3114 25.5417C27.0707 25.3186 26.7562 25.1948 26.4297 25.1948C26.1033 25.1948 25.7887 25.3186 25.5481 25.5417C25.3074 25.7648 25.1582 26.0711 25.1298 26.4V31.5H22.6288V27.7H22.5992Z" fill="#00227B"/>
<path d="M9.79786 13.7H7.29688V16.2H9.79786V13.7Z" fill="#00227B"/>
<path d="M14.8984 13.7H12.3975V16.2H14.8984V13.7Z" fill="#00227B"/>
<path d="M19.9995 13.7H17.4985V16.2H19.9995V13.7Z" fill="#00227B"/>
<path d="M46.6997 13.7H44.1987V16.2H46.6997V13.7Z" fill="#00227B"/>
<path d="M51.8003 13.7H49.2993V16.2H51.8003V13.7Z" fill="#00227B"/>
<path d="M56.9014 13.7H54.4004V16.2H56.9014V13.7Z" fill="#00227B"/>
</svg>
