<svg width="60" height="60" viewBox="0 0 60 60" fill="none" xmlns="http://www.w3.org/2000/svg">
<g clip-path="url(#clip0_247_8136)">
<mask id="mask0_247_8136" style="mask-type:luminance" maskUnits="userSpaceOnUse" x="0" y="0" width="60" height="60">
<path d="M60 0H0V60H60V0Z" fill="white"/>
</mask>
<g mask="url(#mask0_247_8136)">
<path d="M26.1471 22.4C26.1597 22.4344 26.1747 22.4678 26.1921 22.5C27.2824 24.8874 29.2748 26.7451 31.7327 27.6658C34.1905 28.5864 36.9131 28.4949 39.3036 27.4112C41.694 26.3275 43.5572 24.3402 44.4847 21.8849C45.4121 19.4296 45.3281 16.7068 44.251 14.3133C43.174 11.9199 41.1918 10.0512 38.7391 9.11699C36.2864 8.18277 33.5633 8.25925 31.1669 9.32968C28.7705 10.4001 26.8963 12.3771 25.9553 14.8272C25.0143 17.2773 25.0833 20.0006 26.1471 22.4ZM38.5241 26.435C37.8525 26.708 37.1488 26.8941 36.4301 26.989V23.615H38.5241V26.435ZM29.2241 12.444C30.0744 11.591 31.0951 10.927 32.2195 10.4952C33.3438 10.0634 34.5466 9.87352 35.7493 9.93804C36.952 10.0026 38.1276 10.32 39.1993 10.8696C40.271 11.4192 41.2148 12.1886 41.969 13.1277C42.7232 14.0667 43.271 15.1543 43.5764 16.3193C43.8819 17.4844 43.9382 18.7007 43.7417 19.889C43.5453 21.0773 43.1004 22.2108 42.4362 23.2156C41.772 24.2203 40.9034 25.0737 39.8871 25.72V22.93C39.8871 22.748 39.8148 22.5736 39.6862 22.4449C39.5575 22.3162 39.383 22.244 39.2011 22.244H35.7371C35.5552 22.244 35.3807 22.3162 35.252 22.4449C35.1234 22.5736 35.0511 22.748 35.0511 22.93V27.061C33.512 27.0212 32.0122 26.5669 30.7098 25.7458C29.4073 24.9248 28.3506 23.7675 27.6511 22.396L28.9511 21.424L31.1391 22.919C31.2712 23.0091 31.4307 23.0502 31.5899 23.0352C31.7491 23.0203 31.8981 22.9501 32.0111 22.837L38.4631 16.363L38.4521 17.889C38.4521 18.0701 38.5237 18.2438 38.6512 18.3723C38.7788 18.5008 38.952 18.5737 39.1331 18.575C39.3142 18.575 39.4879 18.5034 39.6164 18.3758C39.7449 18.2483 39.8178 18.075 39.8191 17.894L39.8371 14.694V14.628C39.8352 14.6068 39.8322 14.5858 39.8281 14.565C39.8076 14.4595 39.7624 14.3605 39.6961 14.276L39.6871 14.264C39.6799 14.2553 39.6722 14.2469 39.6641 14.239L39.6421 14.214L39.6191 14.193C39.6109 14.1848 39.6022 14.1771 39.5931 14.17L39.5591 14.144L39.5391 14.13C39.5251 14.121 39.5111 14.113 39.4971 14.105L39.4811 14.096L39.4351 14.074L39.4211 14.068L39.3751 14.051L39.3581 14.045L39.3131 14.033L39.2921 14.028C39.278 14.0269 39.2639 14.0249 39.2501 14.022C39.2361 14.022 39.2341 14.022 39.2261 14.022H39.1621L35.9621 14.004C35.7802 14.004 35.6057 14.0763 35.477 14.2049C35.3484 14.3336 35.2761 14.508 35.2761 14.69C35.2761 14.8719 35.3484 15.0464 35.477 15.1751C35.6057 15.3037 35.7802 15.376 35.9621 15.376L37.5261 15.385L31.4401 21.475L29.3221 20.025C29.2038 19.9436 29.063 19.9014 28.9195 19.9043C28.776 19.9071 28.637 19.9549 28.5221 20.041L27.1221 21.09C26.6486 19.5946 26.5945 17.998 26.9657 16.474C27.3369 14.9501 28.1191 13.5572 29.2271 12.447L29.2241 12.444ZM54.6751 34.223L49.8961 29.445V9.64498C49.8953 9.21009 49.7221 8.79326 49.4145 8.48584C49.1069 8.17843 48.69 8.00551 48.2551 8.00498H42.0861C40.0581 6.69622 37.6957 6.00012 35.2821 6.00012C32.8685 6.00012 30.5061 6.69622 28.4781 8.00498H5.63909C5.20395 8.00471 4.7865 8.17718 4.47844 8.48449C4.17037 8.79181 3.99689 9.20884 3.99609 9.64398V41.686C3.99662 42.1208 4.16958 42.5376 4.47702 42.845C4.78447 43.1525 5.2013 43.3254 5.63609 43.326H22.0141C21.9081 44.8741 21.231 46.3276 20.1141 47.4048C18.9971 48.482 17.52 49.1061 15.9691 49.156C15.9034 49.1561 15.8381 49.1655 15.7751 49.184C15.1856 49.277 14.6527 49.5887 14.2828 50.0571C13.9128 50.5254 13.7329 51.116 13.779 51.7111C13.825 52.3061 14.0936 52.862 14.5312 53.2678C14.9688 53.6737 15.5433 53.8998 16.1401 53.901H37.7511C38.3658 53.9016 38.9567 53.6636 39.3994 53.237C39.842 52.8105 40.1018 52.2288 40.124 51.6145C40.1461 51.0002 39.929 50.4013 39.5182 49.944C39.1075 49.4867 38.5352 49.2067 37.9221 49.163V49.156C36.3712 49.1059 34.8942 48.4817 33.7774 47.4046C32.6605 46.3274 31.9833 44.874 31.8771 43.326H48.2541C48.6891 43.3257 49.1061 43.1529 49.4138 42.8454C49.7215 42.5379 49.8946 42.1209 49.8951 41.686V36.786L51.0031 37.894C51.4985 38.336 52.1443 38.5717 52.808 38.5528C53.4717 38.5339 54.103 38.2619 54.5725 37.7924C55.042 37.3229 55.3141 36.6916 55.3329 36.0279C55.3518 35.3642 55.1161 34.7184 54.6741 34.223H54.6751ZM48.2581 9.37498C48.33 9.37576 48.3987 9.40466 48.4496 9.45551C48.5004 9.50635 48.5293 9.57508 48.5301 9.64698V28.075L47.5401 27.085C47.5659 26.6989 47.5088 26.3118 47.3727 25.9496C47.2366 25.5875 47.0247 25.2585 46.7511 24.985L46.2621 24.496C47.5551 22.1224 48.0462 19.3944 47.6619 16.7189C47.2777 14.0434 46.0388 11.5638 44.1301 9.64997C44.0301 9.54997 43.9301 9.45898 43.8361 9.36398L48.2581 9.37498ZM43.9871 29.365C43.9744 29.3663 43.962 29.3694 43.9501 29.374C43.7337 29.4158 43.5103 29.404 43.2995 29.3395C43.0888 29.275 42.897 29.1598 42.7411 29.004L42.4781 28.741C43.6597 27.9101 44.6888 26.8813 45.5201 25.7L45.7831 25.962C45.939 26.118 46.0543 26.31 46.1188 26.5209C46.1833 26.7319 46.1951 26.9554 46.1531 27.172C46.1531 27.184 46.1471 27.196 46.1441 27.208C46.0895 27.4591 45.9638 27.6893 45.7821 27.871L44.6481 29.004C44.4669 29.1858 44.237 29.3115 43.9861 29.366L43.9871 29.365ZM43.1631 10.627C44.4059 11.8705 45.3367 13.3904 45.8796 15.0625C46.4224 16.7347 46.5619 18.5116 46.2865 20.2479C46.011 21.9843 45.3286 23.6308 44.295 25.0529C43.2614 26.475 41.9059 27.6323 40.3393 28.4302C38.7727 29.2281 37.0396 29.6439 35.2815 29.6436C33.5235 29.6434 31.7904 29.2271 30.2241 28.4288C28.6577 27.6305 27.3025 26.4729 26.2693 25.0505C25.236 23.6281 24.554 21.9814 24.2791 20.245C24.2782 20.2287 24.2755 20.2126 24.2711 20.197C24.1866 19.6369 24.1441 19.0714 24.1441 18.505C24.146 16.3023 24.8005 14.1496 26.025 12.3187C27.2495 10.4877 28.9891 9.06068 31.024 8.21775C33.059 7.37482 35.2982 7.1538 37.4587 7.5826C39.6192 8.0114 41.6043 9.07078 43.1631 10.627ZM36.4301 33.692V30.954C37.1373 30.8895 37.8378 30.7654 38.5241 30.583V33.689L36.4301 33.692ZM33.7301 33.692V30.91C34.1715 30.9648 34.6154 30.9962 35.0601 31.004V33.69L33.7301 33.692ZM30.2671 33.692V29.962C30.9431 30.2567 31.6438 30.4909 32.3611 30.662V33.691L30.2671 33.692ZM38.7571 51.534C38.7571 51.7992 38.6517 52.0535 38.4642 52.2411C38.2767 52.4286 38.0223 52.534 37.7571 52.534H16.1431C15.8771 52.534 15.622 52.4283 15.4339 52.2402C15.2458 52.0521 15.1401 51.797 15.1401 51.531C15.1401 51.265 15.2458 51.0098 15.4339 50.8218C15.622 50.6337 15.8771 50.528 16.1431 50.528H37.7541C37.8858 50.5276 38.0164 50.5532 38.1382 50.6034C38.26 50.6536 38.3706 50.7274 38.4639 50.8205C38.5571 50.9136 38.6309 51.0242 38.6813 51.146C38.7316 51.2677 38.7574 51.3982 38.7571 51.53V51.534ZM33.7371 49.162H20.1591C21.0863 48.4808 21.8552 47.6073 22.4133 46.6011C22.9713 45.595 23.3052 44.4802 23.3921 43.333H30.5051C30.5918 44.4801 30.9255 45.595 31.4834 46.6011C32.0413 47.6072 32.81 48.4808 33.7371 49.162ZM48.2571 41.962H5.63909C5.56754 41.9609 5.49921 41.9321 5.44861 41.8815C5.39801 41.8309 5.36913 41.7625 5.3681 41.691V37.875H48.5301V41.688C48.5288 41.7596 48.4997 41.828 48.4489 41.8785C48.3982 41.9291 48.3297 41.9579 48.2581 41.959L48.2571 41.962ZM48.5291 36.509H5.37009V9.64198C5.37087 9.57025 5.39964 9.50167 5.45026 9.45085C5.50089 9.40004 5.56937 9.37102 5.64109 9.36998H26.7311C26.6311 9.46298 26.5311 9.55698 26.4371 9.65598C24.1585 11.9217 22.8466 14.9824 22.7771 18.195L20.1151 14.845C20.0124 14.7164 19.867 14.629 19.7053 14.5987C19.5435 14.5684 19.3763 14.5973 19.2341 14.68L12.0501 18.875C11.9668 18.9174 11.8931 18.9764 11.8335 19.0484C11.7738 19.1203 11.7295 19.2037 11.7032 19.2934C11.677 19.3831 11.6693 19.4772 11.6807 19.5699C11.6921 19.6627 11.7224 19.7521 11.7696 19.8328C11.8168 19.9134 11.88 19.9836 11.9553 20.0389C12.0306 20.0943 12.1164 20.1336 12.2075 20.1546C12.2985 20.1756 12.3929 20.1778 12.4849 20.161C12.5768 20.1442 12.6643 20.1088 12.7421 20.057L19.4121 16.164L22.9501 20.617C23.2575 22.4025 23.9484 24.1001 24.975 25.5929C26.0017 27.0856 27.3398 28.3381 28.8971 29.264V33.692H27.6321V30.359C27.6321 30.177 27.5598 30.0025 27.4312 29.8739C27.3025 29.7452 27.128 29.673 26.9461 29.673H23.4871C23.3052 29.673 23.1307 29.7452 23.002 29.8739C22.8734 30.0025 22.8011 30.177 22.8011 30.359V33.688H21.5361V20.824C21.5361 20.642 21.4638 20.4676 21.3352 20.3389C21.2065 20.2103 21.032 20.138 20.8501 20.138H17.3861C17.2042 20.138 17.0297 20.2103 16.901 20.3389C16.7724 20.4676 16.7001 20.642 16.7001 20.824V33.688H15.4381V25.282C15.4381 25.1 15.3658 24.9256 15.2372 24.7969C15.1085 24.6683 14.934 24.596 14.7521 24.596H11.2881C11.198 24.596 11.1088 24.6137 11.0256 24.6482C10.9423 24.6827 10.8667 24.7332 10.803 24.7969C10.7393 24.8606 10.6888 24.9362 10.6543 25.0195C10.6198 25.1027 10.6021 25.1919 10.6021 25.282V33.688H9.2431L9.33409 12.752C9.33799 12.6598 9.32326 12.5677 9.29076 12.4814C9.25827 12.395 9.20868 12.3161 9.14497 12.2493C9.08126 12.1826 9.00474 12.1294 8.91998 12.0929C8.83523 12.0564 8.74399 12.0374 8.65171 12.037C8.55943 12.0366 8.46803 12.0548 8.38296 12.0905C8.29789 12.1263 8.2209 12.1788 8.15661 12.245C8.09232 12.3112 8.04204 12.3897 8.00879 12.4758C7.97554 12.5619 7.96 12.6538 7.9631 12.746L7.86909 34.37C7.86909 34.4601 7.88684 34.5493 7.92131 34.6325C7.95579 34.7157 8.00631 34.7914 8.07001 34.8551C8.13372 34.9188 8.20934 34.9693 8.29257 35.0038C8.3758 35.0382 8.465 35.056 8.55509 35.056H45.0551C45.237 35.056 45.4115 34.9837 45.5402 34.8551C45.6688 34.7264 45.7411 34.5519 45.7411 34.37C45.7411 34.188 45.6688 34.0135 45.5402 33.8849C45.4115 33.7562 45.237 33.684 45.0551 33.684H39.8911V30.131C40.3682 29.9433 40.8331 29.7258 41.2831 29.48L41.7721 29.969C42.0239 30.2224 42.3234 30.4235 42.6532 30.5608C42.9831 30.6981 43.3368 30.7689 43.6941 30.769C43.7512 30.7702 43.8083 30.7681 43.8651 30.763L48.5261 35.424L48.5291 36.509ZM24.1691 33.694V31.043H26.2641V33.688L24.1691 33.694ZM20.1691 33.694H18.0691V21.508H20.1631L20.1691 33.694ZM14.0691 33.694H11.9691V25.967H14.0631L14.0691 33.694ZM53.7091 36.932C53.4789 37.1618 53.1669 37.2908 52.8416 37.2908C52.5163 37.2908 52.2043 37.1618 51.9741 36.932L45.2961 30.245C45.411 30.161 45.5193 30.0684 45.6201 29.968L46.7511 28.835C46.852 28.7343 46.9446 28.6256 47.0281 28.51L53.7121 35.192C53.9419 35.4222 54.0709 35.7342 54.0709 36.0595C54.0709 36.3848 53.9419 36.6967 53.7121 36.927L53.7091 36.932Z" fill="#00227B" stroke="white" stroke-width="0.4"/>
</g>
</g>
<defs>
<clipPath id="clip0_247_8136">
<rect width="60" height="60" fill="white"/>
</clipPath>
</defs>
</svg>
