<svg width="62" height="63" viewBox="0 0 62 63" fill="none" xmlns="http://www.w3.org/2000/svg">
<path d="M56.3375 23.9C55.6295 23.885 54.9264 24.0195 54.2727 24.295C53.6191 24.5705 53.0295 24.9809 52.5415 25.5L48.8444 27.7H42.1422V25.2C42.1422 19.6 37.0413 15 30.6356 15C24.2299 15 19.139 19.5 19.139 25.1C19.1674 25.429 19.3166 25.7352 19.5573 25.9583C19.7979 26.1814 20.1125 26.3052 20.4389 26.3052C20.7653 26.3052 21.0799 26.1814 21.3206 25.9583C21.5612 25.7352 21.7104 25.429 21.7388 25.1C21.7388 20.9 25.7424 17.5 30.6356 17.5C35.5289 17.5 39.5324 20.9 39.5324 25.1V28.6C38.9583 29.089 38.5449 29.7431 38.3472 30.4754C38.1494 31.2078 38.1766 31.9837 38.4253 32.7H22.7372C22.8587 32.2772 22.9251 31.8402 22.935 31.4C22.9337 30.898 22.8343 30.4012 22.6426 29.9381C22.4509 29.475 22.1706 29.0549 21.8179 28.7017C21.4651 28.3486 21.0469 28.0695 20.5871 27.8804C20.1274 27.6913 19.6353 27.5961 19.139 27.6H12.5455L8.83848 25.4C7.79748 24.3712 6.39898 23.7967 4.94365 23.8C4.28617 23.7999 3.6353 23.9324 3.02909 24.1899C2.42289 24.4474 1.87354 24.8247 1.41326 25.2996C0.952972 25.7746 0.590958 26.3376 0.34846 26.9559C0.105961 27.5741 -0.0121609 28.235 0.00098878 28.9V44.2C0.0140288 45.5589 0.557527 46.8575 1.51299 47.8129C2.46845 48.7682 3.75846 49.3027 5.10185 49.3H12.2983L20.602 61.3C20.7003 61.4397 20.825 61.5583 20.9688 61.649C21.1126 61.7398 21.2727 61.8008 21.4399 61.8287C21.6071 61.8566 21.7781 61.8507 21.9431 61.8115C22.1081 61.7722 22.2638 61.7004 22.4012 61.6C22.5408 61.5042 22.6597 61.3808 22.7508 61.2371C22.8418 61.0935 22.903 60.9326 22.9307 60.7643C22.9585 60.596 22.9521 60.4237 22.912 60.2579C22.872 60.0922 22.7991 59.9364 22.6977 59.8L13.9986 47.3C13.8841 47.1442 13.7349 47.0177 13.5632 46.9309C13.3915 46.844 13.2021 46.7992 13.0101 46.8H5.10185C4.77447 46.8053 4.44929 46.7445 4.14542 46.6211C3.84155 46.4978 3.56506 46.3143 3.33216 46.0815C3.09925 45.8487 2.9146 45.5712 2.78902 45.2653C2.66344 44.9594 2.59948 44.6312 2.60084 44.3V29C2.59454 28.6588 2.65852 28.32 2.78866 28.0051C2.9188 27.6903 3.11226 27.4062 3.35678 27.1711C3.60129 26.936 3.89151 26.7549 4.20895 26.6393C4.52639 26.5238 4.86413 26.4764 5.20068 26.5C5.55052 26.4894 5.89757 26.5659 6.2113 26.7228C6.52503 26.8798 6.79582 27.1123 6.99982 27.4L7.29637 27.7L11.4976 30.2C11.7118 30.3239 11.9529 30.3926 12.1995 30.4H19.1192C19.4601 30.4 19.7869 30.537 20.028 30.7808C20.269 31.0246 20.4043 31.3552 20.4043 31.7C20.4043 32.0448 20.269 32.3754 20.028 32.6192C19.7869 32.863 19.4601 33 19.1192 33H11.5174C11.2759 32.9804 11.0407 32.9124 10.8254 32.8L9.61946 32.1C9.41746 32.0016 9.19612 31.9505 8.97194 31.9505C8.74775 31.9505 8.52648 32.0016 8.32448 32.1C8.13613 32.2123 7.98089 32.3735 7.87486 32.5669C7.76883 32.7603 7.71584 32.9789 7.72143 33.2V43.2C7.72907 43.5441 7.86826 43.8718 8.10975 44.1142C8.35124 44.3566 8.67622 44.4949 9.01641 44.5H14.1173C14.4127 44.4899 14.7003 44.5976 14.918 44.8L24.2991 58C24.4993 58.2799 24.8007 58.4684 25.1377 58.5246C25.4746 58.5808 25.8199 58.5001 26.0983 58.3C26.2375 58.2041 26.3563 58.0808 26.4474 57.9375C26.5386 57.7941 26.6003 57.6337 26.6289 57.4658C26.6575 57.2978 26.6524 57.1257 26.6139 56.9598C26.5754 56.7939 26.5042 56.6375 26.4047 56.5C16.2031 42.1 16.9049 43 16.6973 42.8C15.9731 42.0927 15.0053 41.6981 13.9986 41.7H10.2027V35.1C10.624 35.2228 11.0593 35.29 11.4976 35.3H29.2912V60.8C29.3196 61.129 29.4689 61.4352 29.7095 61.6583C29.9502 61.8815 30.2647 62.0052 30.5911 62.0052C30.9176 62.0052 31.2322 61.8815 31.4728 61.6583C31.7135 61.4352 31.8627 61.129 31.8911 60.8V35.3H49.6847C50.1223 35.2824 50.5567 35.2153 50.9796 35.1V41.7H47.1837C46.1771 41.6981 45.2091 42.0927 44.485 42.8C44.3861 42.9 44.9793 42.1 34.8765 56.2C34.7769 56.3375 34.7058 56.4939 34.6673 56.6598C34.6288 56.8257 34.6236 56.9978 34.6522 57.1658C34.6808 57.3337 34.7425 57.4941 34.8337 57.6375C34.9249 57.7808 35.0436 57.9041 35.1829 58C35.4613 58.2001 35.8065 58.2808 36.1435 58.2246C36.4805 58.1684 36.7818 57.9799 36.982 57.7L46.383 44.5C46.6007 44.2976 46.8882 44.1899 47.1837 44.2H52.2845C52.6247 44.1949 52.9497 44.0566 53.1912 43.8142C53.4327 43.5718 53.5718 43.2441 53.5795 42.9V32.9C53.5967 32.677 53.5487 32.4538 53.4415 32.2583C53.3343 32.0627 53.1726 31.9033 52.9765 31.8C52.7745 31.7016 52.5532 31.6505 52.329 31.6505C52.1048 31.6505 51.8835 31.7016 51.6815 31.8L50.4755 32.5C50.2654 32.6251 50.0273 32.6939 49.7836 32.7H42.1817C41.8409 32.7 41.514 32.563 41.273 32.3192C41.032 32.0754 40.8966 31.7448 40.8966 31.4C40.8966 31.0552 41.032 30.7246 41.273 30.4808C41.514 30.237 41.8409 30.1 42.1817 30.1H49.1015C49.3456 30.0779 49.5836 30.0101 49.8033 29.9L54.0045 27.4L54.3011 27.1C54.5442 26.8112 54.8476 26.5806 55.1895 26.425C55.5315 26.2693 55.9033 26.1925 56.2782 26.2C56.9295 26.222 57.5488 26.4915 58.0123 26.9549C58.4759 27.4183 58.7497 28.0414 58.7792 28.7V44C58.7805 44.3312 58.7166 44.6594 58.591 44.9653C58.4654 45.2712 58.2808 45.5487 58.0479 45.7815C57.815 46.0143 57.5385 46.1978 57.2346 46.3211C56.9307 46.4445 56.6055 46.5053 56.2782 46.5H48.3699C48.1781 46.5 47.9889 46.5452 47.8173 46.632C47.6457 46.7188 47.4965 46.8448 47.3814 47L38.6823 59.5C38.5809 59.6364 38.508 59.7922 38.468 59.9579C38.4279 60.1237 38.4215 60.296 38.4493 60.4643C38.477 60.6326 38.5383 60.7935 38.6293 60.9371C38.7203 61.0808 38.8392 61.2042 38.9788 61.3C39.1162 61.4004 39.2719 61.4722 39.4369 61.5115C39.6019 61.5507 39.7729 61.5566 39.9402 61.5287C40.1074 61.5008 40.2675 61.4398 40.4113 61.349C40.555 61.2583 40.6797 61.1397 40.778 61L49.0817 49H56.0805C57.4239 49.0027 58.7138 48.4682 59.6693 47.5128C60.6248 46.5575 61.1683 45.2589 61.1813 43.9V29C61.1944 28.3434 61.0795 27.6905 60.8432 27.0788C60.6068 26.4671 60.2537 25.9085 59.8039 25.4349C59.354 24.9613 58.8164 24.582 58.2216 24.3186C57.6269 24.0552 56.9866 23.913 56.3375 23.9Z" fill="#00227B"/>
<path d="M54.8447 22.6C56.0925 22.5843 57.3078 22.1955 58.3377 21.4828C59.3677 20.77 60.1663 19.765 60.633 18.5943C61.0998 17.4235 61.2138 16.1393 60.9608 14.9031C60.7079 13.667 60.0991 12.5341 59.2113 11.647C58.3234 10.76 57.1961 10.1583 55.971 9.91779C54.746 9.67726 53.478 9.80858 52.3266 10.2952C51.1752 10.7819 50.1917 11.6022 49.5 12.6528C48.8082 13.7035 48.4391 14.9377 48.439 16.2C48.4598 17.9047 49.1439 19.5325 50.3429 20.7305C51.542 21.9284 53.1594 22.6002 54.8447 22.6ZM54.8447 12.4C55.5855 12.4099 56.3068 12.6411 56.918 13.0646C57.5292 13.4881 58.003 14.085 58.2797 14.7802C58.5565 15.4753 58.6239 16.2377 58.4734 16.9715C58.3229 17.7054 57.9613 18.3778 57.434 18.9042C56.9068 19.4307 56.2374 19.7876 55.5101 19.9303C54.7828 20.0729 54.03 19.9948 53.3465 19.7057C52.663 19.4167 52.0793 18.9297 51.6687 18.3059C51.258 17.6821 51.0389 16.9495 51.0388 16.2C51.0414 15.6975 51.142 15.2005 51.3348 14.7374C51.5275 14.2743 51.8088 13.8542 52.1623 13.5012C52.5159 13.1482 52.9347 12.8692 53.395 12.6803C53.8553 12.4913 54.348 12.3961 54.8447 12.4Z" fill="#00227B"/>
<path d="M6.43631 22.6C7.68456 22.5862 8.90087 22.1992 9.93213 21.4876C10.9634 20.776 11.7635 19.7717 12.2318 18.6011C12.7 17.4305 12.8155 16.1459 12.5636 14.9091C12.3117 13.6723 11.7038 12.5385 10.8163 11.6504C9.9288 10.7623 8.80148 10.1597 7.57616 9.91837C6.35084 9.67705 5.08235 9.8078 3.93034 10.2942C2.77833 10.7806 1.79429 11.6009 1.10213 12.6518C0.409961 13.7027 0.040602 14.9372 0.0405273 16.2C0.063856 17.9022 0.747312 19.5269 1.94368 20.7241C3.14005 21.9212 4.75352 22.595 6.43631 22.6ZM6.43631 12.4C7.17752 12.4079 7.89987 12.6375 8.51238 13.0598C9.1249 13.4821 9.60023 14.0783 9.87849 14.7733C10.1568 15.4684 10.2255 16.2311 10.0762 16.9656C9.92678 17.7001 9.56594 18.3734 9.03905 18.9009C8.51216 19.4283 7.84277 19.7863 7.1152 19.9297C6.38762 20.0731 5.63435 19.9955 4.95025 19.7068C4.26615 19.418 3.6818 18.931 3.27076 18.307C2.85972 17.683 2.64042 16.9499 2.64037 16.2C2.64296 15.6984 2.74319 15.2022 2.93535 14.7397C3.12752 14.2772 3.40783 13.8576 3.76032 13.5047C4.11281 13.1519 4.53056 12.8727 4.98971 12.6831C5.44885 12.4936 5.94041 12.3974 6.43631 12.4Z" fill="#00227B"/>
<path d="M30.6355 13.7C31.8838 13.6862 33.1001 13.2991 34.1314 12.5875C35.1626 11.876 35.9628 10.8717 36.431 9.70107C36.8993 8.53047 37.0147 7.2459 36.7629 6.00907C36.511 4.77224 35.903 3.63842 35.0156 2.75036C34.1281 1.86229 33.0007 1.25967 31.7754 1.01835C30.5501 0.777021 29.2816 0.90778 28.1296 1.39417C26.9775 1.88056 25.9935 2.70084 25.3013 3.75174C24.6092 4.80265 24.2398 6.0372 24.2397 7.30001C24.2605 9.00298 24.9432 10.6292 26.1401 11.8269C27.337 13.0246 28.952 13.6975 30.6355 13.7ZM30.6355 3.50001C31.3767 3.5079 32.0991 3.73746 32.7116 4.15978C33.3241 4.5821 33.7995 5.17829 34.0777 5.87331C34.356 6.56833 34.4247 7.33108 34.2754 8.06556C34.126 8.80003 33.7652 9.47338 33.2383 10.0008C32.7114 10.5283 32.042 10.8862 31.3144 11.0297C30.5868 11.1731 29.8336 11.0955 29.1495 10.8068C28.4654 10.518 27.8811 10.031 27.47 9.40696C27.059 8.78295 26.8396 8.04987 26.8396 7.30001C26.8422 6.79836 26.9424 6.30213 27.1346 5.83967C27.3267 5.3772 27.6071 4.95756 27.9596 4.6047C28.3121 4.25183 28.7298 3.97266 29.1889 3.78312C29.6481 3.59357 30.1396 3.49737 30.6355 3.50001Z" fill="#00227B"/>
</svg>
