<svg width="64" height="63" viewBox="0 0 64 63" fill="none" xmlns="http://www.w3.org/2000/svg">
<path d="M0 39.4369C2.15992 39.3379 3.98754 38.5128 5.48287 36.9618C6.97819 35.4107 7.74247 33.5626 7.74247 31.4175C7.74247 33.5626 8.47352 35.4107 9.96885 36.9618C11.4642 38.5128 13.2918 39.3379 15.4517 39.4369C13.2918 39.5359 11.4642 40.3609 9.96885 41.912C9.2459 42.6432 8.67672 43.51 8.29449 44.4619C7.91225 45.4137 7.7246 46.4316 7.74247 47.4563C7.74247 45.3112 7.01142 43.4631 5.48287 41.912C3.98754 40.3609 2.15992 39.5359 0 39.4369ZM7.74247 15.6757C11.9294 15.4777 15.4849 13.8607 18.4091 10.8245C21.3333 7.78837 22.7954 4.1912 22.7954 0C22.7954 4.1912 24.2575 7.78837 27.1817 10.8245C30.1059 13.8607 33.6615 15.4447 37.8816 15.6757C35.1236 15.8078 32.5981 16.5668 30.2721 18.0189C27.9792 19.4379 26.1516 21.352 24.7892 23.7281C23.46 26.1042 22.7954 28.6454 22.7954 31.4175C22.7954 27.2263 21.3333 23.5961 18.4091 20.56C15.4849 17.4908 11.9294 15.8738 7.74247 15.6757ZM18.7747 51.2184C21.9315 51.0864 24.6231 49.8654 26.8162 47.5883C29.0093 45.3112 30.1059 42.605 30.1059 39.4369C30.1059 42.605 31.2025 45.3112 33.3956 47.5883C35.5888 49.8654 38.2471 51.0864 41.4039 51.2184C38.2471 51.3505 35.5888 52.5715 33.3956 54.8486C31.2025 57.1257 30.1059 59.8319 30.1059 63C30.1059 59.8319 29.0093 57.1257 26.8162 54.8486C24.7201 52.6362 21.8313 51.3322 18.7747 51.2184ZM41.4039 35.5757C44.5607 35.4437 47.2191 34.2226 49.4123 31.9455C51.6054 29.6684 52.6687 26.9623 52.6687 23.7611C52.6687 26.9293 53.7653 29.6354 55.9585 31.9125C58.1516 34.1896 60.8432 35.4107 64 35.5427C60.8432 35.6747 58.1516 36.8958 55.9585 39.1729C53.7653 41.45 52.6687 44.1561 52.6687 47.3243C52.6687 44.1561 51.5722 41.45 49.4123 39.1729C47.2191 36.9288 44.5607 35.7077 41.4039 35.5757Z" fill="#F3EEBF"/>
</svg>

