<svg width="50" height="50" viewBox="0 0 50 50" fill="none" xmlns="http://www.w3.org/2000/svg">
<g clip-path="url(#clip0_359_3995)">
<path d="M32.0312 4.6875H23.4375C23.4044 3.53854 22.9632 2.43892 22.193 1.58569C21.4228 0.73246 20.374 0.181396 19.2344 0.0312485C18.5822 -0.0353502 17.9233 0.0353687 17.3001 0.238852C16.6769 0.442335 16.1033 0.774071 15.6161 1.2127C15.1289 1.65133 14.7389 2.18713 14.4714 2.7856C14.2038 3.38407 14.0645 4.03194 14.0625 4.6875H5.46875C4.43286 4.68788 3.43951 5.09955 2.70703 5.83203C1.97455 6.56451 1.56288 7.55786 1.5625 8.59375V46.0938C1.56288 47.1296 1.97455 48.123 2.70703 48.8555C3.43951 49.588 4.43286 49.9996 5.46875 50H32.0312C33.0671 49.9996 34.0605 49.588 34.793 48.8555C35.5255 48.123 35.9371 47.1296 35.9375 46.0938V8.59375C35.9371 7.55786 35.5255 6.56451 34.793 5.83203C34.0605 5.09955 33.0671 4.68788 32.0312 4.6875ZM12.5 9.375V7.03125C12.499 6.92837 12.5185 6.82632 12.5574 6.73107C12.5963 6.63583 12.6538 6.5493 12.7265 6.47655C12.7993 6.4038 12.8858 6.34629 12.9811 6.30739C13.0763 6.26849 13.1784 6.24898 13.2812 6.25H14.8438C14.9466 6.25101 15.0487 6.2315 15.1439 6.1926C15.2392 6.15369 15.3257 6.09619 15.3984 6.02344C15.4712 5.95069 15.5287 5.86416 15.5676 5.76892C15.6065 5.67367 15.626 5.57163 15.625 5.46875V4.6875C15.6262 4.25145 15.7185 3.82047 15.8961 3.42222C16.0737 3.02397 16.3326 2.66727 16.6562 2.375C16.9783 2.07501 17.3617 1.84842 17.7798 1.71085C18.1979 1.57328 18.6408 1.52799 19.0781 1.57812C19.8326 1.68824 20.5245 2.05992 21.0328 2.62825C21.5412 3.19657 21.8337 3.92542 21.8594 4.6875C21.8729 4.75958 21.8782 4.83297 21.875 4.90625V5.46875C21.874 5.57163 21.8935 5.67367 21.9324 5.76892C21.9713 5.86416 22.0288 5.95069 22.1016 6.02344C22.1743 6.09619 22.2608 6.15369 22.3561 6.1926C22.4513 6.2315 22.5534 6.25101 22.6562 6.25H24.2188C24.3216 6.24898 24.4237 6.26849 24.5189 6.30739C24.6142 6.34629 24.7007 6.4038 24.7735 6.47655C24.8462 6.5493 24.9037 6.63583 24.9426 6.73107C24.9815 6.82632 25.001 6.92837 25 7.03125V10.1562C25.001 10.2591 24.9815 10.3612 24.9426 10.4564C24.9037 10.5517 24.8462 10.6382 24.7734 10.7109C24.7007 10.7837 24.6142 10.8412 24.5189 10.8801C24.4237 10.919 24.3216 10.9385 24.2188 10.9375H13.2812C13.1784 10.9385 13.0763 10.919 12.9811 10.8801C12.8858 10.8412 12.7993 10.7837 12.7266 10.7109C12.6538 10.6382 12.5963 10.5517 12.5574 10.4564C12.5185 10.3612 12.499 10.2591 12.5 10.1562V9.375ZM13.2812 12.5H24.2188C24.5267 12.5004 24.8316 12.4401 25.1162 12.3224C25.4007 12.2048 25.6592 12.0322 25.8769 11.8144C26.0947 11.5967 26.2673 11.3382 26.3849 11.0536C26.5026 10.7691 26.5629 10.4641 26.5625 10.1562V9.375H30.4688C30.5716 9.37398 30.6737 9.39349 30.7689 9.43239C30.8642 9.47129 30.9507 9.5288 31.0235 9.60155C31.0962 9.6743 31.1537 9.76083 31.1926 9.85607C31.2315 9.95132 31.251 10.0534 31.25 10.1562V39.0625H27.3438C26.7224 39.0632 26.1266 39.3103 25.6872 39.7497C25.2478 40.1891 25.0007 40.7849 25 41.4062V45.3125H7.03125C6.92837 45.3135 6.82633 45.294 6.73108 45.2551C6.63584 45.2162 6.54931 45.1587 6.47656 45.0859C6.40381 45.0132 6.3463 44.9267 6.3074 44.8314C6.2685 44.7362 6.24899 44.6341 6.25 44.5312V10.1562C6.24898 10.0534 6.26849 9.95132 6.30739 9.85607C6.34629 9.76083 6.4038 9.6743 6.47655 9.60155C6.5493 9.5288 6.63583 9.47129 6.73107 9.43239C6.82632 9.39349 6.92837 9.37398 7.03125 9.375H10.9375V10.1562C10.9371 10.4641 10.9974 10.7691 11.1151 11.0536C11.2327 11.3382 11.4053 11.5967 11.6231 11.8144C11.8408 12.0322 12.0993 12.2048 12.3838 12.3224C12.6684 12.4401 12.9733 12.5004 13.2812 12.5ZM30.1453 40.625L26.5625 44.2078V41.4062C26.5626 41.1991 26.645 41.0005 26.7915 40.854C26.938 40.7075 27.1366 40.6251 27.3438 40.625H30.1453ZM34.375 46.0938C34.3754 46.4016 34.3151 46.7066 34.1974 46.9911C34.0798 47.2757 33.9072 47.5342 33.6894 47.7519C33.4717 47.9697 33.2132 48.1423 32.9287 48.2599C32.6441 48.3776 32.3392 48.4379 32.0312 48.4375H5.46875C5.16085 48.4379 4.85589 48.3776 4.57135 48.2599C4.28681 48.1423 4.02827 47.9697 3.81055 47.7519C3.59283 47.5342 3.42021 47.2757 3.30257 46.9911C3.18493 46.7066 3.12459 46.4016 3.125 46.0938V8.59375C3.12459 8.28585 3.18493 7.98089 3.30257 7.69635C3.42021 7.41181 3.59283 7.15327 3.81055 6.93555C4.02827 6.71783 4.28681 6.54521 4.57135 6.42757C4.85589 6.30993 5.16085 6.24959 5.46875 6.25H11.0781C10.9835 6.49953 10.9358 6.76439 10.9375 7.03125V7.8125H7.03125C6.72335 7.81209 6.41839 7.87243 6.13385 7.99007C5.84931 8.10771 5.59077 8.28033 5.37305 8.49805C5.15533 8.71577 4.98271 8.97431 4.86507 9.25885C4.74743 9.54339 4.68709 9.84835 4.6875 10.1562V44.5312C4.68709 44.8391 4.74743 45.1441 4.86507 45.4286C4.98271 45.7132 5.15533 45.9717 5.37305 46.1894C5.59077 46.4072 5.84931 46.5798 6.13385 46.6974C6.41839 46.8151 6.72335 46.8754 7.03125 46.875H25.7812C25.883 46.875 25.9837 46.8551 26.0778 46.8164C26.179 46.7756 26.2703 46.7134 26.3455 46.6343L32.5719 40.4078C32.672 40.3068 32.7418 40.1798 32.7734 40.0412C32.782 40.0095 32.7884 39.9773 32.7925 39.9447C32.8015 39.9116 32.8082 39.8778 32.8125 39.8438V10.1562C32.8129 9.84835 32.7526 9.54339 32.6349 9.25885C32.5173 8.97431 32.3447 8.71577 32.1269 8.49805C31.9092 8.28033 31.6507 8.10771 31.3662 7.99007C31.0816 7.87243 30.7767 7.81209 30.4688 7.8125H26.5625V7.03125C26.5642 6.76439 26.5165 6.49953 26.4219 6.25H32.0312C32.3392 6.24959 32.6441 6.30993 32.9287 6.42757C33.2132 6.54521 33.4717 6.71783 33.6894 6.93555C33.9072 7.15327 34.0798 7.41181 34.1974 7.69635C34.3151 7.98089 34.3754 8.28585 34.375 8.59375V46.0938ZM18.75 6.25C18.9045 6.25 19.0556 6.20418 19.184 6.11833C19.3125 6.03249 19.4126 5.91047 19.4718 5.76772C19.5309 5.62497 19.5464 5.46788 19.5162 5.31633C19.4861 5.16479 19.4117 5.02558 19.3024 4.91632C19.1932 4.80706 19.054 4.73265 18.9024 4.70251C18.7509 4.67237 18.5938 4.68784 18.451 4.74697C18.3083 4.8061 18.1863 4.90623 18.1004 5.03471C18.0146 5.16319 17.9688 5.31423 17.9688 5.46875C17.9677 5.57163 17.9872 5.67367 18.0262 5.76892C18.0651 5.86416 18.1226 5.95069 18.1953 6.02344C18.2681 6.09619 18.3546 6.15369 18.4498 6.1926C18.5451 6.2315 18.6471 6.25101 18.75 6.25ZM9.375 18.75C9.375 19.3681 9.55828 19.9723 9.90166 20.4862C10.245 21.0001 10.7331 21.4006 11.3041 21.6371C11.8751 21.8736 12.5035 21.9355 13.1097 21.815C13.7158 21.6944 14.2727 21.3967 14.7097 20.9597C15.1467 20.5227 15.4444 19.9658 15.565 19.3597C15.6855 18.7535 15.6236 18.1251 15.3871 17.5541C15.1506 16.9831 14.7501 16.495 14.2362 16.1517C13.7223 15.8083 13.1181 15.625 12.5 15.625C11.6719 15.6274 10.8785 15.9575 10.293 16.543C9.70746 17.1285 9.37744 17.9219 9.375 18.75ZM12.5 17.1875C12.809 17.1875 13.1111 17.2791 13.3681 17.4508C13.625 17.6225 13.8253 17.8665 13.9436 18.1521C14.0618 18.4376 14.0928 18.7517 14.0325 19.0548C13.9722 19.3579 13.8234 19.6363 13.6049 19.8549C13.3863 20.0734 13.1079 20.2222 12.8048 20.2825C12.5017 20.3428 12.1876 20.3118 11.9021 20.1936C11.6165 20.0753 11.3725 19.875 11.2008 19.6181C11.0291 19.3611 10.9375 19.059 10.9375 18.75C10.9387 18.336 11.1038 17.9393 11.3965 17.6465C11.6893 17.3538 12.086 17.1887 12.5 17.1875ZM12.5 34.375C11.8819 34.375 11.2777 34.5583 10.7638 34.9017C10.2499 35.245 9.8494 35.7331 9.61288 36.3041C9.37635 36.8751 9.31447 37.5035 9.43505 38.1097C9.55562 38.7158 9.85325 39.2727 10.2903 39.7097C10.7273 40.1467 11.2842 40.4444 11.8903 40.565C12.4965 40.6855 13.1249 40.6236 13.6959 40.3871C14.2669 40.1506 14.755 39.7501 15.0983 39.2362C15.4417 38.7223 15.625 38.1181 15.625 37.5C15.6242 36.6715 15.2947 35.8771 14.7088 35.2912C14.1229 34.7053 13.3285 34.3758 12.5 34.375ZM12.5 39.0625C12.191 39.0625 11.8889 38.9709 11.6319 38.7992C11.375 38.6275 11.1747 38.3834 11.0564 38.0979C10.9382 37.8124 10.9072 37.4983 10.9675 37.1952C11.0278 36.8921 11.1766 36.6137 11.3951 36.3951C11.6137 36.1766 11.8921 36.0278 12.1952 35.9675C12.4983 35.9072 12.8124 35.9382 13.0979 36.0564C13.3835 36.1747 13.6275 36.375 13.7992 36.6319C13.9709 36.8889 14.0625 37.191 14.0625 37.5C14.062 37.9142 13.8972 38.3113 13.6043 38.6043C13.3114 38.8972 12.9142 39.062 12.5 39.0625ZM12.5 25C11.8819 25 11.2777 25.1833 10.7638 25.5267C10.2499 25.87 9.8494 26.3581 9.61288 26.9291C9.37635 27.5001 9.31447 28.1285 9.43505 28.7347C9.55562 29.3408 9.85325 29.8977 10.2903 30.3347C10.7273 30.7717 11.2842 31.0694 11.8903 31.19C12.4965 31.3105 13.1249 31.2486 13.6959 31.0121C14.2669 30.7756 14.755 30.3751 15.0983 29.8612C15.4417 29.3473 15.625 28.7431 15.625 28.125C15.6242 27.2965 15.2947 26.5021 14.7088 25.9162C14.1229 25.3303 13.3285 25.0008 12.5 25ZM12.5 29.6875C12.191 29.6875 11.8889 29.5959 11.6319 29.4242C11.375 29.2525 11.1747 29.0085 11.0564 28.7229C10.9382 28.4374 10.9072 28.1233 10.9675 27.8202C11.0278 27.5171 11.1766 27.2387 11.3951 27.0201C11.6137 26.8016 11.8921 26.6528 12.1952 26.5925C12.4983 26.5322 12.8124 26.5632 13.0979 26.6814C13.3835 26.7997 13.6275 27 13.7992 27.2569C13.9709 27.5139 14.0625 27.816 14.0625 28.125C14.062 28.5392 13.8972 28.9363 13.6043 29.2293C13.3114 29.5222 12.9142 29.687 12.5 29.6875ZM19.5312 17.1875H27.3438C27.551 17.1875 27.7497 17.1052 27.8962 16.9587C28.0427 16.8122 28.125 16.6134 28.125 16.4062C28.125 16.199 28.0427 16.0003 27.8962 15.8538C27.7497 15.7073 27.551 15.625 27.3438 15.625H19.5312C19.324 15.625 19.1253 15.7073 18.9788 15.8538C18.8323 16.0003 18.75 16.199 18.75 16.4062C18.75 16.6134 18.8323 16.8122 18.9788 16.9587C19.1253 17.1052 19.324 17.1875 19.5312 17.1875ZM19.5312 21.875H22.6562C22.8635 21.875 23.0622 21.7927 23.2087 21.6462C23.3552 21.4997 23.4375 21.3009 23.4375 21.0938C23.4375 20.8865 23.3552 20.6878 23.2087 20.5413C23.0622 20.3948 22.8635 20.3125 22.6562 20.3125H19.5312C19.324 20.3125 19.1253 20.3948 18.9788 20.5413C18.8323 20.6878 18.75 20.8865 18.75 21.0938C18.75 21.3009 18.8323 21.4997 18.9788 21.6462C19.1253 21.7927 19.324 21.875 19.5312 21.875ZM19.5312 26.5625H27.3438C27.551 26.5625 27.7497 26.4802 27.8962 26.3337C28.0427 26.1872 28.125 25.9884 28.125 25.7812C28.125 25.574 28.0427 25.3753 27.8962 25.2288C27.7497 25.0823 27.551 25 27.3438 25H19.5312C19.324 25 19.1253 25.0823 18.9788 25.2288C18.8323 25.3753 18.75 25.574 18.75 25.7812C18.75 25.9884 18.8323 26.1872 18.9788 26.3337C19.1253 26.4802 19.324 26.5625 19.5312 26.5625ZM19.5312 31.25H22.6562C22.8635 31.25 23.0622 31.1677 23.2087 31.0212C23.3552 30.8747 23.4375 30.6759 23.4375 30.4688C23.4375 30.2615 23.3552 30.0628 23.2087 29.9163C23.0622 29.7698 22.8635 29.6875 22.6562 29.6875H19.5312C19.324 29.6875 19.1253 29.7698 18.9788 29.9163C18.8323 30.0628 18.75 30.2615 18.75 30.4688C18.75 30.6759 18.8323 30.8747 18.9788 31.0212C19.1253 31.1677 19.324 31.25 19.5312 31.25ZM19.5312 35.9375H27.3438C27.551 35.9375 27.7497 35.8552 27.8962 35.7087C28.0427 35.5622 28.125 35.3634 28.125 35.1562C28.125 34.949 28.0427 34.7503 27.8962 34.6038C27.7497 34.4573 27.551 34.375 27.3438 34.375H19.5312C19.324 34.375 19.1253 34.4573 18.9788 34.6038C18.8323 34.7503 18.75 34.949 18.75 35.1562C18.75 35.3634 18.8323 35.5622 18.9788 35.7087C19.1253 35.8552 19.324 35.9375 19.5312 35.9375ZM19.5312 40.625H22.6562C22.8635 40.625 23.0622 40.5427 23.2087 40.3962C23.3552 40.2497 23.4375 40.0509 23.4375 39.8438C23.4375 39.6365 23.3552 39.4378 23.2087 39.2913C23.0622 39.1448 22.8635 39.0625 22.6562 39.0625H19.5312C19.324 39.0625 19.1253 39.1448 18.9788 39.2913C18.8323 39.4378 18.75 39.6365 18.75 39.8438C18.75 40.0509 18.8323 40.2497 18.9788 40.3962C19.1253 40.5427 19.324 40.625 19.5312 40.625ZM46.0938 14.0625H45.3125V10.1562C45.3129 9.84835 45.2526 9.54339 45.1349 9.25885C45.0173 8.97431 44.8447 8.71577 44.6269 8.49805C44.4092 8.28033 44.1507 8.10771 43.8661 7.99007C43.5816 7.87243 43.2766 7.81209 42.9688 7.8125H41.4062C41.0984 7.81209 40.7934 7.87243 40.5089 7.99007C40.2243 8.10771 39.9658 8.28033 39.7481 8.49805C39.5303 8.71577 39.3577 8.97431 39.2401 9.25885C39.1224 9.54339 39.0621 9.84835 39.0625 10.1562V38.7969C39.0654 39.6416 39.3392 40.4631 39.8438 41.1406L41.4062 43.2288V44.5312C41.4062 44.7384 41.4886 44.9372 41.6351 45.0837C41.7816 45.2302 41.9803 45.3125 42.1875 45.3125C42.3947 45.3125 42.5934 45.2302 42.7399 45.0837C42.8864 44.9372 42.9688 44.7384 42.9688 44.5312V43.2287L44.5312 41.1405C45.0358 40.463 45.3096 39.6415 45.3125 38.7968V15.625H46.0938C46.3009 15.6251 46.4995 15.7075 46.646 15.854C46.7925 16.0005 46.8749 16.1991 46.875 16.4062V22.6562C46.875 22.8634 46.9573 23.0622 47.1038 23.2087C47.2503 23.3552 47.4491 23.4375 47.6562 23.4375C47.8634 23.4375 48.0622 23.3552 48.2087 23.2087C48.3552 23.0622 48.4375 22.8634 48.4375 22.6562V16.4062C48.4368 15.7849 48.1897 15.1891 47.7503 14.7497C47.3109 14.3103 46.7151 14.0632 46.0938 14.0625ZM43.75 38.7969C43.7502 39.304 43.5857 39.7975 43.2812 40.2031L42.1875 41.6719L41.0938 40.2031C40.7893 39.7975 40.6248 39.304 40.625 38.7969V37.5H43.75V38.7969ZM43.75 35.9375H40.625V14.0625H43.75V35.9375ZM43.75 12.5H40.625V10.1562C40.624 10.0534 40.6435 9.95132 40.6824 9.85607C40.7213 9.76083 40.7788 9.6743 40.8515 9.60155C40.9243 9.5288 41.0108 9.47129 41.1061 9.43239C41.2013 9.39349 41.3034 9.37398 41.4062 9.375H42.9688C43.0716 9.37398 43.1737 9.39349 43.2689 9.43239C43.3642 9.47129 43.4507 9.5288 43.5235 9.60155C43.5962 9.6743 43.6537 9.76083 43.6926 9.85607C43.7315 9.95132 43.751 10.0534 43.75 10.1562V12.5Z" fill="#00227B"/>
</g>
<defs>
<clipPath id="clip0_359_3995">
<rect width="50" height="50" fill="white"/>
</clipPath>
</defs>
</svg>
