<svg width="101" height="80" viewBox="0 0 101 80" fill="none" xmlns="http://www.w3.org/2000/svg">
<rect y="6" width="86" height="74" rx="8" fill="white"/>
<path d="M60.8124 37.0625C60.9686 37.0625 60.9686 37.0625 60.8124 37.0625L66.4374 22.6875C66.5936 22.375 66.4374 22.0625 66.2811 21.9062C66.1249 21.75 65.6561 21.5938 65.4999 21.75L51.1249 27.2188C50.9686 27.2188 50.8124 27.2188 50.8124 27.375L40.8124 37.375C39.7186 36.75 38.7811 36.2812 37.8436 35.8125C37.8436 35.3438 37.8436 34.875 37.8436 34.25V33.9375C37.6874 28.9375 34.4061 25.1875 29.5624 24.5625C28.9374 24.5625 28.3124 24.5625 27.6874 24.4062C26.7499 24.4062 25.9686 24.4062 25.1874 24.25C23.3124 23.7812 20.9686 21.9062 21.4374 19.7188V19.5625C21.4374 19.25 21.1249 18.9375 20.8124 18.7812C20.3436 18.7812 20.0311 19.0937 19.8749 19.4062C19.2499 23 19.4061 27.2188 20.6561 30.6563C22.5311 36.125 27.0624 39.7188 33.3124 40.3438C33.3124 40.3438 33.3124 40.3438 33.4686 40.3438C33.6249 40.3438 33.7811 40.3438 33.9374 40.1875C34.2499 40.9688 34.7186 41.9062 35.3436 42.8438L27.8436 50.3438L24.2499 53.9375L22.0624 56.125C20.4999 57.6875 20.4999 60.1875 22.0624 61.5938L26.4374 65.9688C27.2186 66.75 28.1561 67.0625 29.2499 67.0625H29.4061C30.3436 67.0625 31.2811 66.5938 32.0624 65.9688L44.0936 53.7812C44.4061 54.0938 44.7186 54.4062 45.0311 54.7188C48.9374 58.625 53.1561 62.0625 56.5936 64.25C59.0936 65.8125 61.1249 66.75 62.5311 66.75C63.1561 66.75 63.7811 66.5938 64.2499 66.125C67.0624 63.3125 59.0936 53.1562 52.8436 46.9062C52.5311 46.5938 52.2186 46.2812 51.9061 45.9688L60.8124 37.0625ZM64.4061 23.7812L63.3124 26.2813C62.6874 25.9688 62.0624 25.3438 61.7499 24.7188L64.4061 23.7812ZM50.9686 33.7813C51.4374 33.3125 51.9061 33.1562 52.5311 33.1562H54.0936C54.5624 33.1562 54.8749 33.4688 54.8749 33.9375V35.5C54.8749 36.125 54.5624 36.75 54.2499 37.2188L48.4686 43C47.2186 41.9062 45.9686 40.9688 44.8749 40.0312L50.9686 33.7813ZM50.4999 30.9688C50.4999 31.5938 50.3436 32.2188 49.8749 32.5312L43.4686 38.9375C42.9999 38.625 42.5311 38.3125 42.2186 38L50.4999 29.7188V30.9688ZM33.1561 38.7812C27.6874 38 23.7811 34.875 22.0624 30.1875C21.4374 28 21.1249 25.6562 21.1249 23.4688C22.0624 24.5625 23.4686 25.5 24.8749 25.8125C25.8124 25.9688 26.9061 25.9688 27.8436 25.9688C28.4686 25.9688 29.0936 25.9688 29.5624 25.9688C33.4686 26.4375 36.2811 29.5625 36.4374 33.7813V34.0938C36.4374 34.875 36.4374 35.3438 36.4374 35.3438L33.1561 38.7812ZM37.0624 37.0625C38.1561 37.5312 39.2499 38 40.4999 38.9375C41.2811 39.4062 42.0624 39.875 42.9999 40.6562C42.9999 40.6562 42.9999 40.6562 43.1561 40.6562C43.9374 41.2812 44.7186 41.9062 45.6561 42.5312C44.7186 44.7188 42.8436 46.5938 40.6561 47.5312C40.0311 46.75 39.2499 45.8125 38.7811 45.0312C38.7811 45.0312 38.7811 45.0313 38.7811 44.875C38.1561 43.9375 37.5311 43.1562 37.0624 42.375C36.2811 41.125 35.6561 39.875 35.1874 38.9375L37.0624 37.0625ZM37.9999 46.75C38.9374 47.8438 39.8749 49.0938 40.9686 50.3438L34.8749 56.4375L31.5936 53.1562L37.9999 46.75ZM36.1249 44.25C36.4374 44.7187 36.7499 45.0312 37.0624 45.5L30.4999 52.0625L29.4061 50.9688L36.1249 44.25ZM30.8124 64.875C29.8749 65.8125 28.4686 65.8125 27.5311 64.875L23.1561 60.5C22.9999 60.1875 22.6874 60.0312 22.6874 59.7188C22.5311 59.4062 22.5311 59.25 22.5311 58.9375C22.5311 58.625 22.5311 58.3125 22.6874 58.1562C22.8436 57.8438 22.9999 57.6875 23.1561 57.375L25.1874 55.3438L25.8124 54.7188L33.4686 62.375L30.8124 64.875ZM34.7186 61.125L26.9061 53.3125L28.1561 52.0625L29.7186 53.625L34.0936 58L35.6561 59.5625L34.7186 61.125ZM35.9686 57.5312L41.9061 51.5938C42.2186 51.9062 42.5311 52.375 42.9999 52.6875L37.0624 58.625L35.9686 57.5312ZM62.9999 65.0312C62.6874 65.3438 61.1249 65.3438 57.3749 63C53.9374 60.8125 50.0311 57.5312 46.1249 53.625C45.6561 53.1562 45.1874 52.6875 44.7186 52.2188C43.9374 51.4375 43.3124 50.6562 42.6874 49.875C42.3749 49.5625 42.0624 49.25 41.7499 48.7813C43.9374 47.6875 45.8124 45.8125 46.9061 43.625C47.2186 43.9375 47.5311 44.0938 47.8436 44.4062C48.6249 45.0312 49.4061 45.8125 50.1874 46.4375C50.6561 46.9063 51.1249 47.375 51.5936 47.8438C60.9686 57.375 63.9374 64.0938 62.9999 65.0312ZM50.8124 45.0312C50.4999 44.7187 50.0311 44.25 49.7186 43.9375L55.4999 38.1562C55.4999 38.1562 55.4999 38.1562 55.6561 38C56.1249 37.5312 56.7499 37.375 57.3749 37.375H58.6249L50.8124 45.0312ZM57.0624 35.9688C56.9061 35.9688 56.7499 35.9688 56.4374 35.9688C56.4374 35.8125 56.4374 35.6562 56.4374 35.3438V33.7813C56.4374 32.5313 55.3436 31.4375 54.0936 31.4375H52.5311C52.3749 31.4375 52.2186 31.4375 51.9061 31.4375C51.9061 31.2813 51.9061 31.125 51.9061 30.8125V28.4688L60.0311 25.3437C60.4999 26.4375 61.4374 27.375 62.5311 27.8438L59.4061 35.9688H57.0624Z" fill="#00227B"/>
<g filter="url(#filter0_d_188_9808)">
<circle cx="82.5" cy="14.5" r="14.5" fill="white"/>
<path d="M78.861 19.132C78.1643 19.132 77.563 18.967 77.057 18.637C76.5583 18.2997 76.1733 17.834 75.902 17.24C75.638 16.6387 75.506 15.942 75.506 15.15C75.506 14.358 75.638 13.665 75.902 13.071C76.1733 12.4697 76.5583 12.004 77.057 11.674C77.563 11.3367 78.1643 11.168 78.861 11.168C79.5577 11.168 80.1553 11.3367 80.654 11.674C81.1527 12.004 81.534 12.4697 81.798 13.071C82.0693 13.665 82.205 14.358 82.205 15.15C82.205 15.942 82.0693 16.6387 81.798 17.24C81.534 17.834 81.1527 18.2997 80.654 18.637C80.1553 18.967 79.5577 19.132 78.861 19.132ZM78.861 18.087C79.279 18.087 79.6493 17.9697 79.972 17.735C80.302 17.5003 80.5587 17.163 80.742 16.723C80.9253 16.283 81.017 15.7587 81.017 15.15C81.017 14.5413 80.9253 14.017 80.742 13.577C80.5587 13.137 80.302 12.7997 79.972 12.565C79.6493 12.3303 79.279 12.213 78.861 12.213C78.4357 12.213 78.0617 12.3303 77.739 12.565C77.4163 12.7997 77.1633 13.137 76.98 13.577C76.7967 14.017 76.705 14.5413 76.705 15.15C76.705 15.7587 76.7967 16.283 76.98 16.723C77.1633 17.163 77.4163 17.5003 77.739 17.735C78.0617 17.9697 78.4357 18.087 78.861 18.087ZM85.9686 19.132C85.47 19.132 85.0153 19.044 84.6046 18.868C84.2013 18.6847 83.8786 18.4097 83.6366 18.043C83.3946 17.6763 83.2663 17.218 83.2516 16.668H84.4066C84.4213 17.0787 84.5606 17.427 84.8246 17.713C85.096 17.9917 85.4773 18.131 85.9686 18.131C86.438 18.131 86.7973 18.0027 87.0466 17.746C87.296 17.482 87.4206 17.1557 87.4206 16.767C87.4206 16.2977 87.252 15.9493 86.9146 15.722C86.5846 15.4947 86.1776 15.381 85.6936 15.381H85.1216V14.413H85.7046C86.1373 14.413 86.4856 14.3103 86.7496 14.105C87.021 13.8997 87.1566 13.61 87.1566 13.236C87.1566 12.9207 87.0503 12.664 86.8376 12.466C86.6323 12.268 86.339 12.169 85.9576 12.169C85.5616 12.169 85.25 12.2863 85.0226 12.521C84.7953 12.7483 84.6706 13.0343 84.6486 13.379H83.4936C83.5083 12.9317 83.6183 12.543 83.8236 12.213C84.0363 11.883 84.326 11.6263 84.6926 11.443C85.0593 11.2597 85.481 11.168 85.9576 11.168C86.471 11.168 86.9 11.2597 87.2446 11.443C87.5966 11.619 87.8606 11.861 88.0366 12.169C88.22 12.4697 88.3116 12.7997 88.3116 13.159C88.3116 13.5697 88.198 13.929 87.9706 14.237C87.7433 14.545 87.439 14.7503 87.0576 14.853C87.4976 14.9483 87.8606 15.1647 88.1466 15.502C88.4326 15.832 88.5756 16.261 88.5756 16.789C88.5756 17.2143 88.4766 17.6067 88.2786 17.966C88.0806 18.318 87.7873 18.6003 87.3986 18.813C87.01 19.0257 86.5333 19.132 85.9686 19.132Z" fill="black"/>
</g>
<defs>
<filter id="filter0_d_188_9808" x="64" y="0" width="37" height="37" filterUnits="userSpaceOnUse" color-interpolation-filters="sRGB">
<feFlood flood-opacity="0" result="BackgroundImageFix"/>
<feColorMatrix in="SourceAlpha" type="matrix" values="0 0 0 0 0 0 0 0 0 0 0 0 0 0 0 0 0 0 127 0" result="hardAlpha"/>
<feOffset dy="4"/>
<feGaussianBlur stdDeviation="2"/>
<feComposite in2="hardAlpha" operator="out"/>
<feColorMatrix type="matrix" values="0 0 0 0 0 0 0 0 0 0 0 0 0 0 0 0 0 0 0.25 0"/>
<feBlend mode="normal" in2="BackgroundImageFix" result="effect1_dropShadow_188_9808"/>
<feBlend mode="normal" in="SourceGraphic" in2="effect1_dropShadow_188_9808" result="shape"/>
</filter>
</defs>
</svg>
