
<svg width="31" height="30" viewBox="0 0 31 30" fill="none" xmlns="http://www.w3.org/2000/svg">
<rect x="0.5" width="30" height="30" rx="15" fill="#E6EBF6"/>
<path d="M10.9998 9.80005C9.62068 9.80005 8.29804 10.3479 7.32285 11.3231C6.34766 12.2983 5.7998 13.6209 5.7998 15C5.7998 16.3792 6.34766 17.7018 7.32285 18.677C8.29804 19.6522 9.62068 20.2 10.9998 20.2C12.3789 20.2 13.7016 19.6522 14.6768 18.677C15.6519 17.7018 16.1998 16.3792 16.1998 15C16.1998 13.6209 15.6519 12.2983 14.6768 11.3231C13.7016 10.3479 12.3789 9.80005 10.9998 9.80005ZM19.1998 10.2C17.7638 10.2 16.5998 12.3492 16.5998 15C16.5998 15.4972 16.6406 15.9764 16.7166 16.4272C16.8178 17.0284 16.9814 17.5788 17.1934 18.0532C17.2994 18.2904 17.4174 18.5084 17.5458 18.704C17.8026 19.0952 18.101 19.3972 18.4266 19.5844C18.671 19.7244 18.9306 19.8 19.1998 19.8C19.469 19.8 19.7286 19.7244 19.973 19.5844C20.2986 19.3972 20.597 19.0952 20.8538 18.704C20.9822 18.5084 21.1002 18.2904 21.2062 18.0532C21.4182 17.5792 21.5818 17.0284 21.683 16.4272C21.759 15.9764 21.7998 15.4972 21.7998 15C21.7998 12.3492 20.6358 10.2 19.1998 10.2ZM23.1998 10.6C23.0962 10.6 22.9962 10.6692 22.9026 10.798C22.8398 10.8836 22.7798 10.9956 22.7234 11.1312C22.695 11.1988 22.6674 11.2724 22.641 11.3516C22.5878 11.5096 22.5382 11.69 22.493 11.8888C22.4026 12.2868 22.3294 12.7612 22.2786 13.2876C22.2534 13.5508 22.2338 13.8272 22.2202 14.1136C22.2066 14.3996 22.1998 14.6964 22.1998 15C22.1998 15.3036 22.2066 15.6004 22.2202 15.8868C22.2334 16.1732 22.253 16.4496 22.2786 16.7128C22.3294 17.2392 22.4026 17.7132 22.493 18.1116C22.5382 18.3108 22.5878 18.4908 22.641 18.6488C22.6674 18.728 22.695 18.8016 22.7234 18.8692C22.7802 19.0048 22.8402 19.1168 22.9026 19.2024C22.9962 19.3308 23.0962 19.4 23.1998 19.4C23.7522 19.4 24.1998 17.43 24.1998 15C24.1998 12.57 23.7522 10.6 23.1998 10.6Z" fill="#00227B"/>
</svg>
