<svg width="31" height="30" viewBox="0 0 31 30" fill="none" xmlns="http://www.w3.org/2000/svg">
<rect x="0.5" width="30" height="30" rx="15" fill="#E6EBF6"/>
<path d="M21.3838 12.1324C21.3838 12.2739 21.3838 12.4154 21.3838 12.5366C21.3838 16.72 18.1907 21.55 12.3705 21.55C10.5718 21.55 8.91465 21.0246 7.5 20.1353C7.74251 20.1556 8.00523 20.1758 8.24775 20.1758C9.72303 20.1758 11.0973 19.6705 12.1886 18.8217C10.7941 18.8015 9.62198 17.8719 9.238 16.6189C9.4401 16.6593 9.62198 16.6795 9.84428 16.6795C10.1272 16.6795 10.4101 16.6391 10.6729 16.5583C9.21779 16.2754 8.12649 15.0022 8.12649 13.4663C8.12649 13.4461 8.12649 13.4461 8.12649 13.4258C8.55089 13.6684 9.03591 13.8098 9.56135 13.83C8.71256 13.2642 8.1467 12.2941 8.1467 11.1826C8.1467 10.5965 8.30837 10.0509 8.57109 9.58607C10.1272 11.506 12.4715 12.7589 15.0987 12.9004C15.0381 12.6781 15.0179 12.4154 15.0179 12.1729C15.0179 10.4147 16.4325 9 18.1907 9C19.1002 9 19.9287 9.38398 20.4946 9.99026C21.2221 9.84879 21.889 9.58607 22.5155 9.2223C22.273 9.97005 21.7678 10.5763 21.1211 10.9805C21.7678 10.8997 22.3741 10.738 22.9399 10.4753C22.5357 11.122 22.0103 11.6878 21.3838 12.1324Z" fill="#00227B"/>
</svg>
