<svg width="80" height="71" viewBox="0 0 80 71" fill="none" xmlns="http://www.w3.org/2000/svg">
<g clip-path="url(#clip0_188_9717)">
<path d="M35.4167 24.125H6.25C2.79961 24.1284 0.00341797 26.9246 0 30.375V54.3333C0.00341797 57.7837 2.79961 60.5799 6.25 60.5833H35.4167C38.8671 60.5799 41.6633 57.7837 41.6667 54.3333V30.375C41.6632 26.9246 38.867 24.1284 35.4167 24.125ZM39.5833 54.3333C39.5833 56.6345 37.7178 58.5 35.4166 58.5H6.25C3.94883 58.5 2.0833 56.6346 2.0833 54.3333V30.375C2.0833 28.0738 3.94883 26.2083 6.25 26.2083H35.4167C37.7179 26.2083 39.5834 28.0738 39.5834 30.375V54.3333H39.5833Z" fill="white"/>
<path d="M40.625 30.375H1.04175V32.4583H40.625V30.375Z" fill="white"/>
<path d="M10.4166 27.25H5.20825V29.3333H10.4166V27.25Z" fill="white"/>
<path d="M14.5833 27.25H12.5V29.3333H14.5833V27.25Z" fill="white"/>
<path d="M18.75 27.25H16.6667V29.3333H18.75V27.25Z" fill="white"/>
<path d="M43.75 29.3333H42.7083V31.4166H43.75C46.0511 31.4166 47.9167 33.282 47.9167 35.5833V61.6249C47.9167 63.9261 46.0512 65.7916 43.75 65.7916H14.5833C12.2821 65.7916 10.4166 63.9262 10.4166 61.6249H8.33325C8.33667 65.0753 11.1329 67.8715 14.5833 67.8749H43.75C47.2003 67.8715 49.9965 65.0753 50 61.6249V35.5833C49.9965 32.133 47.2003 29.3368 43.75 29.3333Z" fill="white"/>
<path d="M48.9583 35.5833H42.7083V37.6666H48.9583V35.5833Z" fill="white"/>
<path d="M9.9999 36.4167L8.7499 34.75L4.5832 37.875C4.5042 37.9342 4.43408 38.0044 4.3749 38.0833C4.02969 38.5436 4.12305 39.1965 4.5832 39.5416L8.7499 42.6666L9.9999 40.9999L6.94473 38.7082L9.9999 36.4167Z" fill="white"/>
<path d="M17.2917 37.875L13.125 34.75L11.875 36.4167L14.9302 38.7084L11.875 41L13.125 42.6667L17.2917 39.5417C17.3707 39.4825 17.4408 39.4123 17.5 39.3334C17.8452 38.873 17.7519 38.2202 17.2917 37.875Z" fill="white"/>
<path d="M29.7917 45.7917L28.5417 44.125L24.375 47.25C24.296 47.3092 24.2259 47.3794 24.1667 47.4583C23.8215 47.9186 23.9147 48.5715 24.375 48.9166L28.5417 52.0416L29.7917 50.3749L26.7365 48.0832L29.7917 45.7917Z" fill="white"/>
<path d="M37.0832 47.25L32.9165 44.125L31.6665 45.7917L34.7217 48.0834L31.6666 50.375L32.9166 52.0417L37.0833 48.9167C37.1623 48.8575 37.2324 48.7873 37.2916 48.7084C37.6367 48.248 37.5435 47.5952 37.0832 47.25Z" fill="white"/>
<path d="M26.0417 35.5833H19.7917V37.6666H26.0417V35.5833Z" fill="white"/>
<path d="M30.2083 35.5833H28.125V37.6666H30.2083V35.5833Z" fill="white"/>
<path d="M34.375 35.5833H32.2917V37.6666H34.375V35.5833Z" fill="white"/>
<path d="M34.375 39.75H28.125V41.8333H34.375V39.75Z" fill="white"/>
<path d="M26.0416 39.75H23.9583V41.8333H26.0416V39.75Z" fill="white"/>
<path d="M21.875 39.75H19.7917V41.8333H21.875V39.75Z" fill="white"/>
<path d="M13.5417 44.9583H7.29175V47.0416H13.5417V44.9583Z" fill="white"/>
<path d="M17.7083 44.9583H15.625V47.0416H17.7083V44.9583Z" fill="white"/>
<path d="M21.875 44.9583H19.7917V47.0416H21.875V44.9583Z" fill="white"/>
<path d="M21.875 49.125H15.625V51.2083H21.875V49.125Z" fill="white"/>
<path d="M13.5416 49.125H11.4583V51.2083H13.5416V49.125Z" fill="white"/>
<path d="M9.37505 49.125H7.29175V51.2083H9.37505V49.125Z" fill="white"/>
<path d="M33.3335 53.2917H7.29175V55.375H33.3335V53.2917Z" fill="white"/>
<path d="M45.8333 40.7917H43.75V42.875H45.8333V40.7917Z" fill="white"/>
<path d="M45.8333 44.9583H43.75V47.0416H45.8333V44.9583Z" fill="white"/>
<path d="M45.8333 49.125H43.75V51.2083H45.8333V49.125Z" fill="white"/>
</g>
<g filter="url(#filter0_d_188_9717)">
<circle cx="61.5" cy="14.5" r="14.5" fill="white"/>
<path d="M57.861 19.132C57.1643 19.132 56.563 18.967 56.057 18.637C55.5583 18.2997 55.1733 17.834 54.902 17.24C54.638 16.6387 54.506 15.942 54.506 15.15C54.506 14.358 54.638 13.665 54.902 13.071C55.1733 12.4697 55.5583 12.004 56.057 11.674C56.563 11.3367 57.1643 11.168 57.861 11.168C58.5577 11.168 59.1553 11.3367 59.654 11.674C60.1527 12.004 60.534 12.4697 60.798 13.071C61.0693 13.665 61.205 14.358 61.205 15.15C61.205 15.942 61.0693 16.6387 60.798 17.24C60.534 17.834 60.1527 18.2997 59.654 18.637C59.1553 18.967 58.5577 19.132 57.861 19.132ZM57.861 18.087C58.279 18.087 58.6493 17.9697 58.972 17.735C59.302 17.5003 59.5587 17.163 59.742 16.723C59.9253 16.283 60.017 15.7587 60.017 15.15C60.017 14.5413 59.9253 14.017 59.742 13.577C59.5587 13.137 59.302 12.7997 58.972 12.565C58.6493 12.3303 58.279 12.213 57.861 12.213C57.4357 12.213 57.0617 12.3303 56.739 12.565C56.4163 12.7997 56.1633 13.137 55.98 13.577C55.7967 14.017 55.705 14.5413 55.705 15.15C55.705 15.7587 55.7967 16.283 55.98 16.723C56.1633 17.163 56.4163 17.5003 56.739 17.735C57.0617 17.9697 57.4357 18.087 57.861 18.087ZM62.2647 19V18.164C62.7634 17.768 63.24 17.3683 63.6947 16.965C64.1494 16.5617 64.5527 16.1657 64.9047 15.777C65.264 15.381 65.5464 14.996 65.7517 14.622C65.957 14.2407 66.0597 13.874 66.0597 13.522C66.0597 13.2873 66.0194 13.0673 65.9387 12.862C65.858 12.6493 65.726 12.4807 65.5427 12.356C65.3594 12.224 65.1137 12.158 64.8057 12.158C64.3437 12.158 63.9954 12.3047 63.7607 12.598C63.5334 12.8913 63.4234 13.2433 63.4307 13.654H62.2977C62.305 13.1113 62.4187 12.6567 62.6387 12.29C62.866 11.9233 63.1667 11.6447 63.5407 11.454C63.922 11.2633 64.351 11.168 64.8277 11.168C65.5537 11.168 66.133 11.3733 66.5657 11.784C67.0057 12.1873 67.2257 12.752 67.2257 13.478C67.2257 13.9107 67.1194 14.3397 66.9067 14.765C66.7014 15.1903 66.43 15.601 66.0927 15.997C65.7627 16.3857 65.407 16.7523 65.0257 17.097C64.6444 17.4417 64.2814 17.7533 63.9367 18.032H67.4567V19H62.2647Z" fill="black"/>
</g>
<defs>
<filter id="filter0_d_188_9717" x="43" y="0" width="37" height="37" filterUnits="userSpaceOnUse" color-interpolation-filters="sRGB">
<feFlood flood-opacity="0" result="BackgroundImageFix"/>
<feColorMatrix in="SourceAlpha" type="matrix" values="0 0 0 0 0 0 0 0 0 0 0 0 0 0 0 0 0 0 127 0" result="hardAlpha"/>
<feOffset dy="4"/>
<feGaussianBlur stdDeviation="2"/>
<feComposite in2="hardAlpha" operator="out"/>
<feColorMatrix type="matrix" values="0 0 0 0 0 0 0 0 0 0 0 0 0 0 0 0 0 0 0.25 0"/>
<feBlend mode="normal" in2="BackgroundImageFix" result="effect1_dropShadow_188_9717"/>
<feBlend mode="normal" in="SourceGraphic" in2="effect1_dropShadow_188_9717" result="shape"/>
</filter>
<clipPath id="clip0_188_9717">
<rect y="21" width="50" height="50" rx="8" fill="white"/>
</clipPath>
</defs>
</svg>
