<svg width="60" height="60" viewBox="0 0 60 60" fill="none" xmlns="http://www.w3.org/2000/svg">
<g clip-path="url(#clip0_247_8178)">
<mask id="mask0_247_8178" style="mask-type:luminance" maskUnits="userSpaceOnUse" x="0" y="0" width="60" height="60">
<path d="M60 0H0V60H60V0Z" fill="white"/>
</mask>
<g mask="url(#mask0_247_8178)">
<path d="M37.6902 4C33.8273 4.00295 30.0853 5.34755 27.104 7.80394C24.1226 10.2603 22.0871 13.676 21.3452 17.467C21.6141 17.4221 21.8868 17.404 22.1592 17.413C22.4679 17.4023 22.7769 17.4204 23.0822 17.467L23.8962 17.63C24.4387 15.1785 25.6248 12.9159 27.3326 11.0753C29.0403 9.23472 31.2079 7.88267 33.612 7.15845C36.0161 6.43422 38.5698 6.364 41.0101 6.95502C43.4503 7.54604 45.6889 8.77692 47.4952 10.5209C49.3016 12.2648 50.6103 14.4588 51.2866 16.8768C51.963 19.2948 51.9825 21.8494 51.3431 24.2775C50.7038 26.7055 49.4287 28.9192 47.6492 30.6906C45.8697 32.4619 43.6502 33.7268 41.2192 34.355C41.2684 34.4366 41.2875 34.5328 41.2732 34.627C41.4446 35.3748 41.4815 36.1472 41.3822 36.908C45.3674 35.9894 48.8757 33.6376 51.2394 30.3002C53.6032 26.9628 54.6574 22.8729 54.2015 18.8087C53.7455 14.7445 51.8112 10.9898 48.7666 8.25923C45.7221 5.52862 41.7799 4.01272 37.6902 4Z" fill="#00227B" stroke="white" stroke-width="1.4"/>
<path d="M46.974 17.902C46.8676 17.5847 46.6733 17.304 46.4139 17.0925C46.1544 16.881 45.8403 16.7473 45.508 16.707L41.108 16.218L39.262 12.145C39.1262 11.84 38.9054 11.5806 38.6262 11.3976C38.3469 11.2146 38.0209 11.1158 37.687 11.113C37.3523 11.1119 37.0246 11.2091 36.7446 11.3926C36.4646 11.576 36.2446 11.8377 36.112 12.145L34.265 16.218L29.812 16.761C29.4791 16.7995 29.1641 16.9324 28.9043 17.1442C28.6445 17.3559 28.4508 17.6377 28.346 17.956C28.2449 18.27 28.2373 18.6066 28.3241 18.9247C28.411 19.2429 28.5884 19.529 28.835 19.748L32.148 22.789L31.279 27.133C31.2075 27.4543 31.2308 27.7894 31.346 28.0977C31.4613 28.406 31.6635 28.6742 31.9282 28.8697C32.1929 29.0653 32.5087 29.1798 32.8373 29.1994C33.1658 29.219 33.4929 29.1428 33.779 28.98L37.689 26.753L41.599 28.98C41.862 29.1339 42.1636 29.2093 42.468 29.197C42.8374 29.1975 43.1979 29.0837 43.5 28.871C43.7695 28.6793 43.9755 28.4114 44.0916 28.1017C44.2078 27.792 44.2288 27.4547 44.152 27.133L43.175 22.733L46.487 19.692C46.7336 19.473 46.9111 19.1869 46.9979 18.8687C47.0847 18.5506 47.0771 18.214 46.976 17.9L46.974 17.902ZM41 21.323C40.8366 21.4824 40.7161 21.6804 40.6497 21.8988C40.5832 22.1171 40.573 22.3487 40.62 22.572L41.272 25.885L38.34 24.202C38.1398 24.0958 37.9166 24.0402 37.69 24.0402C37.4634 24.0402 37.2402 24.0958 37.04 24.202L34.108 25.885L34.76 22.572C34.8072 22.3487 34.7971 22.1171 34.7306 21.8987C34.6642 21.6803 34.5436 21.4823 34.38 21.323L31.88 19.042L35.247 18.662C35.4679 18.6289 35.6773 18.5423 35.8571 18.4099C36.037 18.2774 36.1818 18.1031 36.279 17.902L37.691 14.861L39.103 17.902C39.1912 18.1095 39.3335 18.2895 39.515 18.4232C39.6966 18.5569 39.9107 18.6394 40.135 18.662L43.502 19.042L41 21.323Z" fill="#00227B" stroke="white" stroke-width="1.4"/>
<path d="M39.591 41.0351C39.5863 40.4725 39.4572 39.9179 39.2131 39.4111C38.969 38.9042 38.6159 38.4575 38.179 38.1031C38.4584 37.6847 38.6463 37.2122 38.7306 36.7162C38.8148 36.2203 38.7935 35.7122 38.668 35.2251C38.4477 34.3745 37.9476 33.6227 37.2481 33.0909C36.5486 32.559 35.6906 32.278 34.812 32.2931H25.852C26.2988 30.8781 26.6079 29.4234 26.775 27.9491C26.8783 26.6619 26.8235 25.3669 26.612 24.0931C26.4523 23.0993 25.9832 22.1813 25.2715 21.4696C24.5598 20.7579 23.6417 20.2888 22.648 20.1291C21.8514 20.0007 21.0358 20.1825 20.3691 20.6371C19.7025 21.0917 19.2354 21.7846 19.064 22.5731L18.304 26.2111C17.9239 28.0918 16.9555 29.8029 15.539 31.0971L11.249 35.1701C10.8574 35.5538 10.3313 35.7691 9.78302 35.7701H6.24902C5.9175 35.7701 5.59956 35.9018 5.36514 36.1362C5.13071 36.3706 4.99902 36.6885 4.99902 37.0201C4.99902 37.3516 5.13071 37.6695 5.36514 37.9039C5.59956 38.1384 5.9175 38.2701 6.24902 38.2701H9.83302C11.0199 38.2766 12.1644 37.8299 13.033 37.0211L17.323 32.9481C19.0698 31.2748 20.2794 29.1197 20.798 26.7571L21.558 23.1731C21.5884 23.0154 21.6793 22.876 21.8113 22.7846C21.9433 22.6932 22.1058 22.6571 22.264 22.6841C22.7395 22.7626 23.1784 22.9881 23.5192 23.3289C23.86 23.6697 24.0855 24.1086 24.164 24.5841C24.3323 25.6253 24.3689 26.6837 24.273 27.7341C24.0439 29.581 23.5691 31.389 22.861 33.1101C22.7848 33.304 22.755 33.513 22.7739 33.7205C22.7929 33.928 22.86 34.1281 22.97 34.3051C23.0885 34.469 23.2434 34.6033 23.4224 34.6975C23.6014 34.7917 23.7998 34.8432 24.002 34.8481H26.12L26.066 35.1201C24.545 41.6901 19.166 41.2011 18.952 41.1471C18.7877 41.1244 18.6204 41.1369 18.4613 41.1838C18.3021 41.2307 18.1548 41.3109 18.029 41.4191C17.7681 41.6181 17.5932 41.9093 17.54 42.2331C17.5173 42.3974 17.5298 42.5647 17.5767 42.7238C17.6236 42.883 17.7038 43.0303 17.812 43.1561C18.011 43.4169 18.3022 43.5919 18.626 43.6451C18.8234 43.6852 19.0246 43.7033 19.226 43.6991C21.4 43.6915 23.5068 42.9446 25.2 41.5811C25.3414 42.518 25.8253 43.3693 26.558 43.9701C26.1647 44.5865 25.9565 45.3029 25.958 46.0341C25.9529 46.5851 26.0724 47.1302 26.3076 47.6285C26.5427 48.1269 26.8875 48.5657 27.316 48.9121C26.8899 49.5361 26.6626 50.2744 26.664 51.0301C26.6681 51.5363 26.7792 52.0359 26.99 52.4961C24.2402 52.9089 21.4626 53.1095 18.682 53.0961H18.193C17.1809 53.092 16.1864 52.8307 15.303 52.3367C14.4197 51.8427 13.6764 51.1323 13.143 50.2721L12.491 49.2401C12.3778 49.0543 12.2181 48.9012 12.0276 48.7959C11.8372 48.6907 11.6226 48.637 11.405 48.6401H6.24902C5.9175 48.6401 5.59956 48.7718 5.36514 49.0062C5.13071 49.2406 4.99902 49.5585 4.99902 49.8901C4.99902 50.2216 5.13071 50.5395 5.36514 50.774C5.59956 51.0084 5.9175 51.1401 6.24902 51.1401H10.702L10.974 51.5741C11.7282 52.7985 12.7823 53.8102 14.0366 54.5135C15.2909 55.2168 16.704 55.5884 18.142 55.5931H18.848C22.3508 55.6347 25.8474 55.2886 29.274 54.5611C29.6426 54.6856 30.0265 54.7586 30.415 54.7781H34.271C34.9533 54.778 35.6227 54.5918 36.2071 54.2397C36.7916 53.8875 37.2689 53.3826 37.5877 52.7794C37.9066 52.1761 38.0549 51.4974 38.0167 50.8161C37.9785 50.1348 37.7553 49.4769 37.371 48.9131C37.7952 48.5628 38.1368 48.1233 38.3716 47.6258C38.6063 47.1283 38.7284 46.5852 38.729 46.0351C38.7155 45.3061 38.5084 44.5937 38.129 43.9711C38.5906 43.6358 38.9647 43.1944 39.2197 42.684C39.4747 42.1737 39.6031 41.6095 39.594 41.0391L39.591 41.0351ZM29.708 34.7901H34.975C35.2991 34.7901 35.6099 34.9188 35.8391 35.148C36.0683 35.3772 36.197 35.688 36.197 36.0121C36.197 36.3362 36.0683 36.647 35.8391 36.8761C35.6099 37.1053 35.2991 37.2341 34.975 37.2341H29.708C29.3779 37.2304 29.0623 37.0977 28.8289 36.8642C28.5954 36.6308 28.4627 36.3152 28.459 35.9851C28.4828 35.6668 28.6236 35.3686 28.8542 35.1479C29.0849 34.9273 29.389 34.7998 29.708 34.7901ZM34.324 52.2211H30.468C30.1439 52.2211 29.8331 52.0923 29.6039 51.8632C29.3748 51.634 29.246 51.3232 29.246 50.9991C29.246 50.675 29.3748 50.3642 29.6039 50.135C29.8331 49.9058 30.1439 49.7771 30.468 49.7771H34.324C34.6458 49.778 34.9548 49.9026 35.1873 50.125C35.4198 50.3474 35.5579 50.6507 35.573 50.9721C35.5604 51.2993 35.4248 51.6097 35.1932 51.8413C34.9617 52.0728 34.6512 52.2085 34.324 52.2211ZM35.03 47.2211H29.763C29.4315 47.2211 29.1136 47.0894 28.8791 46.855C28.6447 46.6205 28.513 46.3026 28.513 45.9711C28.513 45.6396 28.6447 45.3216 28.8791 45.0872C29.1136 44.8528 29.4315 44.7211 29.763 44.7211H35.03C35.3615 44.7211 35.6795 44.8528 35.9139 45.0872C36.1483 45.3216 36.28 45.6396 36.28 45.9711C36.28 46.3026 36.1483 46.6205 35.9139 46.855C35.6795 47.0894 35.3615 47.2211 35.03 47.2211ZM35.844 42.2211H28.893C28.5615 42.2211 28.2436 42.0894 28.0091 41.855C27.7747 41.6205 27.643 41.3026 27.643 40.9711C27.643 40.6396 27.7747 40.3216 28.0091 40.0872C28.2436 39.8528 28.5615 39.7211 28.893 39.7211H35.844C36.1742 39.7247 36.4897 39.8575 36.7232 40.0909C36.9566 40.3244 37.0894 40.6399 37.093 40.9701C37.0971 41.1357 37.0676 41.3004 37.0064 41.4543C36.9452 41.6082 36.8535 41.7482 36.7369 41.8658C36.6202 41.9834 36.481 42.0762 36.3276 42.1386C36.1741 42.2011 36.0097 42.2318 35.844 42.2291V42.2211Z" fill="#00227B" stroke="white" stroke-width="1.4"/>
</g>
</g>
<defs>
<clipPath id="clip0_247_8178">
<rect width="60" height="60" fill="white"/>
</clipPath>
</defs>
</svg>
